<mxfile host="app.diagrams.net" agent="Mozilla/5.0 (Windows NT 10.0; Win64; x64) AppleWebKit/537.36 (KHTML, like Gecko) Chrome/127.0.0.0 Safari/537.36 Edg/127.0.0.0" version="28.0.3">
  <diagram name="第 1 页" id="pk2usihdkqRRHgO4zgFY">
    <mxGraphModel dx="862" dy="442" grid="1" gridSize="10" guides="1" tooltips="1" connect="1" arrows="1" fold="1" page="1" pageScale="1" pageWidth="827" pageHeight="1169" math="0" shadow="0">
      <root>
        <mxCell id="0" />
        <mxCell id="1" parent="0" />
        <mxCell id="vySY3hTcC_jMdo1drTxV-1" value="&lt;p class=&quot;MsoNormal&quot; style=&quot;line-height:18.0pt;mso-line-height-rule:exactly&quot;&gt;&lt;b&gt;&lt;span lang=&quot;EN-US&quot; style=&quot;font-size:12.0pt;mso-bidi-font-size:11.0pt;font-family:&amp;quot;Times New Roman&amp;quot;,serif&quot;&gt;4.2.3&lt;/span&gt;&lt;/b&gt;&lt;b&gt;&lt;span style=&quot;font-size:12.0pt;mso-bidi-font-size:11.0pt;mso-ascii-font-family:&amp;quot;Times New Roman&amp;quot;;&lt;br/&gt;mso-hansi-font-family:&amp;quot;Times New Roman&amp;quot;;mso-bidi-font-family:&amp;quot;Times New Roman&amp;quot;&quot;&gt;创新点三：研发了信息与物理融合的&lt;/span&gt;&lt;/b&gt;&lt;b&gt;&lt;span lang=&quot;EN-US&quot; style=&quot;font-size:12.0pt;mso-bidi-font-size:11.0pt;font-family:&amp;quot;Times New Roman&amp;quot;,serif&quot;&gt;&quot;&lt;/span&gt;&lt;/b&gt;&lt;b&gt;&lt;span style=&quot;font-size:12.0pt;mso-bidi-font-size:11.0pt;mso-ascii-font-family:&amp;quot;Times New Roman&amp;quot;;&lt;br/&gt;mso-hansi-font-family:&amp;quot;Times New Roman&amp;quot;;mso-bidi-font-family:&amp;quot;Times New Roman&amp;quot;&quot;&gt;五位一体&lt;/span&gt;&lt;/b&gt;&lt;b&gt;&lt;span lang=&quot;EN-US&quot; style=&quot;font-size:12.0pt;mso-bidi-font-size:11.0pt;font-family:&amp;quot;Times New Roman&amp;quot;,serif&quot;&gt;&quot;&lt;/span&gt;&lt;/b&gt;&lt;b&gt;&lt;span style=&quot;font-size:12.0pt;mso-bidi-font-size:11.0pt;mso-ascii-font-family:&amp;quot;Times New Roman&amp;quot;;&lt;br/&gt;mso-hansi-font-family:&amp;quot;Times New Roman&amp;quot;;mso-bidi-font-family:&amp;quot;Times New Roman&amp;quot;&quot;&gt;智能导向系统&lt;/span&gt;&lt;/b&gt;&lt;b&gt;&lt;span style=&quot;mso-bidi-font-size:10.0pt;font-family:仿宋;mso-ascii-font-family:&amp;quot;Times New Roman&amp;quot;;&lt;br/&gt;mso-hansi-font-family:&amp;quot;Times New Roman&amp;quot;;mso-bidi-font-family:&amp;quot;Times New Roman&amp;quot;&quot;&gt;【所属学科：&lt;/span&gt;&lt;/b&gt;&lt;b&gt;&lt;span lang=&quot;EN-US&quot; style=&quot;mso-bidi-font-size:10.0pt;font-family:&amp;quot;Times New Roman&amp;quot;,serif;&lt;br/&gt;mso-fareast-font-family:仿宋&quot;&gt;58070&lt;/span&gt;&lt;/b&gt;&lt;b&gt;&lt;span style=&quot;mso-bidi-font-size:&lt;br/&gt;10.0pt;font-family:仿宋;mso-ascii-font-family:&amp;quot;Times New Roman&amp;quot;;mso-hansi-font-family:&lt;br/&gt;&amp;quot;Times New Roman&amp;quot;;mso-bidi-font-family:&amp;quot;Times New Roman&amp;quot;&quot;&gt;交通运输系统工程，支撑材料：附件&lt;/span&gt;&lt;/b&gt;&lt;b&gt;&lt;span lang=&quot;EN-US&quot; style=&quot;mso-bidi-font-size:10.0pt;font-family:&amp;quot;Times New Roman&amp;quot;,serif;&lt;br/&gt;mso-fareast-font-family:仿宋&quot;&gt;5-10&lt;/span&gt;&lt;/b&gt;&lt;b&gt;&lt;span style=&quot;mso-bidi-font-size:&lt;br/&gt;10.0pt;font-family:仿宋;mso-ascii-font-family:&amp;quot;Times New Roman&amp;quot;;mso-hansi-font-family:&lt;br/&gt;&amp;quot;Times New Roman&amp;quot;;mso-bidi-font-family:&amp;quot;Times New Roman&amp;quot;&quot;&gt;、&lt;/span&gt;&lt;/b&gt;&lt;b&gt;&lt;span lang=&quot;EN-US&quot; style=&quot;mso-bidi-font-size:10.0pt;font-family:&amp;quot;Times New Roman&amp;quot;,serif;&lt;br/&gt;mso-fareast-font-family:仿宋&quot;&gt;35-39&lt;/span&gt;&lt;/b&gt;&lt;b&gt;&lt;span style=&quot;mso-bidi-font-size:&lt;br/&gt;10.0pt;font-family:仿宋;mso-ascii-font-family:&amp;quot;Times New Roman&amp;quot;;mso-hansi-font-family:&lt;br/&gt;&amp;quot;Times New Roman&amp;quot;;mso-bidi-font-family:&amp;quot;Times New Roman&amp;quot;&quot;&gt;】&lt;/span&gt;&lt;/b&gt;&lt;/p&gt;&lt;p class=&quot;MsoNormal&quot; style=&quot;margin-top:6.0pt;mso-para-margin-top:.5gd;text-indent:&lt;br/&gt;24.0pt;mso-char-indent-count:2.0;line-height:15.0pt;mso-line-height-rule:exactly&quot;&gt;&lt;span style=&quot;font-size:12.0pt;mso-bidi-font-size:11.0pt;font-family:仿宋;mso-ascii-font-family:&lt;br/&gt;&amp;quot;Times New Roman&amp;quot;;mso-hansi-font-family:&amp;quot;Times New Roman&amp;quot;;mso-bidi-font-family:&lt;br/&gt;&amp;quot;Times New Roman&amp;quot;&quot;&gt;针对枢纽因缺少&lt;a name=&quot;_Hlk202447312&quot;&gt;信息和物理和乘客行为融合解析技术，导致集散功能无法充分发挥的“卡脖子”问题&lt;/a&gt;。研发了基于多模态数据智能解析的导向信息分级布设技术，创建了“五位一体”枢纽导向标识系统设计方法体系，解决了枢纽多功能建筑空间内部基于雷达检测、&lt;/span&gt;&lt;span lang=&quot;EN-US&quot; style=&quot;font-size:12.0pt;mso-bidi-font-size:11.0pt;font-family:&amp;quot;Times New Roman&amp;quot;,serif;&lt;br/&gt;mso-fareast-font-family:仿宋&quot;&gt;5G&lt;/span&gt;&lt;span style=&quot;font-size:12.0pt;mso-bidi-font-size:&lt;br/&gt;11.0pt;font-family:仿宋;mso-ascii-font-family:&amp;quot;Times New Roman&amp;quot;;mso-hansi-font-family:&lt;br/&gt;&amp;quot;Times New Roman&amp;quot;;mso-bidi-font-family:&amp;quot;Times New Roman&amp;quot;&quot;&gt;和北斗导航技术的客流状态高精度解析，&lt;a name=&quot;_Hlk202447400&quot;&gt;实现了乘客行为协同的分级导向系统设计，量化支撑了枢纽一体化智能建造和运营。&lt;/a&gt;&lt;/span&gt;&lt;/p&gt;&lt;p class=&quot;MsoNormal&quot;&gt;&lt;b&gt;&lt;span style=&quot;font-size:12.0pt;mso-bidi-font-size:11.0pt;&lt;br/&gt;font-family:仿宋;mso-ascii-font-family:&amp;quot;Times New Roman&amp;quot;;mso-hansi-font-family:&lt;br/&gt;&amp;quot;Times New Roman&amp;quot;;mso-bidi-font-family:&amp;quot;Times New Roman&amp;quot;&quot;&gt;（&lt;/span&gt;&lt;/b&gt;&lt;b&gt;&lt;span lang=&quot;EN-US&quot; style=&quot;font-size:12.0pt;mso-bidi-font-size:11.0pt;font-family:&amp;quot;Times New Roman&amp;quot;,serif;&lt;br/&gt;mso-fareast-font-family:仿宋&quot;&gt;1&lt;/span&gt;&lt;/b&gt;&lt;b&gt;&lt;span style=&quot;font-size:12.0pt;&lt;br/&gt;mso-bidi-font-size:11.0pt;font-family:仿宋;mso-ascii-font-family:&amp;quot;Times New Roman&amp;quot;;&lt;br/&gt;mso-hansi-font-family:&amp;quot;Times New Roman&amp;quot;;mso-bidi-font-family:&amp;quot;Times New Roman&amp;quot;&quot;&gt;）&lt;a name=&quot;_Hlk202447272&quot;&gt;创建了基于多模态数据智能解析的导向信息量化分级布设理论&lt;/a&gt;&lt;/span&gt;&lt;/b&gt;&lt;/p&gt;&lt;p class=&quot;MsoNormal&quot; style=&quot;text-indent:24.0pt;mso-char-indent-count:2.0;&lt;br/&gt;line-height:15.0pt;mso-line-height-rule:exactly&quot;&gt;&lt;span style=&quot;font-size:12.0pt;&lt;br/&gt;mso-bidi-font-size:11.0pt;font-family:仿宋;mso-ascii-font-family:&amp;quot;Times New Roman&amp;quot;;&lt;br/&gt;mso-hansi-font-family:&amp;quot;Times New Roman&amp;quot;;mso-bidi-font-family:&amp;quot;Times New Roman&amp;quot;&quot;&gt;针对因客流状态不精确，枢纽导向系统信息无法精准布设的关键问题。&lt;b&gt;&lt;span style=&quot;color: rgb(69, 176, 225);&quot;&gt;研发了基&lt;a name=&quot;OLE_LINK24&quot;&gt;于雷达检测、&lt;/a&gt;&lt;/span&gt;&lt;/b&gt;&lt;/span&gt;&lt;span style=&quot;mso-bookmark:OLE_LINK24&quot;&gt;&lt;b&gt;&lt;span lang=&quot;EN-US&quot; style=&quot;font-size: 12pt; font-family: &amp;quot;Times New Roman&amp;quot;, serif; color: rgb(69, 176, 225);&quot;&gt;5G&lt;/span&gt;&lt;/b&gt;&lt;/span&gt;&lt;span style=&quot;mso-bookmark:OLE_LINK24&quot;&gt;&lt;b&gt;&lt;span style=&quot;font-size: 12pt; font-family: 仿宋; color: rgb(69, 176, 225);&quot;&gt;和北斗导技术的时空行为数据融合的视频状态数据解析理论，创建了分级视觉指数&lt;/span&gt;&lt;/b&gt;&lt;/span&gt;&lt;b&gt;&lt;span style=&quot;font-size: 12pt; font-family: 仿宋; color: rgb(69, 176, 225);&quot;&gt;，并构建路径和乘客行为协同的分级导向标识布设技术，&lt;/span&gt;&lt;/b&gt;&lt;span style=&quot;font-size:12.0pt;mso-bidi-font-size:11.0pt;font-family:仿宋;mso-ascii-font-family:&lt;br/&gt;&amp;quot;Times New Roman&amp;quot;;mso-hansi-font-family:&amp;quot;Times New Roman&amp;quot;;mso-bidi-font-family:&lt;br/&gt;&amp;quot;Times New Roman&amp;quot;&quot;&gt;解决了复杂多功能空间，信息与物理融合下的分级导向信息布设优化和求解难题，支撑了枢纽一体化导向系统服务效率的量化提升。&lt;b&gt;&lt;u style=&quot;text-underline:wave&quot;&gt;北京南站枢纽应用效果显示：枢纽客流实时状态解析精度达&lt;/u&gt;&lt;/b&gt;&lt;/span&gt;&lt;b&gt;&lt;u style=&quot;text-underline:wave&quot;&gt;&lt;span lang=&quot;EN-US&quot; style=&quot;font-size:12.0pt;&lt;br/&gt;mso-bidi-font-size:11.0pt;font-family:&amp;quot;Times New Roman&amp;quot;,serif;mso-fareast-font-family:&lt;br/&gt;仿宋&quot;&gt;97%&lt;/span&gt;&lt;/u&gt;&lt;/b&gt;&lt;b&gt;&lt;u style=&quot;text-underline:wave&quot;&gt;&lt;span style=&quot;font-size:&lt;br/&gt;12.0pt;mso-bidi-font-size:11.0pt;font-family:仿宋;mso-ascii-font-family:&amp;quot;Times New Roman&amp;quot;;&lt;br/&gt;mso-hansi-font-family:&amp;quot;Times New Roman&amp;quot;;mso-bidi-font-family:&amp;quot;Times New Roman&amp;quot;&quot;&gt;，提升&lt;/span&gt;&lt;/u&gt;&lt;/b&gt;&lt;b&gt;&lt;u style=&quot;text-underline:wave&quot;&gt;&lt;span lang=&quot;EN-US&quot; style=&quot;font-size:12.0pt;&lt;br/&gt;mso-bidi-font-size:11.0pt;font-family:&amp;quot;Times New Roman&amp;quot;,serif;mso-fareast-font-family:&lt;br/&gt;仿宋&quot;&gt;15%&lt;/span&gt;&lt;/u&gt;&lt;/b&gt;&lt;b&gt;&lt;u style=&quot;text-underline:wave&quot;&gt;&lt;span style=&quot;font-size:&lt;br/&gt;12.0pt;mso-bidi-font-size:11.0pt;font-family:仿宋;mso-ascii-font-family:&amp;quot;Times New Roman&amp;quot;;&lt;br/&gt;mso-hansi-font-family:&amp;quot;Times New Roman&amp;quot;;mso-bidi-font-family:&amp;quot;Times New Roman&amp;quot;&quot;&gt;，导向系统的标识冗余下降&lt;/span&gt;&lt;/u&gt;&lt;/b&gt;&lt;b&gt;&lt;u style=&quot;text-underline:wave&quot;&gt;&lt;span lang=&quot;EN-US&quot; style=&quot;font-size:12.0pt;&lt;br/&gt;mso-bidi-font-size:11.0pt;font-family:&amp;quot;Times New Roman&amp;quot;,serif;mso-fareast-font-family:&lt;br/&gt;仿宋&quot;&gt;25%&lt;/span&gt;&lt;/u&gt;&lt;/b&gt;&lt;b&gt;&lt;u style=&quot;text-underline:wave&quot;&gt;&lt;span style=&quot;font-size:&lt;br/&gt;12.0pt;mso-bidi-font-size:11.0pt;font-family:仿宋;mso-ascii-font-family:&amp;quot;Times New Roman&amp;quot;;&lt;br/&gt;mso-hansi-font-family:&amp;quot;Times New Roman&amp;quot;;mso-bidi-font-family:&amp;quot;Times New Roman&amp;quot;&quot;&gt;。&lt;/span&gt;&lt;/u&gt;&lt;/b&gt;&lt;/p&gt;&lt;table class=&quot;MsoTableGrid&quot; border=&quot;0&quot; cellspacing=&quot;0&quot; cellpadding=&quot;0&quot; width=&quot;100%&quot; style=&quot;border-collapse:collapse;mso-table-layout-alt:fixed;border:none;&lt;br/&gt; mso-yfti-tbllook:1184;mso-padding-alt:0cm 5.4pt 0cm 5.4pt;mso-border-insideh:&lt;br/&gt; none;mso-border-insidev:none&quot;&gt; &lt;tbody&gt;&lt;tr style=&quot;mso-yfti-irow:0;mso-yfti-firstrow:yes;height:62.35pt&quot;&gt;  &lt;td width=&quot;17%&quot; style=&quot;width:17.7%;padding:0cm 5.4pt 0cm 5.4pt;height:62.35pt&quot;&gt;&lt;br&gt;  &lt;p class=&quot;MsoNormal&quot; align=&quot;center&quot; style=&quot;text-align:center&quot;&gt;&lt;span lang=&quot;EN-US&quot;&gt;&lt;img width=&quot;90&quot; height=&quot;114&quot; src=&quot;data:image/emf;base64,iVBORw0KGgoAAAANSUhEUgAAAHAAAACPCAYAAAAiJF+HAAAAAXNSR0ICQMB9xQAAAAlwSFlzAAASdAAAEnQB3mYfeAAAABl0RVh0U29mdHdhcmUATWljcm9zb2Z0IE9mZmljZX/tNXEAABjUSURBVHja7V0PkFRFeh9NSpMNUTgQjMDBKYp/T9RQq613oEURKMl5aMiCBA+VawXcRUCz4mzpjtnAKoU0fxYPnDkUNWf8U1rGa45kPDBc6qxYJykrlnfXd/HuLLXqTLIQQDw16fTX/16/N29m3szOzA5Lj/U5y3vdr1/3r/vrnv6+39epTCaTOl5lcvuWN0/61iZeS2lduen546kNjlvwQMYs7fv4vY8P8Vp99r77Pr9gRd8BD6AH0ANYCYCMUk6FEEI5Z4wzFxUG94i8J9NgKpKAQFKm8zIP4KCOQABICEohjjEWQgSIAAzcwkIQT6VS8jp8pxDW6UR6hDianeFZD+AgjkAiABSjCqcwRyEAxf/lvwVoAK4AUwIp0kMaIv5N5H0P4OACCPoQIBOASbXIlEpUfyt1yeU3k2qUaTVr0ubzea9C/SLGA+gBPBEB/N4bP5MNX0qefe0NKeXSbdzzlgewkXLd6g2bocHLye/94bAvQJKkndP5yBoPYJPJqaeeehBkKNatosTXXHPNuokTJ+4dDBk2bNhHAoT+akT8dPg/kGrzn3766b9uRB2nTJmys64ADh8+/L158+bNX7x48fRGC/x+mzlz5t3VyIwZM+6rNu+0adMegs7TqDrWHcDVq1dPHBRVUUXlaiFQX6h3s9bRA3i8AzhjZe990+9e151ETj1tRP9Vt3aSpOlXp7st2DNXr707ab44gcoNJD+Ub0ER75U0H9QX6p00PbRnb2/vH0A5nd3dw+tZRwngaXjr77pfeoMnkTsf3cWTpr123YvcFAICxtKkeQdadpxA+eZd4L3g/epRNrSn6bhzV/cs/ur9T9WlfcevePyYBHBse88RY46hhErzCqFMmWX0NXtP7h1yve+orzv7j1bE9b/a9kIBgMrUI/KaZzPK3bLtdRr+mxBizUVmnxOeRRkLb6Xo8u0702BPNAogNEKBqUmXQ1mwT2rfi+kyaVB3golTjro3tn37YRfAhX2vHo6Wo9oMTCWqre1+bVCRoHzKdNur9zJ1vKz7mYMawO2HIQPBiCNpakFyRx926jFKqd17pMwxUEF4CbmLb3b2MVGmGbiHVTqQ8TM38taOdWtdAJlsIJEPKl6QB8l/I1kO5khaDJC038F9hI1JSFsbGJiGsAafyHfryqT180QdEJbXVHpR5nk3ctzbO8wFMGxqMuWo52MwOel7yAAF7y/KhWebNsECGHld1gfzUy5u/2zRg90XuQBGy4F02LS3KRNA0uCpcsC6gqSVRZnJVPvIthFlj5654ZMwgHATqYaCQghWmUyjyYIAXKQa3TQoVI5gdQ1eDMn0SAIYHYGqoZHsJEFngGeajpKyYEGFiAZZpte2PKTzMWpMQ9Q+KyPyzZfvinQ9FIDQ+IUAvhBjakK6cYkuGwd1lKNAAYsAEIwVkLJTMt2pCW/5Wvun4RH4+JFwOeIZhElAbScQeS/vygUDkBJdJyLTGNOXyqfeKwSgHK75vBDG81nCs9ksx+msvJbJZHkOrmdy8jqYXijNa1WQ53k5zCGvuJfLWXNNx7Y3ClUoV6qIZTI8KySD4Xk5nstR3pXLyftduS5xTTxTlE9pVpaZE+8Az4RvyIdnp5VKsepWqeJsVrxPbi3vojn5nozltamI8dSNhSpUqq48vJOqGwgV7yNNTPDvNDxPvCtl+vlZ+Z3JwDuv5Tmp/vLyOao8xsfc0vNJVIWq+0yqbPncvHleBt5JXBN1WPak4ykgys2mRT2x7Bz5/JM8D+0K/+UVBpe1P3PIzoFyZMheElaP5jtl1ArGIYt3BlQtU71PqTUu9brQ7nKiLQRQqQg5WpEarQjjQDVCLyeqDDmSjQqDXkig0iRQ6xTr3qlHgR5xs9FEqaIZU1rFzC2xcyDXPdq8A1Hv5U4fCAXvgIymkeUgno7WXXxi50B4b/lMZUAm0EbYUdG2LNdTIGVHf1xZVz34TL8dgVJH64UD0RlBqFSJZk5Uc5Js3AiAshFEIXIyTwggQVo9adUlK0WCCqh5DNk5Qs5DJAAQ8mHdueQ9rBoY3uMyjPTkj+1CphSAsEjAev6HjhKaPkxnduZsU046WvciACqPASbrjLWqJRg79UMxngJ6bVCkrBCAduWjV3Ih63b0O2Lxjn7MteIAhleMLGpJ19Zyc43TyOpXJqGBRT26aqQs1tYXD2CQj9CgfO48i+nVbnSlXaycWADNO9sVPLNOVaZ+tg24WxdatKwYAGv7KQtggz/FAKz1J1aF1uFjATzl1k2fJfVaTl04nZ+0oDexl7O7+9Fy++bDA/GYTk1qHZDHNZTv7golzivqK+udMD20Z2d395lQTlvnQ9+sZx39XuiJuJnd2tq6cfr06d2NFqjchAkT9lUqY8eO/ddq8hkZN27cj8Em2Kg61hXAuXPnLh4M8EDOOeecH1Ta+C0tLR9XC7wrkydPfrkRdQT7o3epcEQ0/EtgiR/KdfQAegA9gB7AOskFF1zw4mCtXj2A2qI9ZcXWHybx5ywmLWedfWQg+a/vfPRvPYBVyuI1D02/qPOJw+U8qusl4PUN3t8ewAEACFtG5TeWmDWGMkZD+6ohzwFt/aY0TOws9gHehQewAQDCLn3YrKUNrMiYqpRFRZI5Q+YhypkHsHkAdM0tTIMpXSuMCQijiHnIA9hQAEPOV8bMEjL/BE5WYAEH6zV4FJD5YMXWFvusuJYNrPXGxMNCqtgDWBcAKcGBodVayLH0lwGrtlSPyPUuQNoXRRlrXdWpfHEQnw30aku9Nj4uamR6AGs+Aomyzqe0wxIl1j1DWempBBLbiBSBZR1FLOtYz4kXzsYCwMCJiOmR7gGsB4DGek5oxDOAWienUOgQbcm3lu2QVZ1b31cWWdGa1akHsGE/I+rz8QAOUDrS3edX4jFQIDc9WJE1PU4gHpsHcLBG8OLF04E46fdCPYAeQA+gB7BiET8Vpg4bNuxDD+DxCF5nz5V/unLL94ffnDk8Y9WGXuPqV2+BgLEDDToL73tCAgjMWHCmnXhX339cdv+T/WAO+ujgUd71/I+OjVq67Sg0LgBbz3cAGyKYoqznubZ8GO/sgOcYhLzUuxTy3qpnd1cUNXhIACcp06s2bDxz+bb/Ak/oA7/+bezvup373+EALAAMQBsqdO0B3K+pa4r/IHd5NFeDWPobtlwItfuj0k/r+M6JAyD80L948QOvj72l5+iq7S98DqPNRC5kzgighIV6/CtPfI9PX5Y5NvzmB49eeduGHS6Xv6YAOiRYS4y1W3tq/1aShgzrV/x98/ohDiCMmjkr1945bnnfB1d1bzh4y9w22yjQSIb9QxmxzKa4IK/y2pVX8qlLNv7vmPbtR2C+XHTvQ7NqqkK5Is24hBa5KU+pNjY7W4RUWUIeHqoqFICD2GhfumPr/yx5fM/Rdz/8b26YxVRbI6AnExWmV1O4lA1Q0cYKqVuG8wcNB/PltT3P9kPHAPVa7D327n3iTQBg6yuvvFIKwPB8F957tfEGKAuZxeQcuH6IAnj5qr7XYTHSf/TTQjpbPsczwJ4FZq9kvwLbNi0j8UID5nIZZR8U6aUNUNsJKfwdmSehY6BV5NOR48/+eVw4rEdvuPhTAH7yjPuPRu+NHj367bHXf/s9qUIdMqo0e1HVmaKcQMPJl/G+xWdVx3380lWbXxpyAIJ32NkrdxyChcixz74IWw8sczgyz1iSpLG+Mx1ZAltGcHTz+t6/e/3YOXdt/WDeosWxIcW233ffb+D5f96+/qfRe3PmzFly3p2PvA0jEMqQmsEGMSCWJGtslwFxFktT2JAGEAQ2t0G9jFzad2T5zvwRE+yV6p4t7YAm8oVc/WG7YMA6MAI0WEqzfYmehHa//Ss+d+PLh8DyMHPlI13gzljsHR577LHOp3t7d3Z2Pnp/aRUKnP6MAEdoBukJoGIQqNGfkeoyl8vxbFpoC83vBzU6ZFWoK9DAs1b33gMNPvvhFw7ufvV1O8+Y31XSBijjsFBrF7SLCAHmW0IVZ556lcOovmTFlh/Pu7dnfk1/B9poEzr6BdYj0P6USGljM9ZJ1VwMGuaE+h0IJEoAAIB47Idv8+gcGWfjg0XQnyz/Tv/Vd298EkZ1XX7IOy4gJkAEYfoaCoc2oScygK56BUAAGAAoGkv7pZ/8Qq4yYdTCz5BSarJWADLHI8D1KOCOdwC1/qvMbjackAC66hUAAqAAsDu3PPcF8NbBRb8Wv/OSAHjr4/9UNMbZPTu/z7ue++ei9+duevXEBtCV6xbc9tcjxn3ll7XcaUmi0ktFGBxz4RUHLpg57+VSaWCH6YQGsGPRoq8tXLhw9nXXze1oNnsghFUGpnOtnjfkwOvtxcMWzpp1+xWzrlg/deqM9eMmTny9HpvWHsA6ysJZU1fOWjjr9vOmzugbPXr0OyeffPLnJvpUM0hbW9s3PYAlZNmyZZNARE9fCCq0s7Nz+FCs55BfxCxYsOD6kSNH/mwo17HmD/zWmrXfGAgj1mXF1oKhe9asW39VK4butNWbcgOtWzHB6e4pTQEg/IZZ89y/1IQVGzB09/On5X3xvWeXkP1S9grp3bFLyZpu9Q33zLUdTlqR/2nn3nKZdpf+N6R536bZq2VjhKEL/ir1YALD70Y3rtygAwi7Ce45fdLfw+w4aPcCZmJOO3G2Ic/OZw+EAATX+iQEzlRBqGZi44oakw7W4SzlnqQT4jnlxiolKtQlhN28vOdAAYDujoq18bGA1mbZv/a6vsfdiI/csoXh72hgwCYAcLdmBunArUifrElMrGkkmUXYuBRgYoOOP9BTHMDiBM74UM0ywKo+mpVAHFBq6Gg4FAtUxSOldhPc+K4suGUdH7m07z/DADLNfAqC4Mow0hC/m6m4o8QEULfBa6G+VFPidOxrhHSAV8I7mhJAGUiVOIHKaXjUUFVZY9Ck2i4WB2BMUFJtmIWQ0Oo7B2GWoWebUMvZvDTkZvNUhoWWoz+vwian00D4zEoTDsuqb8ocYqhOvy9CbjEjkEqzFLVBZVXEXyyfgTXNjdkAtinJWYQAuShlzF7EBjGHdmnCEfiOY9aJOZZAM2GB7+cGNIW/XUZQPIDajUKrP9dxCGsbH3Gi7apR4np+oZhQygHh06Vdv1cEQF5AYXOOdrVOVTw4GsGoU+eohKAtmlKFvmMrSh07XdhPkjlzZDAflAdQjQAccU2gRJ2vQPToMNHeMdKhjK3nF44NpWwIn8ZHpiSAVhEEZ1y4vp3BeRbuGRbOeRiRdE0KILPzILZs2cJA4mrOQnak7EsAYDCaw4eP2N4ugQKVmpeR5eFd8o7nV0nCZwl+YBhAJ7440iOcaN8XuSDSRwWgwL3QesdF8jUtgNbVwQma7q4aTTR6ainONNEILBOzwp4fb3xRkHarYDoge7UEz+gIpPoQjvn6zAeqFy7EBE6g+pAQJ4g7qGuTz/jkNK0KDQUyp+58oHwizXEyQXAeXnMAoS1hYUGV7q0pgNZ9Pm/mNcdTzkTVsD8bIu6FLPATbd45cIC05mop1nHR9EtdrxrAGn2aCkBwa5i0KncUGj5OLl9BDk1uW3mk6P30rkNnLd3yG3gWEFH++NtbPy2WtpxM7dxxcNINdxytNr/7LgbApHnPvemuo1es7juUJC2cRNY0AML+JYycYoJm39Q76eLLflAqjWtBBxBLpS0lMxfcdveYL3/lQLX5C94l3T0laT4oF8pPmr5aH52G756DMXPSpEm7G3EmLcSgHjNmzIHBOPPXlDvkzEkdHR3nN+rka2hEiDg/GKduQyft7Ow8c8gB2EjxHPlmBSbhvHLTkpWLRpxx5i+Tpq+1k68HMEbg2BxYtSVdDbamn0i86hQr3mON4tKfsAC6R8cxHmwey4MezelfNixlcMYtZdTh4QV7ssT5ge0eXOUBrDOA8kxaa9zt4um0MlWBKYdi7Bh5zTaW2nuklNitLazteMbcBUxdD2DDAMTSEmFscjk8XzGAgIuAAyNv+OxaNeIkiM7ZwMa250dgQ1VozDaZe1iitdEplcrNMd52Sy1w5TC2PQ9gowG0htLCeCsmFkvxCPWsgF7tAWzwIoaY8+4TWt21jwDPmGO9Rf6sB3DwRiA14CWyukcBLLQPegAHRYWGfWpKWd2jZqWoeckD2CAAr133YlGCZFRar29LnPY0vPV3HsA6i4yLVoIc6cqocy76KRw/lzS9e2izB7AJxJ8fWIGA7a2ZOHjNLGDiqhXlrWYA1pp5Gpr39CHBDe3ZdTw4spbHuXsAhzqAwC+/dMXmfDl+28gp1/52bAIuXjSEBvy7XJ4xX/+LD85AN3xYLt0lHZv2lKvPvM7eRUn4er/fctrnSdK5ESXAnnh++9aflMtz6qhxn5y7ZN2/l0s3595H2gcMIKz6Ri3d9kmIX7dml+TpLf/LbsWz27Gf7/mH1zQ3T3H4eve8b3l5ezVHDzh+4NnlPl9x7lz+336HOxfkg+c/7T5rh/7eY7iA+wueHSeGvxhwCDXPUHIN4W9Vv56+nL2nynHeSfIOC3l9EKZyxrrnPynHB9zzb78oyxmEd0wSLyYRgPAD125dhSIBmih87kFTSJtwDPNIbXcZL+w4AGHnhDJFWrF8CckrQJpChpQVgQWRCW0QO6RCVgHnMCmAknyjKWDhd3e9xo1nt94Q0KGw5DvB1hwpZBUBgBDymTmnhlp+CA0216N2S7tvax2AIXb2O/UCMGVPA0MpEzKRWjd6N0ouNLqijmluYBEAmeYTGF5eV15bCywHMGXDQxIbjVDvg6Z0PDJxL1UJgMRw+8y7p0LbbxgHISll5MGuLhWukmiOoWjtUgCGOwe2ndlwC4ntfMiauwihNr4axM5OEnayAgA5z2czkl+H52YkB4+Kv+FARehp+awKskrgOLesDqkI5BIVZVVazMFoHgdg4IaveiPVz+Qif1ZkgpCMlKqwjPmskJxI15WTz8xmsjLYK610BBqOIcSLlVxBIRngE4qRkhPvndfhIeVBkVmevn6ZzJOer7iFUJeiABZ0DiT3a5EOeKdc7qk0QBt7JSI6vSbFTOvYXWsAg91/adkm5iDGoHdhgjWRxIxARWCk2pgKqiQeQBZm1caoZUyihBiTXqm7ylSoYhCbkMvSrcKwieAMQn1gpCWlkjCVO1WEWWsAjO63Gruja7c0pi6XL+JyKh7eXxcVivT8gyxNGeZCZPh1TkR2rOct1Qs18VJIMQCp4bCncEQtR07g1HRo01ORVndwrTIATacLVJeca5kiwxhyKNG06FCY5CLMWleFMmtADniQBaCazfhIVH1WQezsilSo6SmgxqTKSQs1mU7zrFaTEIEWYlHn8ypSLXxnaXjnv5gK5aFK5VU5kvkjVFgO1Ki4BpRpGf1WRbiVjUSCBUOqQhUqO45jnZeDRDyzS5Sn4m4zy4mnUSYuL65CTWdA2mdHCiH2eFelbZDj8lEYVX/SN+owB4ZiVKNgtWYWIO4CwIwWSsOW76IARp4fVr+a41fmCPFK5sAS3CZ9rGv5Y8qLAohR0C4GeKwDNVDqrKSdFXsoqj6uzyImoA3jcAQKGfo/OgeaiZmVbORYyhYlEfVLShho6wCgbsRyx5QXVaEF9PGADxnwA7Wvjj1TIlCzIEnPj6gCwKCQcCwYrYqoGwclIDFWAqBZkbICSnW8gba2AIbL41UAWAvO4M5aLWKA9vRHt28+Uu7ErdSls/hJf9Ze9mSuM+7Y8pH7fPh32RO9rr5ZSYXPjhM4GSzJCWKpMyclOmnMPSQEttUSPfvLl/CTFvTW5BQzv5ntrREBgGBANY1dS5kwYcI+qDR8VyLjx4//0ahRo96tNB8IAFiPuoCAPbDpABSLmin1qnBrayupBoSWlpaPAYhq8orO+HK96gPGb+9S4V0qPIAeQA+gB9AD6AH0AA5VgZ82HsBBFHASOuXWTZ9VfSb77BU8ddroAZ3pPrl9y5sewColFCvN4QIGRJYgDidz/E3cIKyUslBQPZs+EmrSxLB2+YTRWGkewKoBjHIBA+Nx2FJPNb2a2GNOpTUfGXub8uGRVhQdS1ty6qV7AyowV+3zANZuBBouoDlzlmoTU9hST7QtL/BaU4CktBMUslZ2BSDWngI6X8Rc5QGsuQplobjUhGpLvxuLkxu7W0RVFsS3prFuDq65yqvQWgJY1SfwMa0wVGhsvFAPYAMBpNbLjNgo94R5AI8zAI03tXJVpH4EHm8qdGAfD2ANAFSHX1V/sNSL+9+qyUFcHsAqZKDHz01su+fnLePOPVyr4+c8gI0ewT7g6/EtbW1tN44YMYJ5AJtYxZYKG/L1u/6m56yvXvVmqTSuW6AHsMECTsedz+7rTxrIJ06WbP771zyAgyj9/f3vFXGvdo66cU8UC3/27t3b7QFsQgAZCajYisNIYnkOr/xjvtcD2OwA6pDKzI/A4whAY7EgpYkqfgQ26xyY8ONH4CCvQq9+8KmPpnY9ddBI6wNPSzF/F7t+RddTh+B75gPf3ecB9DJo8v+s78Qt+TAjKgAAAABJRU5ErkJggg==&quot;&gt;&lt;/span&gt;&lt;span lang=&quot;EN-US&quot; style=&quot;font-size:12.0pt;mso-bidi-font-size:&lt;br/&gt;  11.0pt;font-family:&amp;quot;Times New Roman&amp;quot;,serif;mso-fareast-font-family:仿宋&quot;&gt;&lt;/span&gt;&lt;/p&gt;&lt;br&gt;  &lt;/td&gt;  &lt;td width=&quot;26%&quot; style=&quot;width:26.28%;padding:0cm 5.4pt 0cm 5.4pt;height:62.35pt&quot;&gt;&lt;br&gt;  &lt;p class=&quot;MsoNormal&quot; align=&quot;center&quot; style=&quot;text-align:center&quot;&gt;&lt;span lang=&quot;EN-US&quot; style=&quot;font-size:11.0pt;mso-ligatures:standardcontextual;mso-no-proof:yes&quot;&gt;&lt;img width=&quot;127&quot; height=&quot;82&quot; src=&quot;data:image/emf;base64,iVBORw0KGgoAAAANSUhEUgAAAJ8AAABmCAYAAADVhkMxAAAAAXNSR0ICQMB9xQAAAAlwSFlzAAASdAAAEnQB3mYfeAAAABl0RVh0U29mdHdhcmUATWljcm9zb2Z0IE9mZmljZX/tNXEAACnmSURBVHja7Z0HWFRZtra508/cnnunn7l3ck9Pz3TP3zO3u50xtalVxIQExSwoIKgoCKigomCmzCgioETJkkFBDBhbbLOiYiCIheScc0FVwfevdaAQTGO2nCl8lufUqTqHU1Uv39pr77XXVtu4caOaylT2Puxf6s0EBQVZvGtTQaSCrwu+iIgI+3dpTk5On6lAUsEnwPfDDz+Evks7cuSISv1U8KngU8GnBPAdP348YsGCBSmmpqZ33rTxdfn6KvhU8D0VPhcXl1N/+tOf5I6OjnjTxtfl66vgU8H3TPjU1dVb8RZ++Loq+FTwqeBTwaeCTwWSCr6nwycWIzExEYm0FbPRvhtthaf4OJm4++sS+XW0daPX8X6iG207zlfBp4LvpeBTAJdIQIndOkDq5AhgsNw6wRIndkIGAT6xYp9ew0Cq4FPB91rKlyiA1AETPdGlfIIqCsf5sUIR3bqUL7ETxNeBT19f3+Trr79OedNG17VWwae08D1SLsGdijtda+dzbp3AdShfh2vuArNTNcVvwO0OHjw4dtWqVUhKSnpj5urqCgZQBd+HEnCIO8FTuGRxxzEo2oSdj7tcc+fTrxtwMHx0f280+GEAVfCpol0VfCr4VPCp4FPBp4JPBZ8ywqdoWz5qe3a2LCmw6TjWvY3Zs5+yM/jpDL1V8CkhfLQ9/PHHH7epqanhTRtfl6//OsqX2BlBix8DO7Ej7O6CC+IzSOzsm3RL7BYUqZRPeeF7WWOo3nY+Xw/4CCgeQWHYFJ3cQndQJ3xuFm6sgx2Q+jN4Hd1FPUZkVPC9f3NwcPhfNmWFz87O7ksnJ6efPal8DKAFLAg0t27wsWt1s7DoAJIhPSPuGJ0RP3LB/7bw8Qc5d+7cUcpixsbGer/85S/FNjY237xr+DipdOvWrbued39jxoyx/93vfne3T58+x1494BB3jT+L/50DjiFDhrj+5je/yfjyyy+TlMUYnn79+gW9CnzcfuPzfX19j77sufSH+EPv3r0zn3dvn332WTJf//PPP09TRbuvCR9/yVOnTp2rLG+AFU9TU3PVq7rddevWXWA47O3tL70Nt2tiYqKjr68/64W6WrrGn5/MplHBp4TwvW7Awa7zk08+aU1ISIh+VwHHs+FL7ALu8WwaFXwfEHzW1tbJLzopaNCgQUUv+lq+7tuBrzOa5SBD/GQ2jQq+DwQ+ZZxA9MLKx10veDKbRgXfBwTfBzm8pkjnUmRai1UBhwo+1diuCj4VfCr4Piz4XmECkbAvVsztUIw8qOBTwfeS8L3SBCKONMXdMknE4jeSRq+C799Y+V58ApECSnSp4Osq39ChQ0O++uqrpiFDhtT8M/v0009bXuR1vXr1aujbt+9ZFXxKC98rTCDqfE2iwv1262x7Vfg4+eFFx6t5xOVFX6tIqngVs7Cw+P59jMfzqFQXfK7uriJXdxeRu7enyNPXV+Ts7i5aIVolWrd5g0i0faNo3fY1oq0uziLnvXtFK9avO7d6y5ZgV1dXUWRkpCjh+EnRxh3byXaINjq70DlbRas2ikT2GzaIVq1ZJVqzxl6kVAHHi0wgeryfQ4Dw9eB7KUUg+N72ZzVz5swp1tbWUnt7e8moUaMk48aNk0yYMEHi5OQk8fLyEszDw0PYent7S+g9S9zc3ITHRkZGkuHDh0tGjx4t0dTUFM7V0tKS6OjodJmuru5TTU9PT/LJJ59IuuDzD/aHuZklgryvwWHFQXj5eyE0MhJRByKxY+8ubN2zE6Z287HGZSvWue6Gf0w0impqEXkoHutcdsNxmzNWO7vAzskZ1htEsF67Dg6r7KGtPxOjtXWgVPC9p2hX2eBj7/XgwYM2fk/0HmBsbAyCCvn5+cL7bG5uFrYymQx1dXXCfktLS0dTmVzFnj17QHBi06ZNWLZsGZYsWcJqDRMTExgaGoLghoGBgbBvamoqPDdv3jxYWVnhs88+a+iCLzgsCHNMjbE4ugTx4dew0/Mqtjv5IDI2AtGHonHgWCLiDicg/shhxBw/Ar/ICHgHBWCT805s8tiDxXb22LBlIxZv3oB5FuaYSm9iCv3iScYmUNfWVsGnpPDdunVL3tDQILyvGzduCOCcOXMGFRUV4OCosbERJ0+ehL+/PyorK1FUVCQ8x8cZRIaSAEZhYaHw3P3795GSkiJcIz4+Hn5+fli/fj3Mzc0FGKdMmSJse8AXGhlGB6dhflQaDieWYm9CETaIthN80YiIjMbiJXYIj4pGbHwcYuMOIiQyChucNmGpgz2WiRxham6FVQ62mEG/ZAUpnr6lObQJPn48Rk9PBZ+Swnf16lW5VCoFA9jW1ob09HQBQn585coVSCQSoSly4sQJVFdXo6ysTAAvNTUVCQkJAmTkigUw+Xj3n9bWVuEYP1dcXIx79+7h6NGjAsg94Fu4dBmW2i7CWh8xcjfHYad/OtY6bkFkdDQC6C8gwmkb9gaEEoARCAgJxh73PVi60hYmZmYwIqWbZjwHtnS+kaUV1m60w0wrC0yfNx8Gi6wwZ66RCj4lhe/SpUsCfAwWG7taBq+8vFzYMjxsTU1NgrplZ2cLysfwXbx4EalpHRDycwwrP8/KV1JSIoBaU1MjXJfPZ/ddW1srfIY94JtoYo6x2powMjGCoYkxTKdMhLnJIk6wRExMDLz3uWGvnw8C9wfC198PW7duhDX5+HkLF8Jy+XJMmjUbxnNMYbxgAWxsF0N/4QLMtLTAbHpsaTn7ncPHiaFvY/KQwronnn7I8N29e1fOMLHLZNjq6+sFUPhYWloaCgoKBIgYRn6OX1NXXYfa6lo01DeghmBqbmomdXwowHjp0kXB9bLaMXjslquqqoTrMYSsgE/AN89xPQYOHw1rm8VkS2BhaASjqdOwyMoeiy0WY/HkaXAP8KXgYy82b9tBjUsrGJvPhemC+bCh/SkGs2FkaoL55pawsjbH+OkzKNDQxUIzA5jPN3nn8CnjBCJlhO/OnTtyVjZWKgaD4WJoGBhWqby8PEHNSktLu5Rf3ixHS20ztfkkaG2uQ0FxIdLTrgjn8PkML7cHGTZ+zGrKLpjhZTfO7r0HfKNGa2CGnR0sljvC1m4ZjDUHw3SsBhaP14BIdxxWz5qJxdaLYLfGESuXL8ZCywUwnDuL4DMTXj9lpiH0Jk/GhGnToTdRBzPJHU+eYwKjmfpYQICq4FNO+G7fvt3V5lNAyMYAMnysegwNK1d7O9BO/1pkrSgjJbx3Kws3r6bhQd5dFFRkIJdcLwPJasfnsWrytTl65muy22XA2+lCPeD7fpQejOfPw9Sl1rBavgHm+qMxVXMEVhqOxEzjSRg3RQNOe3ZhoY0VNliNx/gJE6CtpQuHlTuxgIKLJbaWmD2PQuvZEzFVXwc608Zi3HQ9jNEeCaPZxir4lBQ+CgIE+FiNcnNzBfXi9hu7WQaQ3afCHuZloaGO1KutBdllVcgvrYa4oAr3C8uQT6+tITecKc5EGakkqx6fw9DGxcUJETE/vnDhwpNu9+t+Q6CppQlzhxXQt7LBPNNpcDBRx+gRo7HYfAGGffcd5piSK545FVOmmWL5smVYucIOcwksQ319IdiYZyXC0OFDERMQAH8vN2xZY4dFcw2x2m6JCj4lhS8pKUmu6Drx9PQUIlt2mwxhVlaWACKrVWVlNfKy7+HhrZsoeFiArBxyxdey0EzANUukKCgvQVFVJUqrmgi8KpST8vF1i0uKkZycLLQp2f2yG2cF7BlwGM9Ar959oas3DmZOWzDZdAnMrewwSWcWlljMxcghw7B8xVJoa2phvLY2VthYY+2aVZhtOBO6urrQ0tHEjFlWGDxMHYOHDof7blcMGTQEez3cERTs+87gc3d3H3DixImtL2v8Zb/KeWwfMnzXr1+Xc2DBbTTuNmEXyfBxG4/BY/epUD5ZuxxZZVnIup2NrPtiimrvIPNKCmrLqG3XXINmWQ4qG2tQWN2AssJyFNC1FF0wQqBC7pj32Y33gM980zp8811/jNSdgBHU1pvtYA8TcytMn6YHExNDjB83AQvmm2KkhgZ0R46B+dyZWEqBiamxITTHaUJDYzRGULQ8eOhQjBgxAo5zDKAxagRsl1hiyPDh7ww+NobhZY2/7Fc5T2EfciczK5ui05iBYzjY7bJaKcDh5xpqGpGdW4C76feRJs5D5kMxinLTIL6dgYrCClLBGsjaqlHR3EguugKlBG5JWSkqO6NpBpFdO7v5HvCZWM3HZOvF+F59MIYMHoy5iyxgYrsEuzwDsNvNBbY2dpg1bSom6U6C3vAR8NjugFX2dpitP4PUcDR0tcZCe+wY7A/yw16X7VhtM5+Oa+K7gb2hqz3qncLHC/G9rPGX/SrnKexDhS89PV3ObvBFftLvpCM9IxVZGWkoLChBdk4xHj68i7LiPNy9nYbakipyqZXgsKSyrgmFeeR+S8qQk5sjKCpDzkr6RMAxy2QaTJcthfGqtZg4aw6WjdaGztTpWLB8BWyNxmDFksWwXWSO8VpjYGZsgPnTJ2LTOnuoD6W2oroGRo4ciTHUPpwzxxjr1zhgQN8+6Ne/H/r841uKjm3fKXwvazynlr9s3irD/fA833dxPwwftfHkDBZ3gcjlckHpKirKBKVj9WMlzM3LRVlRCW6nPMCd29eQn5aC7Ifc4VyI+1l3SCmrcPdOGhprG9FUz/14wnAxqpvoGvnVyM7MRkVluQAfq+oTXS2GpvqYa2GImcuWwMZ6AoYP+R6D+vTH0L59Ybd4PqzM5iHM0w2D+vbCdgcbrF2+FF5bHQi8oRj7/VAY6Y3HxNFjha6VceSGDQjOMSPV4bptHdbaL1Fq+DitSJHCpAz3w+lG7+J+FG0+botxcMFdKwwcq5SiU5gj3orKCmReS8WNO3m4fDYJOXcykZGWi6LSMqSkX0d5RTHu37yNuvJ6gq+kCz4pQdbQ3IrqwipqQ5bR9WugGEfuAZ/OlPEwNDfFXAJtrvkMjByvi+EDB0N3FAUa8+dgHLXltq1Zi9HDR8HHeSvcNq6FyxpbjBkyAovmGVFgoompOqNwLDIEM2dMx5SJEzBy9CgEeThjNUW9ygwf2+eff35F2e6Ha+K8bfhu3rwpV3QsK0YjFJ3MHHiwmxSer6pHRlYu7l2+hJqCWly9noqCMgpIyvNRXVWO8sIC1JXVQS5rILf6yI03tUghb5GjJLcEtXW1wjWfgM9wgSEMjKbDdN4s2Ky0xuLtG7F00yYsNRsPMzMDbCb3u27lYuhQBOvnshPfE5ie20VwXL4MKxfNh+bAIbCeawjbhWawnmOKWQbTMZxc8sjhA3AoKuS9wKenp7f6RZcT+PLLL++/6Gv5uq/o3l94KYS//OUv6W/7fh7vZOZRCIaDu0QUILKrlHFHcUkNUi5eQf7tdBRTMJFLMOWVppFK3qY2XzGpWzEFHBK0tTN88i746kn5ZO1taK6WoLKcIt+mxifdrtFCU5hZz8fiFdZYuX4FDG0XwXbHBpw6FI35hjMxTmM4bCfrYfygQYja540+f++NA2Gh2Ll+JUQrl6DXt19jWP+/w3X9aoz6fjApIrnsgf0xTnME9LTU3wt8/MXwUgHKsvSAsi2FoBjb5SiUs1n459SpU4Lb5bZfTk4OpDIpKVY9rt+4i0vxx5B75wHup2TiYU4q8gouo7Q4HwUPs1BZUEyqJ4ecot329g63y4FFbaMEddJmoW+vsYaUtPwpAceIUeqYZagPQxNDWCycD+tlllixeimu59YQjJthb24GowmaQhswkuAL9fGExoCBGDdyFHaJ7DFu4AAM+vs3WGs5H757XaAzUoPc8GiMHzMMYwf3fW/w8RekLBN2lG0CEcOXmpoq56GvO3fuCAHHuXPnhG4RVrzqmmrIm9tw9cc7uHrlEnLvZaI4rRDijEwUVd9Fa2MtKiiaLc/ORXOTBB0jJbVd98aQNbVKFY/Q2iDtSlDtAd860Tps3LoRoi2O8A3wxYGDEbibnIyMyia4uuyG145N2C1aT+51MOKCAxHp7w/1/t/hUGQQ9mxbjxnq/TGsbz9st5uPyEBvGGhpQGtgb3K7faFFQYkKPuWEjxML2N1ysMERryJzhaNc/qksqcaRuPMEHKlbYQnKcspR21oHSWsF6ERU5BdRoFFDrlkmwCuX1wugCQkI5F4bW1oFN9tM125taFXEIo8nkwbhQEIUtmwTIeFwDA4fOYBpswwRFXcGMaEhOBEVhMOh+zBiwBCciglBkI8XtAd/j0MR+xGyezNGDegPs2m6WLlgJtYvW4h5RtqICQvBiH69oDVUpXzKCl9KSopckfSp6FDOy8tHq1RCLrIIx+Mv4tq5VHLFD5CbVoCqihrUSKrR2lKF2tIqFGV2TGypra4jyORokz9SPqm8DRKpXIBRImmBrEUGSV3Lk/B5ernA19sN/vv2EGyBCArYAyMDQ0zWHYedWzbiROR+AjAUesOH4TgBFxfggckjRuDS6dPY57wZowf2g4XBeFgZ6mG56TQYThqDuMgI6A0bgKGD+qjgU1L4bty40RVwcJBRUlpCgUYpsu6kI9LzGE6dvkQBxgPkpz6AOI22tcWoojZibWkRyu53dM9wbl9NVa3Q1mtrq+u6NwmpYbO0I/KVkfrJ2wjCGsmT8G1Yb4cdWxzgunUt9jqL4OG6iaLXJVhmYoNdmzYgIcQfieHBGD1kIE5EhOGQvyemaWrDwcocG5ZYYszQwbDQn4w50ybCymQKJulowM7eFBraQzFUY5CSwvdopto/K8jzIcBnbW39V0Mbm/42JiYjLJycPjEx0TIwMbEZwc85Gupo6OgYz+fjT3O77G65i+Vi0nkcDTsN/13HEBZ1HFfOn8eD6xeQceMaisqpzfcgA0WpaShMuYeS3HxqFzaguaGj+0Qmr6bAorZzX46qxibB9Srga6M2YEvDU5Rv28aVcKfo1nsXgbdrIzzdtsDKIgjBgTmI8fXFkf0BOEqKqEmBRWJ4KA4FeMLfeTuORe1HfJAXNAZ9BxeKko0m6mDdigWYOlWLgg9NmBrpwtJyrnLBJ8zVRed83g4IFZPIFVB2vfSx4njKDJ+NjWF/AT5jnfGGho7CVsfYZrzwnNaABYN0jJc9Dh9HuxwE1JPqPczOwYG4JFy+Rm42NxcFWWkoSs9Fzr0CVBdWojQlBenHYpF9+RxKbiWjurIKnWxRW4/afbIKId9P1kaK1yJFi0z+xP22NlG7T/4YfDs3rYDr9jWICd6D7ZvssYv2Z+hbICz6ICaOHIGzcdE4HRsBze++w3FywYf3+yLaezdOxUfTX4ofRqsPgc+O9djisAS7tqyE2VwzbF23EJZm07HI1kyp4BN3lsUQJpB3ViewcLPoXOS5Y2K5m5sYPdbD+ECUj42hY8UzNjbW5a2Tk8UnrIa8/zh8nFjAgUZhcSFKKvJw98ZVpN++gNK8AhSJi5GbW4z8tHzcv52Oe2lpyOasl4Y6KGJYdrOtrYXCmK60TYom7lZpe85YcXuH9YDPZsEOLF+0GYsWGMHFaS2cnLZh2gQ9zJo0CRoDBwpu93hECHZv3IQIXy+cpPZfPLX7zh2Lo/afJ9bZLoIfwee1bQ1OHQnFpOlTYWwwBousZmO89th3Cp9i6YFnwfeo3nFn7WMCbxgZl8cQK0pquIk718F4ffiethTCY38NnXVhFA8ftQWeVeDode5HsXREZzJpG/fPtbZJOqhob+9xfXlrx+NWtD+FJO42kbzSH03PNt9KD9jZuOLcmQPY4WSP1evXwdIhCdvWOmDAP/6OIxGhSIwORYCrB0I8XXAweB9B54sTMVGCOw5w2wzXzavh57YJoXu3Yep4Laxfuwzue9ZDY6wu3mVZBl564I9//OO1v/71r/feRsDxxRdfZL7s/TxvKYRH9WI6XD5PRewooPCcAkevcT+kiFq/+MUv8jU0NDYnJCTIXjSr5XEJa2+TvvLn2AO+FctIvVa549KPJyHasBw/Jh3HTBMfaI/VRt9/9Mah8BAcjwlDbKAf4kOCcCDIH6F7dtOxSBwOD8LBQF8E7nGCv9s2hHrvhP6UiYgI9IJorTlM5swCgXD8XS2L8Pvf/z6FB+Zpm/+m4eOZ/T//+c/rX+Z+ui2FcPfp8Ll1KVyPokTPLHD0evfD9p//+Z/1vJxFcvI1eWFhPiIiIhCyfz8OxcejgYIP7rPj/jkGkzuL2+RtaJG0oLWlBdLWFuH3BgUFYj+do7DQ0FCEhYUhPDxcuF4kV7yIinrC+Nwe8Nlau2P0cA0cO3II67d7IiwkEAYGphjQrz/69+6Lvt98g9NxUTgWGUHAhSORXHBcgDeOH4hG5D4PhPnsQkzAXkT4eCJinysOhnjAe4cI+uR6LQ313qnb5Rok/Bf+/Gj30SJ7j+ry8W4HCG7PCH9fxc1xihTb89yuYj01cTfgnlvg6PXc7qfq6urbu5fL4PT2kJAQ+O3zg5QA45QqCkaE35GZmYnshw97tNtyc/KESeC3bt3EhQvncerUSRw9ehgHDx4QwAsODhYmh3t7e8PLy0vY7tu3TzgWHR3dE74lVm4Y9P0YBPr5YsWaNQgmsOyWrUCfXr0w8OsvMW28Ls4mxOJ4bAhOHYzE+UOxOBYRjBMHiWTaxgX7INzHlVRvFwLct8Pb2RGL5xpgg2gptq22Vr6uFnFHm66rIlVXBfhEwe25Jb45+F424BA/q9/niVUqX7+f79bNVHlTI7XpWoCqqnLExsagpLhEGOE4fPiwACFPADp56pTQHqytlqC0WIbs7FrcvJmBjIz7BGDyIy7b2ygAaRE6rBVVCn788UdhYjnDzRDyZ9ADPssFTug/cDgGjx+IW9cuI9DfC57ubuRyv8V3/+iFqRPHI+lwLM5QdPvDoRhM+H4oThN4fIzdcVyQF6L99yDSz11wvd7OGxEb7AH9yTo4FBGklPApqo2Ku/YfVapKFL8/+F412n21fL5UeVU1gVfRIoDTLKlHXW0N6uvqBTVsI/fLUyDZWlvkyMttxd07wPETJYiJuU52ltzsKdzPkCL5eiNBKRHGeZubG4Usma7Aha7DfYmFhQV4+DC7J3y62oaYvcgSK2ztEBYeiFmz9OHuup3g64UFpkbQ1FCHxrDBgvqxGQ4fTi44Eidiw3E0MoQCEG/E7HNHFAHIbT8/163wdFoNvTEjERO8+53Cxy6OA5x/6na7yqF1X+c2Udj/d4Hv6tVUeXkFUFnRKsy5BaSQt7UIw2ucSsXVCKQtrQReM8pLa5Gc3IDoqBbs2NSMTSub4CKqw6YVdVhgKMM8/TrscS3DxUvZ9DlmoaSkWGg3MoQ8isIAKsZ9e8CnbzYPa+0d4eLsjqAAT2zcsJa2nDr1DWZNngT1wQOhO3QAqV6kAN9AagceifJH/H4/IfI9FOqLuP0+9NgHh8L2URtwN/btFmHHOlustDZ9Yfh4Xbc3EXB89NFHrX/4wx/ynhtwdC03IH6+u/sXhu8mud2amnZUlnNVAa4mwOn0EgHAxsY6YcJPTvZDcq/ZuHIlH3EHK2Bu2Iw/DQL+xwD43Wzgf20ANQ8JPlrYDm0tCeIPViM9vQLl5XVCwMLgMYAdELY+Cd/Z+EAc3L8bXj47SEojEERuN4rcZe9vv8aIQQMx8vshmDNsFCldqBB4TPv7d9TeCyf1CyXwAhDhuxcHgr0Ei9/vi2CPnYja50LbbTCeNPKF4XuZipzP69r41a9+9YATMlVju8+H797ddLmU2nsNDQxfI8HSUQZDSgfb2ggYKScbNCElpZ4i2UqY67fglyMJtqsPoCZ1hlrLVqhhJX6CsVCTeeDXUwEfZxCsoDafjK4l7VI9NkW3Ts9aLXNmYZfrZgQE7iGXOxNhwRSxUnBxPDYI/b79BuoE4OQhQ5Dg74HT1ObbPnIcteUCEBcWgiPR4UJ3CyseD7UdC/dGrL8LYv12C90ulnNmvBR8b2IOBHeiqhILXmQC0QN5R6AgF9Lf2d1yNjMHDXKh47kFNTVSHIpvxKyJLfipIYGXexp/QC9YEnYWZDpkX5OpYQ7+ww5YuQA4f76d2n/tpH41OHnyuDBuzEmqXN3qCfgGDe6LsAhvBAe5Y8bUCQgKdMPBAwEI8HBB379/i9FD1WE4YgQSSe3OJ0RjUL++OBwZiNiQQAIvEAcIuthAD5yIDsCxUN76ItJ3F46HMaz73yl8qqyWF4ePIlF5WVmpkPJ09uxZYbKQXC5FC6mgVNpEAUcztd2a4bKxAZ9MI/DqfTARP8PZdjXIGtVwmbYzyP4Hf4VaTTI+Gg1YmrRR1NwO5iwrq5Ci3ECKpCuFgkNc++8J+MIi/BAW6gmzuSZwd9uECFKxk0cj4OS4Cr17fQPtMRowVB+BpCMHkHggDH179yHV88HR2DDBDZ87FIaj4R3tvTMHA3CEoIskFx4dsAsBLiIVfEoKX8KhBDnX0+N0qoCAAGrj5QjXlRF0UlkTqaEE1ZVSOC5th9q++6Rt/42W+2rAaTLxfyCC9O4XrHt11/GRGdDn/+SwXCjBnj0ygrmNouRmIfhobOyceP602WuseG7uzrA0N4MPucrY6GAcPRCMrRtWwWzObOza7IjpI4fjx6NxOB0fjgF9++NoFAca/jhD7cDLiTH4IS4Q0aSYp2L8cflEFE7G7MN+7x1I2L/nvcDHSwTwUgEvsqTAF1980dy/f/+6t7n0gLIthfAojb6Y1E4m9O0xJFJyvZIWLm3GVovS4lo4LCXVOxGHy9kEnSbZGjXUVKrBRHC3plA7DvzhT4CZsQQ2Nk30HTbgwIEW3L/fBuZNKpUJ7b2ntvk2iOyhOVqDwmhf+PrsJB8fgpOHwuHu6gSHFcsxdNB3CPTYRQFHCJIOR4G+KJw/HCkkG3Bmc8qZOJw/EoqEEE9E79+LC8fCBfjiglwRF+D8XuB7maUHOELW0tJa+jaXHlC2pRA6kkmT5XV1NV0FgfLy8/Dw4UNhHi9H/1lZmbh7OwcrqS338eVApF8k8H5G5qCGYqkaNAT4dKGW2Iw//w2ws2nG5k2N2LatAf7+dbh4UYrcPCnq61uFIEZRULwHfCPV1bHXfQdiCRg/X1ckJoST+u1HoJ8n9ro4QWRrCW9nEU6TGl48GsVLymMz/TlcOBKJxJhgJJ+IRiK19c4cDEbkPjdcJPhY/RKjfBDsufm9wPcyxl00yjJp/F19DgzfmTNn5DxLjauJdlhG135mZofdvJ6PZcuAj5L34dYNAm+iGiR31OBC2H3azvCZQ+1IA/7vW2CLqAG+vrUkYLXY51uD+Pg6pKbJKPDgfsTWro7nHvBtFq1GeJgXSaW/EGycIok9d+oYQkP8EBMWhO0b7LFllQ0Oh3qT0gViUJ/e5Hr/IYCYFB+Kq4mRuHn6gKB+BwPccTzKSwDwOMG332OLCj4lhe/cuXPyoqJioT+vIL8ARYVFKKbHXGGgoqKcrAr3btVjJkWwamm7caOC4LuiBndC7mf4jP6fQhYLNQ/g++/k2EfQxcZWkohVIjS0GhERFbhwgSckycilP6OfL4AULirCFxHh3oikwCHpVAIunj2JqKgQRIb4Y9fGjXBcvghHCL4zpH4Dvv1/mGVgikvHonGSItzEUB/cPXsE145HYT+57QP+bvjx8H4h8DgQ4KKCT0nh4+KQnLUiaW4RIl5WJ+6ba22VCqA0Nclw4UwdRhoQfFm74UaouQlBxv/R//Fk2VCT1EBtFjBNq4V4qcIPP5RQsFGChIRyxMRU4OjRMlLSJtTUyJ6ufPu89yYFBu5N2rNnu7A9fCCCLCbpcExEUlRocJKPm1vStnXrk0J9XJNiAr2SjI1nJK1e55B0JDIw6UCwd5KP86akxKjgpBOxwUnxwT5J+712JSXGBpEoetP+ziQVfMoJX2pqutDPJ5PJBfB4OIw7hTm7meHLzatFZHAFBmoxfD8QdF/hI27ptV6FWjIdO0S2C/jlV22wX9pEwFXgytUC3LiRRwAW4/DhChwj+C5c4JrPLRTASJ+E79/pQ1fB9wi+jIz7ckX1ef5h98sZKTJZqzDqcelyKTxca/FNPznUYqRQa3pA7rcCatYE3VCy3u1Q+7wd40ZL4eFZjxMnypBM4N25m4NLlwpx6mQpTtKxH84W4PadMtTVyZ4PH+f788QTnv2kZWJioJgTwPn/ikkpwnNaNgY8aYXnCijmC/D5IhubT7vPFVDBp7zwcYk0zl7hvj4e/uLUp6KiQiHDJTOzAofiy7B+XRO++ILg602wTQb+uy/wp9+14fPfyfGb/2nDt3+TYfXqJnK51Th3rgi3buXibmo2rl7Nx9mkYpz5oRhJPxZS5JuH7JyqfwKf1oAFDJgAnZaJgTAFj7Y2IptPFZApIHS00enPW2OdQcsUU/McbQz/Zmjj+DcVfB+C8mXIOdWJFY+H1MRZD0j5mgjARpw6VQI/v1rMm9eCv34lx6e/bkOvv8gxVacVJsYtmDixFerDZTA1kVCEW4fExFJSuwKk3M4R4LtOUfKFiwU4f6EI52l76VI+btzMEWa8PRs+UjMBsM4ZT48rn5aWli1DyIApXsuAKuATZlAZ2vRXwfchtPlShTYfdwI3NbWirpar0ksJvEoEBFTDwb4J2jpSDBgog+ZYKeaYSuCwqgkrVzbDbL4ERoatQr9e3MFKnPuxCNeu5ZN7zcFtcrvXaf/KlUJcvVJA2wJh//r1XFRUNqjafCr4ONpNlVNsgZKSVogftOLmTRkOH2nA3r21WLa0Gbq6UgwjdRs3Tioonb5+CymhBBYWEsye3Qobm2b4kzqePlMiAJZMapeSkotbKXkCfNfI9XLwcSM5X4CQ1TAvv0YFnwq+qXOTk9PlvCJVSooUSUkyxMS0wtm5HksIKi0CbsAAOcaS4s2Y3opRFFT06SNDX7IxdEyfjjk6Ngr9epcuFhJohZ3w5VG7rwO+GzdYCXPJFefS445jOTn1KvhU8PHCf+nyBw+Asz/IEB0tg8uuRjg4NGLuXAl0tKWYML4V88m9LlrUDG16/MfP2vB7CjaGDJEJ6uflVYeTFNGyu73aqXy3OuFjxWPo0jMeIi3tIW7SsWRSwOxsldtVwUfwXbiQIU9LA06ckFEbrwE7d9ZTG64Ba9c2UruuCeto67yzATt21MPaWoIxY8gND5PCxKSFXtuAg9TWu3y5AzpB6ZI7lE8wAi81NVsYI35AdudetgBlTo4Kvi7jigI//elPG//85z//qAyfAUPxk5/8RDZq1CjR2/49ly/dl2dmAseO1SA8vBLBwTUIDqlBWGg1QvdX07FqUsQq2lbBw6MOmzc3Cl0vbu71wmhGUlJH14qgdDfzBHXjPr57BB2rXWZmZ4ICWUZGFu4RgAUFtSr4uhtP7NbT07NUhs+As1Q++uijFs7IftvwXb+e0ZabKyd3WIurVxspaGgSJgndSqknkOrJdTaQ1VOg0IAfzzfh9OkWMgkuXmwi4OoJrCrk5FYgO6cCWQ8rhW1hYRmKi0tRWkJWygsJlgorGvFjPt4ikang626sMqyAyvI59OvXL+hdKKyvT4A8JeUBuc37BFimYDduZBB46Uim7fVr96k9lyHYlSuZuHzpAUHKr7tPSpeBO7fTBbt9O02wu3fShVT55xln0fz6179ufuvwKXLT3oaRq5S+qjpwVvHbXAz6bRjD8ia/G/7svv7665svWvX+TVqfPn3OvHX4+AMzMjJqwFv44UzeVw0S3kaK/dv8cXR0xNtuA74XT6eCTwXfvz584m6lwLpq0j2qRSeUA0NH1YBEt25VmxRlLTpLiYnfJ3zPqKUnVry3RHHP+39GQSJlh4+HTXmIVDFc6mjIVU87hlN52PXR0KqWgZAHQMcUx/l8Pkdp4RPKgnWDr6NY46MvT1Gsp/uXCn6N26NzFPBxVap3Bd8za+k94/6fVZBI6eFjmDh5xMaxvyJzycZG9KliX1F2Vxj75+O0r0g6UVRIfREA3xt8HSChC74e5cC6wSdUjkpM7PbFP4KPGq7BH3/8cS1/MS9jv/3tb4tOnjz5CvA9p5aeuLvyPYLvqQWJlBw+zkwysemmcLTPSsj7nGanKDzOxxk4zm7ihBNWQU6pU8CqRPB1/7ISH8H22HOKYj3ibm63w1Ur1KXjC6GItYYULOG//uu/qt4VfM+updepeF1/MJ33/4yCRMoMX1cN507gOkAid8sKR8c7Mpo6Co8L8HG6HeeA6hjPZ/iUU/me8kV2e/DoS+peuKdbTbrHn1e43VfpgnhTAUd3FRM/9r7Ej62z8DIFid638jGA3ROCuz9mZWP4FPt8XACW4GTgeF9Iq1Mq5VNFu6poVwWfCj4VfCr4VPB9qMNrbBYWFv1e5b569+598kMbXuNyHir4VKayN2T/Hyx7PwJ6W3UAAAAAAElFTkSuQmCC&quot;&gt;&lt;/span&gt;&lt;span lang=&quot;EN-US&quot; style=&quot;font-size:&lt;br/&gt;  12.0pt;mso-bidi-font-size:11.0pt;font-family:&amp;quot;Times New Roman&amp;quot;,serif;&lt;br/&gt;  mso-fareast-font-family:仿宋&quot;&gt;&lt;/span&gt;&lt;/p&gt;&lt;br&gt;  &lt;/td&gt;  &lt;td width=&quot;27%&quot; style=&quot;width:27.74%;padding:0cm 5.4pt 0cm 5.4pt;height:62.35pt&quot;&gt;&lt;br&gt;  &lt;p class=&quot;MsoNormal&quot; align=&quot;center&quot; style=&quot;text-align:center&quot;&gt;&lt;span lang=&quot;EN-US&quot; style=&quot;font-size:11.0pt;mso-ligatures:standardcontextual;mso-no-proof:yes&quot;&gt;&lt;img width=&quot;90&quot; height=&quot;118&quot; src=&quot;data:image/png;base64,iVBORw0KGgoAAAANSUhEUgAAAHAAAACTCAYAAABWMJ1nAAAAAXNSR0IArs4c6QAAAAlwSFlzAAASdAAAEnQB3mYfeAAAABl0RVh0U29mdHdhcmUATWljcm9zb2Z0IE9mZmljZX/tNXEAACMHSURBVHhe7Z0JkJTVtcdP9/TsAzjsoOybCoI7blExcSs14ha1nppUyi2+JFWW+p7Fq4pZNXkuiTGLRp8YcYkviSYqL1FDXCCgiCAg2yCyw7DNDMzA7N3v/G7PhZ6e7u/eZmAW7VtFzTDf+c493zl3Ofd/zz03EtMi2dJtNRCZM2eOFBQUSJAdQ6GQNDc3S2NjoxdtNBqVhoYGJy1ag3d9fb1EIhHJyclxygHfcDhs6F0yQ0vJy8tz0jY1NQly+9CiC+jz8/MD+drvq6urM3yR2yUztLm5uV66gDZSU1Mjxx13XBvGVEbhoyi7d++WjRs3ypgxY5xCw3jFihUp+SY3dQy4fPlyGTx4sPTo0SOwJ0BbVlYmRxxxhPTv39+pjLVr1xp+I0aMcNJu375dqqqqUn4fjQU9WF1UV1fL5s2bvXSBzAsXLpTRo0ebBh1UoF26dKkMHDhQevXq5aR9//33JVJaWpqWGIGtIfmJsV2MqZWeGsQ3WTJo+VdSUuIcyqDDgD5yQEvxoUVmFJiKll7DP6sLDLp3714vvtSPHH369DE9y1WsLnr27OkiNXwjtlVZagRdvHixPPzww3LhhRfKDTfcsL8nJtOmq4EhxpfW9nJf+sSe4PpCX55BMtTW1so111xj9DFu3LiMdWF5oxMfA2b6fZFkJWDA8vJyee6552Ty5MkuHX3unz/wwAMyc+ZMeeyxx7rkt7YxIMPEeeedJ8XFxV1S4I4UivmIxlxUVGSG165Y2hgQIRk26IldVeiOUCQOza5du8wU8vTTTxsjdsWS0oCpBMWYuPmf18LIk/h9zz//vMyePdvM5cxff/rTn+SOO+7ocp+f0oBMtgiNt2ULBsRTO9jCmuyhhx6S73znO87lwsHW0Z73MBRrO1tw+3Hm1q1bZ/6Uybc/+OCDcu2118rQoUPbI5LXuykNuHr1atPyWHOxyGbByprjt7/9rbzyyitejJOJWDetX7++SxoPWV977TWZN2+ePPXUU0Z0PHD+vfvuuzJr1iy57rrrvL6bNeLKlSvNWq4jSkovlAX1hx9+2Ao5+OlPfypvv/22vPPOO3LuuedmLNvCRYtk0qRJ8umnn0q/fv2811AZV3QQLzA60GtosHfffbccffTR+7mceOKJpifaNaWL/ZIlSwxwwAhWWVnp/Z6Lb7rnkWRHhf+PHDmyFf3cf/3LGI8y7Uf/LbPVgEGzYRhorqA1kjB34SdyySWXykuvviFTp05tbcDCIyRc7F64GgGUNlQcX6C7SqjIj+6Zl/4iq1atMuy+98Aj8r+//91+1jTmCRMmtKoqXKSyFqSW98NPyqR00DD5xRPTZYrq6TTAhPwSQSc+JSevQMKeHi+2itD6GCbTFSb2O//jXhmmTtgZR4mM3fM3Wf3z66W0d2+JRVPj4LS+fG195fP7ikCiHviXdrwvAz5aLyds2yyhN5bIzn4tUBje+Y4dUtWjp9TqUJ2qxGKKCOUWSk5hD4ltK5fawkKpAHYLwOFD6pQ07txp2FX27SshFN4CD7aqQ3mUPfsTuYI2iywfTJc1L4+VPn37xMlU/rAqNaT1xz9GvfR9+ySkHmp1xZA24p4Y+kwa65tk6aqlsrH6Y5kQvVRyNpbL3sa10pgXjMQoEiwVm2ulR2lfyQ+wia0U20U2bNhg5qVUqAUA7Ny5c2X+3Dlyz/HaOnVdX6fzfP0Hf5Dde1lutHx00mfQgPRV2VZ34PkEXVY2bFoko7TrNi0R2dx84CVoK5VvC+xqHthVl20itlGCRlUrPFuV8H66xhdp0ddGfK84tNuqYE86xt2D9fEwkYhWGo02ye4X7pEt2qatTxNSmUNKa2UJK11Y/7bugM+zn+9g7KxlqBJHtyvNgieNLrbEIeXAkqs8K5t7y+4rH5CB408TaU7vNOI141NEAKdPOOGElIyxsJ28axXYR2fvrBdZsEl746kj5BRFaqIJnltc8/Gdiz179khfhg/TS+LmyKvbo0z0qxOGCIYBMNZi7X3W66XXWywQPs1q2VhjvcTq90pdXb3kRXIMLBW0EUYV8ZElJEWqweba3W16bM3eGlmwolxC2lGH9VPlaYPbUxMnGzKkRAYOiDsisaYG/ae8jNyhFmC7WQq1hShK2kp3B/4XMm0mX0ePptoaiWB13k+3eYfe6mp0hKuQoUf3lcLjJ7rsbTzjNlho4lv7dKi46667JKSCDit7SSqXzZTiyVOl/1VTpfTEiTLo1DSGVyY7PlklR06IY4eusrxsjfQbMkR6FGpT1VKvrfWxXz5m0Ptv3XNLq/m2bPUa6VWquxF2iAtgvnb9BvN0+DB151WRycor1+H44zfe1N6UI9vmPipLSibLiImnaQNskh7aqEcdF1cixouqEa2/QKPasmWLjDxGnR3XbqrWu3jBBzJm7BgpyA+YB9WAm391veye8640pRouUnwno2bgQh7U/5vf/KZ5teb1DVI2e6acNfkkufiyrwfaJKotP9Swz2W3A891qKCVax+VqDb/px5/XP74h+dl/gcfyNZNG+QnP/5RAi805tJaC3liF2UMTELDBg4aLF//xjcM8fz1f5a8o0+Ti6++sY3coTydf/WfLTlRbWhFteqY+DlesSOOktx+I0UHjsBCPb6fZhl5IzF1DU2So9S1e/dI8K4d+s1AyaaJ0zvik0STDgsXXnC+/Psd35ILLrhA3nzj760NCF3iZBmkkhaePi2pualR6mv9Gl2smfkkA1BDe3CsUcfnHIcnmoG8GRvwQNM4vKAujhMoCAX88YwzzvDR/xeWxrsHdrSG2P3HUbn33ns7uupuVZ+3AUORuIMRn6sObaGnJeKucH/55Zflhz/8ofH42P3Obm+l1rm3Ac1CyM5Xh9Z+8te//lUuu+yy/QjQjBkz5Ac/+IG88MILZo366quvHuIaPz/s/A14mL5569atMm3aNOEneCs7AoDpF110kdmXJCqgq+7FHSaVZMQ2AwMmYyMZ1ZOW+JFHHhHWm7/5zW/MmhOgm6EzW/w0oFOPnw0jBUVxWFOhJlfBk/QJ4MFRYbebwjYM+4U/+9nPAtnDF/4+xUeGzbogP1JDGpM3dIP4+36f5eErczxuVCE9T5vAN/LZZ5+ZcL7Ezcxk4WORfMnZtEkAEnYo8Fy+fJWEWAulKDZQF5wOgVJhrNBQ5/333y8VFRUytn+RXDSo1vTCy3WnolQBhFTywA/slnd7K5geFHUGLWgJhZjWZFrguk36TY8/8YTc/8BPjaO0dWu5LF+xUtG+9Gs8ZIcWPQA1uiLfkIMpAdr0gcA6uukiO0cRnjzF89esWSPR3DLVcfpNBozM1lwERbD5GBhhrw7MPg00rdTv6qHBTj0HDdi/8E62IR9IYC/4JsG6qfhCw77Zk08+aV4/sl+pXDeuTn65uEYefOhhmf4/T6U1PPMiOClDrSvK2TaCVHIgA/t84MDAclv1/z179pBBAwc4+TJaUNJ9X6JOqGen7opAmzYCvgVjrVQ8uFYHOGJI8wf1T6tj+MOXTfIIyvDZrAzrds9OBUEK8vOkt2KRQQWQddu2bYF82Tw986yzJF/xpeuKPpbmnHzdKJ5sjE+rBcZLVfi7DX51DaNglpR030e4xKSJE2X672fIkSrvESfFA4xdhSGUeduHFl4EC/fVLS3XkL5X+e5VHWOTYoeO4QtdIJid+CGxcMSA6VHdFXAVn8Dem2++WW655RbDatN3+0t9Tqm8/UJ80zhoWLJBRi4ZXHx4TiM7d8oUWbJshVTpUF7KjoFH8fm+RDZWZpcB7YjiGpYtbyeYDcP58+fLpJNO3R9W7vF9XiT7IwEU/9vXpFsv4QMAtQ1h92LUDqLvf//70qRbX/X1DbJr9bM673psMrajvsPxaqALSkzHr3/9a3nm2cnSuL91+rVSX2FjvsC0L8MM6BiOacWnnnKyLJ11lGxtPPQoUwbiHBRpoAGXLVtmAnQqNHwg3ESgr9aRCQp/UCJ17Ev0doAChsXuWAINSCjhMcccI3+e+ZYMK9cjUhoWEfucGbA7Gi1RZucqnq2dmuaIFNUv1r06Xj20Q2h3V2Bnyx9owHvuuces5x5/eoZM6UFkT2eLm60/WQPOHgjqcfd3vyV7P3hJPn1RpOQwbCdlzXLwGoh4H1hpiasLeQRt2PPuPmKFiNPIoCCvr8y+dGZiUA/Nd/mSyffBGzl88E1kAAv1ldvwBYsE1wuCpWJqvAalA2MFKdm2Y6eEAuI3COeDL+fOg4pZ+WkEGK58TL1A6A8EIaZ+E1gK/j5eI99FcZ1NZ24Aq6yprnHqAn5MKxw9c32f/QJ0wXYZWGi6oge4W5I9iHr9FVLt0DHGhq8xIMwD0Y9wruTqeTkCTzHg7i3lEo6l35VAGXwgfIOzmADtNEkea0E1YBx8ZqJNHXVmcUXwUOA6FxZqDejMaEEUt64Bq9UwW/RAJ40pqACj0ZCIEnBlaUFmdAFt0C5KTKOH87RhcoKvorJCmrZuk3A0OLDXGHDs2LEyUfFAV6mLrZVVus7tU1IkR01qfVYg+V0+qlDD38l+4VNW67ZIWGH4Y48/3kkOrsgCPB1WmsgA/JFy5JFHOvnOK+6hdINlkofMjABshdngKxdzhmbOV7gOzG56s5fsUqRynNqkYOJ4F9t4YK/vubdG3Sk3WGjUveDlA335xnQItVkgnBIrAb3b5n9x0fvSwYfzF0Fbaol18X2Z8EYXvOMayhkF0bHJx+P6OH1uDOhBlyXpwhrwN6CNbD6I4NMu/P3dXjR/A+p2EiH7WSita9nc34BdS+420pAOhDnsqKP0EOMXqGRgQM8DJZ2kvGeeeUaGDx/ufZa9k8Q85NV6GzDEEMoSzcMLPeRSejBkDWnPMn6Rctx4G5AjqeZ8Igc0XQVCz3PecTrOMac4QpuqHnNGvnerJ5sr9kpjpFj6Dh0uTzz7ktx207Xmue8ZeUPLcd5umDrV34BWZR6KDuUqZBTxWclwdFkbhp4/b6zYIVt+Fz+LGFSie3ZLtS76GxOSBuxQCO6SfRtl0yOrpZ9uQm+tf8PYoqEmHj22pST4QBxHq+vWLpbQ+H9zVd/lnkd8AVwNOZUcbaT1Gz6R9T8+J1jJuiDNV7hpvUf6SDTdXK1YbH2tVMyc7lQQUFOtGmdfwpnzAm2Gx2qbqZu7RI7Xn7teX2n4cI6dUuHAHvLUgJz3jxbHkRtXQWe+ejNyeNJbpMaXt0l8S3oNUO0gLBTGlbsaZa9Gjh27pVKq1r8X+I2MigRPV7kD2AyfXBJC6Aia4zw5Gq82ebDFvTKn4TWTBj+T+TgThKm8vbQb7pn9mKzc8bZUj/uqRHPydMpv67ihC4uFEh/qg4USgAsAHoSFRtXHKFa8Gbwbm9Q3L5IcBxYKXQTPzQez3K2pM8oq75N+kSqJOgZe3Pnt23doyPogV2M2c2rVe89IdG+VNGyvETJCBBV6IMOjTyyU7YFBfleIb9GTzX0LY9J31f9J8+a/y4TLNS9AUa+0+9f2jHxiQqAgmekc0AZBaRpxJOVv9ZBqxZuxSdFx41M2oMR6APUjtIqgbQ77Qr4Sl578Vek9ZoTTKGDom1eslb7HuGlhVv3Rq9L3yvskrI6Iy4DscBCE5JOF1273kJ45Xdm3eq7sevVXuuekDUNHjUhJbylQID4UsPWDIXz1Rr3Q8o5Lz/ZshKHXAGpXgS7iGgIsEwaTqKbB8CnNuuUUqq1UUrcBOTsO3+Jjp0he/1FO9uUbt0uBRk/3LHGnL67YhgwawTwgfbR1uKBEdv45bsD930qqzQBJMgHfYXMw9E5FtPDN3Av14Zwpjc4rvo1Daqskxr5oSfpetd8Q+6pafk1vQFNvN4716RoGzNTgWfr9GsgasJs3hqwBswbs5hro5uJne2DWgN1cA91cfO8kB5kc7DcLTM+D+qFchax0GeE6/Gj1DF0mtC77mJDDJKKwI4lCJrqANXX4JGbINMkBfCPsoxEiFxSRhYKBj9j1JlzQdYKUiC0SCHAE2HX2XhqJ8WzQ7PDrNcNhj8AsGDbJKfGQhAy6khzwXZR0J2pjmn0qqt+f0wKuguFCu1aTEpiUyinif9AFGCgoD0Zx6QJ6dAEKE2hE3Slo0OQJJLTl7Hu4t2Y2DjjGgPHMGXmLFLhaaibPfdAd4LBGPRHbqAY8mOJTh5tvihW87z6mm3krCpe8bWBzRwCE5Rche4LP/QYg8LSgYcOGOUWnVdILAWXTlX9pIvX+mhF3zJijZY0Oo8OHD5OcQW1zUCe/D2+b6MAliD1jEBQns698sKzRrSlassnRols0IzSLcVBqSKLTwTZ9dIGMjF4EULu2iTZp9LZu+sgIDUQuHOoORmYUiPgGs2IQ32BdaF18yYN28623GRtgFHg7t32UFjpfOXzokDO5H0a5ZLIw/YZ0Jrrg+6jDXogZ1OhsYK9Ld5YHdJ2yjKBFMob308z127Zs9HZ4XD3ui/i8Uwz4gaZSxhliEp496+9yg/7erRHlTmw5nWJAPDJuRCFHWTw1F/cTZMvBaKBTDHj22WcbWefMnWfyhDY//QwuxMHI/4V/p1MMaLV+1hmn66/N8qlPfMQX3lSpFdCpBkSkWDuutMvaNL78yZZurIGsAbux8RDdO0uFAU49AepMsjiElKe5Ri0D3pnQuuyTKiNE2CFLJrqg/sOapcIEh6rAQVkf7AVVHOwHUnMFAYM6ACS7EhGQCT/UVCeFCk0tXrxEmrfqlT0BQZxAUQDDJAwATgvCF6ElBJEC5JRKZoJ388pW6yVWcR+YM6ygGws0Q2M0X4H1NGB2YmCvD5hNBl6y/AJFppZZg7oI7NXMwpwYwCYNzUM1yUH65Hs0CmM7cEIuuHdlfCBtMYojQNUFzNr7CMmzFrwbwYHwOtmq9+oNHjlCco/Sy7KC7gRs6anEhPpk7AUsoIBZppSDKOvdg2WHht6zIYG9UAz6CBWyG5E6MpvdCBIgufRG3TR+GjS0gXGhSrdD9VujNsMmhUePdurCIFp8pM+lGvRQX1pami+tNOfqR4ZVhiLJ87i7nl0MlOcjs72uIIg2pt/f6o4sVSR3VUi+ZvZLU2wWDh8ZYIEu4OnaE6zQpEfIAn2Jhy6g8w7sNcl4PI9fZUJr84VG09wGmqxDZHANW/YdH3lT0cA/6LBbJt9nlkreMsd7vI/cli7rhbq8nC7+PGvALm4gl3hZA7o01MWfZw3YxQ3kEi9rQJeGuvjzrAG7uIFc4mUN6NJQF3/uHdhrbsryxCszoQ0p30wCe5HhUAf2JtsoTHBmQMnk+2DjK/NBBfaCF3IjmAtKs4G9PklOgY7g68Ir47kV6wxmigzhRkVAApLp2SBZYD1XggFLiwLTLbxJshrVYGWbOSWeTjMq6/VGNylAltRQGgkLuLYn7WVWCcZHDnQBahKc8FWzIivOTNuBPly6SbHY9Ok1LN8IuCWH5V0ANTTQAuS6kAIMSOykk9YYUPNKqNGgj+2rdQoNHS3axdveooYu09FGNRNxmDvvE+IK+TboTSaHNGA2uvD6Pq3bygHPwCv+uJtK4UpkQc/RWr0EzJGlAroIN7MAtLoKAoDn+WRmQAkMBz607AOs0cQ9I1SG8MCxLjFMq/fN2GswTS1BGXtrq4fLp5p8an9grzaOsWQwDqfPb43xODYwhgBgj8II45WxV+XdpWD2OLVJwTgFsx2FkcA7Y28mwawZZezVHojBTeCrS2J9fqgz9qLcVtH04JbassOF6Q2YiS74pGzGXg/DflFJssuIbm75rAGzBuzmGujm4md7YNaA3VwD3Vz8bA/MGrCba6Cbi2+CmnyChCyeeKhpDwQ1Rb3lQAZfObBP4MVeKYKpDH3AgRtbv48M1G917KK3EGVMZXLRWr6RzxS4JfwuCKcDFgM85jYwwgtdQcD2cihwwEBBFEwONdVKgSIfK1aulFilxoIF3NFLzCagN4B67969A3lDG78NLX5GPZXMMc3rnbturZCyOTGwd/HixRIjS0WKIGO+iSBdgpxBWFzX4KE7MvaiE+JC0wX2xjRLRaHqWFFFwSaNuctUN+lTHoMHEzAcGTVqlByvt4a5AGp2AIi2Jruvi9YmAeAQZzCtJjXWLBWfvZQvo449VvKHTnIGs2I8AnsHDBjg3EGxN5yB96YL7K2uXSobFAvlfD7YNYpBH2HN2JtuN4IGQYT4sSqzSxc2DzZBzoGXX2nD2PhmT5OmetToUVJyvN785ghyNsC+nQJcV6MlThUu2sTnLtpEINJsCnik+bA8nbwThM6UNlNZXFMp9Wckg6cusl6oS/Nd/HnWgF3cQC7xsgZ0aaiLP88asIsbyCVe1oAuDXXx51kDtjGQeou5wbEB5nkk/Y59G5aaFdHF07zDCVMtvtF/hraLN7COF08jwRp3rpcwUWlpShOXalVtlaaq9GcIWy27dm+Rpp0lkpMf3DBYE3MlFCCBO+1fvIasARM0HdKQvua9lbJ22vGB61EW7yH9t8bjJjfYFygstzGsPdtxQQWXoBQqfvDwww/Jj750o/TIc6f/i/gGyWaSpRbIyJevydirHxkuTn85R6uOUNRb7w/0p3V1YdPTEsM/uU2tVsMKHQWZ3Reyx5mYeFOfRFQ6gh5Rohms/rZMnn/xj3L7168LlMIEGK9du9aEC7rwTZulFo4uoJWorXXr1pmx3HlGXrPShvftkW3P3i2h0oHcMJlW6LDOEY2Venua3ivUUFSsvBPuoEt6i2PbdXrXIGVzz14paUNkyd2g9wYmXVPkur/JVpXJhS++tDGVOyc3Kt/7r2nypZOPS3uzHFgvmGnEYosuTA9QlthQn0unAG45x26xSFdr3nfhf0rDkjckryGu8HSFu0NzVAbSgESrgy+HwrRhLgWkp9TqZVYpmNIpInkF6mBoo9ROx21nvlm/GD29aeEb0F1J0c2phZ768xefiCyq0lDEyrXyyiuvyK233mo6TPLGAP9HxxFyTw8cqC3fUWwvHTTIfaUcOxuA3z60VLt84jUy9Kt3SYl7yJcyvfyqp15+1c/j8qt15fHLr4YODB5yN/18quzbtkWioWYpTrgZNJ1KGK0YZYpbsmC4dMfuRWFRoTCCpCrsKlTs3CEN0ZD8foUmv9UT+jSQGTNmyL333pvWK8V2Edd2iK0QoxwOWsO/vkbvD9yjTVC3cFwlk8uvlDZegg141J1/kR2Ve6RSL2AcPmKoSwKprm00OzPDx4500kKwcMkyGT1hvOSnyZwQ2lwuuzSRO8P+zz8tkyGDB5ppje0qcqpiRIbLRx99VE477bT9dWKPrBfaoo4Ye28B+2+JloppciJp9ryelBebG3TbTOnT3Ek47MiBwj9KD92cJIe5PQjz1ltvycUXXyzTpk2Tu+66S8g1nliyBrTaYO/NM42KofOlhX8G9BycsQnm8Uu+8pWvmPlv9uzZKc9iZA3oNQh2DpHdP3z99dflueeek/vuu6+NIFkDdo5tMqr15JNPlquvvtoMo7fffnsr7z5rwIxU2bHEdmnHKuH++++XuXPnZntgx5qgfbURe3PRRRfJbbfdZpL73XnnnW3W1tke2D4dH9a3WUpgtOXLlxsH5tvf/na2Bx5WjR9i5qBfX/va1wK5el+9w3jsu5A3Sx9dZPqWTLL/ZUrrK4NvgHN8VeAXeGvrzkQX0LpgzUS+kSpFH7hJxZWlAnwTSIifLlpQGxdfdixoYQhMwHClgtTpM9qK2d2AljUSGXgBy5EDPhYlgobfzXZPyzVxfCz7ay6ZWX8BjwEBUgDiaSzJyrcJXJEDfVi5+Bb7Pbxrg36hp/6PPvrICe5Dy9V6zH3pg4Dj5rO0ES7e8LkkygroczETzEHLg2iJfubDxo8fbwJpk3sW79vbvlAiUdYkFiDKmVvR+J16FixYICNHjjT/x7CJ+KvNh+3TA6gLfgaeUgOwS4P8BAUnFmgSd8yB1PgbDdveUsa3TdRECTbhrE1p7dOzbMNx7fggk9lOsr/4DjW++3wuvhgCBWHE66+/vs3VbEQdg/+hHKLH52se6ylTppjQeoxu5eD/J5xwgmmx7777rlx77bVt8rG4rn1L/HZ7yeR7770nN9xwQ0oguayszDQ4/v3zn/+UK6+8UhYtWmTqBTEhxTM/L7300v2sMwmToOGlSsaeykad4oUyVDHEnnTSSSZEnt7FPYa20PoZyhgmURLnIOgJvEer5hlh6rR6lLZSz1UMGTLEpEthKHSlNnY1VsLm+/TpY+rhpy0k96GXAzDbPU+2zNj2YVuO3r9kyRJzL9SKFStc1RyS551iwKVLl5oPPuWUU8yYT/Z1hhdaMfuNGJP5BRCXv9MaUQjGoaehROZM3mPo5B2UzbyUSUtPp0F4cWGjOWSiOwKMFtQ3efJkcybivPPOM69SPzQ0QmRjRGFKgoZpoSNKpxiQrOy2x9HDUDqtt1T3+RjC2B9jrysxyztDKu/179/fPGeuQnEk0Fm4cKGMHj1aSHyTyRCfSsGkuaJ3syMAXxbQyIVxMCKjgZWLeY4eiqw8x4j8zrzIiNARpVMMiOJtQSH0IgxnJ33mEHabE8uXv/xl0xsZHjkVlHi5CHMiSge5b+/wiRz0NHKbgUHa+cgaLXmT2maB4rnNYt9RxkM/nWLAZKchWenJxkt2iJLvX0icp9rb6hMbV3I9vtcMtFeGTN7vNAMy3+3atcvkUwu6pNh+DA4Nw9Mnn3xihkt+pwDwAjMxzK1fv944O5l4nemUxbzH8M5cGFSY75ivGT34HjxmlhGTJk2K3z9xmEunGRB8j3mMeeWaa65p85nMZzguLCOY51jvsYzgLnuWDbagQLw+hlSMSWMIvCHFQ6HMsfC66aabUlJ//PHHxgtlnlytd85jOOZeZH3zzTeFw5yzZs2SqVOnetTWPpJOMSAOCWGKeKEMl4QJnHnmmfu/xN41xFIDI2NMWjbLBuYmehrKY05k/uQ5i2jmQuuptkcteLn0aBAqGosd4mk8LCWoC1lYm7LkQUbmQrxhZD/99NONh9oRpVMMyDCI4lkH0pJZSrA45qOZz5iHMAruukUvaPUYHQPi8c2ZM8fQoLSZM2eaYRRe7fVCUTry4GHCn6EUsIG/nXXWWWbNev7555thmp6Hk8PyBWcMozKaQIMD1BGlUwzIvGJzbdpswcBjbFzS2mnFLBeS0QjmNxbOtHoMBw1/Yw6yC/v2GhDl23ykzLuMEvbyLIZ7lhV2rcnvl1xyibGTxVKRC2yXZx1ROsWA9D5bGApZE2I4O1ThpCTPY8x/OBUYKPkmMCArntEz27uMoF56D3z4aZc2yEvd6ZYIjAz2trSOMh4ydYoBE1tmouHs31M5IYn4YKrnDGntNR71Jy5JkpcN7XWODkeP7DQD4uUxhwA5+Sx8GWpRLt4rDg1zDnPTsmXL5JxzzjHzHygKvA7VMgKFMxqkK9T54osvyhlnnGGGVYZY6EFwmN8/18sI5jncbpwRdiOSC44Bjg0FtxyPEKcGIJk1FgWnARoMyPAGL6K32ttTmGPnzZsnN954Y0rb0Wiom7mSJQ5LBuZjZPjHP/5h1rbsUlx++eWHo9O14tkpPdBmfcfdZt3Geo95zR7iQIG46vQw/oaLTsu2ywiMxv9ZguC84N7TIzH0oVhG4MjguCAHhrHXC+CcUBfeMIA3c5257VMbIp41tHitn/tlBAZjeKH1MiTSWpm/aNn2sA2eJY6LzYDPNo05JKLOAsqjt+Fg0FNfe+01Ofvss80Q1l4vlObN8gHM8+WXXzYy2NRa9HSGaTBXCmvC6dOnmzWsBbSvuuoqM0oALnRE6ZQeiOtvd7pxu1lWsKtOq6fQw5jLEo1BT+RvzIN2MY3Rr7jiCmF7yu6mt9eA7CTQMJAFuVjeMFSyWKdeZLDOEr2eYZ3lDwA7vR8AgF7qc+LrUBi4UwzIR9rC8GgRfbu+QnHJ+3ooyi4j6IWJa0R2KnhGo2ivAfE8Tz31VDOPsrdnC44RRknEbaEF/bHF5kLrKONR7/8DagzeUUJCjsEAAAAASUVORK5CYII=&quot; alt=&quot;门上写着字&lt;br/&gt;&lt;br/&gt;AI 生成的内容可能不正确。&quot;&gt;&lt;/span&gt;&lt;span lang=&quot;EN-US&quot; style=&quot;font-size:12.0pt;mso-bidi-font-size:11.0pt;font-family:&lt;br/&gt;  &amp;quot;Times New Roman&amp;quot;,serif;mso-fareast-font-family:仿宋&quot;&gt;&lt;/span&gt;&lt;/p&gt;&lt;br&gt;  &lt;/td&gt;  &lt;td width=&quot;28%&quot; style=&quot;width:28.3%;padding:0cm 5.4pt 0cm 5.4pt;height:62.35pt&quot;&gt;&lt;br&gt;  &lt;p class=&quot;MsoNormal&quot;&gt;&lt;span lang=&quot;EN-US&quot; style=&quot;font-size:11.0pt;mso-ligatures:&lt;br/&gt;  standardcontextual;mso-no-proof:yes&quot;&gt;&lt;img width=&quot;145&quot; height=&quot;132&quot; src=&quot;data:image/png;base64,iVBORw0KGgoAAAANSUhEUgAAALUAAAClCAYAAAAahbwyAAAAAXNSR0IArs4c6QAAAAlwSFlzAAASdAAAEnQB3mYfeAAAABl0RVh0U29mdHdhcmUATWljcm9zb2Z0IE9mZmljZX/tNXEAAHVESURBVHhe7b0JnFxXfSZa+15dXV29b2q1pNYuWZaN1xjhCGwwHo/jGDCZ8ON5GMjAJLwJk4GZ8BvgvTgT3jz/eIEZkngSvwxMcMAvT4/BgIc4IBs7trBlIVmLtbVavS/qrq6uqq696n3fufdUn766tXSrZcn8XPZVV93l3LN853++/3LOcXzlK1+xvFWfL33pS9a36l2reQ/qorSa59555vqqAcf1lZ13cvNODVx5DVw1UF+hVK4k0WtJ+mqStqYUVvP8jtS+cnBdqxSuCqhXCGgzoK4W1Cupx6ogN5bhHZCvpGqv7b1XBdRXUKRqkriWlK71Wj5fU1rXSuSd69d/DawZqK9AOqtgvZqgrtUadUvuXxWpvcI2u6z+rtd6uGJQ11ExlUBrBHA94K4lrVfCqWVa8hlVktcE+PXaoEbk1dE+tTp7xeuV0r7WdXPFoF51jSw9aAbma82p36Eqa9Cw1yqJVYG6zt4vgVlLUl8rUNdb56ZSW9bBtZZKaiHqbJd6y73q+8zy8VbW06pAverSLpfO1UBfqyNUyoIE4GoUwtU8swZV8U4Sa10DKwJ1HZKgFlDV67XulWWth2vLe6uBmtdU4BrvVa+r96nc+zLgX2uJXUebmGFmNfSuUqevSxi8lT6AukFdR+WxomoBtRqojc+vVJGsBFoV8MZ7ViskKoKbCV7tobaOtqgF5NWAeiV1VVPRloldjbqqG9QrKZF+rxHgZqCtBGT1fL0Su5YklsqfWuHFOspVlySqI51rdUu9I10ty1Il5Vl97rqoq5qgrkMqmElfNmAlUEvAqn/l/cZrajrG70aQGKmFsYIJYJVy8LtNOVcN4LzX2OgVG5B1djUkUB1tUUsAVANuLVCvtlO+5VK7IqjrqMBakpiAMYLbDNDGTlEJ9KsFdSUeTRAbpY8KehXklaQU83RVpVMd7VANyJUo3Groh1nHrlR+mb76TE3qt1b6SU1JvYruWY8ErgTuSoA2ArOWxDEbElVgysqWFa1KbfmuuiXzKuroaj1iVi9m9GM1oK6VZyOAze5XwV4rvVVfXy2oJfhqSeJKtIJSnIeajvE3K4nS0h4Oh139PT2Ojtag0xv0Ojweh83rcFhSTD1vsaTz6WI8nivE4zO5iYlofnBwIqs/KwEq01ZBLKWMPGekH5WkXKXKXiax10Lq1CGljYA1y/NbBerVgNB0lLvSulstqCv1wkqcmOclsIx/L5PsALFz//69we0DA4F1nS3BplAwGAj6vW6fy+dy2L0Ouw35tlkFCrV/ctlCIZNZXEwl8G80lkhMT1xaODM8kjh48LXEmTMjaT3DqrSW32XnMYLcOLS+JVJmFcioJp1VoWEUQNVoi1k2zGhcPdm9qvTMLAOmoK4iIYz8V5XEqqSVIDa7bgQ177F5IH7vv//Ohv133tHW19XcHAwHQi6nPeB0ONy4XgJ4UTlFSy5ftBSX0KyVyWZxeCxOnyccCjfZbJa+bou1uH1j9s7UTckP378/PnEpeunIqyemvnPgYHRiQkhxM7pRCdRmCqjaEdR6vawBVyN1ViChq42Yat0bAWwmvVXQrwTUqh4inzMq5GrdGtNec4V7GahrVKaxAo0Ar8aTjXSjfO+2bf3uB++/o/ldN9/U0xYJt7mctoDdYnEVNClcyGXzxXxJZwbFkngnfpUbBQmXLLzZVixZclp9Oay2ks1hs3vdrkavO9zUHIl0DmzoTr3vnrsuHXnj1PAPDhyceunwsUW9dtV8G6mISldWQkdMwV3LIrJCMKsgrNU2EkhmyrsR8Gq6xnKY/TYDsFmnqOfcmgiFK6UfZkA2oxdGUJfCYY/r9x79aNtdd93cFw4HO+02mwfYtFmK+WKqUBSYtgDEKoCLxeJlQ628brPYyhWStxRKFtER8iWb1Za32WxWh80R7GwJ+VvuurXr9pt3T79x5OSFv3jyB2PHzpwhNWe66EuCzJhJZmkpURtGpTL1NNjVuseMV1caUSWomRf1uwrklYBarRcpAPi8+t1YbqNCuea0rl5QX8Z7dSBUk84qj152328/sj/ykQc/sLG7vXWdw+Xw5rN50Io8IAhioUhjglgFMq6a8UdRaTZKav0DEJeWQF4oFQsFi81uL+SBWYfN5ggH/V133Xlzy5atW8ZfeOHVs195/Ikp9gAF2DIpSTMkAFTaUTEv+sMr4pJ1SmkVrBJ8KxkxK7WjEXhq2czKIUEr7fzqiCbvl52+GsAr1eGqRjpZiDKoa/Bos+HNjEOrQL7MwkErxpc//9u9N9+8Z2vQ620GYEupbLZAsAJ4NkpdCWIN0ATxknSG8K0IJDxbrgg8V5IgJ8BZWFlQILeYz2ZLDnxaW4Lr73vgzuZNWzrPfuMb/+/ZQ8eOUWqrEoySSHXQGPmjsTGrgsGMX9cJZjMAS2m7VqBWRx6zcqjXjZTDWA/1Xlc7hVnbLgN3vfpJvZJadoJKoDJKbAnoMkDu2Ls38K8/9+Etm/q6B6DLeTLZPMBMwVy0Ads4NKkspTGEtnh2uaS+nH6o0nnpu6VUYA+xgYQIBXMJ1UgUpy2lbKlYylttBa/HEdizfcvuP/7yvwz/zYHvH3/y28/O6UBWh0V1mK1EO94KOlJJUpuNmCw1KZX6jNFsqkpoKZCMUttMUhtBbwZq46im/lZHQtlhVzSyGTOp/q4G6rUY6liJxYc/uK/xk48+vLuzM9xH0KbSAHQJANU5swpoI5h5rVTSFUT9r1mBcI+oFKvVulQ5eBc6kPgNdgOKon0n3h3QLNGdLMlUtuR1OqytneH1j/6zh/wdrb2/fOzxJ8Z1MBAU5PdmI1WtoVPtFMuyXId0VoWIURJLEMi/ZoA2EzLqKKpXg2Z1QrvYe3t6XQObe72d4Ra3x2uxYyCT74UPIJGficfTR48OpgYHx/MT0YmCJS3omuzsskOrXlqjtFbzrZavGj55zZSK8EIlxXulktqYgWoSWgD6wQf3N33mkw/d2BIKd2fykI55MGcAWpXOooYBMdILCXACuaiAuFjI2wDRot3hyRGUpWLWYcE56TEhmO02OxTEkpV8BoqnZvhDp9A4NlCMCtKoiaWkYVycL6Vy+ZIDlpZQKNh6/wdvu9nhyb/2lceelMBWy6w2YkXQ6g+speRWO5UR8GobGCmfqrRLUJU6wmH3rbfs8u29ZXvjlg29TSF83B6XB/4sl8MJIyqqrwjlWnsRWqtoQcsVc/mHSplMYjE9E4vPnzoxOHv48OnYcy8eSqXTaZpJeT+FgCq1JShVXq1eNwqGNZHWtUBdSULJXq9Wmko5BFcCoMP/6hMfvikSDnYB0AUAusyd8R2icokzF/KkIZpUJphhAClLaMFDrI5iHjbq4fmxFv7sCDTFYLUrQQtkRUIRRH8oIH29yYs6NQZwgXPcxl5EcJOSlMGtnwO40c0KpERet7vp/fv33ZSPpw4/9vWnxvTGMloKJLBUaWQWELXaRjJK50rS2EyvUc8toxt33LHN/959d0b27tzYHmlpaXc5nT6nzeKy2ABngBfCAPmFDoKGYWdnISEcLAUA3Im/EAs2m99bam4J5wb6urP33H1L4tHfum/88PE3pw8cODh3cnBQWpLUDl0vyEUz6p1CFSTGuja7tuyco8JQaJQM9Qxx6j2WO+7YG/hXH3/ohtZIqCuTzQJThM2SMkhAq1SjgGvMWY4SmSUT9aq1bcniKKYLWfsbsWM3zNknb8CTlkuJtiO7m2894nH4M6l00lXIF2C9W6IeMG7bQZ5hG+R/FqvT7sDrCxwJBLjtDgpxjgwWKI1QHtl+wvpiK/i9rqb7HnjfnploOvPEtw/M6JWtVhwbyoyeqfcYzYD1ALwS5atW/0YQq9JaiINdu3q8n/rYh7q3bd0IsRxsQfndOU1nKcGZhUJndQs/bxd6jlWQLhYcAygBT66BD/AtzvLjDwb9/tBmf3Pfps7Uvrv2TB5+Y+jiVx9/ciIajTI9KfhYD/IwSuZKFE5r9qU6Nq27StGQtST1sh5Q4Ydx+LN0dHS4/u3v/ta29pZwL8WrUAiXAZoK35K5joCW0tlasgpJDY6yVGDQjuH4cM+0e/TX3BFbkCPj6Phow+jzP7EG0o0Tm7f1xLu625O5TFarc9YGAM6OYdM5NjsL6YngRHRJ5kXLlJA0+TZlFU7aYNTGxXS2EPS6I4985N5dZ0bGXz148NCCDmxZ0fI1km/XA9h66rLWPbKujTRDHTnltSKtTZ//7CNdt+zduQHUqt3usLmhQBcL2TwV5YKu01QahURewMrKeaL0RrMQ5NQ0ikU7II86Q7r+9paWje/fF2nfs23j+E+e+8fBx7/5bZpJpfVILZeU3Ga2f7UeV03fVqIoqhmrxKUFnr74uUfX9Xd3biL3TUkOrZvrdM4s+LOoNEpwnW5IQItuqvNp4hu/rLHsbJujweq3FKyI+rBbSs5s4O8P/uOvz51OzT366D/9+3BzJO1zOouCtkAilwrAKyp9iZfD8Uifjg1shYlqiiUbhVT9MmDb4MlsjgS7P/3xBxaOvnL0aFTjjRIAEtxGmmCsI/m7HtAbqZ6oS5PDSDkkoEnDygD94Af3hT/+oXsH+vu6+0AhAih5EfSK3PgyBd3Yk6QFSirW8vpy+z/kAuqanlxAuwjFsgQq4+vuDA888qH3tu7cs+nsn/3l/zN46NCxpF4GaYkxOrhU2laJY8vzdSmNZqCuxKMrDXMql7b89m9/MHLzTVu3wE3tSmXTtHIIk53KoQlo/l7GnyFVpflOVRLBDghhq98amptJTaQdfouPI6Lb4UzetHvrGyOlaA5BTqXBcxcaWeKWSDgVaQ2nrQS2Iu0huYFlvLeUFxXjcNjJS/jOMh2hxKZ9Gw1kyeKKHWNuf3/3hs997tFLX3zsmxcMoBZ9zyCNjA0kG6FioxgAZaQf1TgzHzXqNKIjfOlzn+x877237Qr5vW0clTKobB3MZV+AmR+g3AOlwDFYHlT7v3h52clVkCbSEjy3ea/HFdq7c2DPH3/xM5HvfucHx5946plLOrBVoaAWvV5Fsi4hcaX0YxmPBu1wfuT+9270exyRjOAddHtD8dPtz+TQKnDzJQ14QkIbTHcFXVJDjFsL9oyzK9AzFk/MvzQ7MXUDDc3tls7X333v7l8W7wbsoavH5hPO6Ny8Z3xyOjA8Phnsbm1OhiMNGZfdCR5IWx4954LSWElNCgXkBd0KqiPP8QfOM1jKBqmdBx1BaGsuW3Q5Hb47bt8z8O5377r0/PPHEjqQjFaQeiSxUSCu5Hc1Tq1KaPuf/snnNtx2654dXpetEV5a6N+AM+gd/gpAqW0hf18uqTV/gHRcLUnqJfu/9qzm5FLBLZxbaUvRjZOgn30ff/RBf0d/59GvPPaEqnSr9bUmlEMtgxHU1Yi7fK5SBVse/ej727o7W8CjaQaCJYI2hbKXcMlxIilHGdAaHSib8Ahoglm+sJgv2D02R2FX6ObDP3/9HxeOHD61oeHm/hHHLV4oJClXAaEeTU0N2UikMZOMx53RaMI1PTPnGxmfCrS2RFKBhkA2HPBlXS5nIZfDCIG0hVYJZV+Ia9gDdSDD/idooFbR7JAIJGkKB1s++hv39wDUb+KsSj3UUa0SSFUpbZTYan2bUZlqYF42QtLe/Gdf+/zAjbs37wDaApkspArcS8C0XQoSiBk8AwuTSv30eBpJ99RCULEuN7pi/ydl40cKAc1sKkY4UHAo/KjaDAAPc1cpGISZ9J47b/Z6PfYvfPHrw3p6xnIZsaX+NtZrTaXxSiS1UUq777xlz3oHlAaa7zTLguYpLIMT3ysphapNWi1F+TxMd3ZPKL0wnsu/9uLp9c6SN7pn78CsAy2Et1FbBzSLpUDAn/f7g7lsNp1KptLOqYlZ/9xs1HvJ580GAeyOzpZFKozsbAQtFUmpRJJYs2FoAgHIxfd8IVeCUuncuqV//f79d4w/99xL82xP5RDtqxxXS2pX1GMAaPuff+0LW/bsHNiJQcmdAqCNvgCjtUmOjJQnlLSwh1oLJc3ypH6E7Z+fJT2E0l6ncAAxOonmuS2PcHr8DlITppR8we1yNe6/6103/cmXf8/2hS9/fcgAbKG7G84ZQb2iOq3Gqc2ktqxYI9ezfPTBfeHO9lAbOQektGbtKLu+YSeDlFABTcuEBDx6gKhMSmghRVlKE+9hMZtwdvU0L95+5w1HtmxeNwVRQIWz/BHP5AoAarHkdLtKTW5XtjHckEnHU86xyVnf9FzMOz0772sM+dOdHR1JhLnSPmJxuuzINN5PiYPms4usabzf5XDQnV8K+L3he/ff2g5Q0xKi0g9hGqsAdAEHpcGMHFt2CGPHMNazKpVVHi3u+9OvfnbDnt0DOzDCuNGRRV6kHsOEkX+hmLM8Gj45KkIKl+yoMFsJOjGELgZLAli3+/M+dngQmMukNQc5Ia3ppuV9iv2fwkCeI7jy8OMUEd/jdbmC77v7XTfEc5/MPvZY2WOrdiJZN0Y6stTAy818at2q95TjfNRKNfaSakOgLLANPK4TRNQHKY2+SQe09A7SHr0UqLTkVNEelcOepByC4JoAWnDsQsZx003bpvv6e+ZnwJszmYLdBkAKGqMMj3weJFKbCQDK7At48gNb+uaz6bR9cirqTcYTzl9OnWxpbmlMhZvDqehczB3B3/bm5sX5RMzjtbvyAX8wDZuI4KL0TKANnbsH+rt7WlqGR2ZmGItdrV5UsFasfCUNtc5r1bcKasuXv/TJ3j17tu4CsDypdFZ0tiVvrebckvWvKuZW2O2zuZz9ROzI7uni9Gaf1Tu71bP1cGugZT6XyzmZoQIUdNX2b5V+A522adVLd4MmWQh0jnIafeM3VL7wP9iLUFYhsR2h+/bfdkN0eCb7zSX7vxQIRgyaSWdV0Fa0hFwJ/Sj3DjhafO0dkVaaLPXuq7xcoR86WFl4SkWVRwtgLutv5j/oLqdFJZeD8pOF5KGUNfnIjiEoMl2I+azd5XQV+9Z1JNLJtD2dTjmSyYz9yOETbQf+x09v72hvnbj/n988fcl9aYsjZ1/clB54dWNk8wi9D0yeyYTC/vCDD+9v/Po3n+L0MDM7ax0lWPEtlUBefPSRD0bed+dtO70uTxCAFvE0y8MPlgBtNJ2Wss7iyfk3to16ht7nCtm8C6lFy4mF457Ghrufdbg8+XwmJYBdJgb8umS7EE0FfQSdHeMav2v8W5hIhQ9CjHZoe3oOqKiKxLLFkN/f+qEP3bvz8Jnzh3Rzn0xVHf2MAJeVVhcNqQXqWlKD10v79+0NedzOkOZo0bjqkpatSWkCmFJatUXLnFIKGymHUXGBMigqspgt2EI+bz7qceWjc7OeQKCTFgkh8ZcFM+mJl8FNiQIlsQjV0u60lxq9jZmmNlcxk8vYEPaQiBajG99Mv3lrS0/QmcoULCfmjoe986G/W9/cNZcv5hyIOik57C7PjTsHWpE0HQtmdVMNsbX6rBlnrlj//f0d7g8/dM/WUMjfLAFdjkXXaN+yWBoISnsBlEOEDVjtCPlddCasc73uBpuXdn9n0G6ZmZnZ8uKhl8/u2XLjoNtFqiyDDWRlan+l9GZbkp7IuBu8VJRRs5oUQXd0pxaBLTqcrQRbeTHSEu7+7O98JPromTPH0tG0mLfEJlTqtBKoBd703Mj6vAzotUBtbCRZyfKlogyb+7pD4EyeTB7ucNqlFYuH5NU03wlQ6rxZ8mjahGxFJ3DNgCXWOAKVlI8Ec7mrAtwut7NghVM7nco5VZeV7AiVwC29i7SswNxls0O6dLR3JD//+5/68RvFV/dn2hc6CHpwbEvWl+2cXhzr6CmumwWtplkM3nqHsyXSFKJihiAeo1lPbQhjRauNoRZPNowZoFWaoXJqce+/+9efWN/ZHenDaEUAgQvDF6CbTDWl0OALEBzaymAvoJUSwI5u6lrIoQN7MYGOrqhc0pL+1v/947t/1vbLvn/+iYcOdbY1IdYrJySpnfROjrRQfVjHkp4s2f8dy+JsGIqwzFvLSRpw2dADtn1T78YvfPpj01/W+LXAkf5X2qxNR2Ad+Ly1otReKaiNIC91dITd4XAoRLVCp1bGeyr/RuUspjPOieyF3nwp7Wm0Ns+0eFpimGwogpQqfQjISFNjZnpyxr4Ifhzw+fTQhPpfzTs5Qng97nxH94aF6NzwxPlijJ4eth5a2Jpx2bwpjKIqlSr5/K7Avlt3+589eCi6sret+G6Va8oOIxr+wXv3N27ftmEjJvE4M4iKyecK5GBKPPpSCIL01krKx+dhLbI57fbSOkf/m5n4YstiJgFrkju20bPxtVfcQ5sxK9QF55lQoqVpVYvMWfqUf+rQo3OLI7GkIxyyl2z/Wt5o+0dtIt4kW3A7XMFfu3335l27BuaPHTtj1FGEOqS/zeiBrFmRqwV1WWL39/c7/UFfkFZR6V6Vb5X2UEpQaZMWThDSDZrSIDFPJI/eHPVN3WLzWOxjsdHxLamdz7V6Wy+VCpoUNvsgnMza0ODPDg+NNcTii65AMJArgJbY7VpAk0pdjAokr/PdbCzELJTi6UXXs099b8fwzEiw+RbXiG1doQ1WvGxzvu3Vvpb+cay+4EAjW4UVBELGCzG9fVc/QT1vyFs1OmJm9ZCP10PxyvVNe/QjH9nXH/J7IlQMqZQvz8eSHVqlfHQ2yboRo2Up42xtaI9dOrPwymsvvFDY9+7bf7mjb+vk73+2FU6uRdckFHFvwFsIwrZP2qb6DVSAi+EE9Slt/zIUQdBJYU0iiVmKayfvpxHGia7VHAp1fupjD3d95t88dk4vQz3Kt5k1aVkVrBbU5URaw0GnD1YPYqlmF1JvgAl7cnG0Le6f2+MJOzxkcFlbZt3w3PDmZkvXlM2eR7y0EtRkknhDyA/HJWzfiNBb0bv1m+0ebz4+t+D70U8O3jY3u9D4Lzb/5o86eyK0YxW2NG28iHKhXbIMmNcnt6N57HZXuKnFteLyriaD2jNqQ1s++tH94f6+3l5KQml1IGhkGIJKO1TKJ3xNtEpJTy3jz61F20//4RcbXnnxzf6Bjk2n37V9R6m7ryuRSefsb5483XTx3HBo0+b1UU1jXP7hKEdKIixNOrC170JiixibMscWsey64ijC2ItFNhzs166du/v6EBI78dJLJ6kbLSvraqusXlCrXFpWtOj44WDA5nS7XaCi2nCpKInGTC2LvkOFIJzUDWuPk4Bmd3a44DnwkfoFYWzNIz4ma27aoBTIFa1NTeH0+cHhxgjc4T6vDz6UJXAbpfYyno2hEi1Smhqf9l2auuS7+aadJ10IfnrPrbdfcDs92WIuBzsO3l3M2znZQOgFME9xUgEn7vpA6pWyGevGrC2qcepKEt7MNm2/d99dXYitCGJuZ9l8pwFaUwzlywWg4Swl3xUNxXbRAS3Gc9rn8NzAxnUzmXT2eKjBU0hnMo58Ogt/i63U29e7cP7sYHhibCLQ29OeZH3LtOXMDGGs04FNvi3s+zToEQYk+Vr4Q1lxLAdKkari/XTjR/zBlg/df3+bCaiN9aLiThRJ7wQyW2WhWi+oKzWUxeN1wjwNnYuLzDACrM4Pxitbu6dlZiQ5OJJ1Lw443HZLfCyVH37tovti9scDt+zdGGttDado7TBLkkMrKEER3LBYQIUXPcululHBtIOlCy3daS+m8iXrxPBEMIZYkZaOlsSHHrn/DRFAASU1l0474FkoOjkXxmT0cQLVbhdNl5dNAlbLbgS6bIB6RrNKQ7Dl3nvvCPR1tfRoCiEEte7gkvUjlXKj5UjEi+qAVv0BBbT+9s19szfsGJj2NgRyBDTToofWF3Dn27o74uMXJxr8Pn8+EgllQEPKyj7vI7hl6xDc4h30MQobH4ZiEZpKI6+IpaHKJabX8S+tIVAiS06PxbVr58aevdv6Rw+fHKSp1AzMdaJKu+1KQK2/iNH2DAqqxIDN8wN13eZzBdIbc1tfGIkOzTncJbd9oWXyZ//wwobo/NH3tzX/5o/aezsTgKCoZLPYBDuUHSip6elLc95+mPk0oVQZNzanrRRLLDpHRqYCeWj16/q6Y5jFkaKRSwzPlCrCiVMLe2tQbStqJq2h37/vzlav2xvM6WtULYFZs3YI8aXH0Gh2/+oyhi02G4t5mpvCKa/PVSjqoBZ1nS1Ym1ua0olExnnx4igsPu5Zrx9rDCkSm+8j10ZM2LIKE+/WFUcEW4tr7HB26p16PhkggslfnGVTasJyLPv33RIGqCcqCIvqDWuoyzVoHRoeMM0EyMAAjbpdCoKp1W64194Z6JpuzrUdRLd1FDsb0wv7somRi8OtToe9ePbUuXCwMZBpbWpMMz7ayJ0dcLxgbl1hZm7OSxMfo6fMwY9YPJgBYS3xjk1MBX0+f3Z9f/9cwOuG5SAHpsJ2wQHJIhoKjWRmFhRriQgTjzC2GJFfqyeo1VHJlFdRSoehIG4b6G6HGHIVOZFIDxZbAvbyNVIEkHQFXX43tgdLAgXSmstlEQyzNH1OjnLWNDp+d2viXGbRce7cUHjHDVtnfH53AUE1AjeCQ+tKt5TYkl+rHUxXGoU1RFUaeQ/nrYJbu/e+a2er5ZtPTTNZHdgV68IEV8vqfrWglrZE2oop4PJQDbS0tLgAEZLIZQrUj3Cp0g6vKoCwcmAyN86DSlji7nvuuXWoWLx1KJHOOGbGZ/yTQxMN8fkFd2tL8yKWiczlM9oQyQ8sQzav15v3+Tz56HzMHW5syGDdmmUfO4DPhrswONqQnJ/3IGpvsa2zNemkZM7CdKhLGQliDtR2MX9UOhFYFm2CLv3lLC0i4NS3yLowqevLThlFZ7WGk9eEY+LB+/cFQ+FgWICJHUvXXWTknRaUZJhwYYjAk+G8TANLVpWS0QW31+UuhBpCGSjHl9E8CgjMArVs6O+NDV4YbTj0ytGOgM+T27Flwyx1EmkREeBWqIhISKB3ycwn7NziozlliBYCRpsCWXS0Rlradg30nD12ZkROKqhHVzGt89WCWiZmxfT5Aiz0Gb8bKy3V06wm97BygCV90iyjxiyWRp8771/ftTC/gDDSiRn/0IWLjf5QQ7qjvW0RSp1mugNYEdKIyCmbhZF4zeFGuKeWRgpMBChi+HQMXxxvKBZztu6+7gXeU4KJDnMF6ub/MssCNMD1YjIpZ0+vRDqvpHZUO714x+6925u8bk8AawuK2fhqYtUW+an00hKoWywWh3ZgL3oCaDpGOpp8KBACoQD7svWp7z6zz+8LLPz7f/s7P0a8GNZQcOZcTpr1tcnPq/1g5CkFgs7gnfvuDB4785S0gqw2ubo5tZk0EpWNuOVcKp1LBrEYo1ACEAJaRjxj88GhKAW1OYOCrmrubN0kVB62hPBh0JJWudJ1HokEM02NgezM9Jx3dnbec+b0+aZIa2SxBeB0A7QQT1Y/pEc8uehMg+9hDleRXBuBENap2TnP1PhUEPHUma6e7gR4Yb6Q1TxkHDXIBSX1EJFnPIcMCiqir+yk1iwnG+TRgaPROBWalUhoYwOZAcgomVQpbmvrjDRAvrlYTUjMKr2HlHxMXA1FEH4B3eohrulKojETObq5ERNTCz3ZVMbe2NCQWd/VNTybjLUcSf7j3XZ3qcmedE9vdm1+rdHTslCEki3Im+4rKGNAeDG1mHVpt2aoqrxOjg0doeR0ufybB/qDOD/J8lU51Owa7f/i9xVLaiywmIVXL26JBNHiyizNKjUlACT8MbWlZUm3fkRam1KhplBmZvqSd3Zq1pcAwJvbm5NQcjLh1qb0pTfnvbPz8+5wpAWUL28dHp0MZhPz3s6uSLKtBTHUqGyZVq1GrHLdllzMpA4fPcoh8q36lDAsuyORcEB7oblCLoKHVvBB8DQsEAWrG9agWo9lIQha2tsSv//7/8uLPx8/+J50W+xd7qDTknIn+wZjF9Lbc40ve9ycNgS9pxy0RmQqs/vpmdfXYLn8fZxg4LJ3dIYIarmAUK1sVby+UlCXuTRSFGaqaDSdnYxOx/p622DKpZmH1AD2HMHxtIVjRO9B7G7OgoW+dLsmpbUkceWKkDZPJqxzsPIEXIAbi62XOjrbkpiHmJ4AJRkdnQzNRmPZ9vauBY/LUeq2PXvjRk/aPZko2Rq8iaCj88Zjhcgto/Zc0gmNkMJC5EXkgXnSf0uPGIIhOMdOKInaTHNOKMXBhXEE97aVEohbPfiSWHOPIJJmP2O9mEnxejV4oxJZ2jCwwe33eIOaw0VrS8mh1bDecvCWHgXJ+2T9aUZtTYjY3I7ifCzhgr/a1tTZnKztubJa3BAKg8PDjTHbfG8o4LJYMcR6Ak5LejHemckmvFgyeVFKazn68n3UoWCG4VQOoBW2UsUKIkJThcIrAqCKYSyuvw0eaqwfoizZsHJsXymoxRsHzwzGdm/dtAh/vh9zRmA/XcoIhxrhKuW8IgShi6GIXiea//UPKQArgpUgQS+vSSDSzkx+xxkuiCsq9vR0xpuSyfQMpm0Nnh8N2YoZu7d4dsvWtkTTpmY8jTycnO0e/WXcXvJZcjaHm/QCHU2nN9LSUQ5yEhYPWnCWm6dkPhxWLsNVzE5PxaJa6petRFRP7avSVGKp2lAr7u/oDGMmmsVH89fy8NLlNjsCxzgj33w0hMUODiaG7zqdXoHBSuIa3qcSKcXffPeHO57/+at7bvyNXndoQzvXbbOA31t8Of8CY9mA8stGChE5yRxRZQL15Be93pbVlZglBV8SguL8vb1hgLpcLrVu6qlfcc9KQW2WsPUHPzi88N6770akvYfDR7l+BMdWvFwEDBeWqTt3FW6kgshLDZh76Pf7c9FYxjE2OhpaWOSyZBi/vLiYsViOnZ5s+0/f+/r+UMBS+q2PfuC1xoA/5/d48jang9NsWeWMkdVMeOh3cuqSJqUNJjsMQdlcMfXCL45Is9OVFqPu52H1wSQdwHqFvoBqL6DOkdMXEKp2n3BYuRzFXCbtotVqnafvkD1W2pxypNpsi65LHYXe4263D+ExGRiUzAVCPQWlaPa43Z5gSwsxKVhAPc+Z3aOC2pR0Kw+pL1KHWysXLh8dGp0Kh7e2c4FzsRaEPnmVFEQqM0yLwBExuBzOAX8hJRSl0Uxa8zlRubpKI+2oNOnx+YZwUwqTW6zbPVjUgCXifYjOmJicbzp1cnigrSUyHosm3kgnU7Aecpk4eMDxoNftzLe3NKVgJ0WgMUx5pBtUEEFBML6D5wmPmKBJ8I6XZicnZ/XpXMySSjHU+lDruZoyyWvCrGs4RHHVAxveYAWq8r2inTQOLVeK1ZxTmufQHAya1NQ+CCK35VMphw8x6dCphfZu9hG2RPxz/vSFxhv3bBu9/fYbhjpaWpKZYuZCPBFrCNqDC6FAU9xayIiwAWm3XlYBCgWR54W15nLOg3VDbK4wV/RbKr9pvmqdNJPUlcxU6nljYxV/+sqh8S3bN2xwexwhhiKQV4tZDxwSBTcV63yJ6T0OTiXK54AhOjO0+AHGVwuqQYVOt3vKipKFUKmIPEeAQ4zYnVjIJlFsGzs3bC/MzWe8TqetsHnb7qM7d0aD63uaYh6Ps9DYEMzAHOfIwnNG/oy9N5xn40nEnnCALJRcDk+hq7M1EQw3YNmPPJw9mEXsceTdbnfJ4rJljpw8N4Tdv2jO48eMRxvP16p/s+uqhBLgDnqDCKNCjcKtXEkVN53TaXCN82XCPo3yg7k5OYXNY8cCQGgTo9NK2KFBPYbHpvyxeNI1sGljtCHoy6UzaRg+PIkmb3gB7hqwCy40sXyCRm2Ozk6phaOKyVL4COcdJIcj6F21hJaVuVL6IamFNAOVf3/n6YPzD973vtH+3vYGrtbD9Z+pDVPa6fbdsnmPhaZU5ORb3dQHyS0WkMAVMG4G49Axwl+K8miKAJj1uNhNqegoDucfeGUoWbL++O8PbfrZi4dvuvNWi+UL/+tHXkagVHHk4kRgdGzG39sRSUY2tIAHQndcTNln5xZcGUp89Dlkpjg0MhkoDA2jTTEp1e4otHc2LbZGIoWZmej8t77zLON+mS+Oliy7PCpJ6tWA+vJnsO4wVvlam7SQChXzHCwaqG8IEZ64PGkr6nUKVqZ52P97e7riXrejkFrUPInoWfYsDgFGgwnvCjOJpXBWTztWC2r53GVSCjNB8j/46ctDn/zo/d0YzkMgqIhxYtC4pvEKgOq2X2rxgseK9WW0uAsnQOxZiLuwQQvi8yA9vD5tKSVox+AFXFuBC+MQedBJloi6HZLD5oL5FpVbtHYm/Yjca+qOu2OpN7bPJUqWUCSSspaytvX9vQsz0Zh7eGzSP7sQd/as61qA5M51dfuE5MU2HWI9rkQ85cBKN5y6RVNDaXIu6j8xccb97N+/kjxzZjCEW7lbGK0fhAIPmvekw8BYLxoGqgc/8Z4rkk5q3LSY4KB8VC+iVp160BG2w4H3Farx0s2S1tELOx+NuxHB6G9tiyw2hoOY1LS68N6aIGd+GAOyhp+VSmojqGWjiUw98cTTc/tv2Tu0fWsvZzfr66xxFhSX4eWOK7T6aYOTMPFhETBaSxmZGxwd9ftHxxsaz460zfd1Xzr7gbsHHZk0HOiYuQVXJVb9KJZcGOmgJNo18W0loHt+/nqPO5H0vPnAe05bHVlrITHj2bWlc+Gzn3n4x+wwg2fONXavQ2AU3tPd3pRsDTekzg2NBs+cOteERSXjnZ0dCReGZESoiUgyLJ+AL84iKJKQX52dLfnx8cnh/zw8/Ap+Qv20ENi0GUsLCNXSsA5e1gMBTguJFK28z+hsrenwWNbG8IWv1HhrFgPDNLlkR3Ih5vY1eLMNfi8ix5dPMrBjVEstQvEeGW/wN/ozkebmlBp2uobYuywprlbC9cuv9B1GUKsJGs0v8hobS+gQesNJixDrPf/kt398/j/84cdasMprN9YHwrIP9DLqa0gzNhnABvUov0cE1SDyY7G9NRE6P9oYGhrriPd0Xlr/s3/stuezDqw0Yw8PjTTH1nXNJnBP05nzzZe2DEzP7No0x3l2gUvRQHhwuOviPXecXWxCTDX4Yijkzd1y8+6pmUtzHq6xR0Wwq7clQRjCq1jYuXljdGJ6xjs5cckXiyUd69d3xcNw7IjpcyJoiUwJs12cNjtCWxaeO3jkFDYYFRvs4sOlfen1ktSDEyR0x4ioEw+OPqVh+Nycfj/rlCCXHkneJuuykrQuxhFgI+JotAGqZqOrsdN8gTprhaN7IplxuuBdDfic+WwmX+5gdlAO2vMvDI6EnG5PvgsdXqyiXoeTbNVA1GNvxOCLWIZ4Kl6zfLXeVU1SGxM3UxTV4VY4SZ89+Hxs7y2bT37ovrsw48jl50ZFjJ8rK4pCcYfE1oAtlqkqODDx1l2yNh850R9f1zUBs0Nx3c9e3ll0OLPQze3e2FzIO7MQwuQvwbGTPR3zeLrkicWdsY3rpr3z0WBgdCKQam1JlWwI8AexyaZSdqzFnMl3dy4Mj0w2eBqc2fZwc1pM5QfvWd/XGW+Eq31oaDRw5tRgY+/6zoX27rakcLTgBmGXhsX9jWOnz2JZWrlGtWSf0jpBQMZxzCsg56wYv1LxtAx04JBaPfn4gg5uCWhSGLMgKVG/2JkiC1mPIQ+/6nRLaNPlGBanLN9GcGLEEgvUwN7DueLliDzao8EIh2DzZ/jA+vXdMcxdEfE1tUAke+ZKWD/NvYZQBMxML6bTcbDqOjputTytln7INM0sANbHvvrE+Ka+zlN792zZ7RbR4RxSpDVEPCoktnTK2DCtKvLaqRZXJuOeXd913nfpUjAfDCTS4VDCms1ir0+sqhnwC89XJuhNxzb2RouwNbe8eb4pNDjcPLtlw2iyoz0Bb4KYYiTCIWlJwVs6sG41whstg+fGG9zbfPkm2LYxclgxC9vaFMIae3u2zE6OT3mGoUhGowvOzZs3zGNfxxzMS/bBweHBr/3pU+d1wMqRyVhmaZaTkpuNQskshQCvxygw9UpjnXM3BEp0fngfKQ3/CsGIgx2F8OW9xZnpaAHWlzQ8cvA7wS4jgvVXGT5W5KpWcI/bPWBnSw4T0o7Bc6OhBOp76+b+WSd0FK6qVRegsc4hehxINztQ9UnTldKzwzy5mC2kZxIzLFhdHalSWpVALRtEJi4b0ghm2SjyuqQmhf/jP33r7B/98b/yb+rvHvBiaMlAKHDWs2bmE6gW8YrEvA1DXqarOXHxN9//ct6NyLr+nrkpl2soj0g9K4ZHD6Zc5fy+XK7Jn/GOz/ksLlfeXchZ57asnyu53Pnoxs6FTHNT2sElx/S9XsprU0AU9a3vjGPqkHXw7IWQe9eWSw0e7EPKDAjPkK2EyQKJRiiYg4OjgTd++WZz38C6lNvnPfVf//rAMX3LB2M5zTqzWmcSnLK+yMXV6+rsad7LtURIY/jhb4KeEl9Qu6MnT9tGxmfzvqDHlU3nSxgBi5hSVsDiopj1hrEsmy3vwCAyqk8UUBtdxFYjtYW5uAs0o9QcaU5jUVfRGFQMRzFxIh6PuzC9K4plkqED1VYMafmwWV35FCYULGRjcJW7cw1u6PrCOa591ECxpXOXUyiO5Ml0LDl8elyORcY6roThy8475A5HFbbJMFIOmYBq2jMbdewAQ/rx//TXx7/4hx+3d3d2brTlIXDRHWnNELMe0J2ErZLlxjCZxcpJiQ19C1htRuwFI6LO4Mpl9cQ39sRwM0zJeVuiqwOGZgT2Z/K2bGskNdbdmXBkYadGHANcuiIvYmE8vd4QOQUqUSphr7v5EyfPhs+dvhjasWfzrNchrBvajl3ARiQcykRuDmcuDo01Hn7tePrAD16YPn78TbkSkwS1lMaivfSX1FP5kq6oDcDneJ5pkqPzI6ydOCi5ydPFKHD69HDoxZ/+wt/b1xrBRMxiwBfIBUNBjDViWpfNh7I0NPpzMNkLtRtqb8mCybPCIcNMQhFGomKLi3QKdA9ht1hrsIDAcNi/7UVEWnrmEG7Q09ux4MMMonosHQK1kNCz2Zh/MH3iRiyN0+1Me6J9hU2/6PZ3XAJ3K8fa0CVUaeKFSIZtAGkUj8XjgxMTRoK1Yo59pfRDxMkojSt/C4mN/b8Tf/TYXx/995//uKW3u3Oj0+WwphgPLNicVBYJQbi3AVpPOiWWnZUmQDQKpnJx0UdtSKNr14kFOWCmQn3iDxwknnRehJmBAnPvZoEMBiWpLlsaD/Hu4uYt66MnTwyGL54dCcBRNO+ycEVPpEXHGTKEmb62tramN3/+l6dPANCsm/U4yKe5aLgx3kPSER2Pdf9RAW70JmqGeo1+kGcLkCcSiVgYC/1t2bktkMWCQVGAcHJ8OgCFhEsGchv2knsSyxSTMUNAeBB519TakgZZIU/GZAjMu8RGUCUsG57KJ10L6QI2SvDlYXq2Loh49elAW2sk2YSOXQ+gWVL6FUC3ixeyp3YvhGdvcwcc1mwm3nth9rSzNdv0IywlAVNp7ShMDdQOzobPT41HVV3DxHpeXx3Xqyiaad1miiPfqkpuAez/7Y/+/Jd/8G8+kdm0sXuz1+Vwcxcszn+mxGaklgZkTWpzHpuY9qPZthmbgb9ihy1KevHOWvYwGWUnq0DzXBYt/kAgh4Ui5948fq5p/OKob+PAhoViLgs/g80ODl0cn5y98K0nv3/84MHnZ3VARfCXVIC2aa4kRMnNTyV+LeukknSphyvyWQlu+Tdrc9mm2sPeeDHvdYWD3lxHT/siVvCiE8CWQNz4+OS8D4tvY4kk9IZs1j5/9iL2d8nbHQD4L1491T0yNtrxL/5py9z2xrQr48o5Q6Uzk9PZPcMjI9M+f9CfbW5tTtUCtHS00NuISVh5uxVRl6Fcs7sBTlnQfKfHasm4FrsWi4vegMWX5r4Z5TbQTbmacqjMJsK4QmECxWfh8Jkz7MyyflXKW43uqfeLh1cjqc0aTs2ACmohiQ4dO5P83c/+x2Nf/qNPL+7ZvmkbenED91ThkuCSjoh9DfUAKAlu0YvFpF4Z67DUU40OnaUrmpPHGJBErk3vDcJWM+lNvdEL5y42Bhsas/2bujKpaCJz6vTwua/9+XdOKXuUUFJwIui8DmxKba6hR8mt1sGKh0c1r3V+tz333IsLt+/ZksSSwl7ozUUvKAUWhBHhvZ5IUzoQacJUNupq8BYuph1Tl6K+HHgxycjYVCw4Nnhuhy32puvOd4ndyKwXJ0fGXz7VmCy52uLdvc3k+Ms+wiwDiwgW/KGpSlwT8TfgclhEx/7qL17rGh6aDHluyNuDO7C0hR8LimULFkfWNev2etN6RF45zcoTLzhNzmFJR+OxgwdfIajrMltWq7cyqMmtq+zEatZw6jkJZCN3LA+v2Ics+6nPPHbm9z79CNzp+7Y2h0NdoNgOrv3ApahkRii5tXWUNXpCgPMvJfiygmgBPtiatbw/qHJZ2y/RCHTNXGcprd/Qk6C6fuHCxZZMPndqaGjq6GNf/dMxxIZLPqdyZ0kFKLHbcFBqE9zqPuZrDWxVMrEYAPWh+Kc//nA04PVy9ChbyUGUtSW9qINATHCtD0xaLnX3dCTgaLGmQTXuee89R9Z/IO26f+8bt4bCWjBRfiTrwZhY6urthuaY1Sob0U2yzljZqVTaPjsV88InIirOoWuApDunT19o/4efvXrLztlNF+7o2HgUFLHFlnIl19vXvxJwQUqDZIpQCE4wYuhDOUZdi7EXElvMZ4XcQoMPjY/ODA5OyGlyUiky1kM1LJev1SOpKzWY8bwZyEUHZ6PoRxHL4I4fPnQ0/i8++aF1Axv7NsCY3UheWMhnMTFF25QS63mItSH0SDSRWfAuLqpaHs64+KBWiiVHDuNMRHvrMyxUO6jGm2F8QU07MWRv7OsZP/KL4+f/r//81MzgxbFRPCb3/pOAlhUrHSbcsySKoxNHPw4+M6/Uci1gmymLlRrJTAktnjw1ONnb3d6LXWldiIcWz5LbCmDoS3xxPwCxmAzMm9xWhFHgW27YMXuj+6W5SJP+OgyL2BMmD+DPY33jQiw6452ZjXtyBW2qm/zISRRin3ec5NDFSmlta1q8ee8OLHNsLd3yrnedW9/QGU8mZ0NOZ2Ax4vWnMMVFpCPiu/GfVOBle5UnMpN6IDAH+2ymXn/5TblFHW+rRDdq0RDxinpAXani5cvldTOQS8VRTQM8+2TipU99+dQjD+6ffPCB/b29XW3rXF5ng4thRWwf7lYC1iYiuPRp9UzA5UJcDytL59nLElW8lLLS5Exx2F0gHOAu43oq+VxiaHB24oVfHL7wX544MIuYFUrfbhxDOKTxVwLbKCnoAh/EQWnZg4Px4+TaNNnVovrV6rFWHYu6/fGzL87ccfvuWCjobwVqSAvEDHL5sDFenRsyWyF9c5kF15P/MxpaB6PhjVscWa/bnrs47U4PzY6Fc9YFL8N2sSF53uXyLlPOvH5PPoQZ+mKxSOUD9mJpbm5M77pp16QIPsMGL8FA26yQSAC06L3CUwjPmb69hjkl1DhndC45/czBF6kkSmvQautKPLcM1HWa91TbtfryeiQ37xGWERylpw48N4cj9vDD91687+5bO9dt7OoOOqF2uFw+7viGe6DriFgAPW1gkmqGHq64vKJFTZZPoSGgdIobMWspn04kU4nRyYnJF39+ePTp7704DyM/hzrmhbyZoKateGTpXcumasl0WXaKSMm16SnchINSfA4H36fSpErfmd4yqWhoRSNn528rlO7k0ODwyO49W5vF1Dl9KQoUgtadAp0lnHRMPot5hfap6TlPJpOzY8m64vNHCo4zZz3xD9y988h977/9VCZgtXQFAmDB1pIXyqSfK8ca5ysiLgQeSbES0/JYaW2nM5slhcUzhfWI9IJrpHKUEOY7bRKGNpNoSXHXaGGZeqBbgnlkDh19YxTUg4KBH6M0NlRN7Z+mkroGv5apyopXe5fRRKXmQGZWbWjWR+Hpp5+dwzG/d++2oXv372vavaW7NdIUboQICWAx9wAkjlizihiUlujlRaPcglACbWFjc2vibCaLkOFUAlsKx4aGJqefee7QJexcS4XIyNfIjUklCOxmHBwGtZctVbBZZZNr81kp6WlXpr3Z6BEzs3jUsoKooJZFFZTk73744vgmbKoU9HrDsNzo4QcMFsN6msWs9eLQeADmXrdYwjebt8PhZYs0hzK//p5bT2CDI8trJxP+2369e6GjLZwp5eapH2gfaja41wwyxlhtuSIT6pmWo7IUl6sGaIAulbh1NjqZGFHEtD4cwtlGbg7qAX3IPheNTX3vwHOcTWT8KMLMLFfinOk9q6EfMiFZAZJiGCW1PK9ySdmYqs23LPkPg5bgoH12bO+uAc/em7YH+ns7MMOnxYc5mZ5gyO11u3weB7iEtrdIGX7YwTmdjSczi4lkIjU9O5fCWnmJ104MJ55//hDNcDKeQL7LSC9IK0gjyJcJfHJnldeqFaiWn+WgdI/h6MJBqc3fMhS1YmvoDWIEtyoolkqnfRP1+Myzz88/9NB7z+/e3HdjahHLHUMbHJua9E9NzvmpkLndziJWBypAEJSa10XimD0B3uoodkFx/IefvbR9+OJI3+Tw6eZ1HTdMYinlissnyJdXm6IlAS2lsaAc2gJxYj6qqhwazXgAtw1cffHQ4XMX9PWp+UpVn1HLb8alK9btSkGtVrrZd/VFRlCLIVQ5JFDkOXmd5wuHYQbEQYCxF9uwLrNtYKDX2RoO2z1Wr10lTol8qhifnikOToznYMEggJdxQAWg8rykQTIP/Esgsz4IbHYEuVKQGRVQOzA7F0FNqU0LCZVIUhHmW279LMErRzU+r0pFo0CQ9SjzKa+LYKmvfeNbsX/5sQdyKGhXGuumNYVC2R6E0RLUDQ3egtPrxRaGjPGAN4AUAtWRzhest9y08/wNO7cOdba1JBDYIfJU77xCdb28pdWWtOfVWfoS0MtNeAbagZK7QQ+Hh6fGnvjWdyhMzEBb69yagbpiQsoFswZSG1EFLx8zUhYj8IXiDYWugB5dLYJLSlaZJv+q4JZ0QgJZHWFkBZJ6ENh9OLgQuFwKQT5TCXwi7BYHuTY7A6W2VCKpAAn86I1nA+pt0DaNHU++Q61jvo/5oWJKqsDvPtSD5cXDb1z4xMcesmNWt4fRM9jQicQXgVpcF49byBW5RJrYroLqG3/3drfN9yDOxed2g38D9JyooUTxqS82+66CmddpshOVXebQGuWQElouMyF5tLBAgXYgFNiGrfFiP3juxbPg0nKl00ogrpWty65XlNR1Ko3GBFXpbQSnKL/+gFGBMgO2vL9eTmoEiZGXqvzLTFLLc6QPfTh6cTBCT0pb4/PGsssyEMQcYahEMh1KbXaW3H4YcP7aYrkdGtHCBovldZxjWKqaT7aHPGiAU+O0mT7zwrQKLzx3eOT+9+8rDWzs3YoJnzCHIvIQQVt0MpGaid1n0c2w1gp0ZltpdDrqcyCyEfxNcH4hSXFgAbZa/F6UEz7DcodWF8+kuY6mO0poCWjerwJa5IXnwK9JO3B79ujx828++a2nOZpJYaRSjysCeE36UQXclaSWsbHlbykZ+dsIannOTEqrHUHtNMb3qCOAGQCN5yqBnvkcwkEaQSpykSBSKr9S+eR5ofziGMZBgFMBpdS+8Hn8hbj9LED9POr1FTi7KOEJbM6eYTlDOBr0hMjLSWuYH6bDNHm/OLCXY/bP/urAmf/w+x8PhyOhTkR5wJ0nYtWFn1ZESwPMTqofEJXJ5CJ2knMWuAlUHhYRTqqlBaPs9KowEaC8LooKaj2wXyqEwhatcGgjoIWEFoAG54cnFAsPXPyPX/vL82mEGaIsKsWqRTlUzKntKapMYrUmqGu1oHLdSCt4qRrwpWRVQVvpO9OqS6Lo+akkVVUgG0Et88v30GxHUPbhoKmPtGIlH6bBupVcux3fu7Cx+aZ1Fstd4DT5c1/60nqco9TkhAKGnbIzRHGwEzFvlMoEMs8zLWE50zPBurNDCV747obONz72yAc8Pq+/qcg1X2mRF7tiYZYoV2uFwriAOZl8uqmxIU0/ugSqULX1VtDNchXbS90kVFvhSpPOBLNqtjMDtPAcIl9Y7Mg2G4+NfuMvv3dcMeGpEtpomVqp4BTVUzeoq5j5VvXiCggx0hf1tpWCWj5rBl5eqwRqXuO7hBUGByUteR+DnFbqYJFcmx3ED2R/BoligzfLXkx03/Vti+UNnKd9lu+R+VEVbNXurUoxqXBan3jywFRnR8sb9+6/bS+kcCCbyenAdoA2ixlGlvl43IloBGsTYkTQTzjRlWv+IgLJiWWzsGoWt3PmXNCUviGoXnOSK6s2amYux5hpdBgXQoNFZekucC1kYUkppIQmoDGLCBYYmyOaTE7/96e+f/TZZ19iZ+fHDMRm0rpWWy6DU92g5lM1eLYKFPUlZkCVNEMCSP0rvxtBLBWtZQUw/FAlWa2KqAZqOepQctLiQMVPWkQksM2okNk5AcC/RzroHTv1Wbht+yyWjT+2WH74/iVKoZbbWFaVusn7+C5xH/YiHPY4Pfa7333jDRqwi1zlR0z/Ih3JLmJD1WAg7fLAipYVy1JgkTBsL5JIOVzJNLYdgyTFBI54byQFmlDiGnuYSsfp+3gecSEON7fisMK9g0nQJatvdsFlZdhCyJOXfFmzQ4vgp/I0LVIOZBDeSoc9Hk/NHDjw08NPPPkMA8IkoFX6UY1Tq1i4jHYYAbEiUFdDU53XViLVjQAxsxYYX1sLqGadrVqeWJl0qJD3ki6cxUHJqprjahYdwqCw6Utfugm0YwsfBoF2QAPcD+7xt/gpLS5meVOlNq/LBuV5CXyeK3zhy1+/8Cdf/r3iXb+25wa/0xmCvEbIl7UQS+Sd85g9vmVzXxRrSYBfZwVA8tiqOXhuJBg6N9QcOXxiAxY3mX/z4w+9bseuAZwj6hueCub87nyqJZLyX4q5i1iuDRu2I9Isa133zI+2Yw02++CnPnq4CE+mXSiomqewHNehKYUW2MhtseTi9IEDPzn8+DefkpMhVGlslNZm9VlP25efWxWo6/A4rgS8ZoWQklI2pJRONQGk32D2fuO5SrREfad8Lz2ONKn14aBFhJy7msReBlAqhL8Jvgxt8Wto1RAoiBtE/QTMepIzq+U1vt8IdhUQvFYGOIB98fOfe7Tw/v237Ahje2cYQUrJ1ByWwnPmPXCDi9BeSFNGPHoBzsXtG6PBqVm/K5YIXLrlhtPrf3Sw3xFf9JTcjpz/wmh7NtSQTKzrmfGNTTRl2poWRj9835t5TzBnx7Q5TzTmp2RmqDtwK+pSrg5Lsx3i5inoS9NTsyPf//5Pj379yac50cLYMaV0NqMcxnIafy/DgmQRIh/1omQV95kNxcYGWkWydT2yElDLBCt1RGlyGsKNsMQJUx+/SzDVyhCfd263WI7g76s4qBTS7sxhmKBeaRuYNa6U6KWvPv7kyPjwcPKjDz+wI9Ld0jU3PdvA5cW8mKaF0D09Zp1iFSEF2aK15eAvti52NE+XvJ5c88FDO3J+bwagtTkT8aA7nsBaLJOt+YZAPLGlf0JYMfRQBcJZxHPbndzkC+Gs2qqygLIVcSh2LI6RGRocP/eNv3r61HNQaFFO1XRXC8Q1KUa1Sl9phZbTqoNf1wKLMV8qqGQF8B7Jp1Yq/esBdi1AyuvMAy0VtEwQ2LRm0BNWL7BlOtLeQBOfnIRgtvdmpbpR6YhseFU/EbTo208/N3vm9PirH/7nD82mowt37NjZggn7Lks+ifgwsZoQJoJBegdHzzVa/O50Zl33lAubEy1u6B3NhAKpksedCwyOtBWxgGSuMRS3ZXLO9OZ1szavM+/NYMpdOLCI8BqrB7Mks6EgJphqlMYNMJN+YC2V6cNHTp7+k68+Ocw4egOgzXi0GciZpAruuoG+alDLWlfFfpVJBjKD9YJoLe6r1glW2kFk55LBTww7JT2W64HUk182vIg8xEEbNB0rpDTsLJU4ujGfqrSTeZLvVhvddujYyeShz54cu+22XYc6OpqC2OEM29W5/TmIUBqzOaEu29uROP/pR18Ai9AmDrhdg4IPYCUsx0x2UCiaEW/OMYW9YTy2ojsjptaVxh+69ySW9ytZAq4imDZsiIhRh+THpIL5obHJYUReDh5A9KUOSmmpkeHYql5QzfphBurL6lnFn7x4xaCupzVN7lkJZ14NAFeZrZqPEXxsLK7ZQY8hQU7T30pMfWxIRviFcZCKSPNWzZcrN7BOjKOECmoJFv/LLx+bOffG4KmPfer+llt27+lB3EcH3OQ+7DRst4QcpXzYhWA79Ct9iwIWED5Ca7HXL+x1tjwWgO1tWcRcLS5ZDyOH3ZJvCeexfmEJ6zsJA0kyk5ofHBkd/+nBwyPf/A64c7ocqSjzWc2yYZTSaiddSZ2U711TUK+AksheuKpMr8FDK+koZvZxSmipODJGRE4SUKmS7LjqOUkV2BEI7Ea9U9RbJGO+1d/GoZpeSuJyYSaRyD7++FNjLS3PzT54752DN+/Z1tq3qbs9GPA2YB43Jho56JzRFrDgwdzkYfsTSxew+2BNY1oyQAWx6VDBgWDtfCadnk7Eo2dOT469cujw7DPPHVzQp8PJPBkl80p4tEyjKuUwk9LM+pqCut6WqXCfsYHkkLwSAF5hFup6XFIAWkT6cdDUR4uIdKXXSoTlIuWglKfCyDaQU8mMz9ayzat1o9qy+Z2jCfk6qY6Q6jMzM5knvn1gGsfs3r0DQ7t3D/j3DmwPYeevRgDc7/JjgWOiV+QJ5FubvcKFbThZI5/JpDOxhWRieHRm/ujhE9GjJ04kse8hy2EEoSqhWaZagJYji7y3Vh1WvX5VQF2Hya+eTF8vYJb5UCW2ahHZiMJIi4hKq4xlNCp0pB2kII04KPnNRgSmIc+rz6vn1fdIYLMzENAMrJKRjSroC4cPn0Hs+pnEk5ZnphnW29IStPf397p6eztcYaxgb3GgT2DBBRKT6Ew0Pzw+kztzZjiLjsH0pBSW75Z1VMtDaLyuglkFdNW2ryShZWauCqjrQWwd95iBqY7H3rJbpEVkCG+kxCbHprtbxmhUc9CQg9MqQAlNhXGuQq6NHUneZgS4Ci4CRS5SSdsw36Pa1I2dB6sypgsjI+ncyMiMXNfECNZKv40SthpopfQ20iQzqqGeW3GDXs+gXnFhrsEDBC6HX4arrsNBbs0YkUpSV80in6WEJn0hsEkTjM9VA3W1UUGaCQlodeiXI4yaD3UkWAlnZxoSxKpVphbVMOPJazoqvwPqK+8JBCeVPrq7ab8mkAhQo6KoSld+53O8lwdBfdmCMjrIKwGbOTd2Ar6T6Yb09OTsHelmNuPoZh2wkqQ0AtJMUjNflYCtdgRZ89Uk9bLWqUU75M1XBdQ17NX1wqiatKtHEtZ6z1pJBwkUSmgqZ+TX6uQCmVdJS1QwMg98jgFTURxmk3ZXAmqmzffQMiPXvFbNjRLcRkAZ68oM1Ko0lvcbQW2mMNY6p+alYpvUC2gmdlVAXQtNv4LXJfAYsENTGjk2TX2qB9AoqSW4SVmoeFFaU3lUuXgl7iyr0Kxz01tJcLCTGHl9NXrBNI1gNrt/pZzYTBKrEFgr4VJOc01BfYUSupb2b+wLVyKtq/HR1fY55ocgHsZBiwi58pAOFAlOlb/Kc6QfpB6ctCtjJMyks1l5L1P69E5F6Uylj39V0KyUMxuBXg30RrDLZ6vRCzN+vaz+VyKh5YNrCurVoqHGc9U435W88mqkKycFXNCBTVrBGBHJoWV++VsCjn/JwRtwkAvzu0oZjIqcmm8jSGn1IAWixDdOMFDrSnZqCSrZIY2glefNACrPyfxUArWkPGaCZM2lNDO1ZqBehZSuR/JUAu1qnlUrcLVS3vicSg8kZ5bmOlpEKK1ptpNhl5IOqJKb32lB4YeglsqdChZeU99VqSwENGkMp5/J/EiwGaWimoZqipNgNQOymaSuJYnVNjRy+krtK86vRkqvCahXCOZaYKwXbLXSqVpZ+kUzKbGS9xspggo6CgtSClpEaL8msGkhMYJZhFfgYGPP66D2hsNhy75b9vqwkI833Bl0YRkfp8frcLgRRZTBHK10Kl+IxlPZ6Wg0A4dI6sUXD6dga+Y7qCDKDmJmJ1fzbAYwI2irAVy9ZtYBql2/KmCWia6ZpK4HRWtwT72gq+dVRklYzzNm96jpqKAlqKI4GLTEeY5DOKQjRNIR+Sw8ei2Z7u5wxz/54N1tt+7Z7vB6fY0ej92HnWY9dFjzxXI1V/YDIBJ7rWBT5VQhEf+dj8SGpy7F/uK//E1wcHjoXCKRl5MPjPnl++od8mtJ5VWDdrUVXe9zbyWojZJN5rEWUCs9V28Z632PsZEqpa9KZDP6Ic9JzkxpTYsIqQi5NiWk5LulXbsGvB/6jf2te/fs7J6anOrHephNnb1t85ZssZTL5rH7E/4SiOXVTRkmKnZGQCw+1ikNWhpaIsHOSDhQeuTDH/C0t4YCY6Oz5/7iW09f0j2EMj+qm5xlk2Gwlcq5FqCuqQjKl6+WaphlftWgXgHtkKCsB5z13MNy1HufWuZKVoBanUpNw3ivUTKb0Qu+l8FPXGevDwetI8WOcNjzqU8/3H7HrXv6W8PBNqyr5vbYbO5jJ8865qLxEuYZYpU8AFgsrit2mF56txZHB1KT5WwTTqkqYkPPcFdXk2P3ji3rdm7PopNsnjj48mvnv/r4t8XiN3qdSZu6BJukPmrHN+PassMbpXw1nl6XkFhLMMtCrBrUlbr3FZyvBS6pPRtpgxxSeb1SvIVUhFRFrd5huJ4iGcGsdmQpsQlm2q/b7r33jsXP/LMPbenoiqx3e21ehnumFheL7qA3FfB5PRfOjzbs2LFhHut4lMuzbB1qZaF57k+ZKzpKCcwM92CLPtQA52x5sf30hocfeG/Lnh1bB//6v/3w/LMHX5LmQlmeKyl/rWdrXa+nTld9z9UEdb0S2uw+Y4FkkA4rSyo4chlaeuH0cEnhkTN65ZgWrQJ8Ts4EVzuQlDYqlahVoWqezQAtwci/BDX/UpEbu+O2XXsfum9/W/+WHm8xm7Vl0llsncqlCLArHNaHdvncxblLC57FVEbEgEowiy0f9Q93neBXbbEau2VsbMqfwxIHfe0tcaTHRSG5tzpndge3b+7b9Qd/8PHIwLbe49jFQd3aThUSKwGhccSrNAJWrMOrIZ3Vl11NUFcrFIFn0ZfdUiWvGa0gGBl3zCXAqHgxEo7DKUEtAbMO32kKE2vW6eclWMln6QwhsBlARCpAhU1+mAbvkWtXq+erjR6SFxvzzN/qiCC+ezwW9+Nf/VIn+G8fuHP30NDYDOKYUwA0ttnDnirkzJmivbU9kp6ZvOS/ODzl39DXmUQc82WjjwQ4niGwC8l4woW94uzBBr+2ASs++WKOS31hYZuitTXs7/7ow+/zN7UEj375K09c1Ato7IwrAXbFtr0eLqwK1HXwaVXqGYFRxPOMj9iM4xgOdeUj470ELwF9Mw42Br1udGgQwATpPA7aZQlaLjbYjIPPxHCEcdCrRnd1CMcuHLQdE/R0dEhHCe/jc8wLlwCjNGeno9PEGLxfaVSRpjlpG5blF9QD8crOb/zxvx7Yu3fTDidil7PZdOz06XNhl9dRDPoBxDz2A8aHYHU4XLjfXYjNxzyZLPZChP5QxOLmvG78YOVH7pTlmI8l3OFwYxbbwGP1gyUpzsbNY94WFyHDpl7hD77n9ps81qDtC19+nAqr2vnUpOVIqLZhJcDXLaWvtnRWC7AqUJtVsH6uFi8m4Chx/3cdZP8Bf0/hIECNlIBSl4AnIAm64/qzBDCBxzXuyBPpaGCo5W04aKPlQYmMVQksZ3BgCTshOTlZlr/ZoZjegH4fOw1BTGlNUNOeTKD/HQ46TdQ6qkU7JFDUv/bHv/rZDe/as5WrM3nBnfN9G/uwY3LKdezo2eYb9myddWNf8Fw6j90SsBsCNjFtbmtNnT99PnxpPu5qbvBj3on5Cv9cdyORWLTPzcc9O3s7UVfaxqpiPQ588A8UTWwEikXFsNJS3u3xBPbfvWfPnzh+r/CFL36dQsKMOhnLyKTkxwzcVSX8Wwlmmcm1BrVaAWbfCS66gf8nDkpCAnceB927amWyoigleZ48kJLlBv0cI+AIdEpo6X2jRJbLghGgvM6/TJsdhlSFkpjA5W9SjRM4WH52COaD95CWEMjS7Iavl33MgMCb1PNSclv/6Euf7rl59/ad4AlezOzDnuigwbi6ZUd/7PVDJ1reOHY6sv2GzbM8JyQy1r/z+dwFl9dTWJid9zYGvAmuzV8oYg08/SM3B+IyBViOAFjFKknYsBPUnOurcy4s19flfolixVNScMwhtxXT2YLX4wruv/OmPX/4ud/OPfb4t6UL/1eKiqwI1HXQDlnv6tClnmNjE1DfxfF9HMZpQUYpwfsplV/HQRDzOwFHIDLvBL6qlMl3kabwfoKV17mIDEEulUu+l52AnYbpyLUpSBf4Dn54j3FNjkqSzUg7hOnskUc+GLn7rnftgCQOpDIC0GJX32I+Z8UOu5ZtOzdFj75+vPXMiXNNA1v7YwQvtvmwYUWlki/oy2PPcH9zW3MKq6qLHX9l4bC8gfiOLWdLoxMTwbbmyKLb7S5iwXUuCKntWwhhnYcthEql2GeFrAQ7BmN7t7zX52l8/737dp48Mbx44NnnqaeI/OIwK59REvOeuvj3tZDSrJcVgVpWaoW/ZkDmrWZDNitRLmZeKXhHvobXCd45JS0CUjaCvI+/ZeNQgjMEkx2Iz0qgSheyzBevSaeEagWR11VKpHJQM6ms8uoSNmXyf+yh9+/we13NcKIIQEOyCoWQ3JlbV2BprtLGTX3zp98cbBoeHCv2rOtMWrCZJ2a5liLhxsx8dN47Nzvra8MWy9jOoqwwytVI06ksNpwsWbEHdYkUBat5YH1RbiTA7fq01Ue59RO3yuBvrbHtRQC7EA762x79+H0Drxw69joWnFGFg1nzqjxbrW9ZP3WBvAZ+1uzyWoJ6JZliZahgVsFvlo5qTaj2HlnJbISYfqN8l7HiVcmkNlSl9I36gplkK0vsj3/4gd629nA3tEDuCQlWoQJa/57OczXSfG9Pe+LC0HgIU7lLrS3NaW4XF4SkxsaZhejsgqeppSnDjeTKGSPFcDtL4xcnA27sDtAQaszmM1nsomIt5ax5sWa0ti2G2O2J3hmdlGD7F4Cfk2mxAYAVu92u/+ynf3vqC48Jfq12ZGNZV9K21/zeqwVqM2XDKMnVe8xAbVax9Va2ep8Es3HYrARS5kXtAMb7KlGQcvke/OC+xp27+6nQurCLL/Csmew0Ca0BWkhWcmVQkebmSCa5mEldHJlqcLrdpYaAN5cHsJtbwunR4clgAutLB30B+Mx1Xo3n+DBWRMLajJDATmy/jGva1nD4WgRzwhaSeKHIO4ENIgLrtXCxc9UDK7fPxjJh3ltv37lp3x17Lx186TB1nWplk21kJpXrpiRvBeKvFqhr5V1KNFYQuWs5FqLWg9fwupE3q3RE7ZT2hx64ex2G96Yy7cDwD0DpZjvNQiEADeWPe1sBbdbO7vbk4mLGef7ccGjLlv4o9oS0BBt8eawLbYtDGfTD9MedtgRI4UKPzs17CoWsPRJpWUQCWDwJu71xnQ7ulUWjB4ANyc13aVUG2x63WtRAjo0McRO2YSxGWoKtj3xofydALWfqXMMqXptXX01QV5Kq5fNh1O93YJr7Ivjy4SVuK0tmlLaS8+rCp1wBkhNLaSG5tTEdSRfEsKwJMPFRA33UtMzyYVbrEtwivQ/e++5gX29HF4zONtAOxCOJnXvFhzvSEtDSmiEIry5NuVlvT19n/PSJs01nzl4Mb966IYqd1C3tbU2pKWxCFGkMZ1xue7EECwlpRiK+6ASndvqCwRw6BczTSIxb3XLrCiGauddnHluxQ4qThmhbPjOP+Bc0BNIae8KX3EWLc/NAfx8Cq8aw6xd1EVkvUiKr9aaW32w0XBtUXmEqawFqM6rBbJnRC3V4y2Ml/c39FsuHH7ZY/hygVp0wxmLRfqxaOagAUvlj/mm+49BJKcQwT5rsaGuWi66otIeglWnxGTYYnyfw+AytI7yf12QZZDmMiqnpUH3f3be3YzfaJixQJ5RDJqK6uAloSmn+FSY4ZgLfc7kiBLC91L95/fzpE+ci585dCG0c6I8FQsHs2OSlwGKKGxGFoFxjaytQk8xi0unDNszwtligJdKqIj7acKCRaUlFKLGpLOobB4uRgk52dinEZ1sCQW+EkYIANU2nNemV/qrrSjnU8yT+rAWo1fSqfVfBxQrJwe72ngWAep/F8hP8pj3aqDzKitumX6PFhN7AI3reaXe+CwdNdkM46GBBP7H8VG9f3qs51pZimbfiOzvAyzg24GjDQRDzLwP66Zmkk0aa+czKpJal/L2/v8fTt7GzA4nbuVKXMN8JAIFD61KagOaKo6QJBF0Z5DT3ZfJWv9NR2tDfGzt79kJ4eGi82L9pw3xb68JiLBr3NERCCMuzWxDnYU2n0s7m7o447dvQRJmYRbpoNJ60REUosbkdnHDMAM3AsdjsSNAQGLWxr6Fn98DGdng+RzDZQIQwvJ0/VwvUZtJ7mcSEdPZC3N4K0boBNOROVOLPRVtc/mEl015ML2AMB23Q63Ew8J6/6Vmkd5BmPimwKMUJ7jtwzOOgLZbp0HZNIP+CGMDB957FQVCz49AFzzqhg8eYFyOnZk4l9RDU5447dgcjTaGI5LFLyiHvw6ZwNLEVuUGWwGAZ0AUqfsw8pTgAGwz5cuv6e2LYZzw0Ov5yMNzgz5w6db713IXRxh1b+2cvjE0Gi9g2rqPHFueGROJ5snN+18czrNULWm4vME28DZQbfzVv4zIJy7zywLZ1zffvv7Xh6WcO0nQqsqOXzyi5mXX5UZVwUST1Iv0a18JWfbVArZZNNr56Lvc5i+VGoOoGIg0IvP0vAM5PaW5vo8ODFUwniYzAI12gRGbsCJUbniew6X4nLSG9IDgJaoKVXjN2AgKdwGdHkB5M3i/X6uBfuuzpRuc7eE3WT7UhWZbLunvz5kburEY7MaU0d8eitcNicxWyqbxtMReD88+bg0qHzbCyDqEsCrBplEQmVMgWbG2tbYu/ePV45//3P/7hro6u3gsXhiY7+3o7x5rb1s/9zd/+5I6gz5FdP9D/nM3pyJTyGbH7pgps7k4rtnAW+x9abQWojrriKKS1WN1U59Z0ZYIyBXfv3iZBzayw3s3MnjKb1+3ftwrUyyoAUroE1LwbNbaFKEPt/dqtFsu78PWHOIygZh4pPShtSQkoWdmGcsrSqA5WXuc5cuNGHPQmMnle5/P8Til9UU+LwD6Ig4CX0pnpz+Mg8I1UqFIjaoD3WBy9fS0RSEIH2DSKVhCb+0B9K1xKzgSOz5+4IWVPtAQKDWMbPJvfbAo0povwbmeTADecJmrigpLkMvZA0J8JNzXOrYskgnt63GmvP+7v9L3e292M+mtdNxpuCsGPkrssn1Jiq/uOS5ojbybP1+iIDeY9C3bHsDi7O1tI13iLsJK8XT91g7qGi9yMYxqHb3lPHpFGYSCK3HMMYrYEYmzF9x6IVufgck+hTOOkUsGn8Z3eQoKWQCZg+ZFDH4OZpIWDDSQ7AO+R16QZkc+zE/A90iLCv6pSaEaJmJZKPSz9LT2uSCgUpJ2hCA4h5xMivtl+dO7ILZcCk/vcAad1YX5uVzFhsa5L7z46PzseCoV8+UBjMAu7hqAf3PKtUChZsuDBN99++8iunZtn1mf/8wNbumc7srieTV/c3PSx3b+YDf7Wq07LgisPqc7MOByQzLq0FzvRUvqDkRj3E5fWFm5mJIBNaU1aju9tLU2hjo4Ox8TEBOtHbVNZXnHv9Q72ukG9hgWxI5KohBjQpyAWfkhFHSLUDoROgSdQ8TOTEqxItTJJU+ZxSIuIzB4rnc/Le6XSI++TvyVoJejl8/LdlYBcsRoGNvRDF3NhTzdJ6znGO4vz2bnArGVuizfgQrCR1eINu51T0fEt3//zf2y/NBOL/Mb9d7+8dcf62UIOkRzcWpnewDw5N/iBDRMFSklnW2vO1dqW9YrSghSNxwu20QT2NwRhsmLPoFLePIpP6+qkN/jDaY2sMA34y4BJjyd8jlZvMODr7ww7AWqOam/bz1qDWgWD/H4ZH30aNALHcQOASTt4GIFqVrlSSqrXjEpLpeeM5+sFsMov5TPynaX+gVaPyyV2SRF8WpOIBavL5sq7rK75QjHdAc8fFugvWFw2f8zj8i06nIlGGyRsJpO1Ly4kXfkC9+jErhRCt4OyUHKCCifdMW/eKZdcZOKXoov+oYmL4cVYxhZpbkw1NDRg2X88oIVSi4/QauHIzFnd3Ii86LTl7ZYCtrPApp/GCuCuWujdJUTA+sJhrxET1RRFYz1cFx3hSkFtHKLMAGMGGp4jp+VHBb9ZpVwPw90yqqHku9wBw+EgdioGaqUHj6As5u0NHl9mo2vg5XNzp3xpR7rVlfWNbPBvPXzL794zPT831uD3u4vYDi6Xb86nGB9CxRH7Kgu7cxEKpi2XcNmdwYWJycVGO2CJubbWUGPzbJelLZ6InYtMjEw2TLtmCy0tTYsNsGm7vS7EjDiLhaylFE1GvWOZkxsQ2lTqb9hwscEbTEGs044HNzv+6J2PGiTL5HA57U5PWHp31bZR20Vtz6rWj2uF8CsF9bXK93X3Xq/DQzAwxoJxGHr+ROyFbXPjwEVfzPf92fR8Y8TZFI34WmBfzjqCPe3JXDYDi3HJYofjxQnJqsX1a5YQwY0dvtxw/p6Xx6YXjoD+FkG3rQV7Z2xdh7NUaN04G8dutrOxBffE6HTg0qVZOHxgaJ+e9+y8cfPcOduJ2xLB+e1IxRpLzx29wXLjz1uCjUlQpMsEjdC6sWGcx6imX3c1XTtDVwLqeodtY4+Xz9HSIBUS3kNvHqvUyJ/5m/cxr0KA6dKdUlI+LxVDpq1aAyS6eK6SxJdWFD5rVBL5m++tXVZoavR4KIJa1L50vnSFemfafH0zFmvWUcil3Dk4TAq5nDDnift0JQ8anpDUPIeMib9J2w0T8DdCiGvnXXYwl3wKxMVaogUkhIOzyTE/0fbd7/3ohpdfPrr7PfO7hwcejmzw+Ow+BuzFopf2jmVHLrTZ2o8Xi4tylFyOEDGdDOVY/qk1GtdG2Vt8x5WAeqVZlZVT3L/Nglhjy+0Rt6WdIGAw79Gzlte/8m0xw4XA5r0S3LR00G7MCbd0gzfhoP2ZyiIdMPP6M5yWRdsyPZNUCAlk2rOZDqd8GZVAyZHX4RqtIEyPzpl2/TezxTTpvme6qkWEZV/W+XL5tNjbCttjYv8qbZ9u2oKFWY/xHsU0NEUGNoEv03YMgNIyQRVPApuJ8hpohuaY0XVOpyXhxG1O2bV4vkCPIQulWz8aQT3Yyzdu7J2KxlInLK5SBPTH6yiAjgPUVmyulcvlqIiLWej8e/kH08MQKms4bxQy5o9eR2ffSlDLYuf6N1sa9m60/G5XO2zVaKBMxlIKeiy/jxtoulMHQAKRUmUfjpdw0LGyUf9Omyo9gkdw0MtIFzcByOcZmEN3N72ENPnRVh3GQZAS8AQp/zKNnThe13/TVs4OwLTYYQhspsX7zT5lAOTTcU7GEq5x3GgKGuh/AHMdUt/kTUs2FfOMYLkFzLC1WN773l8b3L//geMj88d7h+JHmvOufIRvtCZd02FbM4xMWlCVEdiUAFkY9nIYQiqU9W1z+mqAuvZwlbPY/S5LONQmQGopATb+EeHZM1Yo0yKoOGOFYKYwIk25iW2Ag/knKAk6mqHoSezDQVs2pTmfl17KW/CdQIU1UZyXk3c5EvBZSmheZ8diZ6DUZifg/bRvq2BVLSG4ZClNTKez+Zwl7/JSCiLsU8w8KZYKQJoOIDqkRXCoiKJjPJMirUUYv04vKK21Q/Ey6pSEL5MfzkuU3zXPIdJlnIc76ult7JrGCjc/GZsa3oUcldY5+4/0hLqmsLwkQrDxdm5PLg7kE9YPUh04QnP5aEo1iartISW2+le+/rqS5lcD1Gq9V/uumXRRHYxph/G/0odgp/QkwCTnpiSV8xVJTWTwESUvpSspCDsC7ydQ+eE1usEpoSnZ+UbSDn7kcgvsQL04GnFQuvMepm/GqdWGtA6OjKNjlOjeqyip9XeJP1DKsEE4pw4qM1rUG/hSKopVrhtuFz+5VFkOs2DsVkdxILB5sKuwbthqtZcCHg8nMIKKCCVxmfDgM4z2w9KpqWhcTO16W3+uCag9XktpEVv9xi+JsExLFvAEBTGDNRuAIKS0ZJwHpTTBSUCz8inpCUSCkhKGyyEQyDK4iVKXEpf3HNPvwVsFuMnPKZ2HcVCqz+N4EQdBTG8l05NeSzPbuQQH8207cWIwm8cqpBYvXk95rCuAGOe1KVWaSxqWaxijgXsVzJJbawsbLElsfpcSmB5D7Wrlj3SLQ/SW7MJgV7L7nP4cJw8guhqItkNCy7cspUNXOX8tJlOJMyNin0TjqFTp3deVhJYluhqglhVQyWLgPHnYMvvagOUPR8YszWhxumhLB0+ImA4CkB+ZBsFEwNGVrYLeWJmqYiktIKSJ7AhlBVVpLD5PWkKJLkCpH/xNIEt6wbyoFhWZL/X94js2zcxdmo3NNwSDnQ7AF3OvdGVxyXxG0IlhXjfgELCaz2S50ijBWU2KG6G9HNBaB9DSx6RblBBfaI7WJ+SSIpEeceY5LiGKj1kan5idj2qTcGUbmNEP46uvu99XA9S1Cml7btCSfe4xoZwRUBL8chkx4/PyumqWU8ElAa12IrVTyPTkdSl11XuM75AdgffU6+EsnTs9HEUkXQFggZtkyXFH/soAfQbqcyaKXOJAAo+WEJlJSllpDSEIawF7WdCS2HbZ5ENyrvkpy9cln+aoQkmNqZSp4fEJVXjUHBlqNfS1uv5WglqV4GxEWjVUiUjwqGAtt3OVypFgkH+NDaEOo5VGjkrPSimtSi21Q1wmtY+ePBO96703Jz02RwiBSaQdsPty0S+ul6dPgpVKIPsyFD3MJaDPg2s62mTwEc18DEgSw4cCRCPA1WsWcHTVQM80xZxFViqouROLJ/D7kpK4ZNazQ3Wci6diL71ygqOXWu9yRHpbAfxKQK0CshLu1MowgkcCTnV+VANyJf5mVuG1GmElack8qRJbfV6ONrZnDx5OfOSRD0z1dbc3kpgKbALYYhkw1jQWl2FAPmeh5EuYGc65sQCeALAilQlu8gKVb1F6LwMxwapIZuHO1DtA2RLCdPA/Rwee42ihWT3A83XqQaqEjBanpmYuHXz+EHUPtouuwpdt8Sq4zYBuWp/XYoIAG+tKQH2lo4twkIT7PU3RwTQrU5rorjTdt+p5tVOLTkQ+evbM2GRfZ/t6TLNycA07DO2ygy0DtgO+Ia7RIZRGQayXeI42WwVaHk4zFkRIWxNqYQwrVemF6Cw6oCWXJqAllxZSG6OJGxooZpUnj7xxjpMpJGd6W0po2fBXCmqVUoi613u68bv8Ld+b27W/p3Pr/s5/Fmz27E4tpM+/8fPofzt2QEz8lM4XVdpScvCQI6x6Tf1uJvXlO+V9aqywTFfl0Op3tYNUGhGWAeDAgYPTN+0dmEGAU7cDlmvMv9XW2mABdA+j9h0+aU1Ki5nfcEJqnkaCTX+rVCCr9VKjdOa9gnYIQGONap3uaLZybdUm8Q4Rz4QPlsCJzkanv/WdH9MqJNupkmQ2nq+WtWt27UpBvZqMF7D5lHPbr3d8rKWv4UuBZo8lk/AgSsfWlJgO//vBl6K0dqheRVYkTXYENG3PBKXREiItFNJOLW3YMn9ySOVfaRJkWkxXmgP5DN/LtNX1q2VHrUVzxPWXDh9ePHVuaPj2m3e2OiELQXRhjwZL5uRtWKU1Q4QGW7FEGOOfYKiHaxy+D8FBloG7mqIoAVsupJTmFNK0dCiAXuZs0R0ubiAbvS7989dPDCGGWrV6mLVrLUq3GixclWfWCtRGiS0za1YRufC2cJu30f1r/iaPJZvMW9yw7XobXe9uaQ23D1qitCGrEpkg24KDDpOf6QmH8FdKVJ4iQGk9oduc3kTaqwle6aWkx5H304GzXr/Osu/AwTzSpc7zVF6P4qCzR01fSiijJYTn1Q7G64X//rc/Gd3a19sTiYR7MHUbWxGJaS3SNS08izqwubIN32PLORxQGSFG4Tm05bIOTDnHLBjNQWNs+TLNcDmxnI2z5MxnMYcMc7JommPl6RLaTmVV9x5K2gGdEDMCBL/GEGGzz4zPjH7riQM0ZcoyytFL/pXnVaVbZkleM2bxmv6uG9Qk/XWueqoC2cyyYI9OWObz2fwZHHe7/Vg2CIbqTDZ/dmY6FWUD6zWybFjHOZqbKE034ViHg5NtKdX5l+ZBUhc5x5Cu7/fpv+lkGcJBRw2dLXM6EHfr6bygn2/EX3ac8/p1I5iqNapUFpln20tYwuvga7ec+Sf33N6EIGvs6UJLMYJGFRqCvqDVDaUm1iyInBkKWTFDnEssJbCoTToQzKFibCUXdgPAB2ssCK+JkMAwDRag9AWmZ7yRSzFPrL9noeBzYYHr5crickBrLnEBaFpKwPkxwXHhhz/96fnBiQm5gGa9tEO2sSmor5WCqOPmmiiK9uhgNDEynPyvVoct7PG6bsvncicmh6L/5+BLE4yxMEb0suI4NPI8gUdQU5KzAxC8dNjwNwFOUPN7n34fg6AITkanEfyaDUKTwuSQdLdzFjrjR7h2iHSrc92PSqOPrDtjh1UBYf3Trz81vmtr3/lNvd3bIRX5UgMNEcASfNu2mHK45hc8kWNvdnqm58InP/nIS8Jj4rSWnHMpO5yQ1lyLJ+/MQnpjlkzR7y6wIMGLE8HeHz1/w8wte86MfuieM3YswM7MyWAlqRhiwT0xmmiOFlvJyRWybbb8ibODp7/+zQMcpfgxSmZZzrcN7ZAZrltSywdM/krOqV6qxkN5n+vg48fe6L8j/Ae92zvWzQ3OjB97boahpTI/ywCC85SuBG8zDlILUg26zhu1thKzv9kovI/gnceBBaCEd1DyY95POsIOQslEmkJaQkryHA5SGP5mWqpUrtSoxvPL8gxLSPbrf/7dU1/6d78Tag0Fe1E0riEjgK2Bjutt2LCwLha6aQhmk1s2XOr58Qu7ku3Nc5Ejp9oaLo5Esg3BVGBwuA1qn21u54YR93zcy1IO/cY9b+Z9zkJs26aZ9OunLtkdnLeMu0ApuPaBUUKzwrkGCAHN+A+Hy2Ydn4gOfe0bf8VRSXWLr1RSM+nr7rMWoGahjA1sNlQbC++EUjiFg2CmhJHBSmZpkeNSMnMopvlPehd5Tgz5bDccjPUgL+Y9BK+UzHw3JRJ/C96rPzeEv+STBDnzzE6hrsxkBmi1E0verRvllhXRdvDg4eRAx0+OffwT93mDfg+ojQZsZoKzuOmQyVscVkjefPe3f7DNmcx4onu3D3f/8IUb7Pm8veB05F1zsTAIcL711ZMuZzLliw2su0jRnWloyrYcPddmz+YdeZ8/gxkCgrND+iN/mpVDixSUrnBbCea7ksPlsM9E4xNP/PX3jx87NiJDao08upqdWi3kdSnF1wrURsDW+i0rg+CslAe1wihNpASVACKg1Gd5PwOZKHGF8kXs4FAdbQSzOlmA1whoyZ/V72ZlMBuVeJ8q4SQgeN72xFNPz3R0ho/c/8CdN3s9nkb4Fwtic6GyRcRacqdSdgeUw4Ut6y+6FnP2VF/bVC7QsFj0e3PO8emwBTPNc6FQ0pVKuWJb+qaL4YYsZulaG4bHGt0LCwH74iImEQDQWEEEoR5ivRGxyLpUCsGhsRyJ1QUeEo3HZ773d88defrAs+zArCdpTaokpWu15XV3fa1BvZY915iWMWbD7F1mNmb1PsmDJRD5Vx1Vao0w1WiJBIVs5PJ7v/L4E+MgPoffv//2G4N+X9iCnQUkFcEyTdznxTL24fuOWxOY4QJr3Oy+G8e494sFmxrZFhad9nTGnm7w52wOrMCALTDQaCVrOmu99J53Dc3ddfPFXCiQA43RorLAn8sTAHSlEL+tWIvaNhtLTn3v6Wdf/+YTT0sevRK6oZbPtJ2vtYIoK36tQV2r18rKMANXrWeN19eyA63m3ZTIlVznTE+OCOKerzz2xGginso/9MC+3SGvv82OJUKwsjpXkaQXxJZvD6eKxXBaxIgI3g1mAmlcaG4Ue3PB4oE6Q3MB6GKeF7abK3W2J9PQBhEiZXXQBKhTDRGkJPgzlup1uKzUC2ei0eHv/PcfHH3i289wdpCsO6NyaOyYK62X6+L+FYFa9sQKpr1qQ7MsrGoxMOPOl0m5VdZSPYCv5x719bLB1dFAmvLUTiqvq+cEsB//+rcnhs8Mpz/xid/c1tndts6LNQkyQLHg2TmAVk7CJei4hgdBSpDjLdp8RbIwUAsAml8QBmV1631HxJcoYAbdsLjBP2gtHRqaOPf4N7936uDBl6hrGKmSyp+NIFeplKyv6x74KwK1bOEqNuuVAkUO/6KxDABeTVpX0inqeV81qiJgp0hvea9USgU7ePrZ5+dOnBk5/JnPPTyzd8v2TX6/pwkRdbZCNlsqOuFq4ZrV2uwUPTEtgF9fHky+QMurEg9C27M4Be5Mgs3tMKLx1NQrh46ffuzxJ0eUOGkVuNUArYJftk/FOrpeqAczuipQG8C3kp9m9GMlz6v31gPC1aZd6znjqKRKMUlL1PxJwItOfHJwMPWZz3z13CMP7p9+4MH96/p62td53a4GbEPnRJxqCeuvc2sAsb6d8NtoPeWy8pJigFlw0TBuYQfKDUckPslUNnpucPji3373Hy4+89zzdFrVohtm1o5adXDdXr9aoK4EODMPY6XKuZqgrZR2ve+spFCq4BEA1vAoPrym0pX8Uweei+JYePjh/cP3ve/OrnXdXW1BvzvsdbnoBbU7YcrOIUiVJrrLK6ko9mLUgkqKpVS2GJ+bmZ0bGp6a/Lvv//3EM8++RDAbo+7MwFvJfGeUztc97ZB1tGpQ1+DXskJkw6q/je1TSXrXC7DVSIxaaZtdr2UZYT5U0DINCWjZmVW+Lb8Xn376uSiPXQMD5++//5bGvr6+UHtbczgUCgR8Lqff6ba5AF1OfoQAJ0Up5jMIRIqlsPdRPL0wOjMXPXN6cOHAM8/NDw6KxR3VkcRIMWpxarWtVCCb1tn1RDuuGNSrQdKv6DOVqIjsBBLosoMbFcny72Nnziwee1xsJjQeDofd27b1O1uxRl84GLB5vHBuI/YZ7KKUTuWK0/FEYWZmLnf06JkMtrSgo0nmQ3Ygs9hoo1Q2/labSKVMb6umW7WklqVcgcReacXUkqYrTU+9fzVpV6NUZtfUc1LiUXKbgVoCXl4vQbHLIDBKSl15XQJX/at2FqMUVimEpD9G6as+I/Ms01etH5fV9/UopZnJKwb1lSDL8OxqgLaGr19xUmYSWtUZjHZsKbnV59TvZvRGdgAVuGb0TQWmEcgqUCvdd6UdfsWVdzUfWDNQ1xma+nYDbqW6N0phCTo5ZBtNfzIdI7c2UhPj+1RQVwKeEbQS1PxrtDMbQW12XX3+amLvqqW9ZqBmDuugIletINco4VqdVL1uBDCphrxeVhr1clQCs1kxVVDL69Uohgpas/tqgvp6pR2y8GsK6msErOv1tbWsJcts1yiEmVeynrLVA2qVktQEbT0vvZ7vuSqgVntynbNlruc6qjdvtaR2tXQkt65mx1dBX49iqkrtSqCuJKlN83q9S+i3TFJf7wBfSUPV0UGrga2W0leLclwNUBupSMWOt5J6qlcKXK37roqkvlqZfZulq/Jlo9SsVBSzZ1b6rJFemNGTetN8m1W5lt23FNRvp95u1porGHWuhIqsFkhmFplKkrga0Je9/+3YZm8pqFfbWr+iz6018CuB+le0+ioX6x1Qr7LJV2C+VKWiURFUebKakysFfC2pXVep345S+i2nH3XV5NvsphVQEiPXvZolXZXUfruC2FiR70jqqwmt2mmrbnIViJUkeLUUr1S6187t2+SOd0C9hg21Qqm91haIVYH6V0U6q834DqjXENRqUkaw1GHjXktOXbVUv4pAfgfUVwnI7yR7fdTA/w8B6+CDjgySRgAAAABJRU5ErkJggg==&quot; alt=&quot;图片包含 圆圈&lt;br/&gt;&lt;br/&gt;AI 生成的内容可能不正确。&quot;&gt;&lt;/span&gt;&lt;span lang=&quot;EN-US&quot; style=&quot;font-size:12.0pt;mso-bidi-font-size:11.0pt;font-family:&lt;br/&gt;  &amp;quot;Times New Roman&amp;quot;,serif;mso-fareast-font-family:仿宋&quot;&gt;&lt;/span&gt;&lt;/p&gt;&lt;br&gt;  &lt;/td&gt; &lt;/tr&gt; &lt;tr style=&quot;mso-yfti-irow:1;mso-yfti-lastrow:yes&quot;&gt;  &lt;td width=&quot;17%&quot; style=&quot;width:17.7%;padding:0cm 5.4pt 0cm 5.4pt&quot;&gt;&lt;br&gt;  &lt;p class=&quot;MsoNormal&quot; align=&quot;center&quot; style=&quot;text-align:center&quot;&gt;&lt;span style=&quot;font-size:9.0pt;mso-bidi-font-size:8.0pt;font-family:仿宋;mso-ascii-font-family:&lt;br/&gt;  &amp;quot;Times New Roman&amp;quot;;mso-hansi-font-family:&amp;quot;Times New Roman&amp;quot;;mso-bidi-font-family:&lt;br/&gt;  &amp;quot;Times New Roman&amp;quot;&quot;&gt;图&lt;/span&gt;&lt;span lang=&quot;EN-US&quot; style=&quot;font-size:9.0pt;&lt;br/&gt;  mso-bidi-font-size:8.0pt;font-family:&amp;quot;Times New Roman&amp;quot;,serif;mso-fareast-font-family:&lt;br/&gt;  仿宋&quot;&gt;17&lt;/span&gt;&lt;span style=&quot;font-size:9.0pt;mso-bidi-font-size:8.0pt;&lt;br/&gt;  font-family:仿宋;mso-ascii-font-family:&amp;quot;Times New Roman&amp;quot;;mso-hansi-font-family:&lt;br/&gt;  &amp;quot;Times New Roman&amp;quot;;mso-bidi-font-family:&amp;quot;Times New Roman&amp;quot;&quot;&gt;数据采集解析流程&lt;/span&gt;&lt;span lang=&quot;EN-US&quot; style=&quot;font-size:9.0pt;mso-bidi-font-size:8.0pt;font-family:&amp;quot;Times New Roman&amp;quot;,serif;&lt;br/&gt;  mso-fareast-font-family:仿宋&quot;&gt;&lt;/span&gt;&lt;/p&gt;&lt;br&gt;  &lt;/td&gt;  &lt;td width=&quot;26%&quot; style=&quot;width:26.28%;padding:0cm 5.4pt 0cm 5.4pt&quot;&gt;&lt;br&gt;  &lt;p class=&quot;MsoNormal&quot; align=&quot;center&quot; style=&quot;text-align:center&quot;&gt;&lt;span style=&quot;font-size:9.0pt;mso-bidi-font-size:8.0pt;font-family:仿宋;mso-ascii-font-family:&lt;br/&gt;  &amp;quot;Times New Roman&amp;quot;;mso-hansi-font-family:&amp;quot;Times New Roman&amp;quot;;mso-bidi-font-family:&lt;br/&gt;  &amp;quot;Times New Roman&amp;quot;&quot;&gt;图&lt;/span&gt;&lt;span lang=&quot;EN-US&quot; style=&quot;font-size:9.0pt;&lt;br/&gt;  mso-bidi-font-size:8.0pt;font-family:&amp;quot;Times New Roman&amp;quot;,serif;mso-fareast-font-family:&lt;br/&gt;  仿宋&quot;&gt;18&lt;/span&gt;&lt;span style=&quot;font-size:9.0pt;mso-bidi-font-size:8.0pt;&lt;br/&gt;  font-family:仿宋;mso-ascii-font-family:&amp;quot;Times New Roman&amp;quot;;mso-hansi-font-family:&lt;br/&gt;  &amp;quot;Times New Roman&amp;quot;;mso-bidi-font-family:&amp;quot;Times New Roman&amp;quot;&quot;&gt;时空行为数据解析技术&lt;/span&gt;&lt;span lang=&quot;EN-US&quot; style=&quot;font-size:9.0pt;mso-bidi-font-size:8.0pt;font-family:&amp;quot;Times New Roman&amp;quot;,serif;&lt;br/&gt;  mso-fareast-font-family:仿宋&quot;&gt;&lt;/span&gt;&lt;/p&gt;&lt;br&gt;  &lt;/td&gt;  &lt;td width=&quot;27%&quot; style=&quot;width:27.74%;padding:0cm 5.4pt 0cm 5.4pt&quot;&gt;&lt;br&gt;  &lt;p class=&quot;MsoNormal&quot; align=&quot;center&quot; style=&quot;text-align:center&quot;&gt;&lt;span style=&quot;font-size:9.0pt;mso-bidi-font-size:8.0pt;font-family:仿宋;mso-ascii-font-family:&lt;br/&gt;  &amp;quot;Times New Roman&amp;quot;;mso-hansi-font-family:&amp;quot;Times New Roman&amp;quot;;mso-bidi-font-family:&lt;br/&gt;  &amp;quot;Times New Roman&amp;quot;&quot;&gt;图&lt;/span&gt;&lt;span lang=&quot;EN-US&quot; style=&quot;font-size:9.0pt;&lt;br/&gt;  mso-bidi-font-size:8.0pt;font-family:&amp;quot;Times New Roman&amp;quot;,serif;mso-fareast-font-family:&lt;br/&gt;  仿宋&quot;&gt;19&lt;/span&gt;&lt;span style=&quot;font-size:9.0pt;mso-bidi-font-size:8.0pt;&lt;br/&gt;  font-family:仿宋;mso-ascii-font-family:&amp;quot;Times New Roman&amp;quot;;mso-hansi-font-family:&lt;br/&gt;  &amp;quot;Times New Roman&amp;quot;;mso-bidi-font-family:&amp;quot;Times New Roman&amp;quot;&quot;&gt;路径和乘客行为协同示意&lt;/span&gt;&lt;span lang=&quot;EN-US&quot; style=&quot;font-size:9.0pt;mso-bidi-font-size:8.0pt;font-family:&amp;quot;Times New Roman&amp;quot;,serif;&lt;br/&gt;  mso-fareast-font-family:仿宋&quot;&gt;&lt;/span&gt;&lt;/p&gt;&lt;br&gt;  &lt;/td&gt;  &lt;td width=&quot;28%&quot; style=&quot;width:28.3%;padding:0cm 5.4pt 0cm 5.4pt&quot;&gt;&lt;br&gt;  &lt;p class=&quot;MsoNormal&quot; align=&quot;center&quot; style=&quot;text-align:center&quot;&gt;&lt;span style=&quot;font-size:9.0pt;mso-bidi-font-size:8.0pt;font-family:仿宋;mso-ascii-font-family:&lt;br/&gt;  &amp;quot;Times New Roman&amp;quot;;mso-hansi-font-family:&amp;quot;Times New Roman&amp;quot;;mso-bidi-font-family:&lt;br/&gt;  &amp;quot;Times New Roman&amp;quot;&quot;&gt;图&lt;/span&gt;&lt;span lang=&quot;EN-US&quot; style=&quot;font-size:9.0pt;&lt;br/&gt;  mso-bidi-font-size:8.0pt;font-family:&amp;quot;Times New Roman&amp;quot;,serif;mso-fareast-font-family:&lt;br/&gt;  仿宋&quot;&gt;20&lt;/span&gt;&lt;span style=&quot;font-size:9.0pt;mso-bidi-font-size:8.0pt;&lt;br/&gt;  font-family:仿宋;mso-ascii-font-family:&amp;quot;Times New Roman&amp;quot;;mso-hansi-font-family:&lt;br/&gt;  &amp;quot;Times New Roman&amp;quot;;mso-bidi-font-family:&amp;quot;Times New Roman&amp;quot;&quot;&gt;信息与物理融合下的导向分级布设概念&lt;/span&gt;&lt;span lang=&quot;EN-US&quot; style=&quot;font-size:9.0pt;mso-bidi-font-size:8.0pt;font-family:&amp;quot;Times New Roman&amp;quot;,serif;&lt;br/&gt;  mso-fareast-font-family:仿宋&quot;&gt;&lt;/span&gt;&lt;/p&gt;&lt;br&gt;  &lt;/td&gt; &lt;/tr&gt;&lt;/tbody&gt;&lt;/table&gt;&lt;br&gt;&lt;p class=&quot;MsoNormal&quot;&gt;&lt;b&gt;&lt;span style=&quot;font-size:12.0pt;mso-bidi-font-size:11.0pt;&lt;br/&gt;font-family:仿宋;mso-ascii-font-family:&amp;quot;Times New Roman&amp;quot;;mso-hansi-font-family:&lt;br/&gt;&amp;quot;Times New Roman&amp;quot;;mso-bidi-font-family:&amp;quot;Times New Roman&amp;quot;&quot;&gt;（&lt;/span&gt;&lt;/b&gt;&lt;b&gt;&lt;span lang=&quot;EN-US&quot; style=&quot;font-size:12.0pt;mso-bidi-font-size:11.0pt;font-family:&amp;quot;Times New Roman&amp;quot;,serif;&lt;br/&gt;mso-fareast-font-family:仿宋&quot;&gt;2&lt;/span&gt;&lt;/b&gt;&lt;b&gt;&lt;span style=&quot;font-size:12.0pt;&lt;br/&gt;mso-bidi-font-size:11.0pt;font-family:仿宋;mso-ascii-font-family:&amp;quot;Times New Roman&amp;quot;;&lt;br/&gt;mso-hansi-font-family:&amp;quot;Times New Roman&amp;quot;;mso-bidi-font-family:&amp;quot;Times New Roman&amp;quot;&quot;&gt;）&lt;a name=&quot;_Hlk202447282&quot;&gt;研发了&lt;/a&gt;&lt;a name=&quot;OLE_LINK25&quot;&gt;&lt;span style=&quot;mso-bookmark:&lt;br/&gt;_Hlk202447282&quot;&gt;多场景&lt;/span&gt;&lt;/a&gt;&lt;/span&gt;&lt;/b&gt;&lt;span style=&quot;mso-bookmark:OLE_LINK25&quot;&gt;&lt;span style=&quot;mso-bookmark:_Hlk202447282&quot;&gt;&lt;b&gt;&lt;span lang=&quot;EN-US&quot; style=&quot;font-size:12.0pt;&lt;br/&gt;mso-bidi-font-size:11.0pt;font-family:&amp;quot;Times New Roman&amp;quot;,serif;mso-fareast-font-family:&lt;br/&gt;仿宋&quot;&gt;/&lt;/span&gt;&lt;/b&gt;&lt;/span&gt;&lt;/span&gt;&lt;span style=&quot;mso-bookmark:OLE_LINK25&quot;&gt;&lt;span style=&quot;mso-bookmark:_Hlk202447282&quot;&gt;&lt;b&gt;&lt;span style=&quot;font-size:12.0pt;mso-bidi-font-size:&lt;br/&gt;11.0pt;font-family:仿宋;mso-ascii-font-family:&amp;quot;Times New Roman&amp;quot;;mso-hansi-font-family:&lt;br/&gt;&amp;quot;Times New Roman&amp;quot;;mso-bidi-font-family:&amp;quot;Times New Roman&amp;quot;&quot;&gt;多状态&lt;/span&gt;&lt;/b&gt;&lt;/span&gt;&lt;/span&gt;&lt;span style=&quot;mso-bookmark:OLE_LINK25&quot;&gt;&lt;span style=&quot;mso-bookmark:_Hlk202447282&quot;&gt;&lt;b&gt;&lt;span lang=&quot;EN-US&quot; style=&quot;font-size:12.0pt;mso-bidi-font-size:11.0pt;font-family:&amp;quot;Times New Roman&amp;quot;,serif;&lt;br/&gt;mso-fareast-font-family:仿宋&quot;&gt;/&lt;/span&gt;&lt;/b&gt;&lt;/span&gt;&lt;/span&gt;&lt;span style=&quot;mso-bookmark:&lt;br/&gt;OLE_LINK25&quot;&gt;&lt;span style=&quot;mso-bookmark:_Hlk202447282&quot;&gt;&lt;b&gt;&lt;span style=&quot;font-size:&lt;br/&gt;12.0pt;mso-bidi-font-size:11.0pt;font-family:仿宋;mso-ascii-font-family:&amp;quot;Times New Roman&amp;quot;;&lt;br/&gt;mso-hansi-font-family:&amp;quot;Times New Roman&amp;quot;;mso-bidi-font-family:&amp;quot;Times New Roman&amp;quot;&quot;&gt;多维度“五位一体”的导向系统设计&lt;/span&gt;&lt;/b&gt;&lt;/span&gt;&lt;/span&gt;&lt;span style=&quot;mso-bookmark:_Hlk202447282&quot;&gt;&lt;b&gt;&lt;span style=&quot;font-size:12.0pt;mso-bidi-font-size:&lt;br/&gt;11.0pt;font-family:仿宋;mso-ascii-font-family:&amp;quot;Times New Roman&amp;quot;;mso-hansi-font-family:&lt;br/&gt;&amp;quot;Times New Roman&amp;quot;;mso-bidi-font-family:&amp;quot;Times New Roman&amp;quot;&quot;&gt;技术&lt;/span&gt;&lt;/b&gt;&lt;/span&gt;&lt;/p&gt;&lt;p class=&quot;MsoNormal&quot; style=&quot;text-indent:24.0pt;mso-char-indent-count:2.0;&lt;br/&gt;line-height:15.0pt;mso-line-height-rule:exactly&quot;&gt;&lt;span style=&quot;font-size:12.0pt;&lt;br/&gt;mso-bidi-font-size:11.0pt;font-family:仿宋;mso-ascii-font-family:&amp;quot;Times New Roman&amp;quot;;&lt;br/&gt;mso-hansi-font-family:&amp;quot;Times New Roman&amp;quot;;mso-bidi-font-family:&amp;quot;Times New Roman&amp;quot;&quot;&gt;枢纽传统导向系统存在空间与设施融合不足影响集散体验，视觉体系化不完善影响枢纽集散功能发挥，降低乘客体验的关键问题。&lt;b&gt;&lt;span style=&quot;color: rgb(69, 176, 225);&quot;&gt;创建了多场景、多状态、多维度下的“五位一体”、兼具通用性与时效性的系统设计方法，基于业务需求预测规范了以航空枢纽为代表的导向标识系统，提出了具有通用性、实效性的标识系统设计方法，首创形成一套彰显文化自信的标识版面设计。&lt;/span&gt;&lt;u style=&quot;text-underline:wave&quot;&gt;北京大兴机场应用效果显示：多模式枢纽的乘客换乘便捷程度和导向需求体验提升达&lt;/u&gt;&lt;/b&gt;&lt;/span&gt;&lt;b&gt;&lt;u style=&quot;text-underline:wave&quot;&gt;&lt;span lang=&quot;EN-US&quot; style=&quot;font-size:12.0pt;&lt;br/&gt;mso-bidi-font-size:11.0pt;font-family:&amp;quot;Times New Roman&amp;quot;,serif;mso-fareast-font-family:&lt;br/&gt;仿宋&quot;&gt;30%&lt;/span&gt;&lt;/u&gt;&lt;/b&gt;&lt;b&gt;&lt;u style=&quot;text-underline:wave&quot;&gt;&lt;span style=&quot;font-size:&lt;br/&gt;12.0pt;mso-bidi-font-size:11.0pt;font-family:仿宋;mso-ascii-font-family:&amp;quot;Times New Roman&amp;quot;;&lt;br/&gt;mso-hansi-font-family:&amp;quot;Times New Roman&amp;quot;;mso-bidi-font-family:&amp;quot;Times New Roman&amp;quot;&quot;&gt;，交通导向系统服务水平整体提升&lt;/span&gt;&lt;/u&gt;&lt;/b&gt;&lt;b&gt;&lt;u style=&quot;text-underline:wave&quot;&gt;&lt;span lang=&quot;EN-US&quot; style=&quot;font-size:12.0pt;&lt;br/&gt;mso-bidi-font-size:11.0pt;font-family:&amp;quot;Times New Roman&amp;quot;,serif;mso-fareast-font-family:&lt;br/&gt;仿宋&quot;&gt;15%&lt;/span&gt;&lt;/u&gt;&lt;/b&gt;&lt;b&gt;&lt;u style=&quot;text-underline:wave&quot;&gt;&lt;span style=&quot;font-size:&lt;br/&gt;12.0pt;mso-bidi-font-size:11.0pt;font-family:仿宋;mso-ascii-font-family:&amp;quot;Times New Roman&amp;quot;;&lt;br/&gt;mso-hansi-font-family:&amp;quot;Times New Roman&amp;quot;;mso-bidi-font-family:&amp;quot;Times New Roman&amp;quot;&quot;&gt;，不同功能流程的信息辨识度提升&lt;/span&gt;&lt;/u&gt;&lt;/b&gt;&lt;b&gt;&lt;u style=&quot;text-underline:wave&quot;&gt;&lt;span lang=&quot;EN-US&quot; style=&quot;font-size:12.0pt;&lt;br/&gt;mso-bidi-font-size:11.0pt;font-family:&amp;quot;Times New Roman&amp;quot;,serif;mso-fareast-font-family:&lt;br/&gt;仿宋&quot;&gt;30%&lt;/span&gt;&lt;/u&gt;&lt;/b&gt;&lt;b&gt;&lt;u style=&quot;text-underline:wave&quot;&gt;&lt;span style=&quot;font-size:&lt;br/&gt;12.0pt;mso-bidi-font-size:11.0pt;font-family:仿宋;mso-ascii-font-family:&amp;quot;Times New Roman&amp;quot;;&lt;br/&gt;mso-hansi-font-family:&amp;quot;Times New Roman&amp;quot;;mso-bidi-font-family:&amp;quot;Times New Roman&amp;quot;&quot;&gt;，&lt;a name=&quot;_Hlk202447566&quot;&gt;国际标准化组织（&lt;/a&gt;&lt;/span&gt;&lt;/u&gt;&lt;/b&gt;&lt;span style=&quot;mso-bookmark:_Hlk202447566&quot;&gt;&lt;b&gt;&lt;u style=&quot;text-underline:wave&quot;&gt;&lt;span lang=&quot;EN-US&quot; style=&quot;font-size:12.0pt;&lt;br/&gt;mso-bidi-font-size:11.0pt;font-family:&amp;quot;Times New Roman&amp;quot;,serif;mso-fareast-font-family:&lt;br/&gt;仿宋&quot;&gt;ISO&lt;/span&gt;&lt;/u&gt;&lt;/b&gt;&lt;/span&gt;&lt;span style=&quot;mso-bookmark:_Hlk202447566&quot;&gt;&lt;b&gt;&lt;u style=&quot;text-underline:wave&quot;&gt;&lt;span style=&quot;font-size:12.0pt;mso-bidi-font-size:&lt;br/&gt;11.0pt;font-family:仿宋;mso-ascii-font-family:&amp;quot;Times New Roman&amp;quot;;mso-hansi-font-family:&lt;br/&gt;&amp;quot;Times New Roman&amp;quot;;mso-bidi-font-family:&amp;quot;Times New Roman&amp;quot;&quot;&gt;）官网正式发布&lt;/span&gt;&lt;/u&gt;&lt;/b&gt;&lt;/span&gt;&lt;span style=&quot;mso-bookmark:_Hlk202447566&quot;&gt;&lt;b&gt;&lt;u style=&quot;text-underline:wave&quot;&gt;&lt;span lang=&quot;EN-US&quot; style=&quot;font-size:12.0pt;mso-bidi-font-size:11.0pt;font-family:&amp;quot;Times New Roman&amp;quot;,serif;&lt;br/&gt;mso-fareast-font-family:仿宋&quot;&gt;ISO/TR 7179&lt;/span&gt;&lt;/u&gt;&lt;/b&gt;&lt;/span&gt;&lt;span style=&quot;mso-bookmark:_Hlk202447566&quot;&gt;&lt;b&gt;&lt;u style=&quot;text-underline:wave&quot;&gt;&lt;span style=&quot;font-size:12.0pt;mso-bidi-font-size:11.0pt;font-family:仿宋;mso-ascii-font-family:&lt;br/&gt;&amp;quot;Times New Roman&amp;quot;;mso-hansi-font-family:&amp;quot;Times New Roman&amp;quot;;mso-bidi-font-family:&lt;br/&gt;&amp;quot;Times New Roman&amp;quot;&quot;&gt;《优质服务&lt;/span&gt;&lt;/u&gt;&lt;/b&gt;&lt;/span&gt;&lt;span style=&quot;mso-bookmark:_Hlk202447566&quot;&gt;&lt;b&gt;&lt;u style=&quot;text-underline:wave&quot;&gt;&lt;span lang=&quot;EN-US&quot; style=&quot;font-size:12.0pt;&lt;br/&gt;mso-bidi-font-size:11.0pt;font-family:&amp;quot;Times New Roman&amp;quot;,serif;mso-fareast-font-family:&lt;br/&gt;仿宋&quot;&gt;-&lt;/span&gt;&lt;/u&gt;&lt;/b&gt;&lt;/span&gt;&lt;span style=&quot;mso-bookmark:_Hlk202447566&quot;&gt;&lt;b&gt;&lt;u style=&quot;text-underline:wave&quot;&gt;&lt;span style=&quot;font-size:12.0pt;mso-bidi-font-size:&lt;br/&gt;11.0pt;font-family:仿宋;mso-ascii-font-family:&amp;quot;Times New Roman&amp;quot;;mso-hansi-font-family:&lt;br/&gt;&amp;quot;Times New Roman&amp;quot;;mso-bidi-font-family:&amp;quot;Times New Roman&amp;quot;&quot;&gt;实现优质服务的应用案例》国际标准&lt;/span&gt;&lt;/u&gt;&lt;/b&gt;&lt;/span&gt;&lt;b&gt;&lt;u style=&quot;text-underline:wave&quot;&gt;&lt;span style=&quot;font-size:12.0pt;mso-bidi-font-size:&lt;br/&gt;11.0pt;font-family:仿宋;mso-ascii-font-family:&amp;quot;Times New Roman&amp;quot;;mso-hansi-font-family:&lt;br/&gt;&amp;quot;Times New Roman&amp;quot;;mso-bidi-font-family:&amp;quot;Times New Roman&amp;quot;&quot;&gt;，大兴机场管理实践作为全球唯一机场领域的案例纳入。&lt;/span&gt;&lt;/u&gt;&lt;/b&gt;&lt;b&gt;&lt;span lang=&quot;EN-US&quot; style=&quot;font-size:12.0pt;mso-bidi-font-size:11.0pt;font-family:&amp;quot;Times New Roman&amp;quot;,serif;&lt;br/&gt;mso-fareast-font-family:仿宋&quot;&gt;&lt;/span&gt;&lt;/b&gt;&lt;/p&gt;&lt;br&gt;&lt;br&gt;&lt;span style=&quot;mso-bookmark:OLE_LINK22&quot;&gt;&lt;/span&gt;&lt;span style=&quot;mso-bookmark:OLE_LINK22&quot;&gt;&lt;/span&gt;&lt;span style=&quot;mso-bookmark:OLE_LINK22&quot;&gt;&lt;/span&gt;&lt;span style=&quot;mso-bookmark:OLE_LINK22&quot;&gt;&lt;/span&gt;&lt;span style=&quot;mso-bookmark:OLE_LINK22&quot;&gt;&lt;/span&gt;&lt;span style=&quot;mso-bookmark:OLE_LINK22&quot;&gt;&lt;/span&gt;&lt;span style=&quot;mso-bookmark:OLE_LINK22&quot;&gt;&lt;/span&gt;&lt;span style=&quot;mso-bookmark:OLE_LINK22&quot;&gt;&lt;/span&gt;&lt;br&gt;&lt;br&gt;&lt;br&gt;&lt;br&gt;&lt;br&gt;&lt;br&gt;&lt;br&gt;&lt;br&gt;&lt;br&gt;&lt;br&gt;&lt;br&gt;&lt;br&gt;&lt;br&gt;&lt;br&gt;&lt;br&gt;&lt;br&gt;&lt;br&gt;&lt;br&gt;&lt;br&gt;&lt;br&gt;&lt;br&gt;&lt;table class=&quot;MsoTableGrid&quot; border=&quot;0&quot; cellspacing=&quot;0&quot; cellpadding=&quot;0&quot; style=&quot;border-collapse:collapse;mso-table-layout-alt:fixed;border:none;&lt;br/&gt; mso-yfti-tbllook:1184;mso-padding-alt:0cm 5.4pt 0cm 5.4pt;mso-border-insideh:&lt;br/&gt; none;mso-border-insidev:none&quot;&gt; &lt;tbody&gt;&lt;tr style=&quot;mso-yfti-irow:0;mso-yfti-firstrow:yes&quot;&gt;  &lt;td width=&quot;85&quot; style=&quot;width:63.55pt;padding:0cm 5.4pt 0cm 5.4pt&quot;&gt;&lt;br&gt;  &lt;p class=&quot;MsoNormal&quot; align=&quot;center&quot; style=&quot;text-align:center&quot;&gt;&lt;a name=&quot;OLE_LINK22&quot;&gt;&lt;span lang=&quot;EN-US&quot;&gt;&lt;img width=&quot;70&quot; height=&quot;112&quot; src=&quot;data:image/emf;base64,iVBORw0KGgoAAAANSUhEUgAAAFgAAACMCAYAAAD4Om4NAAAAAXNSR0ICQMB9xQAAAAlwSFlzAAASdAAAEnQB3mYfeAAAABl0RVh0U29mdHdhcmUATWljcm9zb2Z0IE9mZmljZX/tNXEAACv+SURBVHja7V0HVFVX2p0SjUkmmWQy889kZpKsNcmkTJpJJsmkWAgqNuwau7ElBhWVIghIEREbRVSKWEAsWEBRAZUmvffee3v03tn/+Q45zPXlgYotk8Vb6+Ped9u7d599vnru4VcnT56c5enpaTwsD1bc3d03m5iY/OpXISEhJ2pqajAsD1by2ednD3BdQRoa4j3RFOyEGm9rlHvaoPCmM3KjA1BSUjIM8FClIc4LHefXotd5AnB9PuC/FLixEHCbARxXAnb/GwVG4+B7UAfx8fGorq4eBvhupLq8DK2XtwFnJgKxakCeCVBkBuQYAYnaQCjb5rUMODUdODQG2Pkh/DaPgcuRg8jMzBwGeHBwS9HmtALwnA2kMpDL9gBZhugKVEOr21I0ucxDk9MstJ2aBbgycZ4CWH3ZB/L378Fq53bExsYOAzyQNDmtYypgGhCjAWQaoP3GGshspqFspzLKTZRQZvgVivX+g9pYbzQlXkdT0BG0hzkCez9Fm+H7cF32LvaYmyExMXEYYHmp8nMCjnzF9CxjcLQ66l1mI1v3cxQbfIm6HV+ixfQztJl+go5ru9BaXYqu1kZ0tjSip7MDbZlB6PY0Q/nWd7BryVg4ODigoKBgGOB+cCvKUW82junVyYDfSjSenAFZlBcDsQnST09bE9pyIjmonbVlqC/NRQcDuSk1AD3M6DUzFl9d+g/oaarj2rVrwwALKY26Cez7hAE8DT0X5iBVazR8V76BwDVvIGbj24jZ8g6iNr+LFO33UWL4IRrzEjjgbTWlaCxMQ1tFHnri3NFhPBpZm9+G/iIlHD58GHl5ecMAkxResgIO/AdwmYxaq7GIX/cGara9D5h/DFh+BljcLq2V+X2MZkymT22iP+oN3kenyWiUMjWxe8abMDc3B3uuYYBJco4z98uKgXdMGUXbP0LGxjcZGz8A9n/6E3C79n2KyltO6Io6hXL3nUxM0Wv2EbpNPuAAl+u8i0PTX4a+3jZ4eHgMA0ySacd82/1MRRwegwLd91Gk8TZ6mOslD66Q9j2f9IPdZfGfvoYw+5A3SunWd3F01svQ0dyCM2fOPNYA5GcDcMohBvDujwDr/6Bk23so1/4Xend9dBuovft/BHSfHKsPfAEc/JLr8FajD1Co9S/Yqv4dOloaOHXqFGQy2TDAcQ5agOlozuJqww9QwfRoj9ntADdGuzHfl/m/abfQkXoDzeafoJfAtmPex1Fl1jhfoMHgPW7kdk36G1cRZ8+eHWYwScJ5a7RsJ6P2EfN1P0SlzjvoMv2viiAwG4rS0VWRiabsCO6+tZZmoDfmDHB2BovqZqDb+kvImP6NVXsL2hNfx65du3D16tVhHUySFeWPLI130GnEQGaqoYGB3c66O0i/Wn+O1oxA7i10FiehpeJHDyL9BnCOhcv+q4HLC9Cy898o0noXnstew+b5yti7dy8iIiKGASYhPemjoYQqXcZc5g307Bjd50XsZQy2HYfew+PQxAKM/oCjKge4vhy9iVuBBC10OqqgirE3Qf1d7Jr4V+hra8De3h5FRUX/WwBH59zC+YQDsIveCuvw9bAK2QD7ED1cinVEUm7M/Rk6nwuIZwDJdP7Fwe0lFUHegq0ScFqVBRTxaC9PQmNpEpqq0lFTHofOhmR0npuHOmYYc7d+BLel/4TGvHHYs2cP/Pz87qvBc3JyeE6DfGkfHx94eXlxt48ixNDQUBQWFj44gP2S3GEdtw6Osu9wDdtxE2bwhAnOt22FY8U67EtfDG3vKdhzdQOiU4fu3Icc3opk9XdQyryIVmbsunZ8iF5L5iWcnIbm9KvoLgtAuywYnW216GgoRkeQDer1PkCx/mfw/f596E15C2Y7TODs7IyysrIh3UNaWhrPyBGAra2t6OjoQFNTE79eRkYGB5eMJ0WKrq6ug6ZI7wgwtaRtkB4cqtYgEPuQDGek4zQScAwhOMiA3oPLnUZwqtgMi5TlMAmfg3UuSjjpfWhoIFdXIezARkRveJd5A2+hRv8DNBuORvvOT9DJIrzOIyroODoVbdZKaDb6GPWGn6LIeBz81D7GDtW3sUNfh6uGrKyse/7t8vJyREZGori4GL29vZD/ENiEB4FMrL5+/ToOHjwIMzMz3Lp1C1VVVfcGcEVFBfbeVINL6waEMjDTcQqRsIdbtTEcMjbBMuY77I1Yif2xK3Eocy3sCr7HvsSlMAiYgfWuyrA6YzJkJiedt8SNdaMRtf4dpGu8jzL9f6OWgdloxNw1489RazoWZWYTkKSvhAurRsN88VcwMzbA8ePHh5R0p2cNCgriIIlPd3c3Z3F0dDQCAgLg6+vLjyF2JyUlITAwkKuMQ4cOYdu2bVx1yPvcgwK830MLDpVrcKN3N0q649DYUYvaliq0drT0tWh7M2ILAlFcnXNbS5c25GHrjalY5TgGpzyODhnk8vRoBFlvhMe6TxlDP0L4lk8Ro/0FYraOQZDGV3Bd9RFsV47FPs01/CG9vb2HXKMj8CgxROqgs7OTs/n8+fNIT0/nvcHR0ZE3XnZ2NlcVJM3NzaisrOQNQCwmkElX3xXAV26dw46oOThdpwUfpgaKGtORlBON5LwYDmILA7eqoRxZVQkoqslBS1sTkvKi+LJQlo3tgTOhcUUFcww+RVp6yv2lMovzEOfjDk/HPXDdpwMXc2047dsOZztrDgJ1z9zc3KEHOXFxCA8PR2lpKdrb2zlLCbS2tjb+rPX19RxkAp220feuri6+j46nRqCIcePGjdw1lCb7FQJMraN7ehEO5K7A+RZdHCtWR2pRLGR15QzUCn7htJJYpBbHILc2EaX1ubcxuKAyCwYM4K3Xp+I7p3EwPqD9wNyeStaV6f7YffMHfhDuITUSgUJsjImJQUpKym0g8mxdbS1XF7StsbGR9xQ6l1ifmpqKc+fOwcLCAhs2bOD5D6EqFALs7X8FWzxUcCDrWzhVbYKG2zSkFsZA0SeHAZxawZz5pj7gqxvLEZHlgwsJNtD1mYaNFyZAdfOn9wUGhbrVleVIOX8AefofI9mFGdVjjoiKirrvMJjAvHz5Mq9Kk+4+cuQILC0tuaFraWnhwNJvUA+hbcRYMnYNDQ2czQQk6WM3NzccPXoUa9asgbW1Nb/ugADvdzaEQdAMWGeuwP6kZVhpPwY3kl3hneCKmAJ/lNcVIbLoOtJLY5FTk4iwXC80tNT26eWOZoSl34S6+0To3JyKTWw50+BDJKUMvUZWkJGMEJP56LVgEZ35v9FzWBnRxowAO/U5OMTmoV7b398fN2/e5GqC/OZ9+/ZxN4z0K7lmxFryGi5evMh/hwAn9hL49KHjkpOT+X4nJyf88MMPYIByna4QYGoRncOrsT1kJvanMo/AfxZWOnyFzR4TYRg6C1ElNxCa48mXUXn+SKwI4qDe5s6w7zGF/szQTeEAf7PnU/gH+Qw9lRkfiWDrTei1/ZpFdh8DDOArRvNgYbCFA3Q/ALu7u3OAyT0jVUHsI0aSL0xRIBk9+tCSvlP3J7VAIIvjiK0CYC0tLejr6/PvCgEm/bbJejH0A1VhHv8NtnpNw5oTY3kQYRw2G8ahTMLmcCGfl0R8J9kRORc7IuZCP0CVexLqFydi4b7P4OHldp81uzJU56chLdwfPm4u8Lx6ifuhQw0mhFDAQBEaGTYyVLa2thwcAp2E9pGQCya2kdy4cYOzlOTKlSu4cOEC9zJ0dHSgq6uL06dPc7IqBFh9/2Lo+k5lYM3BVu+p+N5lPAfLOHx2P6ixFT5IqgxCRnUUkmRBfdsZwKZR87A7YREHmlTEhnPKmG/2Ca54XxoSAGUVTP8VVSMttxqJWVWITmHBQFIJYlJKkJxZityCMvYgVUMGmBhJviwBRetUjb506dJtYAqDRjqYbAm5agQw9R5qGDqGACZXTkNDg7trAwJMF9hq8T00rqrAIHgGtvlOh9oZpX4GC4DLGvNQXJuDrMp4tHU28+/BRZewh4Frk7UKexIXQ8trCtadUsJ03dEICLq7vEBZmQx+MdU4cqMeRheaoHGmFVtcO6F7FdD3BLZdA7QvAequwNpj3VhsVY2le/OhZpmIPU4R8A1OvCeDSmwlcMiHpnUCiQwWAUjAEZhCTYgP+cmklkhXk9dBbiI1DrGfjJyBgQG/pkIVQRbTwt6MhbtfY6vPVOjfUoW62wRoXlOBEVMPJhFzkFETzX8ovyoNsqYSvh6V44ftQbPgUPwDnGSbsD95Gde/a46Nw7hVbzILnTHog6Zmy3D0Zi30LrZihx9gmww4pgF2iYBNFLA/BDAPAEx9AJMbgJE3sJ0BrneFAe4ObDwLrDwCzDApxCLDYOxzvN5vyQcTitBOnDjBWUtdnfQo6WIBMPnG5JqR/AgYd+loH/m/1AAU0dF55H0sWLCA56Hp/IHdtOteWL53PDZfmQhdv2mcvVs8JjEAZ8IsZgEMGZDkB4tPoSyLGcCZcCxRw7VuU1xs04dR8FzGfGUssfwC01eNGZSxjteroX2xHYcZqE7ZgD0DdR8D1NALjL1d+OF4C1bZ1mH5gSostaxk16zEUutqrDhYj1X2rfj+eA/UTgLrXcDWgRV2wKxdMszc6gfzg67cT5X+JrFOBAPkfu3evZszkDwS8mdpnRhNKoDApgEsFEKT/ysYTOeSq0bqg84j987IyAhLly7lhlJcXyHA1Cqau9dA7fTX2HJ1EnQYkwlkPX9m+OIWwSJ1OQswkpibFsclrzYZRZ2JkHVnIhJ2cMhX4/7v9yeUMWXL+7A7btNnqGpZvB/ti/DIMG6RI5IqoHOmCRasQ5zIBA5G94G63qkFSyxKMcc4jamXWEzRjoCKZhgmaYRiIsmWvuUE/j0ck7fGQnV7OuaZl2HZwVbmVvZg+eEOLLBswqRtaVik4cRBIDbSfZC/euDAAW7gCGBiMG2jzBh5FdS9qRJC+pUiPFI5BDClL4U+FskgSuiTcaPrffvtt9zIkbGk3MagobL7ZTd8u3si06HjseXKJG7kCOBd0d/gcO53iJXdRHyVHzIaQ9DUXof6lkpm8Pzhkq+FzZdUoH52Mhbv/hKqa8bxm0ssCsOhEG2oO86Ei4sLrgQWYN2JFhxKAA7F9AG7xqEesxmoU7TD+8DUDMdErWhM1I7DBO0ETNiahIk6yVxofcLWREzQioOyRhS+3hyG8erBbD0C07ZnYsH+Wiy2bsa8vTWYZlyMKetc4HDkKA95SRUkJCRwdhK4pEN37tzJWUigkw6mY2g7MZHUQl1dHWcw+cHkHxOLaR+lRek8PT09LF++HFZWVryH3DEXQRbTyn43VliOx9oTYxhok7jR0vefgX2Jy3C0UB3uTSYI77WFT6kVXJMNsTdkBdO7KtC8qIrVNspQXvUBwiKDcS3aBfo35mB31DKY+C2GpsFe5htnwjKiT69uPNWJ2SYZmLQluI+dWjEcvIm6qczgyZBT2oqK2nbOmMraDriF1iMlv4Gtt6Oipi9fkF3SDGv3EnytEYNx6iFQ2hyO6Ua5HOBZZuWYYliASWuO4vBh237LT54DWXsCiHQx5RHIUNE2Ap9YTAymxiDmUihNS8qmkdtG4JLupcZZsmQJT/h4enreFl0Omk2jCGaPrTG+tVDGKocxWM90qsblydC6xtjsMxM7QhZgZ8gibPeZC80rTI1cmQFdt/lYY6PCGEOumXufTo90Yy7cXO7m6dh+D6VVztju1Q5Db2JtM1S0IvC1+i1M0IxmwCZDRT+bAZKP415FaGrpQG1jB6zO50BpUzBns7NPNfxjq1BU0YSY9Cqc8ytiSxkHXkU/BxN0UqHEgQ7FJN1kDvB040JM0E3DjNV7OWvJhybDRr2JujipAWIsGSjSoceOHeNAk04m9ULHi3NoO+lpApjAXbVqFY/eaJ+8B3PHhDvF5/bONthotQArbZSw2n48MyYq0LgwnblLM6HjMRt6HvOh574QGs5zsHjHeCzVno7A0ID+a3hGuGLDqcnYenUWZq/di5WHi6DDXC0yUMoMNCUGrrJWPCbpZWGqUQHr0kVMCnl37+js/kn+Iy6rnoNLH2JwsawNheVNcA9r4OfRNaiRlLWTMG5TBFcp002K+LYvvvPGRk3DfsNErBU+K90rhb02Nja85ETdnY4hIEmvEqgk1ChUzdDW1uYZtP3793OvgRg+pJIRBR9kUS2O7YC65SKum1dZTsR3B5mfe2gqVltMxlLjCVhrPBe2zpY/yckGRfniyEVLXPe/hal6KVh/spf5sD1cv45d78fBnWyQy8GRSmjyf5Pfza2daGJCaoGATMmt5eAScwvLG/mx8udP3p7L2Tx+SwxU9DLYb+RAmfWQiUv3cKNE4TEJ+bPCKPWXrkJC+DHGxsZ8jBvlKEhMTU15IEHRGjUO+c6DuYP3VPQkvUx50qteHnA5dwKOLnY4dsoe5y+dQWh48KBFQDJ0l/yZ8bFqw2pHYPbOEnz5/Q2mM2Ohwh5csFYqSptCGJA1nMXEUAIzu7gBt5IaGdh9zn92cSNymP4tqmjmKkL+GlO25zOQ0ziwKvpZbJmCjxcehaGRMe/yPAXKmDdQVo6embJ2dCyxntQAsZUahryKh1q2v9dU4cFzSZi7vwWLDrQxryAWX6ndYoYs/SegCJlqlA9X30JcCKyEb3QZwlJqGWA5mMqYOV49ED5RJfCKrMFUwzy4+uTjYnCNwusQyBO3MSPKhNTGZ6suYf0WA97VH/awqkc6LsLcKRYzzWsxZ3c1lLZEYizTjwOxt1+4Tr7LfQMcq7qjBNO4Ds6CkmY8Pl9zDWvW6/HiKDH0FwPwbqcoTDUph6ppKXenlJh6mLI9b0CAD3pUIiG3BbnlHais60RzWzcCk5s5syPSm/n6SV8W7ibW46Rf3YANQQ06f189+y3G/M1R+OxbN3y3UQ92dnZ3NbbhfwbgIxeZsTHIZwAxl0knhQEcxx96IIAn66XD0jUTRZUtSM6p5i5ZQl4bZ+rVkGJ4R9XhYlA1YjNq+j2I21QMc/VmmJZj+aFOHt1N1s9krls4PlxwBJu19Hj0dr/pzp8VwP5hqZy15I6RKGsnMsuezVyo4h9Bub2L+8dVM++hry5W29TJjV1HVw/ic5oUlq/I+En191QWwS072AaN88zfPtKK8ey3x20MxujpRtx/FRmvXwzA5eUVmLzBHcrMqgujM5npxRlMR84wLev3YQVIyppRiEmrREV1C3yjSpFVWIvYzFqobEvl21PzGxmTSxCdVoHzAWXcABK7KUiZZlyKZYfaoH8VML4OqBoTe8Pw5dorUF2ixV0sitJ+cYP/TnlEYPymUHytlcg9iCnMyM00Lcbc3TLMNpdxg0Qgk0zZns19X+nHO6aPpRRoELvD0xq4inALbeDATjEsYtepwfcnurCLheHWkcBiq0KM2RgB5c1BGK1qgu1GJjx6e9jq4bGNrlTfdRXjNkdyi06BALlZ8/ZUYZFVIxZaNmDunmrG6FKuM+0uJPCgIjiuGB63cpFa0MRBJiaOVfOFtVsRzt7Mx6FrdcyY1WK1QwcMrvWlPG2iurHIIhdfbYjAJK1w/GfJUaxW0+XldSpy/mKHr5aWMsOjf4nnCkgnk29KunjBvmqstO1k+rIXK+26sPRAC+buKsPUbcmM2cXM/83GJO14brhIpczZXYMFe2VYYlmOTWd6sNMXcEgCjqcDhgzwqQbJnLlTdZhLuOo0vlmlw1UDVY+rq6t+uQDzCImBrG5+jYXKviyUjcLXmnEsykqCqkkBltk0Q82Jku2A5vk+ofXNrj9uuwDoXu7TrXuDANs44GgqLbtg4FGD+bszMVY9ChOYDp+xLRJjlh/Bku+28VA3ONiBRWDObHmMNXT+LxPgpPRsJGfkIKe0GvauIRi7+gwLi4OYbxzF/eOvteIxRT8D83YXM0bXYKNLC3TcO2Ho2YMdN3uwy78Hu291wdy/HUZejdA4W4llB3KZW5eIsRujeFZulkEcZmj5QmWFBTZqbufJmfR0XabFn0FR0Wvw9n6Xhf2XHvr7G48cYKpjeQdG4Yf9F/HDmXRscIpHVFIutPZ4MKBPQ3lTACZoRPAkutKWaCaxnN0TdZhLp5fCun2fTNZLYuF2PGM/c702xTBQY6GqF495RnGYtdUXk9fYY8V6U14OoipFWdlKBu4IJiP58ubNeTzH8ItjMNW3HI45Y92xaKi5y7D2cjNWX6hCQEIBEtPysfPwNcza6Izxa89h0mZfTNEOYzqURYA6MZiiG8uWsZimG4fpDMyZBvGYYxiHudsjOahTfnDB3B8O4HsNM1haHeCJGUo/VlaWICJiArq6/oS6ulGMwU/AyWl9fwmpX0gvV1PiR/bzBTglvwrXE6twMqQUtj55sLuRhdMBGbgVl42S8r6UIFUTtlm6YIljCr49J4P6lTJYuwagWnKdW2EJsDp6FRuMXLBw83HMVDuOaT84Yco6Z0xloqp2ArPUHLBQ/TBWa1pjq5E1Dhy05xkv8m/FaB9SAcnJ3sywqTLd+yoD+gu4uc3glQfaX1cejJYKbbRXjkNH2evoKHwJrZl/RU3sv5ATNAtxwYfua+TQAwPYN1kGQ586aIcA+/KYi1QM7M8BTJi7pBkIrHarx1K7GOw86YfY+EQcsnXAWvMzWLnzNJbt9YTxoXMIj00aMB8t3peIjIxCSEgoM1IhCAsL4/UvYikVLwcaD1FamoPQ0BN8DPGxY3a8SpGdEoy2ioXobfkjUxnvMBnDRInJl0zeB3pfBepfAJJHIc7tDbifMeMVnkcOcFmFDFYB1dgWzdyjOsCjB2BuKNxYfODCvtuXMMDTAL1g4IcrzVh2qgTzzDxw9LQ7B6cPrGDEJiY/RLewtH/0JDVWXeEVdFe9wu7ybSYzmSxlMp/JFCbjmXzO5EMG8htAxZ+B7KeRd20EHPbP4i6eolcFHgrABK7BtUqYMr/zbDPgxW7rXAtwIKMZxkGV0PEuhpZnCbRvsgYI6sbWW8D3brVY4pSPydvdYef88HMBP5FCL/RUPM/udDSTuUzmoLN5LBrzR6Mq4S3IYl5DRfQrqEr+G1rK/gY0/R0ofRFIegoFXiOw32gKH2qlqDz0wAE29ciHfgxjbiVwuqEThXUtqG5qR1V9y48DsRtxNaYElXV9oy/L6tpwNqkDMfn1CMmqg9JmR1y8/OjexKwqy0RHxl/ZnbzOZBJnqyzfEJV5l9FSl4q6smA0ZW1Fpd+LqMq7wJh+HpWZO1CWvRMtKc+iI2okwpyfgLHeqv5qyEMD2CMiD2revdjLHHzHCsA7sxaBCfkoltUjIbcC7qFZSMiT4Wp8JYrYtr66WgfbJ4OsvhXJJc2YYxMDlbUmj2ymqOqE5UAnYyP+jd7eT1EY8TdUl0ahu6sd7S0ydHezZW0A2kutUVsWgNb6rP4cSEdrEborrVEfPBKHDF7k7h+pnYcCcEWlDKuPJkKbGS+LTEDHtwrHPaM5uPSRNbSjlLG1pKYFXmlNKK5qQnMbAzevCrFZpZzRKWUtWGCfCmWdszA2t3joDn9laRpao54G2v7OjVhZ8kuIO/M71MuS+D13dTT0AdmUhI7a8/3AtjcXobbUH/Xl/uiWHUBr5EhEnhoB3S3zeKX5TqpiSACHJedh+akyaDOdahjRgzn7AjDV5CrSCqs4uAn51SipbuaqwCu18bZsGIFbUdvMGNyEhUczMYPFuiortIZkoe9FilKOMp1FAL+M9oZXkHD+KeRcfQrV+ecYOyvRyQDuaKtES9V5dDV48fXOdln/fVMDdJZbozPmSRR6j4DJptf5YD/yYB44wM43E7D6Yh20ApjRulABFUMPzLIM4yzloy5lLUyaUVrbBu/0ZuQxXZxf2YTAlFIEppYhlTVEUnEjAzgLs60i8Olig4c+gVFexBag6Bmmp15CZeLzSHJ9AnU5VrzrSz/dXQzohgA01USiUeaJVtlxlKRboSLdEi2FVuiMfRLlviNgof00L+mTT//AATY/G4JVF2qgfqMHi+yTMcX0OubbJmHm3kAGYhn8Mxux7GQRLkcVcaYGpcsQnVePqJxqxBY0Iq2oBq5RlVjomInZ1pH4bNUe2Bw6/FABzgpcwlr+KaD6RRTeeho5Hk9wsHpznkFzkTrqig6gV6YO5D6D9nIT1BeaoDX1Gb6/tT4S7U1Z6CgyYgweyQE+YvgEdHU0+RCrBw6wwXE/rDhbiXVXWjDPJhrT99zC4uO5WHmuCt+ereBLISvOlGGlq4wv+/ZVYsXpEixxLuwDmDH48+8sYbZ77127PkPKgQQsALJGASXPodBvFEquP4HepCeBvGc4qINK4bNMvTBJG4X26JEouTkCx4yfgI72xjuW/ocEsL7jDSx1KWZqohbzDsVhxv5Q7ttKgb2V04qIglbEl7QhorD9x+0yrHWvx7rLTfjWtRLfHEnHzP0hnME7zfc8kPfeBpJkH8bg1JGMxc+gPJB1c58R6GVRmhTItprz6GnyQnfdCXTUeQI1Jn37Sn4PlP+BrzdHjEQ+84dtdIjBd56yZkgAmzldx8JjOYyRDCSHNMy0CMPiE3m3AZxf1cqkBUmF9Wjp6EZhTTvTxy1Yf60dm2904zv3Oq5WVM39MXqBLqytbe4pQrpXifNVR3fsSM7i+qgnUcEA7kn8L8DdVSbo6my4fRK87gb01h0A6v6PBRx/Q2/h86gLGom0SyNg/MMoGBsZPRwV4XwlGPMOJ/BuTswlPbqIGaxVP4IbV9zKbzCrspUZur71oLRKrLlYD/1QwCCcGUcG8GzrKEwxvooPZ6y7443eN4PD7VEdOBK9iSPRnTQKVQEjuA5G7u+4mmiu8uR+MElLQxZqywNQX2TFoj7G3N632BP8E13Zz/OGCTs5EltWvcoHCIpXBR4owHEp2Zhm6on59mkc5Pl2KdynXelagbVudVh4JA3xOZX9TMgtb2Dg12F7eA9s8gCzBBb9n8jGrH3BUNI4DpWF3/EBeA8T4MK8RIS5PI3msCdY2DuS+cQj0RbJAM5murX4eVTFPYP6ShZkNCaio6Won8HoPckTQb0db6EhfBRyr43Cmd0jobFeldf26F25hxLJfWvqwhn4jWMGFh3P4fp0xaliqF1pxoZrLFIrakAi84cpcsus6kQ6u9eCjl6eANriXcmMWxRUd3rhw/lboW9k+tBH2PAU6MX53EC1RjD9G8+YTAxOYwwu+yNTAy+hsS4IXW3BaK6xQ21NKFpbzzFw5zGkv0Zr8gtMb4/ijaSz+lmYmhpzA/dQAg1+s1FJmGp4ETMtw7keXsR08nKXIqh5NEGXRXi+6ZUIY+FwaIEMDe0dqGppQXRrK7YHyzDXJhbzLAKhpG7P2LvuJ1MAPLQ6YEESfI7+hQUKv0VT2Ej0xDGAU1jwUfInFsK9xozVCTQ3B6GhIRR1dfFoaopGZ6sTWpP+D1X+TyPl0guw3z4K2zQW8DHBdzNP8X0leyxOemK66VWosq6+wC6ZR2YrmTum6dMJo+BqHCnuwJm6FhzJzsX+6CxsuJzL3Lo4LLIJw9Rtp/CfeRtg73DkkYxPEJIRfw6BJ15AlsdvURv0JAt9n0RX0jPoKfszWmrfZPr3czTWKKOpfDxqUkgtPIuawN8j0/MlnN37HLZt/ILrXnr785Hkg3ccuYzpRm6YanaTMTOaAZ2ExUczsOp0HtZfKsLGy4VYczoLC22TscQ2Ed8eDsMM/dP4apEWdu+zHNLUL/crmQmncfPoS4g/Ry7XKAY0M3JhLKCIehZtsb9Ha/TzaA5/jrH8BVSFvIKky6/CxfwFGGl+xcGlUtQjSVcKcbjgg9kGJzHNyB0zzFhUZx2KxYdjsMQuAcvsE7HySDzWOERi2f7rUNl0CKpr9WBr7/hYwO3PZRdGIujidPgdexFRZ59DqscLKLjxJ5T5v4SyW6+wYOQ1pF57HT7HXsZBg5dhZrCQv7tB6uxexhQ/sJJRbHIGjOzcMF//OKZvO4k5Jhcw3+wyvmEyz+gspm4+iLnq5tDdaclv8lGqhUG9i8wr8Lu4GJfs3oGbzd9w6eBf2fJlnLV8HY67P4HNrm9ge8iCv9pFb9Y/9qJnemYmLl0PwMETF7DroBN22hyHlcNJnL1wibtiP4dpvxWmYCvKkZqSgJBgP9y4fhXeXtd4eYhK+/czyfNDLduTnqLw93HOfvq45X/iP8EMAzwswwD/TwNMOvZxz3L6iwWYDJmKigr+/ve/3/VgOhreJL9NZKVo9I4QsY/W6Rx5kf9vL0P57y/yvzPQMTR8aihDqO5v4AnzZSdOnIgnn3wSI0eOxMsvv8zfZFcYomZk9E96QdO20JK+03YS8RACXAJc/uHpPOlS2jh0vR07dvDlnVKIUhH3IL2uFEgxbZi04e8F6CEDTCph7NixGDVqFJ566in85je/wa9//Wv86U9/UviAdFM09YpgrwBbevMCIPGgUhAFa+XXCRxFAN9NlVr8Jh1Lvzl58mT+iqwAkJYrV67sP5auS/f9SBhMr0H99re/5eCOGDGCA/zcc8/h+eef56DL50kFg+VVhWAPCe2XLuUBJhDoDXgpwOLaBBTtp3OlDKNGpX3yQscRmNIGp/Ol5BD3InoJ7X9kKoJSda+++ipn7RNPPIE///nPePfdd/G73/2Ol7MV1dfogaRdkb5L9e5AABNItE1TU5MDIpa0XVyXrklso3VqhLvtxnRdOl5cQ3pd0bDi94ei4+9LB9NNvf7665y9//jHPzibaTDGvRo5qX4jkbJaqmLoIQVTpSpA6GvR3e9lukVxL6Lh5c+T7heEuBc1cd9eBKmCt956i7OYJnUbTN8p8gSIHYostLSrC3ClzKJ1AlOcSyLt3ncLsLQRpddXtF/c872MQnogfjCN833YRcvhSG5YhgEeBngYYMVCs4YMJds/DPBdCNXVPvjgAzzzzDN8tryHkYuQWnhFoarwJmgp7wmISFG4fsITENcQ0aXUq/nZ5CKIte+99x6P3CiaoyCDXpF60LkI2i58X3GuNNkjwmMRLMi7ViLEFedIG1Aa1Egjt8eei6AZTf/5z3/y4IIApmDjV7/6FU/80FQt8q8E3E8ugo6h6E0wUDyg9Hz5fIRgorieaBixLq4tbTCxX3rPjy0XQRO0UXAh2EsAU6LnD3/4A89RPMhcBD0oJWJou2CqFGACn5ZSoKS/IVUNdL60d4hchWgcqYp4rLkIevPy448/7s9FUKry7bffxrPPPssnzFT0UstQcxGCnbQuzZhJt0nVihQIeQbLqx/Rk+SzdD+LXAS9vjpmzBjOWAKYsml3M9HQUHIRis4hoIi5IsNGQNB2eRYKA0XHSX9PauSkYP6schHkolFe+Omnn+5/wfpB5yIUVRukDy5UkPS6AgypPhXbpB7LQPf0s8pF0NDTu3kpb9gPHgZkGOBhgIflwQNM+vduByQPA3yPQrOOvPTSS7xsTxPMD3asNMwcLOZXdK6o9opjpJZc6jEMVrIXLqD8dQc7dyCP4pEATDP3U7GTwmUKNiiiozdvBjpelH1EHkLqEg0WskrdMmk+QT5fIKrL8iCK3xVBiriGiP7EUuxXdG1pQPJIAKY5ziksJv+X8g8UbFAugkA2NDT8SVVZ5BrkQ1rB2MEAFsAJkKT5BNomyvUiohNL4f+KwEWU5qV5CAo+xDniuzQUF2SQnvtIkj00IQWBSaqBliJc/uMf/8hBl3/NX5qouVeApeMXBmKwiLSEGpAvmAr1omhUkGC5iPTk71l+5M8jYTAxVFVVlSd5iL1UtqcSPunjgf4jt7hZ0d1EulKat5XmJwbKCYhzBZj04ILJoqvLnyufBxHZPZE8EgNSFKkI0YseKcAkNKrym2++4QwmXUwMJtUxWA5CPKQ0LSnCZakupYeWGh3ROOKBBdtEuV6akJHX31K9LNWj4jekyaaBchEDFQoeiZu2cOFCvPLKK3d8MU8+7yAd0yDNmil6EDpXavGlnoS8ZyJlmThHqBlFuQppgkiasxDXlM9Z3AuLHwjA9Jb8T6YpHJbhSG4Y4GGAh+WRAExvQVKN7k7HSQuR8iMgpQZqoIS2OEZRmD1YmDzYkAB5w6Uo+f/YyvYCXAosKOCg/1A12LHiQeWDBQKM3C5RtZUvjwsrLi1OKrLm0lBYvhoi/GRFNTupnz1QGP7Iy/Yk9H/YKA9BAFOwQf6wurr6gOwTIlgqwlSpOyVcNemDiAeUVojlh50qKtlL94nz5P1ZugcRqMg3/GMt29O/Y6TwWLBX5CIoL7Fs2TKFr3UJ/1MaaIh9Ig9AIAk2Sx9UPKCiyrGiyE1RgCPtAdIgRb7hxO8+1rI9/ddAAlZk0Wj9tdde47mIv/zlLwrHqkkzU/LDnAR40vELinShdDSPNFsmX7hUBLB8bxHRowBvoDzHYyvbq6mpcYApH/HGG2/waO6dd94Z8D8EiowYPRANJJFGYCJslT6IvDGTDqsSzBIsFA0i1JC0ccTvCuClryAIVkoTQopyEY+tbK+lpcXVwgsvvICPPvpo0Ek2BBjSASVSnSwstSJDJZg3UMJcnp3yjSPvYUgzb1Lw5N/T+FmU7Wno0ueff/5IZo4aDjSGZRjgYYCHAR6WRwow/YPn1atX3/G4+ynby+cjpJ6J1KqLFxQHOk/em7jTdAaPtWxPQnOJkS9MrtqSJUsGPfZ+y/bScFh+pLu0MKkokSSGuJLHIx/g/CzL9iRUWRbhMoXKtD579myFs+LdT9leUb5BWowUIkrr0ikJRMNKC54iUBDleGmoLM2aPdayPY1iJ1BFLoKiORJK/tB4Yfl/S34/ZXtpNk06nYFQBwIwMT5CvnEGAlg+m6YoF/HYyvbOzs78/QyRRSOg6aXwF198EaNHj1YY0d1P2Z66ssi+yTcAfRdTGCjKJ8gDJH6TfkuEyKIBFb2lJK7xyMv25ubmXPcSc998802e5FFWVh5w2sShlu2lZXUhYlYTEtKr8iGyfC5ZXr0IoKUVZgGm/HwRA2XpHomRo6wasZdeRJw+ffqgs5LeT9lemmeQMl6ag7hTaV2RByJ/fflcw8+ibE+TcNDYiGG/dzjQGAZ4GOBhGRrA9GdYHp4Mg/CQ5f8BtkKr4XgNgZ4AAAAASUVORK5CYII=&quot;&gt;&lt;/span&gt;&lt;/a&gt;&lt;span style=&quot;mso-bookmark:OLE_LINK22&quot;&gt;&lt;span lang=&quot;EN-US&quot; style=&quot;font-size:12.0pt;mso-bidi-font-size:11.0pt;font-family:&lt;br/&gt;  &amp;quot;Times New Roman&amp;quot;,serif;mso-fareast-font-family:仿宋&quot;&gt;&lt;/span&gt;&lt;/span&gt;&lt;/p&gt;&lt;br&gt;  &lt;/td&gt;    &lt;td width=&quot;142&quot; style=&quot;width:106.3pt;padding:0cm 5.4pt 0cm 5.4pt&quot;&gt;&lt;br&gt;  &lt;p class=&quot;MsoNormal&quot; align=&quot;center&quot; style=&quot;text-align:center&quot;&gt;&lt;span style=&quot;mso-bookmark:OLE_LINK22&quot;&gt;&lt;span lang=&quot;EN-US&quot; style=&quot;font-size:12.0pt;&lt;br/&gt;  mso-bidi-font-size:11.0pt;font-family:&amp;quot;Times New Roman&amp;quot;,serif;mso-fareast-font-family:&lt;br/&gt;  仿宋;mso-ligatures:standardcontextual;mso-no-proof:yes&quot;&gt;&lt;img width=&quot;131&quot; height=&quot;84&quot; src=&quot;data:image/png;base64,iVBORw0KGgoAAAANSUhEUgAAAKQAAABpCAYAAAC0w4grAAAAAXNSR0IArs4c6QAAAAlwSFlzAAASdAAAEnQB3mYfeAAAABl0RVh0U29mdHdhcmUATWljcm9zb2Z0IE9mZmljZX/tNXEAADtjSURBVHhe7X0JmBzleWbdVd09Pd09M5JGowMhDgMSkrhBByAhDuOLsMGxcz5+nHUSZx0njhezPOsRkm3i4Di7G+IjzsZONnEMxhgw2AYjIYnRBQJ0S0hCYtA5ozm6Z6anu6q6jn3fmqphZtQjaSShGUH/j351TZ1//fXWd7z/93+lLF26VKiUSg+MlR5QxkpDKu2o9AB7oALICg7GVA9UADmmHkelMRVAVjAwpnqgAsgx9TgqjakAsoKBMdUDFUCOqccxdhvzBX17LDP9PmvZrl1eY3qJske4VHos93t24+Xb5f37s2omk9Uy5ryiMPGol92frcpMz+S5frogyIKwX1hm/VEv7477C0d7xGW5m5xyd1sB5NjFwJhoWePlSyS74467HcebZbb94NADdUJXwbvtY5NFUXpg/Oq3rHYl01At1PpWOutoO7eX2sTZetKvstpyHQ0pYYsteWnXveiuB+W1z9i2pxZbhQsE1Z92f33Tg4+0LHh76E1WADkmHvsYbsR9gi/9QJiCFi70fH+f4ro/9BU1LgniZKx7SxQ8XxSEia4oZBxP2CaJ/kWeINYJnrBOEoRpniBP9X1Bclz/VkUWddcXFN8TLhZLTg2OrwByDD/6MdO0JUuWiF/5ylfiWarbJ+7rte0OURKl/YLov+0oykJVFEu+6NdKglS0fcfHtjZZkXRJEuWS6zkA46XYvs33vCOeK86CMN2HE7S4rosf2RcV6QpJdSoqe8w88VFsiK7rCdM056MJ43zfrxZFsRrLKc/zMvitwd9JALLKMIxqw7L+97JdM3/0YN3qvUBP3hMUVRC8g5LobJUV5T8Ez5EVQTEAwL2C6PUIPfYBOSbnbV94ThKFw5IjbVUUb6sgueMlUTnmC2LR9z1ZFqTdgmDkKzbkKAJhrFwaYPxqIpH4SqlUEgA+QZIkAWAUAM7gb/6qqioUCoUsVPGLbPfD7bcEv6dUeoVdQ/Y7Uua41cOdq2JDnlIvv392AuA6AcaS4zg+fnoBwjbc3SQAM0EwsoQg/Sf8HjrXd14B5Lnu8VG+3owZM/5ux44dL0IKFgG4XtTPApRfZLNg4wmKogjFYrEdkvR78Xj8nLe2Ashz3uWje8Fd4BEBwk2QkONlWf4WwPiHBCEA2K+uAczHAcYDo9HSCiBHo9dH+ZqwGT8FUP4NHJdpVNMA4wr8nQcwP2HbdhHN+/5oNbECyNHq+VG4LsBXg/owgPcnAKMA8LmwI7+Ndf8ASfksPHAhn8//DMvbR6F5wSXfF4AETcH7cBH93meVV8pxPQCpeCek4LdisdiV9KYhFXcDiA9g+Wms/zwAehU8a3KDj45m9513gAT4rkCH3YLajfo6qo36IdTt5M/weyXBiXoUAF03mp07Fq4NqWcAfP8D9uJXAEYdUpGS8ccAIsF4KJSaX8B2OjW/gtPzOuzMUWv6eQdI9NQk1MtQe1CPoY5D9VBvQ21B5Vt+Der/HbVeDS8cvjyg84QG1MOodFu5/Fa4nMYvgg+EXXh5zroTAal4rWVZj0D6LSSVA+/5KK7ViOX+vgEgkwBmA4GK37+n0zOa/XY+ApIjCywEJNvfiToNtQu1gFofPvzUaHYswJjE9T+JynaUUPehXoS6H9VEJVDZbv5uONttxYDIFwG8Rl3Ta0o2RvM8+5nuY+791ROkPQOvhX3e8Wz53oJlpRRDXM1hw9E0fc5HQO5Eh3JQXkeldKHdSElJ6UgPkcsEJ8b2R7VYuDpHKTgkxzaSgGabDqLStNDC9hv4xZDc8aX+I4fjQlt2FpwQPCcnuB+MAIuCpgXLnuOJCmjsYCs26Anb7uqIj7daJ/ye6Bj3iJCKtt1jG7r9Qnr60R9dkLCnlHq0y3EwXwK0xhMpDtWE1YMG9jrF2O//y4uffjOZXfLGrl1LR0VSnneAxNt7MgNn06jCMLw42mlD2rwSvhxU1QQipTpHP2gHcx0lOisjZ9oHtrv+6jcvkbLCx31JmY4oG19EUAK3Y/BY8BGkEOAp+N+FveKXfMX1e1qrr3R74wur0r5s2t2CL5YOJNM9Lxop64BbUuebBUMlFD2MEPJIBOEElywVFRnrSrYkNH1p0bgtS5edGhjvr1+9UHSFuxHucwCjjw5ejfGe4L0GcTxRU5SMoHi/fvjQghF57OcdIMcC2EbQhh3YdwfA6QCclIJUh3TChn2p0tev1+JCaiFCaBYj8EsTJR+BrSGCogv3ybegSLJrupZUVchmFgq2PkdWZMEs2kJS7j2cTvS8AdhpXk6a4fs2UO17hCAXXA8xODgPwKQZiAlryJtrr+qyW77w+pHrnDpVgsgVB4bjvAsURRIMoRexjK95tnAZVP48vBENsiw2eK6fdX0/Dsm8D8Dc4ZneJbjc+QPIRtA10At3oxYeXrp0OR7axbiBCai0c2iDUfXODMRAn1OQRn0bDzU3EBQ47oJwG9U1lzuxT2ArYRuPoQRidAntS9pvHahUSaxUn4xmpld+VmkjAjFqJ5ZpR56wpOdunBIXMh8Xff8yURBt4IZqf5iCwC7Zs61c/FK7N7YYoYZ1giIKjmd3GMn8ymSi2IY9DNeVFDgrNiQgosd8iR3JIski/hQN0fV2X5Q1V8zsKJhmTEl4MVkC+EQHhw20ebCswBKVJIT8SLAOgnNI3nZBlPdIgv8KAngn4jevSGItuPYpkJJpgBUvxMjKaEvIG3Gjz/DGAc6ZS/romw+jPo1ah0ob7D5U2oZNqIiIF36Omhtym5fibwKR6vAG1E4AkcAlCG5ErUWlDcfz8zeBSvXJB85l2qT0QEdcGhuXvCuvnriv/xnuObpFYqP6ynQRb0ew36WG8+7+WQbUZHxYmdoPpyav8oXk7Xgjqj0MngANw74cgVQsSTGzs3qBWzRuRCiYzHFoQbG3xep6VimGl816suLJg81oCRhkGwAYjYG1jig1/fmiT/xq6bJdHjs1eC1HUAxF2YizbUXcpJsRcqIwdVwxu2WPnoldERdUrBVi7OMRldEGZCt6aC+eCjnFHOoW3gUqJSMlJG/oZVQ6AJSQ9Kgp3YaWbWF3Uh1STdJR4PHcP4pKJvjYS7TVmlHpbPBcPDeBTKCcsoRsrG8ybE+4zf7uogscBPz1dWSXTL/f8TxxqjJNNvEbrJYceWoISBtCJrDiBMnXEhmhQ5PTb9TGU4KsAyKCRc460KVlCvDk4VKWlden2LnE7bJkTFYgFUue3VOa5P8mNtHeLB91Y4ZmaLIqeW7JlVRV9kolT1J1yDZYnSW7pCuq1AFK6Pm9L1y8aemak5nkZZsSrFzWsoDahrWv0K0UMFfGGim0373GqAJy2dKleyEZL8Nv4NGFWYb2hfYWHQLaXKdCibRiv6A7UF7jf6Qvwr+pukm18G9KWQH7emdCbzyYXnmR4ymf8H15uiD2uapUhcCRTxYUAaj8Az4DSYC+AqM/KPBPfNmTYcu50ltVWu22GkNqi2kMyTZxRHkksvGSZwOOcrE9Oc8rGPMVVdMpFT3F3hNPdq2a+/2NdcVU4qrNn5m9e/Wv907K5yx9/KREb/vR3kR6XKJw7HB3NYhGZXxDVfOKp/YdfnPT0UND8zqhT0hLTUTlC0qu9xj2CdRuaPpciEWaPjSraI7w5abJwxed2oumEoXKaZdRBSRbjbu6/MElSyzYkCSLeeMyVS2HAyO7i+v4TMLqlLH1xGj4EPvQeSgRdDwf98W28FLBNkpBO1wfOBqoxBPXRxKSLwJBS+npRbZgY3q9UpCc2yB3FsEbgCT36SHDlirT/2FsYbSFQg+2nK/BEOuW/cSO2kRqd0rvLSpSlwIHYzgwIsIajrZnOkVtvJmruk309EsUFVKxZFty3FwDI2TN5T9+a+rMn+27l9fqnZL813872J3q3Zcb19GayO3b2T55yofq2tsO9UxqPZDb29lmrYJ0vAq70p6m+TKw0MqYgUqNw8GFHvTBTtw/peC1qLTxqakIXNrr3Jd9RmEwDZXCZOuZ2OKjCkhIR970GtxR/ktLlsyDjqWtOC4E1w34pfolsKh+STBzYtCvUAPwDigMyedby9EO2oyHceyTIejYkXx72fns0BZsey7stHnhuhyvi9qKSnDmsA8lAY+jtFh/f3pjva0594ieOAOTmErA4Luqakhjyv0pe76nwIs4EFNqt9bGtYNVWidMPFOF1BtOLkoy6BxX8M1s1ZxSXl+oKkbShzh2POuQUdO7XK0yD5hWXO4cX+0W0kanp0lWriFRoA0hZmLFRFKzNUPVoKKPHdmb/U17a5F90IxKa3EoGNlscrx8QXnPfNlo1tDG5r2yb9n/fB7sJ4KQJhLNI56LZhZBytcz8p1OoWcG7zKqgERTKEd4gy7uim8aHRkCg+qAHZMOOySSXPybDspQQEagJXAJar79VCW0QfnLTqNtykJHhxwgHwrPy05nx/La7EzanZETRFXU+qW6lXMlQbvb98QUZtuZQ1mY8LzD/qiu4JYUUd+c1Ot21RjFvKa2sONFz39Xpw84mjMJRNiKji0nzY7kIt8xZqmgc1zXcQXN3BhL9TTJmm/5rhKLddnC0Rsmtf/kPz/6Q1eWfSeuuXde5PaoMexQcmKmWXoV009/dtW0326he3giUwUv6TtoBmtQsK80QNPswd80fdjmAHAhnUWNdtoAHNppowpI2I5vhFKyCJX9DnqA9AxBQOn0KirphWiokCBdg8o3cWhhkAVBSpCR9yIAo07iNnrrBB/Jab7tERBo0VMa8DienyqagOX23EN3XdrwB/Mn3AH34wofRh8gRLCfcpEFSEXHF1pianpTrRE/UGV0AoJFdRgg8sTQ3XB+Pcfsjl9qdRm3q7Jew9aUXLNdSxZWGClzD+gcFUODAfUSNLrgyNNWH2pwDNlpvnX6EdPx9c4jXWp1Rlve1dzxG6tlQSG0y2miuFgOSHkAaRCthPXRqBHX8wVmXw3cJzBfsB9ffJaeCIxYx/0DU5q/odlFrRZJUZpaJ/W6RxWQvCOA8s3oCaPBBMfAwhsYNIJRDg04jkCJwDLopsNOKNsR2EYVw3pcabywaYZgKR+Hx1wP34EP5ZQ9cJ6MUhHjKdr2lJHZVme4OV1tVSATh5OKPCaic6yO6ludon6DCl3rupiMpdpbEzW9K2XD6Q6B2O/89I6LW7Mf2zFt0d9u+F02cLks/vTp+mTzzl/sfm3Vc/v3YtWnsJaSjWCj5Oczh9MvPIO6dciN04SZhspnMhf1KID2n6E9TbtzGv4mM0FuuAPLPyMg8Xs1/ibdxm3jUWkWsc/4glO90zZtxbpfRxL3+B7vWzOqgNzuXV5rKXWPgopNKCXrz5946HZKQ6psSsnAOUHlGxe9fdzWhJsiTdRfcKPsaD4PGtvseIK4BfvxPCMqjXpTwkwId1l5aT6HNKCeT0BOH39qEWy25rleVpOTb9TEkvtTsW5XFvMafG442OXcH0rFPjqnR7/A7k4slkR9khqQ3KVuNdG7Ws8UtmDURvZcmfc2qKgYcjHThmUmlALUteRK8ubH/23rax1rD/MFZb+w7yipCMIIIOzbchNmclgfSTQeT5sxjUozhuegWUMpyHNGZhKPobQOHEBUaheaQTyeLw5tUG47pX4cVUAWxfFTDT3xaQ00XPfRtxkSxRtmR2HersBhJ94Q/2Zn0Mjmm0nVPAiQ+JvOB99EHhN1Dh/eiAD5YH3TJaYj3OOL8gXwemErAigjKHRc8FrIb1Yb47bVxry2mHwMUtHBcFTfQHSZQjrHdQTZ7kjOd6zYfEVSNd8DnSObe7RU/iUtWTrmOZIBP7wsJWR0mtqheVNyzzx6578rvcWVOzpvebxj7eopIRBy+KXJwj6kKRMxFSC0y5o+NGEo5QjAzWG/R0AincbzsU/4fAYCjM+EZhafEXlj9j0ByV+uJ3XH44altaKuGVVA7umcuP0yqfW/uY6lmm3NK9AoqomIbOVNRzdAoNL+2xR2WNT+6DfqjPVhJ/L5n9IbyRM0pn8Md3TabVDNC0WfDx90zkm77t0m9NE5LugcKbGt1qjelYoVbFXqgtrG4Ei/vTqozZFUdPJ6vdldtUj0tIuRagR6HqEORmENpOLrGK1x6biUh2J4OowdI+qn7eXPXPuDCcv6QsugGdhXA8twXvWgnXAcAdU8YGX/IAS2sY83D+348Hr0sst57eV2P+G6UQXk79U+VoJE+U6gmBF2u1wQVkWc3wjvZHdom/Tbm/QQT+Uc96ebJpnK1N8C9/IhRVYtcNaIfZF8vs+W4570HJSKkudJ7yT12s0ZXTlSpXcAQLZ2IjpH9EucnG9m41eXehMLNVVLkM5xfeugnul9UU2YhyAidXj1VHXlC+b4YzBat+Lqtit+vX/1ny788Z+FoHgE7xI1xTRUSkWyDOQOadulw5NR42xHn1Gr9Bf0GYdWyVDQ0x5KjFMNU+1H0Ul84Un90MGhxiKh3oVzkqo77TKqgGSrG+s3jsMED21ZbsHh0IOjfcNCW4QPhG83VQ4dSlZSEYOkX2h0Uz2w8+mFk1Qvhl4jVQXPyfPxLaf9Qzup+uefn3WNMG7CLQBjsst0bAtDbDEEs+SKJSWGIbdxKa3kusylVL7ocFyKsmjszBjp7ZmYWdCVTkSBUbmekM5xbaXa7Ewu8krGlSqu57gOYhmKG2O1+TWqJlquo0QU1XCXVn3ERUL8rvjzeR971p//yVuw41+GOz+JXzoRHw7vleCjxCQHGw0MzMbyv6IOAiT+ZjT+tLAfr2Vfog/3hNKR/C5teILw8vCXoCUgCXiCmWA8fwEJ6TS15Mu/VKrVmsaq9f9F/OzzpHr+CJVAzKEuQH0RlTYRqRvefByd9MNQveDPgC+jM3Rb2KEkd6uwjirkJlS+0QQq99mMqi+YXq3KsnTfhv3dtXfOmLDFSOrFlVsPTtnXmq+6vD7RtXxX5yTSfks//qGdCU31HIiq4EJhgXfiqgjBPqwrmS21cf1AWoOtKloBnTMMfPvpnFzsslI+fpssaTWYxiK4ntWmVBVXxNLFvaRzXEcM6JxhC1Q0yNss/K1nDr1y2WtLNwRj0bxnApHkNStbwXuOnBHac+w/CiC+sNQkfDmHFnrX1AoEHfejVKQw4L40B/jS89wEMivPS6eF1yEoj3FQ4zS1XNCWUZWQiuFUQdtdJsZUBaHNfPtYKB144+wQRuDwrY4oHXYyPcdIikYdyk7kMZR87EC+6dyX6/mACUpKVdqnk1JVqthddI/tPtq749Xm7qZbb6o6tvFAduruo4XJx7oc+622QkNXsZQ80mU9fdkExSyZ76puo+TYTkzR1o+L39xcpaVyhtqmQN9CfZaVimxgX8yinLC6UwtdU7tBwdgfI7xF3dpsVOdXq4Z7HJ0T3Vj/DUJFe55v4EJvgj16smXDzP7oJFBnBNBvR/su7aNt3gxJ8FVDzzXc3wASQct6XMG2fVjJoUERyyOiwE71+txvVAH5cMvCnQ/Ur73b7sinvtl+y7NLl95Eafd8CCZ28jpUdjxBxbYSYHxrCaz+gg7iUN/TWEEwEhiUjlRTlKiUtpQIPAeN9EPPbe2g6n8WtfjMlrYiju/61q+e2tJ37ja+7Tym6qf+4ta+CJZ3y+HfPlwz41jvR2XPq8MYdBekIrLSoVJuDPHJEVzrCAronG7tQoxD367JRj2nG5Qcs0etKq400oVtooBobUeOB9GJZWZdINCVUbQqci/6iN9ZYQo9v8y9ehNfvP7SpM+Nx73EH4IzzScuPfKTJz75Sb6wAcmPfonAE1FobCm3kxg/DljYn/0XmQw8hoR2MMiAbcFzwC/7j33NvjNDopzreD5WCgcKAB4Xedr85fmCbTiOy8eVUQUkW/PNlnlUyf0FDSWZO7QMBGBZb442IzsoPLAs2R1uG0oGB6txPB9yZFOxs2i7Dir1N2+/uuGI9FHEqWZgJxYBIrBDwBEwA7zAdkQIBfEDT0eW3aKHKAzzWPXNblGbp2NQGfkSYQQX9xo1Pau0hNvmO1LMxTn4CANLNQoJCq7ah+7AHvWELl/2nz6yYeYbZfpGSDqxeUYy/T2wFUJhz3hKMjowdEBIx9BJ4ckIlMgWn4Plf0ANvPKohE4N+5psBwFN2oyOEYl1lt9CpU3Ka9CJORKaS5GG4jVpQ/BvOka0W9kWCoSoPYux/ALq0wOvHS2POiDLNWqsrjPzUGeG9y+CpAVvtyGYkIxGZDViXNEUDVA1mav3F5ufuOmGUlf6G7KoXKvAIum1rA7ZsJdmrtnX9yBKSRVj0yIkZiAYHQGBuxrY8Kg48HagCIAiWSgpx1pemTksrVJyinu87mO/QjJQ+GYlguUCVJo8kcaI5HckrWhnDjV7eGWCjS8iNQmXCSwGuzC8j+sJ0ohwp/RjP5ADJo4oSEjVUYpSy5BUp7TlcdRq3Jfn5LU536h/nLz/nsMTDfy7snyCHsi9MXOIAi+/86FVV/4hJmN9Qzf0ycydUyiUVlsF/ctaXHmtZcV1Z72PrxPXvQMZ+JHgxIAe6DP8C4yIyKvmFqpUApISkOtzZRpC25PAWYkaxRBwt8gYIVccgZtg5bkoEWkaEcQR+U2AstJ2p/rnvrwmQUxJTW1U1g6tSMgyT+V0VwF89ZhH8m0jLv+upmnMEFFE7py/x0T9hxEMzodzTgqk2UnH/8s1ZMiQbD8pHu2L7fSky5UTkeLlvPlh+6ECyLMEEYDxXhiR3wL4qMIEZIx4A570/Vi3Astn6SrlT3O/3lSnZOR/wkinI9ekPyd+8gmqxgtR6TFfhUo1SfXJSruwAfVNAIx2Xn+BGqXNx/ZH7EYOy5RkZEBoAlyDSp6REpGSlL881/M4FykfStXrUWm7kg0h27EW244Dd/k7GWUve7hGnU/rAcQ08uI04vcvkTtHRLoSpkj+Pn6/ihyLpyWpRnr/StK5VKmO3UsPyGxr+8cQeLfilzYdbYQrUDmaQilNIC1E/Q/UQYDE3+RtSapTEtJepHNIm3Aa6iHU+agEHWtzCDgCuIl0EH5pEtB5oUomuEmc81wVQKIT3vMC4N3CpJ9Qz9dxeAYg3I91D2KZCT/f8+tHF1Ac41Unbz0I/sl+pH1hE0ZgKR1XoVKq0cYjEGnHUdpRclFyRp7zwHYyFoDSjY5L5JwQfFTJOdTN4TY6KbRJeY5oZIY2Il9A2p/UvAQlrz+iMe6Kyj4N2KTTabWrq4sZxR7QDSOGjN2YV+/+pOR7D2qi2Hwapxz2EAR+qIIxNfW8qeRuMNriMSGTphgKAGKS/D/QbgpT08UO4dFHrXl5qO+Jjf+0OHv0aDE3cWLMgILuFqYbacFBJnulJ7ts1wJKzbIFqpVgZCXnSGwwILfshLgoVoDbw/0Dwhzrm0N+sxx9d9KuqQDypF00eAdIwFkA4yOqpt2pYOyvVOzNx4VS41/V/+R7QmZ/Sdh/TYxGWiaD+dam0udJXrrfB+PXtzxxdvAAn3gCE85/+kSwvGzZ8CMfeaHhRtURv7pIdV7xnBR5yN8xMa8WnOZBxI1PFtyp+OyGf0UsKbkPpJr24gNFU4p4P8aNjxcsXxgvp/wWv8Oq8/BpGV0Vvo3jKbVOWgYO/5Uj0CMgRieK9jnTUZwKIE/6aPp2oI300EMP/Smk4tdgK9YW7ZKgu/mtH07uemNG/BjojOl/bbZdrNLMj4HsNjHG52n4qBAP3j8ZU/P7Pr+B5FHBqMfHbhV8+/t3BAGX949fi4EYFIczDLmbh2wkyCElCb/owddfQCH1IJAiiXCKWqQr0STR64UCRhyHoEqSXweopxCqlsdJSLGoCCxGlhN/EkiYNGbhdGOoMYUJY5gXcYo3O4q7VQB5Cp0Ph6Xh61//+t/BNvw0v+GCBKAFz3X/JlE89n+edGb1zJjUlIBqlIuIxI2ZRcyaiYkGBWQ2HJqNBRNl8V8Az2jMW7KRW6Lv8ojA5Q+IcVNw+qZ1O4CzpLQKjuIiYoO8Isa7/Z0YBj+CSbHtqgGYecrVGOFukxzlLSQZ0A3BX2WKYgqjRkmcIo6QkImIJurAJPAEYB5HawZyi6dw5+d+lzENSEilNLqEXhwFSDMqvUCuo5FOA5yFtAPtIg53kYagHDgA1cEImDMukFb3QVo9AsdlGk8GML6OdV8GOFe1xMlqQOXuWnDcMOOgMfAzZX0s4XsDbmTTgOVXzvgGx9gJxjQg0VekEO5ApZp7CZWChCFpHF/l/BmCcQbqz1EZ40f7iLYah8/OqHS85dfWTle/CvX4RST9FAq9JrSg/50jLfqSSZOsspPGzuiClYODHhjrgKR/QIqCuo6MP7k08mGkHDajUgVRWnIbyVwSwBRbbw98vvVzD6dNIasZQt+4M6ScCAI70J9h6VOdsawby2SdY+uuv0aOxR6O6cocZPWCtus5ZtQVvj190ZYfT88aNcWiimsoQbo6fOsPZl9fAil8mJLLBkJ8TLNh3K7cY7VlI1oGtq2yPLgHxjogyYVRHfLBUhqSrI1UMUcgCFgSvBwd4HoGix6MPMTL8bHwnox2m+e782P4RpXPKc/YIa4pSPqJ9JwotO4wGVCUESbmFBJa9vD4uYpmzauZgk+elnoEVbF2qNXdK7Wqkt59tPYvmF8nOAbpK0i8wVXB1ANMhkFB0rs4vnfaCrfiyYlb5ru54dNAVnA4TA+MaUAO5MXY/oHBoViOhSFn3PSLcHt/tHL66u2TsoaEXIvuFfh8bgnhhoNTOWHeDKaxIGIM5oDsWmaPNqnUnbgNU1CneogiK5TMLi1hrtYyvZuR8sQrORo9WJdZogLwKX2p7dwgnAB5JnA60/M3fuOqqU//5aPxYsspgpEfSDeP3noV3hfVUIS3wdhMgqgtPty+YBc+cl5jZDJdTlvbhYpT1QUpjxcoNhsvRAGzI7uR2XmKJ9ld+GxhtkpQa8yicxiuzTRNc+JwfHZDUscVsObICE3yWkG2MmqYMV3GDCCRyEnHoFUfV7cHESVFqMEYeDwOZLEccMTGFz8HmbhdFJBXsfG1+3xhf1MVl4XMdCwLCghhT8hsL303o1ylueJHMCMVn9/1i4hZPH4CJq+EhJ9Ilyxa7VXXlgrGLaqixRxMPTT8QmFivHunrpdMLy/N4jQZ4hCHIGg7yC7BUwZtBbsDv1uUGorOrjltvZ1/vaX1pkINNLmk+IrEebEI9CaNg19GiSvgaQK5rPXueqTljqMA442+rP4VmJpeBKYjake+AHf/EuaHHwWPMzsrvP5qTJj+WUcxQfXEutDee0AOOaou7nZdb4HgK7vB/RgF5BuXdOU/kJL0PizqMB/wvWp/NmJ780628CUvqc9EcwfFno5FZI46IJlnsWALdyCy8EqAqs/mYowgwwNoKu6PkiVCT77VHMYLYvkVJvsEEiTwK21ZRQOx0SpI7cuTmDHgIZUwhvIQ+RoF7A7q+yB3juBarqVkCp3J20VX+1CQO8cpIQ1ocU0i2b0LoDOKLr4PLSNnIwAZiEWUvq/4AhZBhm8fUtM/lMnbv7y+tbsNrVdMnAhws5DkTCQZyK+Zs5Pxy29Lw1YFNCVMSjRjfXYr5zOI+DSHJ9rcFWjtAGM4wYwJFwDVgrJ/esxLMvCSpguoG1FtBcOpQiDbmL6NKeQ+AoEx8VEU2vGezMOt1ZU8wcJVqiDZXeYnh3GMfvXCAZ6xCMN32zSqgHywrmm66UifgPacDu2JVJ59anC4MjCgGmoYAgCp4F2fGSHyWzNq52t1VQ0lRa6GsVgCbsqei5OtIBldsyN2ZakQX4TJVtU4g+D45mEtVXhJry40m74q5XHuci4f5576tEcFD/asuGmT5zw16fVr8qtP8zlnHWF7reb9IzNkwDI4gldQB/qdYlHZl0w6FyqC5TmC+iza4iqmcshU3JkQt4bouYdV2XkcLwQEqVgHsOewC2aCK9WOU2qNGaoJh+wyhJt39cQUJeZIzafZxHN62KgAMrCb2hYvdAXxDoiqGGRZMfAwhuRUDHri3RjqwTNOkB8MGTu9gi51rKqvst9Jxuo0TIJCigh80H7AQWF3Uioyz2KpIFVbudQC19auIcltY8RF1ixMQe15WdF8EN6gnAMhPcy7AXXIgRC8RM8nF9+7fBLSIZ/JE/vn3AJGwjxX9hxWmDDeCiKwozIS7PdPBMPBpxRcfCb3cjaOPeeAxNTXBrtt8ccggK6EKqSrO+IBLegnGUKusKda69wwIWUUNGGSAfUFCEWadVDfQIVCdZVKxa7ERaUuJIiX9AnBt11cq1Ot6l0VqynshC2GU/YNmESFs10KdfFgQlWs09RjEmYcaHLzuMn60+t+NOltYV0wBbVSzmIPnFNAPli38iZHRJ5FxBBiMkpxpHkWIfdEBXraFL2OFZOTxX2pWA10ZxySEcO65SUaJBkSUPia2ZlehCy0N6mqBlcDuJWt7ZhstVIznKznqcYQHxwTtfiZF0+8+WtrrtOKjrbpi9dsXrXmkP/8v2/NHm7Oc0ToE6gMt+IkJoZ0cQQlGDWC9z908hS5UYaEMRSLhD5B/lIYSZPG8hxU0lucusuSQ+WLSgJ+CipftNeGBjScRRyMmVOdE0Den/5NBg7sR0uedi0kIsmWss7GiXoFKEI6TsE6UKW2rW5IanlZmaiThIF3Uu64vtw5vmX1apPtLuTO8dVpKlIhY35/Ht8vWG1k8lv4/T8XuXPKHW8mdGfq+oO1Vz25+05ur+u1f/kHG49uFgoOg1QJqLtQOQeFsYEEDUFEbrRc/B/BGEVSM3CVwCOAqa5noXK0iep1cghCXpLPhrMguS/5Vlo1Z2QejBnUnaAh7zkgH0w3zXaUxMdAndTDISAQT+i4DG0rvERJxxGOLGabao2eHbVVGQAzqcF+hKNb9gH1JYhH/rCO5I1OL+gcJIinVARnt09Pd69Q4qUW5s5BpoiBozWDLq1aJaWrIenlJlVtTx/Ot09YffCn2IFcOEemKRl5bQKTo0ScEso4QkZYN5fpb8YGkuSnHcftlJjRrD8eR1DzvIzgJvg4BJpGJSD5jMgfDtvWMtc7b1e9Z4AEnROHB303nvk80iZRgviR9BRtRcyQL3UkldbfNKTkrCo16K6PDwFBKpb5dEYwSRojLnZRrbWyTBBPOkfCxPySLRvm2nhd4RXIyCCj2InaAdNRUSxHydcnN9x36H9+ecGyvglaS/sOiiKtKR1PqUDVRqlHov23RgvYxqHRZ07pRB+And4TQDLPIj5A+gngcNrp5FmEDAW95oMF8rper493bcIXC2AkpmL8JMG7lOCgxxPQOUjtUOxMzHIKsYWypILOgWT17SPIs7hcrzabRV/RkLqFw48nKJ4B8rvoy8qz4x7995dfvFmYAyqmGimnV4ZR0rQfo+md5E0p8alWucyhy65wDnP/NXAc17NGdiKzQfTPMwknR3FonOehJGzDdmamZVt5PZolpA54DS5zfgQlKs/JJAdRgoPzHrJnFZD8bIat2Ithly1Cz+j4GNWI8iyyN0H4Skjk5LZp4rFVDWm3Na7UI8uYBvMPmCxP5wCIJoJPU3YX6BxLv1rFxHxwcfhSoL0xkeluQmR1kVLxRLYCuXK8AzFQ7QfhXf+8Zc2lez/3hDANx6xDJ2nIhX73EkHYiCZegkqH41ZUpmshJROFyHHbr1Axr2VQoW3JyiE8TrjiZ0z+GUBiGhJGKV2JSnVPVc6bfAyVoOckqcXhNWgW0M6kmUBg0mxgNBTP8QzPNeSa5+WfZw2QjemmKbbkgc5R2eEWeOkRRwHiQ3wKApt7tqbV7IaJqXhJFOtjGHcbTirCjEMab79k98QuMZEgXpGMuoDOwff+QOe8FMuYu0AVIyNtX4L44QpVNDwtjE67r2J85ZmWdTOjMH/avPsAyjTEEgGTRqVHTTuPAGD/ESgcVyI4c6jlzAGCltv4TjBaielNalCprtk22pNRlgnuF0UxcTSHtirbQYlKiUlAcj0lKr1wtmtEdjn2H7PljAEJySGa31l0qy0qt+PBV6NrmAqZHXS8OBuuG4A4FaadqShHX5iQKDWnjDqwzzHUslKRp5EV37JtDO9lkTvH1G9EAIHkYihHVKwtWrrnZR155uHXkFc8YTvgixugeAqIBHr66IaZLw9sIrKKteL+5hEwUNnHEN1Biof2H4HA4FgCiWDkNbi8BrVcyBlpIKpVvqRUyWnUCPRbQlBxPc/B4yMW4m0sE8xcR8eGKj0yF+hMsVCFl2UaBt7L+bJ8RoCEVKwvfGfxxzF4OxvIcTmG2/dwTpiEeFDfALv4dIZX2J/SOtZMTMYKijzeQCL34egcMjW+6NhmT2xKqTt+G5IpTw0TxOflWJEk9xbm4y6XIH7ghftUtBDDsOEBzJj6efu6mcFsu6EFoMwuaWyUli5bRluN0mhgoZQ6KYUVhsMNnJvcH3WDbeyz5nLXxrYc1rNGJQLhmI/aOd0X4IwACZ0la4Ky0fScJgNf68bg6SlLRcRE+UrRKbXFhPgrU5I3HazWp4HOiYHkRuLE8iqIdA4GdmWktpvrFGMLSOe4iDBwRPstZJ9docasVkhFPQiuOUGhigYYZaSiXy94Hb9oX7egbAR4U2FudTyh/b97v/nqRdv1j3zuiQeuJTjII0aZHSjR6KhQjRMk5BR/BSBRLfcX2Hh1+IN9w2PTqAQn4zaDoT1s53HkKkkPkVwn8LgPM0ZQ21C9c8I91TrNBapxxkFRgl6ASulLwp1JoVYNvPb5tnxGgHwEaZjDjjqt+y7c9tb4qZZzO2ihSzlVDiehxDmu0Lmmii4FdE7idoHf+2MqZKdkQSqu1dP5V/D9Z8y7OmkqZOa90xEDzviJp1pevnyo8zHo2kYslsKnpj8cT4/TurNHItL7cuxEW44AICAJxMjmI7A4njgIkOG+JMw/hEoVT4dEAxA7ACDahAQVQcs+IElOs+BqVDpLnI5BO5Ng5rVIN9EGpSNEJ4ocJvlNLjfjnC+fzyM6ZwTIQU9vBH9c3rhd7liuLJAL/l14AlUczw5iDMvZe/jOJOSdV+xIzEbMIr73pyURgwgRYR1CgvjlWtw6iFAwjSExJ/rGNB41LiNirp7fjCS4P29fPyfiE4dt+XXiioObxVvu6W47MK1+wqx/C0FBaUSpyN8oop3eLkltgpG/QwsByGN+EYKJEo5gJqVDSUipx2VKTJoAtBsJYP5NQFJicv++IPW+vI4ROU+nKofKiPnILi3ThPNj1TkHZP3ctxqyy6WPY/rxLFAsDuZylsD1wLmm8ALbje5mj1MqKmqpx7aUVCmbulm0tDkxROc45MT14uZYbW8Tvv5r+r5SzS+pMnko/0MJzAYylpLMb0RzGdNNFYxMO/5aL+s8275rTmSLnfQpzXFX/zrYqWU1bch+QnvIgRtOdCIcN3DS2cDIneAwbKczVCnogXMOSEywwkdNlTdAz6wDunzH44R4JO5EhLUjmLKDOGtss2Oq4xzbPeVepzv+KaBpfKdeRK5Qf9v4ROF/2clDe/IdCsxWVSrZSFOLOFotprg92aJWOyFp8a4UXfF6WrJxy3bkREr3unpLWWvXdWtH+tTvr984WXHMBkwpeDVMaRwR41SVtD1JwdCbp/dLCcZUycHITlRwHLfTDozmB/FFoefMc1FlU43zXDQF+EzoNVOFH8G5+IlgvmQTUCNJyeP4pbIgEun9VM45IJH0kyqtnFob8AAb5YeWfOMhOB9/lZCNxI5UVnj8gsOY1VDqfmjzrB8t+cwPaE/djNqMSpuLHCDtKz4oqj8SzLwGbTsKXKoyqNXn9keOxKk8xC/UN1UjffhTcpV2zf1G0++AGOf87/tQSdXQXiSIyCXSpjuASg6W0vKFIee/EX+TPqJ6pqdOz5p9PweVNiHnlFPdcx23E8DXoD4aXoMjMh9G3Y46DZXTESi5TyiZh7ThvPjznAPyZL0ClXvj17729W8heHY+o3GcnuJbbybbni+oxT+Diq9Z0ng4KSwJomvICVJi8JeSgoQ0KyUJgUgvlJKI0op2Fh2EV092/UHbMadKyIgaPwgjwUbFNtp3UTQPXwJKOV6Dzh2lGGs5Ep4kemQrUlLyBeG5InKdQCcQo3vIYZnnT4bSlftxO6Uxt9F+fN9wjwP7fMwAMt3xY7Wn7tNfhOX3kKFrCSb5hOvys2q5+Nd3HZx8YP2Ut/8VkGhdumxODyTVNtwEpQUfFAlqSioCj2Cgc8RfgoOApdTkutdQRxQ1/ai1IHe/0HSP0O1O+Gb7Akij5ZRcP0PlCxABlKCkqiVAmPLkOKBAKm8AsNheFqpnHs+20yaNIqD4y/OQ/OY2MgBsd/RJ4HXhuXmffLEGmQXhuc/7n/cMkOTwAu3JLGBDCyRPJpYVs8WMt7xhsfUX2X+40Bv3mb9VZUxbBafeYzq9rqd864Bw5XeeMz7auzj7emr37Y3bnrpPkNfMWJv53IuNVHl+NpuVkGWsAzMPKTn6JBPW4f9SeF0Vf1tCrEH5rT8wml9dtqwsrXSip/hIywJyfax0PggUquihhbbhCQuOjRypgQ7VUP6T56HJcVzB8QPXn/fe9HCdddYBudG/epIkxO+IJ6BWvYwr2Jz2OaQkBKnojS9pMVf43dxTV1pS+q4ura7WQZ5F0/UP9vjVL3RJ47MIkfjjBfZLmgUL6r8veyk4CdHWsr5vmSUQeQjhOe4aRxGmgWk0kDExV27e9e0HvCcXxI/7iuzJcFTZfo574KwB8hf4eM8EU1kAduUWkDdUkwgHOx4nnNGMmfkmcohlUmLXzTHZvULGkHNv0fQKYuyVnF+7lgPSmOEyGYPTjBLHB1r76Ju+71cz6nHAL1aLjCpzkTUsLAH7A9ZIxoxUTIXe0HDT7KcmrXv0fanizjFe3vPLnRVAbvRunjXRdO6URR8jDrINOJQd3wU1iHFouVTld32oSuharCkyDXwB1MyxbiH9Ut5P7cE8eg0zYpVkviteNKoKYMX5AQOdI8/40DuA5yqYjI2ZCLYmqQjfBVRdz9R1o3oA4ESQ5KLTcWj/htXf/+yzhDIqnZ8sVF8Q/BBSOLQJWejFss2RkxLFHOaj/d/zJ1G5QNADZwTIjf7cBkmRbkcg7RyILqhHb1gp5Ioy5h0jl5PQttAQi9cr+Di0i9gw09c2dXnpl5EhsVsVPcwgjNmz970+Y87BHXe1VI/btfzy+Suz72y/AqalJMmqjYy1KaOqpqU3d3R6rLrukCzrplnM1Yy/cPZWzNuxMOUhhg+g97hC7HGAkVweqZhpqHNQyUO+EPJ6nBsTOA3hPvRiOYRHL5rLBPBKVHq7lXKOeuC0AIlv6xmaKdwCMbQAsTfpYNLWcNP+MJUfE9nthNczLSn1LNJkfzJSOwmm43b3+lUr80JmmyxjUMV3OPMPIUOylyj2ZNKOE8sXe+o8uxfSkVpbxahMEAWEgW1M+YKByM+5MeoMoWcBQYwmxBFscRgLj10nrXjnub7UfQxIoCPBoT5+JZZeLJ0HAjGaQMXD6RTRcSBISRtx//cltXKOsHValxkxIDf7N8+Mm96dMA+nAUBUcYWyE/yDJy4jPYirpMXOBXGxMB8fKsfn1Dyh6Mq7c0LdS5YQb5ORvo5TFqLWx61efeeFszcXY1W5jmRtu6RXmbUTL94r6zEbwRRMWwYQqk48Na4d6MSEBKMEbB6D9NQwerhF8M0nrpPeiDzSiGqJqJKIRmFy9s2hFCShfgiVKjsa+ejz1PsI7Eo5hz1wyoCEeq4D8fZhRFRfBYGFKS8nigPECLWoWqrbM6Fayt5hSP6FMgLVbETnFNz46m6x9jU6J8iweFx0tQLnpCdWXdh84VU7KRnjJUuVquu6OUaNBEsI/kXmFMzo1+KZiGpRkEtPdM3iK1NSE5+tzT3WHyA7hCoZBK5wW1mK5Rz2f+VSQ3rgpIBcn/6UpnQ2z8dnIReCREnDt7AAxuH5PKS+o6OR9I9dm5AKyCimJIAgoVgS3unya1bYcuqQ5JegHstQNWicCRvy4iO7L7y6efuth5O1+9ZeMW+t39UBMhkKGqB0rN64alT1+ralebKolwp5rWX3+k1vvvTDXw51QCAFObxIm5DOC8OzNmMfRsrQqeHfdGYoNRkWtgPbdoT2Je1OqnOqbPYRwU97lGBncATHsfklrIFBtxVwnYUeOCEgN3pzZyidB24He3IRv6wLlThsdDQG1/ySJ5m6YGUyYvYWXbRnwbYT7JLtQTWvz3k16zCr1ZJ9u9yck/5bsRXNqcu2TJ5i9U7E5GpkDS1s7O3tTCGNnYcvTxu2ma9W48Vu3zZr4cC07X/lqbeP7nyZ95FGHTr7jiDiiAodFMYPygAcI8MJQg4t8sViJSB7sY3jyrQtI7CyrQwt4zg1hyQZDkYym8cEZHmlnN0eKAvI7f7c8ZYvLULM6/Vg+QL1fKJJCQGdA+lRJeQuTwr5RfiYACKo8TGCkncs76dfKojpvSAUVdl3y43zDrojAzbk7qkzt4Db8VpTE5CAM4nwoI5ADetVmU49VduJvHnJXrO499CWXz8JMHJclxHb5SJfOKxIUBFI5NDp3FRBsnWH4ItiCddgPUdhuK0L2xhbmA73Z9ADj+N5BkrMYV/Os/uIPlhnGwTI9enrFS2rLYCTcCsEXi2cBhNAO+FwGyYKmrAF4ymhfRFMvOuZUYyJOUHnvN7lp5sc0ehRRI8Zw05peoMGG7I7nupZMWvhb7RSSdMdK67XTQkkH5LviSLobs8prfvIn3zq8dxj3ZZwD4NoyheAi0EPUSHIgiy8/GWMIpYZpCtGEdbRNqzjVALuE4wycX20/MGCx7m/235AbvRvvkzr9O4EEC/BE3PgUCDzbFD6gQT7sX8ZjrFj+7JVJXRfmBR7bkM64gbMHRTMktvT65HOqd4hI0IWUY6w06DsTzYJsf/ckgeiKFFlFuaC4GnDBfc7jq0zbTISnin5Iy0bVv/ky0899T8xstinXknrEDzHje8CSBy94X59I0eoA8aUI8D1D21GoBsKvgoYzx0wFajnWuieOzBL4Ho4tfhUn4TP2JdL1MiRuyB/LB4g6BZ4yLV+x00xoTDX0HXFhdLutaWdOaHmJUfSOxACDvWMHHkSMsMOKIAmju8bCRxYsDIABkzVIkZz5iaqx99idrfnzULnDzvf2XmplqjOHtzy4uF3Nj7LgxkPyBhD2naMfZwO8H11INhCMDJOkbYfJ07Rlsxh/TvY76TTF87dI6hcaWAPUHrQLtoEzhDhVUgGjFl8MJfAMZc1kTiOjO2+N93Z9ulMXPoL5DvB0F+p0/T1xgPC9GfgD1gx/6hWJCsUZOIeHFsR47nLFOyP9TDjgum0VRtKVu80WTfWHNn2yneb1zxxj+whcXPrfvKDEX2TwzL/pnNBld4/lh2entJ8YAwjpSRn8dHmrJQx2gPKTHEdHyzriErjssa///qyhz6Br6G6Uxvif/L2odzu68Q3cA7WMyiEkS8sb+qce8OL31ycX7bsBX/JE/v/BWv5plDtRmZGNE8l4h1JcPcXSEEH0jCaXMX1pH4igJ5BAyuHvpc9cFIecujF8ZDpmU7F77HPf/7zf/zkk09e09rayjFg8nb0Zhl6T4+VoyRp1DmoVNtPRc7DqdzQgvi6nmXLGJMa2IenJdUGqnCchiK/4hmfSueP4j4jAmQYIUPAkWye8t3vfpfSiRwf55cwIpsApEoGkR3MdaEa5VyQHCqjqd+3gaWj+AzfV5ceESBx51SbBNeFqJSAtOcITo5eEGyMpmZAA9Uno2TIyTDChs4FR0UqgHxfwefs38yIABnaZbTjSBQzcwPtOM4LYXACQUo7jR4sJSfpGJLRvAb/5jGVUumBE/bAcYCEWqYnStBR9XLMlskzAzCFoVuR18KRC5+jHuE2RtQQhCSgaU/S9tsUzprjecZjmRKW57WwLQjtCq9HKofSNo1K+5OuDe3O7goH+MFCcABIgIJ23n9F/TzqR1A5xMcx26tQf466JuT1fh/LVL9U0aRcNqOuCruM6pm2IwFN3o/BrasBKCbU5LgxHR9KTI4NU91Hc4rvwXIOlePIn0Gliue5+RI8H5678vMB6YFIQjIMi4CIZr2RHqGapdfMucEagGXjl/YiPVVKNKpnUivRRzAp1QhISj5KtzpsS+A4npMSl0EN0ZgwCWqOG/NvzkkmyAla/k1wUsKS0GY73nfZGT4g2Dqt2wwACWBQWgUSC0Bh1gUCLhp2C5jw8OxMlkTnhKAjYLk+Gk7kXGGqa6pcktAsUcT1pvA4qmVKSf5GY+TkdqjqCb7VqDQBKCEj2zM8VeXng9ADx9mQoUQre+/YRhDmym3ENqr4aJ4xJW5/wTbal9F8m+MI7BCEH4T+rtzjSXrg/wNdni/Y0OwxnwAAAABJRU5ErkJggg==&quot; alt=&quot;图片包含 灯光, 交通, 路, 标志&lt;br/&gt;&lt;br/&gt;AI 生成的内容可能不正确。&quot;&gt;&lt;/span&gt;&lt;/span&gt;&lt;span style=&quot;mso-bookmark:OLE_LINK22&quot;&gt;&lt;span lang=&quot;EN-US&quot; style=&quot;font-size:12.0pt;&lt;br/&gt;  mso-bidi-font-size:11.0pt;font-family:&amp;quot;Times New Roman&amp;quot;,serif;mso-fareast-font-family:&lt;br/&gt;  仿宋&quot;&gt;&lt;/span&gt;&lt;/span&gt;&lt;/p&gt;&lt;br&gt;  &lt;/td&gt;    &lt;td width=&quot;113&quot; style=&quot;width:3.0cm;padding:0cm 5.4pt 0cm 5.4pt&quot;&gt;&lt;br&gt;  &lt;p class=&quot;MsoNormal&quot; align=&quot;center&quot; style=&quot;text-align:center&quot;&gt;&lt;span style=&quot;mso-bookmark:OLE_LINK22&quot;&gt;&lt;span lang=&quot;EN-US&quot; style=&quot;font-size:12.0pt;&lt;br/&gt;  mso-bidi-font-size:11.0pt;font-family:&amp;quot;Times New Roman&amp;quot;,serif;mso-fareast-font-family:&lt;br/&gt;  仿宋;mso-ligatures:standardcontextual;mso-no-proof:yes&quot;&gt;&lt;img width=&quot;81&quot; height=&quot;92&quot; src=&quot;data:image/png;base64,iVBORw0KGgoAAAANSUhEUgAAAGUAAABzCAYAAACB88xJAAAAAXNSR0IArs4c6QAAAAlwSFlzAAASdAAAEnQB3mYfeAAAABl0RVh0U29mdHdhcmUATWljcm9zb2Z0IE9mZmljZX/tNXEAAEPtSURBVHhe7Z0HnFxXfe//MzvbtatV791qtizZcscFF2xs44LBDhhiMGAIgQSIgeRRAinvJZQQQkjCo+WR0IwDAdsYA+64yU1Wsy3JsorV++5qe5nJ7/u/94zuzs7uzMpK8nn5cO39aHfm3nPP+fd6Tiany/4/uY50dlsum7PG+pr/tBkfOnjIHn74IUunUpbST7lXX1+fTZg0yc4//3zbvHmzrXruOauoqLDyRzDr6emxs84+2zLJl2aFn5a2ThvTUGdd3b3W09fvAOjo6tELUlZdWWl7Dx+x7t4+mzlxjPX3Z21v8xEb3zjKqioryp1//r6W9i7r1VhNDbWW0QJKXdWVGevu6bUd+5ttQtMozWfA9Ac83tPbb0CkKjP0uM16P9/XVVfmn92wYYPd9La3WU1NjaXS6VJTyn9/5MgRe+2FF9qv7r3Xfv3rX9utH/6w1dXWjmiMg4cP2/e+972BSDEhJW05A+umf9NaVG9vr/X39er3jGWzWaus0ERzFUJIv/7OWZX+zuWy+rvs+edvZPyMkM245Tye0QO5TNqq9ZPjmWFeypy0hGHnpdF8jcmrQkhqGj3aaurqinKKixWEC5yUeDCTydioUaP8k+rqahszZozVgpQCbkMwhc+SQorPslpPVVXVQKSkRRmjG+odSDV6CRcLr6uptor477GN9fmpQNzjmxpGjo34iYa60txROHiVuHXCmKqS70R0lLpG19cWvyUGJIBCpAAXxgMuAZCBIPic74e6uB/CrtS8w++My+8gAAZgXBAZrgH839zSYofFQhV6CaKMB3mhY1a/9+th/zt+OtzD/Vz87dwGQPRv+BsxkH9GYwz6OyG/oUQmGd7DHBwQGsPfonsBCHNyYOg7FsY70QPJeYT3MA+egZq5I8ybcUfV19uECROKcgUIWXziiXbo4EE73Nxss2bOtOnTp+fvBdh8t3PnTmtraxuAl4A8uGXeCSfY9ldesclTptjFF19siEiQ0CxY14u7xuv9//7jH8PYfg1Ayq5du2z/gQNWqckDmACcQAksLI+kGHjcw2IdGFCSfgJXBcoKzwQAA9DAwgMArDG4h89cSUJRzCNJHLqn8BmAk6TYQMXhvcwDxEGtgUrDPeiOsWPH5teQhGxHR4ddKD3xzNNP2/79+108HRR89u7bZ2eedZb1CmmHDh1ygii0l/LcIOBff/319o2vf93vOXDgoDU0NNiEiRPt+eeft8WLFw0SxQ7N5o4enwsPZWJWZUHhRb44KDX+SQI0ADAiYgExpuAA+CS3OYXCKfE9gTLCvS5Xkbkai4X63yAwcE4QE9wTzwlOASFwq3+WkOFJAvJ7wpgaL1zDWVhOYHqmGqWvcZEiWH/9QvALAmid9M5BIaunu3tISw09wbOIqk4heePG9eLOUc7VCxYssIPitNbWI845bTIW8pzS25e1Ln56I4AhIlhsd5esE+kTLibiYiKxcEdirOD4PXAXlMu9AQiR4eBYz0+Qe7igXgesxmHsLi2wn/tiS925i0fj5/2fMFaMHJ7LVFbp/ZG5EKg0ABygdrS3J5kgr6zDsIxZaL7CGYgaF3uCSVNTkwO3o7PRajUmf2Nhcc9QngVEi4k8StyxedMmrbPCxo0bb336HLiwTDgySRzOKRMaa6y7L2d7RAX8B3vd/dN/10IzdtV119v+vXvs85/7nG3R4EyKF6Ffrr7mGrvgta+1+2QGsoCAlKXLltkMyd+dO3YYpuL8+fOts7PTJ47s3bF9u8tZ2H+7fm9sbPTv+W7u3LkOhLDIJIBZRKv03thx4/xdGSF0/969tvLpp2zRSSfZjFmzI93XDxFEIhKO2/ryy6L2amsaM/ao7ok5qkLmV1tXr9Wn0jKPBypskMnaGIc5Pb9uXYTwGIFBjPJdMWXPvd0isu/LzAVuPLd7127pl+2+vrxejIkzIMaR0iLxBadg7VZXVdtvHrjfbv/Bd+31V11tD91/r02VcusTZYMsHkQ5PfH449YlQG5Yv942vPii1Ulh9gpo+yVvx0hGo9ieeOwxOySWP/PMM+3U006zF3XfhPHjnXLgCDjpNw8/7GN2a6xWIZD7QDR+i3NJbPE4wkUMvCNpYBzYv8/WrX7O1jz3rM2Zd4IvftfOHbZg8Yn2ytatNk1zf+i+e+01F7zWdu3Ybje+890uKhiPC7MexFTGCOFz1uWAjyUG96H0C1gtz1twPUQV7gFZ/J3k2kAoyTGCdOEzCI5n3CDhA3RKXz+Tk+mnRa186knb8co2e/i++2z8xNX2zlveb2lRw4mixosuucTZcM/u3ZHfImo9WZzxsj6D8k8QBxxpbXWWBjkotN26t1YIgap3yVKBXfkX7/Wy17/evvPP/2wnLVliJ0jG1gu5rndi4wGrK6lT3MKKRRs6ZMLESQJopS0++WR7ZctWm7dgfuxGpF3kHpbMnjZjhosPXzTm6agGX3ygVpDc1tlnDbWRr3Gm5oUkyIvdAnQU+xOvZdHixf7VOBEehkCfHONI+JZ39ckxxhLLMKGJjbVaWIWt3p21nq52e9fv/b4WIMvjdZfZ2eeeL+rfa4dkdTy1YoVT+7Rp05zKk4YAnIKFMk6IgHIWLlxoXdJJW7dssTPEKShJAL9m9Wo3I09dvtwmKiwxRWYi4uuAxsf6O1sAATA8mzc2glkcrw0KrhTxbH5po3PBm976Nkd++5nt1qCxIAqsqjkShZOnTI3kt+a0bPlpjowjrS2uvAO39Coysa+tQ0hp9Hfy3Yc+8hFx+Fmup3hXpiIjJPW6OIppYgCk/+7Lf5vnjgrNDzP7//z1X2tto8vDiO7627/5osMug5LfsEthi9F11tEj5Qz1S4Rd8+YbZA20uWJyVtZkG0VtUDG6BVbFBndzM3aOWgWMdnEB1P7A/fc71qcKgatWrbLR8pIRLZdedpmtXLnSlp1yiiPs5ZdecuRA1SB54aJFPnZe6QKBhEUVjBDE26FDslxamu2nt99m06XD9u7ZbaOlfGfMnO2U/rzE2tJTlkvEvmhjRb11tXXi8F126ZVXWW1d5CQD4Wqtcd7EOgdei/yRn991l33ggx/08fHM12j+68X5M2ZMt4suurgokNesXuXmLhd+y/2SMl/56ldlDJSPlNUiWMRthtgPcSviXKNqKq23u8oefehBO+2sc0R1bXbfL++xxUtOdgqrkixGVAEw7HMsJjD7zDPP+ORR3og1FDZO1jvf9S5X9P/6ne/I4hjnIu6ljRvd1ud3JsDzk4SUR37zGxcX6CIctmBxefwpVoq+4tji4vs6ARaOnTx1ms8NDsRinD5jlvRGlSv+bVu3WKcsr0laA+K1RoTU0nzY342cjwwJl/4+PJyC38K4iFjM1BckHSCCWRovGSZJYqdKhAyRcqH4MZeHEn98XmjM8BxEizrIQIQzxtbL+spaaxwIwrp59OEHhfn91i5KPOf8C9wEhLLv+OlPLasH24SU97znPXb66af7wkAClLdDFheihB+sI6imSQjDk90poLXIEKjRy3FSsdCY3GpFVG/92MfcWmuRdQVg+mJ/JmkKJ81GxMicufPsrTfdbA2a7y7pq9ESFWdrru1CAg4wlhe+Ac8hXhHJWYkqFD3PO471g5IPzMgaznnNa3wOiGkAyNpAFEhFP/IsQIeYyrlY1w/+5TsyYk63xx952E4VzOaeMF+i9z674W1vd0mRvFzRtysiLPnkDg2iaNHJS21q0xjLdXdZZvIUp86P/vEfWxuL1UJrZMZ2CejVAvYkiag58+blxQ/c4nSnsTBf58yZYyeK8rvEacuEoG79npUYxKgIvs88ntf3LBygYAiEKEEIizAmVATB5E1R/d2kefQJUAtE0XPfcLX1trflzXOoHc7AagOQDUIa7wXQcGgwb6srWXsEFj7bLiByP+/i39NkEQZfAoT6uCLSci+s1tmCQ1ubIuqCV72cxzUiRKzawF2DkDK6rtp6REF9+nGrRIudKdte2tYOnrTEuiWOoIoJmkyVZO7UX/zCdt98s3VqwUlTMIRRgs0eAnDuJIlSax96yLpEJR2nnmrp2MQECVBgCJMH4yEo4aTZGCIKKG6cSwgIj79Opi/W3S5ZhxV8FusKHysO+KELud/j37Hh4GO7FTYQvAdksPAd3MAPF+L5WK9G6dM3v/VG2/LyJrv2zdfbekUDRskgOfPsc4oO6ZxSW1VhtSZlN3umuGFc5AjddJNPzNWUqNEvZj95smX/8i9tUqHyDd9H5Ja/P+8pIysVA6qVRZQjxB0gEf5NPBOTbPzKKMiZjzTEQPU38AwmM9Q7e7bVSdykhGBHRqx7omkdDa6GdQTkI8eTjh/vQeQN5aEfK2J4BwFJxp2puUYpERlWwfRPDJyBLcPFBMclQsixwT94HoRNiAQnEVNqtoQq8EFkHckLxWsr9UR537MoOE06zsce5OSVHgbzmytSzv0Ko3SZPKXSDybu6Jef16tnuXBIe5VkS0klJK96+UdcON/FLpKGWI2ZYR2kQnOUkeAilCTAGAlSiPyKOnJ6NivkHzekELkm56EfxJPP7RgvfDZ02YQJkz2p192DOV5isNhir6vHIY3kYFV1jRznCUKS4ofljKFneE1dPTG1OqyvEm8t9j2fhZ9yARDG0b9JUVTu40PelxyXm0qtZ5gXdnb229KF9Xb7l09TyvV261z/MyFayajKyGyGHj2CDV0K/736jteJwO0tF7XbsqUn+ehXnNtop4yTmN76GWvdGcXKhrswMlR+YH/ytg6bc7r8lFcNlP9BAyj6Z/WVbTal+ik7eKTS6gSotCC6ebtEiiB3uDVCwuEjOVswM20zpikZKMQouG5Vne02LU7Cjq7ebxU1K6w+W2PYaMUiAEmwgZQWhdbqKlvlK974W6QMoqmcUsD9VW5K3/lwn+3cLzdBiJk1Ma2Ih6IfW2HGnFVWVyimppxPBUFTSWNVGfT2ZYwSjP5s2seoTdW5dViKU2C/nLivNyvM6Nn/Wk6JTdXjzlyQ4vEyHOLJYSVVSmydfmLa9hzMGVVNoxsr7EBz1qaNF4IUBH52DaltUbhSTkTYj9c1cqRgdZGYco0mhU1FCSYn2TmsMgQuFlAhkAAcNn8ZBQ0jXhzvZC6l5ESZAytCo6Cl2ZlLMnIXcjZ/BtROiZXZsvmKEnRRu0CuX6AQONKSPzv3Dh4cDslUoX91r8RcWpU7ebZx5YRsQw9S1ZMzDevX8EgpVJr4BHKscCpz8l1S27ZZjlIcISGjAGROfgJXv5xDReLccctfejaruBlIdASCTCylVwPI2DrMYv/LQUPg46SmGDf57jKR4bdpjPuf6rdZ05QsE8RkHdt4DV2ZEdA0LAp+bGPKRinMFSdlTRH3wcsA0AL6vY9267mcnbKo0rbv6bfRo1J2pD3n+qmrKytrK229stqmTszY3MnlIiXp3FF4IE8/rchuVrmPqr/7O+uVk5lVvqLyBz+wnt/7PatQwDEt77r/jDOsXzkFEIb5nJLXnVIUOSvHqfLnP7esIgRZRYqdc44VMeKOlAKYaYVvcrNmmWL//v6siCKnqPCxjkvV1ChVUtVJZI1rNHtibeS1tIuUqe1rrE/ZlHEpO2u5/ogtsEK8OyPo6z0HsrZrX79Nn5S2J9eowANxV6tMpr5bv7nXxjWlbdHcSolDRGFkCZN3dXGUI8KZcAqhthwAA6A4VzHwQIgCQf43z6QUWEwJwH2ve51lxT0VCnEreeJeu+fZeU4xs4oHH3SAOZcIeGk906uYV1bAS8X5+pEQtN+readFJFV/9VfWe8stlhaCKh591Pquusp6FHpPFebly3mB5jxmdBQHHCPkvLBZ+kSgGTNKqQshauzolG3dlZMBkLP1L2VNaRhTsWZRnQIHnTAjYwtmUQSStnkyDGqrU9aosfol+xbN0fxlNGBST55AviaSXxlkMWIoozIaKD5FlFZA6ydEr8hrWt/1veENDtSsElc53QOycord9P3u77r+yCoImVJ8LKXP+pW8ypFjh3IRI+gfxGAs8/uVuczxThCHCHwVzh7j827EYlZ1AP3nnONr6Lv88mMfV1NFqStp6OIKIM6dmnKRBfBw2k+ck7J500WbotXJ49AHg5kS8EL482fJKBCH4ZuNHgW4Zc1p7DgSZGM0bqvEGfcGNUyBV6QXFKZISS6jMwA4QKz+1KcsK2qG6tMSPznC129+s6XhHD3XT/ozDvr1KzTvSn/p0ogeEVt8x2eS83yfBWjilIxy9zkF+FJKBSDOXMQdy+XaVvM47zwzpQRScYlOxbPPWp+QX8oZL/pKTRkEHFZt3SSJqElj5afszNqBlpzNmozjK59ChTFwAQYA1he/o/QHXFH4zcaNSZvw5gqdZ/OSOoQHheimppRSFnIg44IbamcsJXHUd9FFloEbJFbSe/ZYTgDsV16hW1UsADBz222uExwhAdXJWt5A8cUULOEVcUUOIFKq9Du/E5GFfj9mhLBQxiXnobB4sAKzhH8Iyx+rSNSwTI0Q4LpNRJBT9rKQgsLfezBls6am/fdDQhLIOChgzpKCpgC+2BUbp8OSXE6ck0RqhkRQNVYLXCK2J6iHBVOtIoOUKsdrAKRETUphcUQR6WKf8UiVc7DkEgUR6CsipaGSkrhTyKOMmHFCoR4PJoOqIxiou4+YSfQAtLVAomfdppyUvXSArKZRUtDb96gVoy7llpcaEJz62zopmyjpIpY9k0yn+GY7yhyqw7qCj4QEv1icuAaj3E1OXSkluIaMHpf9Wtg5qnIkYUQYm7w+pT0UUPx3XDiL8xct1zxUQlWj4oqONgE/a8tPkGhpU2BRXBF1CGCBUceMTiGASbuFOOegqmRqosh3ZSarMdSpkJNkicoAhr1wV1IihtpKdLDGXKEKlQ9/6EOuiPipESJS0mBuOenvvhoVkcFJCWcwVEaWAl6yoC7cm8xTkNX78//9l/aGq64U/mvss5/+jP1QpjXcS06cVALZTs8Q6v0gsF/VJTXVckKZL8GNLOWojB5Xd/Kpp5IRQwpZ8F0J5RI49ad33G2Vkxvtrmdn2MLFZ1hbo0SjEFMzXj8xJ0RvjXI0kim+LMIqm1Y9bn3PjLVL5ppt2t2opqEFdr5qzeplNYDI4S7m2pNJ2TNPPWJLJqtyhkwj9azLZMH0S0hu3Lnd+s/W77L/UqpuaVix2lIKYY6WXgkABXEUOQ8nagAi35MfIDsZWgFCkXgy+0eKle+5l4IMmm8oriC/f4lMbdILtEBQ+T558lRb9exvVDXTrTx+jdLWHZL1fSq5lXkpkqtM96kGoEbfZWxcQ4fLfCym4YLHASnVsoy2bOuyj39hk/3L9z5rnWPO93c3NNRERiT4jWyLfNTYpYe++OVn32mHfvWKXSJ1+ehzHfa5r+61R99+qzVOUA6pFPXGY3zrz1bbNekDqvvSGxAdn/vCF9SRNdqu/9AHbM2V51klXVZS6meIRmZXVKs4YawXHJAUA8h33nHHgJ6Kwvd2y56kXJW6YACKWAJJFDXPVvbxl/fc45UroSzVU8eywvj+uyrzfEn+0B/K11gkM5ykEOlo6sIee/xJy/UesVNOXmKTZy231m3f1zwa7PTzrlfV5iO2c9t6u+D8i+yI5HzvwYf936ykQqmIfkRwgF0Q72+VKFGbw95NXh7l5qzEN5U5lK5SB3bFFVd47Vq4sr0SVbkoYag3q4Cw1arSHSKSo/08pXCTzh7xZzOIkMUybanlelmAXKDS/HVbd1ptc7v1Tpug2E7GzpPJuUkVkxTUjVcxwURZUiAytEoUvozPG0c32vjxE9QRpf4MmdXUUrGwC2XlXXvttbZWNU6UGSUvqBLgUzNFDRlIbdAz1GI9+eSTNlvm88YN661K5Lpt+z5r7dlqYwWw8UpK9fYTJCS9WmMbN71iB5u77cTpFKePzNwGeaHLAGKg1pnyKIiRdC6cPF+EQ2UPNW1U3FNrlqwnDjXCI00pE0PzumWqKei/oCj7oIqPH3z2Sct88G3WOl9mZrbPjjz2onMEk6Hqj+zeSlVi8FwylZwELgODGOqm5AXZ2rVrPe9N2vXb3/qW/VRlShBBsnuJ5ykDulcF1Uvl62wUpzwpffe4apYReRACyLno4kts6/qHrTbTbEdanrHqiRWqzdpvXQdX2GI5dS8pjjSp8aBNn6DCQYXa4wxtKSId8D3vg2vHK9pwhsJFVK4A4G599pa3vtU5he9Z3z75daEo/Zj8osSbQ62Aiy8o9IEHHhAORGmt7TbqtntkAiqEojwzVPfhx1dYRdxww2Q8+hlXmhejBpDSoYUdECJdIesnlKB69YoQC0L4N1LK0T3Mg89BjBdII9IoMIjbBvZJjzW3HLG25oM2Y0KP918+uRZvuM06WveooDAlxGfUIaWgaW6vGlbTcsqiiO5wV9ApoYIGzmCNIAP9Fi7vo4ythiAlQubWq4CKvOSww0CWlaoze3q6pZvUp+JrGzgWtc6hJTAzV6LlE/LcvfJPs6eILdWtQgRiClD8ler74GWxXVcyfRwmFoR4EXsQimIBLGTRwkVxYVzKC/bGjx3ngbnQZxjMby9TIvqg8dIVlY4ArjPiODdhEV6JtcXvXOfou0pZNaXESPgezkCkzpKYrBY37JU7sFo6BQuwt7dHeuTKqC5NRX1Yh+MknofqrQRO6NK77/iZGozW2VXXXmdPP/mEF2d0C76U226TCJwiEThj5ixbrtIrEmtcGV58x89+lqdW71qSbkmxMgrmlETIarFemSGAhGYg73+MOeAoJUU9ko5D/YQa4wFAcVM2MimpGV4oHXbiksW+OADAXAJCKqoqrb0/ai7iXTVKz1Gn5a10ocA8ifTYdM5TMamGeHKBI/kziNdAYOE7RBMS4BXF+xBRiOyf3323m+bos8Py4Xbt2KkBVCakGFuYSxEG8Y865fqPEZG97vWXe+F5WjCskI6eMzfqmwQZ9M0gmunB98IPkAIrbVT0ljYHvOuNa9dZ7rSTrEsBxbTsyTHrt1qlBDNWFJOnvQETmuK0DukIdAWyNvQcBjauEtDG62VbRA2h0SjZg+gyWkqS9wfxhcm7/sX1KlI7yw6p3rd7x247t2mGIg4V1tHXYyvTLVbX2GDNug9LCAAGgPIvSGZeVPEDUIwFxCEEAuWj03iXdzyLYkNlP1TfoXmEqkmqGCl9XbRwgS2VlTdOgIUYN0vPNYvCF6v3xQmlRMIOjl904mKN1eG1zWfLYAIxdfVRKRP9NLgCR5RRG6t3hD7MDMBBdv6VyvaxfG5645vs+ZPmWXpsk1PC6aedaotHj7W1ypEsUkX8zaqMXCFLiM5W6n4xGVF0WCHnabeFr/793zswaDtj9wWag2gUoq6YZ6hef1YF4QArlJ8GSuN9UM03vvlN27xrh/3jBz5uHxpzsr3Y1+INRdMvPc9OPu9se/De+5yjoF7urxWAZ4hysYIwIGaqRhlqp0+ECv9Nm1+2k2U8cP9umdXMaZaIrl7P9Yg6n5Ph8ryMkUAcmwR8iO2AdBitGZS6gjB+Jk4Ybx0qP6W1bri2cBezeo6a4XKvPFKglqVquEGJ4qwtPOlEe/5wi0144Bk7uGC6VUydbfuV66TI2av7tOCHyI3ohaeSYRTljYknCJKgMC+sFutupWVCFLZOC0YsUsHOPXBOsQtKn6+mH4B0sK3V65BX7thru9M91iSqQ5bf84u77YW1z9s1au0DGbROcFHtv02RbAhsGxlRzfUkcT/r2qLK+91aGxxOKGeyqjxpOwi1zHSbQTRJMeyFedKrK59b6WKFnplzzztfvtJO738ZhyUaV8+XC/Ry73OT+FmFuk+RWbxH+uUhbWGR+fA7bPcpCstLr7x096NWs2u/XXzF5U7hn/70p72lDq6gmvzeX/3K/RzGWUC+xQ2GqFAcsZYRAlBgOF0hPJPsPE5OFCD/Ri0RdEE99/xaa1+9wZZPXWrz0mqrVhrwq7/8pc1btsROVcaSwjkKp0EE735EbXrexCpuO0XEAvduktIGQRAOXISopMJ9iYgQxK/UuoPYLTRgEDEH6NxVj86zgs0J8pled9nrZaI/4WJv/oKF5cJ4xPd5hSSbGtyjom0W1E6H7V0PKCROAqrXDq9XR6vkHzEpRNSLL7zg4RC8a3SCt8rpdyyjIGMdMfp5WICib4QFB3mdpEZ6SXh/EBtdqvLvEiLvVrq4VSKireWQ/Ti7zuiMaunvsf2dzbbvkUddeWMReZxOHAuSg1nL+CDD+2lo/tQ8+H3/nr15DqUjDaSGDuXwbFKcwg2XXnqZO7znSIQhWjFvz1JXGo4znJOsQfYW3oTRUcriK46pOPNIg85X/+EffOK8BKvDra84YNR/g0QNVg2AxtqSaEIEfPbP/sw+8Pu/741CodfDI78F8YxiQckwIadqOa1QHuu57o3X2YmLFjuAnYJl33aosYcFY329RaWkySu58OR7S30e1hKeCfdPkljbJKOHVjqCXMDiNJmqSULCm+cK8j/4NhVKyAcd4165+jD5LkksQ7FMmEdaY/izsDn9IyO57lLIBAsI8fQudWu9mgvLo6OLxp60GwavUwDyv/OCc+tVNRG4IOxmAXBDADY4s8wzOMY1NbUS01GhOJX0cJO3tusnIK5wXXR/QcPs5IQTQaQc3ZYJVkU5gPCor16CXoG6/umf/smtMZpOQ4tyOeMMpHby4NGOQSj6wa3RrzZ4UWxGxeO2eNWsixgfDajMCeoPe6i8INFNaGW5moiw+pJXu5qV2uP9WYh6NMukD+1yQ8Hk5U0vqR2wWxbaPBkohK3aXUWMqBgPy+abMlfXrFnj70GffOUrX7FvfOMbI8VF/v6SEYIUMfPSOxKVPYEcxYPDByndeZUoYX1EsrfpB/MZXQcMsOoKr6AXk9xTSq/45g4K9M4XUYfnXHyVvRjdCDfQanb77bfb7yjPfuWVV9qHlCAbKjA5krEH3ys9lpZI2P5RxeNWRNWEr/YiKt94tnXN+JJC62w+MHSmAyonfUCUGOAijt6tHk8iw6G7ayTTQSxikfYqZ7V9xyvu5zQ0NHpDrG+FkrhGhBQGBin4LFw0ai5RbzzOYkmKH8kKwr3ikHSHtv1reVKCOjEAEi0gKfQeAV/u8dqe+N5EgaZ/ApNkFM4vwXlh9wdCKTilIAi9gLWHNVnuFWCySQ7zurWrbcnSZW5IQMSEXZbIoZ04KS6LPFakBLkf9rYKJuV/CkLCJNPUH8cAz38G10Yx0joVwlGsnhaxKZqhrKP+VXkQ3yml4zmrARfjDXXpIbiCkBO6hFQCAERc4ywTvMV1eK22KSFoWe6FP0cfZePoJnVKN9kCObxT1GaOiX3g0L7i3cEDBi8lw1l9Ot7ZSNsW+iXnbuiFkjsdWaJp2MUqkPr0c6rRfVp3iWOo8108S4XXp5j9w49VgTLD7Pkt0QjvvcpUo1sEMSWg6ZwiZNDzf48ypHQtE0HGyNktBxsntZwr6JTXqgaNbOuzT63wHTzYO+axR36jfv+Z3kFdeA0UXzJLUz27RF3s8lZciKdycsg6dvs4lTkS4ErpdqpEvehF8YUCgpXqE3eRUU62usRyNePd2tiBgrgNKqzZqmr3j79FolRpC/5+aQfWXJSXf3ajkDJV442AJgDkFD2Ec4msf732jvFYnrhmr3ZzupwyrNj/KLZz0VCzh7OwXhGFJ6klfqy2l+ru6vQW7sIMbgIpKNY6q9nxCcsc/rVERoEpGidBYKQJ6tH4oxvMPnjFXWYrH7D60NdXCHNVcWTrF1vnvH+XLG8STqLQ9Ku6BOypqt3eKOA/8YLZ+95oSmapdUFVUU1Khy+dZ/aiIitMZa62ABgRHcTJtvUyfQkNAUBMdHLx/E4sDoWPs1wWQpKOtH5n455wgfhwhZB9+LtA0SvX0a/Cu77mwYuB0LkbWT1Gm7t8Sr9TbKtKl7zeLFSs5Mn62K/kOHBImLFeSUHkPK0J0bVV3PERccqYCZqXkPKM6svJz6FTHlhpdpJKfqIETnmkgH5k4x/CKoTzQQKfsZUW216hYwjjEIT1Tl5RPxHnQr3qPo5+fnzbD+xFJbnOOe8CbUbUpfD9+cobrbR1q1SjIOtupp5lB6bTFb4JVthg68t1SrwQ1qHfqRb8yYNqD5CO/OF9qiRXG8r/eo/Ew2pTS4Ckg77fIol2+ZlRCc6AxhjGO15XDNwHn4qyjPvEHVPENY+uNXun5kQLwy1Xmz28SvkTvfaGC+MXl4mQMM2wo8TDDz3kUWiQ88gjj0gHzLAnn1ihaPMBO0tlvTu375B5XOtR58Iwfoj3efpc76e+YNJkbQyksNEexQoXKJw0VyEqrLCwVUnI7pY2iQVk7c1svxQgaqXPV6kA5YBUCUh4SEg5oO+IEhyQWkFs3Kq6p5FQ5ojwBXCJkWmjhutV0+0NhoE7RTC33hh9f9OV8aiUoI4QITwZUuOYwB3y0iumqilJXIEFNXXaVP8hbT595gz33El5FHIKRgGIuvEdN3tsj0QiOaS9e/fZstPOcD1CfgqjIhRmsMEcV2mkaOHN0vtYNLulTJHfKNo2IYaitH1CygSJEVTQMslzI1UyAsVaCikp1WBFe3ccvdNtPgDOj1awV3P69i8lxq6NTOQh309RHuOVuNAXUDi7MDUfbvZM4Uf+6FYlxHryRRyhgBD3IOxZHPRMCM8Eaxygk94A2bgRpBrQVVROdsiO993CY31WnkcvYD+9PhIXV78mQspMmZlzJdP5fY6U6SGtE5jBRZeccbw4RSOqiq5ngnbla7gsFJEMAmd1Q5V95+777FPfesDedvNH5ew1WV93XKVdeDdD1kjJUJ1XjIXibCFKHgACbNLfURpAW0cZMToGDUoq5TkdLu4Nybsg/nxnvBgRAeiMQyqYXD3fjdZ+YAQkK1SZ49tKUeReimpMTto150biio6mi5VsJDWtoklbIoU7Ww7paiEjIM3Xegwio9g8Urlu6x1/05AI4ZlqzalVjT1S6yoe/KT1TR87/KYTWOnOLUUCnVoEYgUZH0Pf/6mM99SP/I7IwQw6w3d6FSChfPJDXCEikFHqgfvCfsjJNSbjYr5pQhyQ9Z3xSiJFk8KqOUvRfaya806m9F+AkAhbrtTCmcrGwi34DQvkxB0vhETzwhpUv8Gwl+qlLC4X7VPjU5/a+vpKOXfDR56L5WOCL9Gj2BVAfkyNT1Ry4secLaXPlaTFgDhfRZzke37tGv996SmnDhuWGoyUrBZYwP0s4XKJLicuuRqjkdtC0EyagSXvl6BL+K5Ql2ASZ2lPOk6sU4CcALxQaUk2EBESqlZKElwZN1CChQlMySrlt15mRQGFQvfkf9hgLomAYkPuk9PZ0tyiLGaT/eRHP1RRx1a75NLXu0Na7CpI5SkhU3eKCgrECkNFZYfb+78w2uIyXDLOM4bHFzFBmVLWSlks1x0qOkehUmo6kp1SCwGTfJZk3s9UZkv9syNFF/7JRHniFIEMlcBKjolueVF7fJ31mnN8T8sq1bPdc9eddrFy/uiswiuBFMlJcUn39M+VjKKWQWBHb/EjM+iXL/QsRzTKoJuhTkLo90mE/OhHP/Lv3//+99vXtaf8BRdc4HVhx3pRmhRMXFLEpIAPCTlcbh1JqW6QifuCikEoFuGz4XInFKkvWbbU41yt2un1/nt/JcLvt3nzF/hGo4u10V3yGiy+CIUcj3DIsUKkjOfC6Q+ko9/73vfat7/9bXtFiSjSCm9/+9uPOQuKaILyKZ0iqUX7xo//7d98r2WAv1NOH1v8UhSCF8/n5XAKm4v+y7e+6TvisY/l/EUL7bv/+j379T132wc+9JHhkRIZekfFTDI6ESzBULAx4Dv9kSjkKAOsR28ZQQTEH2J2h9u7/YQg2nHY1xgO+eQnP2kf//jHPSwS8jtYTiOdF1SP941VxUbTKyQeSUjRVIUoa5IHjl/BO0iCzVGgkW6E4S6SWS+si0TsEgUj92ir3inq9T6igweoDhpGfEmHy7yCCul0ZUMxnB+2VOJiqwoip+wHz784jvT+uR2u7zhNoqCQpSRyeJZ+fmJE5Tzr9+j+w+3aC1K+xuzx9VYpbrnhhhscQJfLEgplsCCDYjp6Phh/KI3G54W2WChNIqH1Ou2jjC6hPwaRSH8NYjMUf4+mvb3ERYT4X3/0Y7fa2E8SsYdfgiU3qgGraeCVF19M/JVmBeCqMzZpdK36yFUnrKAWhxOwu/ceNRG19fTb4imN1tGt7coFmBnj6rRTa58dONKtXcBr1HzpbfklL4AAYhm/RY0+TfVVVq99LEu0BjrV8+wJkxpsy4E2e3lfmy2YnFaSaKJ97Wv/1+NKUeJNLRFSrvtbu9VMqh1a69nbfiBaGIdtdvk4f/BA7FUT5/oDeeps0UthH949BXycLOEtHAqHAOiwQywLLpXooyhjl5Jdu1VhiXNJ3KswDRwAl0cK3RWTtYs3i2ntVP+IWl754byxHnm043SY2Vjd0y7EUFQwvkGlqfqdCOREIZFFtrsnHeiukAYH0yRlRWMEMC7GHfisLzWeZwBoVLGPx96k/ZzGqcmz0/dq1AEG8k2iozoc5Xg4IqiotaBNhFM4Ft93aq0gxA95S8i54JmH3V2xvthnGZ3FfvboESpeqKCkWI+rVJEEW8Df9v3veZaR0t6TtHn1UiGcyvshOYXDWro725zS3E6CanhZ9MYBfzMBxAJf8jtUH46AShbfuf+baArK/x23KPjfsXcc3uVjx7Isf5xU3F6Rb2eIv+9h7KHG0jiMnxyLdwSKDvPu1lhVKZ2EN0TunRz91TKHMX+JBlN/HNVKd9papYnZan6oK7wLCxE4XHs90VravCvdRF6v8l+ImnGTXOOcwsOwIh2/ySMmfNAY6CF2w2IipMR9KAV/B2sk1AvngR6bjYP+BrBapCNlmLGYZ7Lri79DVWcwSZPdVcXmGdYaKJvlscPp5PgghPB5qH7kb2Jb7FIerpCQIj1M5/K0OFkVqiHDGD7X+CEsNbiPf8nLs68yVSwEM/kJhByqKR0pyNsgrwN2g3PmL4nrfQM7FyIlNBKFmt4kYkJ9rvemaCwmFE4gYhwETqBmB1qCmpNzCQDlsyRBBGLh+9D/kpTvhbK+6N8x50HNlKqSN2Es5l5YHBik3PTpM7wDIeqL6Y3O9aLcVRetdFiF5PJ5nipU1konAs2tYWtcPHxeDfzo7sKRxHr0UdqlcLUlYiSiYooOG+Qj/5KhZTJvSaQwqbB3PNYJz9O0A4UxIe+Pj0s38YS5NwpbR7uFu/yORaUTQAmkRER01JpIIgXKGvB3TKlFkRREcuLd3EfGkYrI0KVVuO25t/lF0twv6n9BIHBi23QuWvEQdxBfVFUazTc6RiqeFGt1yRA+V6uHxiDVrEZUecbsYxGfZ8VdQdH9hYq4Yblb3vc+X+yKJ56wL3/pS46kABg+//RnPuPylQmDNJQZsaF1Mv2wXsht08xDmpXP6e7iQl6jOEeyHwtIpa2C8Dqetm+VXmyTnqNrL/5bMRscpAjhAJh6YArZOSiBNXHyBdRPX2axC0ILVS5YgaiB0GZRVj5fgzKG97zslzlbI3O0sSY6pAb5jjj5ojY7oF/lY3LIAtCoFsTaCFYHAKENwqvmNSh2PVk4RBS1TgTc4BQQwjFPNO3QUUULHDnvYFrinCXl+HDwDBFXmpAwMblo5qQGlx7NECZngcMFCof7jvUSvt+q3pdHZR5TdL1Jm70Nd+jAQA49emRici0YUyDrnp/f6XXDHHgza85cOyXeJCGMkakTQmrgFMAqZJAC5SDIxzSZT6iQm0Nq9srr9NOFtGgo9H3alhCK5eCao9Sh7UQ4F0WTJ0zhsphuKCEOoNN0g2WHZ8ypC362lpCHqPM+yVjJs4hC8zL5twMz7mLm/C/a40A+1Mg7oXKAStt1UmwNZbIO9TnIhbCoIyaWRi4dTsGSYn2MP5LLe3tkcW3Y8KL95LYfKoi6RrVk4+ya696cR0oYLzNKDl+ndjt23SD5ziFmtyvAB9V/5ctfdjkHMD/2J3/i51oRFuDwGMQOgbuwkQ6ABfAcb4ENz6Ku0I56nIfIfShFnoP6eBdWS5CheMiu9DVGJKejMyaH4x7M0h3iSmT+RpWFopxBBm0aHNz2UZ3HwulDheU75QAytM1Rych66MHZq10CSQ3QrjeU+Tzc2P/4lS/bXToREOlDhT4weHmLTvGbP7gjLMPJbYfa5PnWaocgnTkFVeO9wim3iCMQV7AcSODwGSYENT6nBs8gSuAwrA9qjKlIp0gA3YHSYiFk5AgvnKv8AyIM5LOrBMjGRAxyHK4JYiekRgewf+Am/QvgQCbzXaT+mqA/6W85V5vHYcngiaMjfRemhHMYuDFwZ/672FBg7h77EnHtUi9l+B4DgPPFjuV68P777NEVTythqCMZNXeOqLpaTVI3v+e9g4bL4L27V8u2TbISkJuc+oP1QKP/Z//8z/OK9Gm1pbFQdIL3cgjbdO1CjVA1O0Ug5mBzEIbyZ2E0gdJzeJmqC+EmxAK6h2fo4kUkcujLr9TTCLVjABDwu0hKNelUBT3AvyCFd9XpgBgqS0Awn7OfC+92C0/jF56SWspEZoywBxl1Wk8p5kV7Hf2YECdtd/xejnESCIXT/ubqVKRb3jPDG2av0FGNV159jXyVo8V5ScxkjnT1+VlcnLaDBx2ONvqYThb69Cc+YT+RfrlCLQ9MtlayGzsaABBJhcKD30FyiVAEspOdiAB02FwNJKE44bqwc8RC3b9D8hrRRnsBYXAUNwjnOxpIMbHhwECp/BscSP6lWYl3BF+Cz+BKEOFcELHEAH0VLCGPFsT6q1BnwfFwOOPSeo4ImyWiASHPSkKQRCsHKQHQHOB2wYUX6Wiq8+W9TylZXZkh4MjF2R+BqjAFmxSO/ou/+RvrFWBCTyO5aD/LUItnK1vEFntKNglw4Ygjb/BEbOiikC04dPwbzETETZ/u41xH7uEZuO1yId/7OPTD8YOME7x2xgviEhnP75725XO4nO1w480LklSXj0Qw54QZ7M/px6NlSfNYv3OuGMieKr137XXX+f4C66WnMMG5lyr8xZo3qeDhrhCxO/2sswdwfKlW70yl1wyre1cZQtjdXX0tsFLKc7ZCAM0KMfSyva0mg//CRPsFhHqxZFpc0QbwpGNC41CgOu6PHK2jDh2TdDdK/krTU0/ZAYXF2YQzUC+cERxTni1MIIW/w4Zu3JOmLEdc26g4UotMy3wsLMEhwSEOiOXfcHB0CG04cGNHksPQsOoQp7RFIGp/pI1NL7zwQk8DY2BgfZVCSkAY82XzBPZj4QBSLFpihxgp17zp+kF41Y4TzsQOdFgWJQxSatnDis/Ynx5PNKYoB6z+RpRxSipb2nJ6aaC2JFKCIs1TK2/SmJjWnEnVL3HmIZwwdgzIvIiJPfdCkZMPMsZxMxy9WnaJJTgYzzWIL393jARWGp71ecbOYqhQDNAJTp8DHjgIHp+Se8DnbC9CwTc+GztTTFDaoFFJrEJdVQhp9mB57sGVHutiD4J9ssKCCC2892g+RYDCTM0DV7/nJA4mUHFRYLm4nFY+AQRNRFQV846H4msCmXCeADqGxptj8cYLxnbrSv7P+DL7RgqnFnSVk2dsiqMbcXShcowTCANz1rvYdA8mOCY9uXY4q9gYSUSNkqM4XedEoj+xMsdoBySMpeQ1ICAZvsg7cACZZBE7ZMMpxTJX8eEBnA8yCGlDISR8rvHS8V5fZWXFSo3H99KDZeTXhh2J9aPAMS4wQNBryYsQ+4CL/fTjCyMmGBy4DXAZRlG4iERfoxTAcBfv5dnSxXjlAOR/yj0gRZwxVa1vP/z+93Xs+X3xkYNHs5ahhiFKNUQ7GdWo8r1ZlhnOKhdjjJMl+sUvfjHqkcSqldTxAGXiSJFgHQadh6vQpPM1f4uUBEEhorDoNmifyo0bN0QRBddbMrExgOitT0f6Nat9yDLa5a4u3iyIe8+JKyUPqxJ/w0sb7GXtnsSFWGqTMYIersRqLVQH8Rz27d5jN6uo/LdIKeByqBY9gmXkwFcYPsVWjfovx4ZwNOCwXYe+G9XU6Ns4Emj03ZvixJ9vp6LPcRPY36tborVa2cZ67VU2VKwNq7GtJeqy/i1SSohed0SJDAioKbWsZbPUxSnyIYurQpyS3ES7cChHpLiiRxsB1ejw6aEu3tEf7yfG78MjZQg2Oy4qpJjxcFwGPk6DkF/iVBq4gk179KMkiwrx5M8pRliOcePhHirxFb5CzxTjkgghfdauPphsd7ThwvBIGWo7vkKLq9AkHgqZ4T7YHKsueR+f8fdICCHs1ACCeT6OMuctumMZM8apW6ICPhwCMnLaLtETgeIWPutV+rZaW64PSf3iEg/7sHt53BSURIqby/q/R45kBycwhUocjI2igwIYFsxPIUW7ySEAYEVgFrMDP/fESlERzfyxGYMAzH0gWnZ6FnMzINcbXpRkQ3ZzT0BMHOUtNkdOrkjLO+a9HKLDoTqc++JWEbuWMjbPM79jueASAQo9Qk49pR1eFVJ3h5lcUK+2s+0mVR4HZgeJLvI77Eupn9qCY2nhjqzEFa17fXQa03AkuKVlDLhZ7oOxgABcPHqqSwiRxJToR0EBMBap0DsH3Lg3LOfKj3LSDnM52eF+3IfyDX4gGsCFG2Ll5/+SKZS1klZIhANoODAnq1haWmNWynwE0FkF+/wkIrE9Jwc58gsJg9CKdvCrUro6S9+gDopOy8PmgByOk5KT4EiuUKqB8XOYqiNxUiEKiasUhRB+iCM6pMFqYr+DaHpny2Hr0LZYxN2qORSIwpAgCfQvW9JT7Feh+Yf4X7DEuoQMkEWV5CjFz8I9GcEhQgoDsQGbkld+8hvFDwIeQOaMKz/eSdsDphW78aOd5OBUqGEGgCpGbyklxQAQB5P1K2CXUfi+7y1vsawcrRy788AFLFLjpDSRNNsWQjk4pyKECqWJZer487w3q0gCB605YCGKQnHGfAGwUgtEFZh7Rltz+H2itH6ZlJwBU6F8UJUQ3aON4vo0Vz/usNwLdnPRJzOY4g4BvUZzDkodYNaPUfRaIZf2QwetTwjo1X29cUSBZ+CCevdRtFRxFYqclgg2jCbMVCcCDj5L3mnH/eUokMDmGVUB9t14o1Vq2/N+BSERBRU/+Yn1aQNNAohpRUZzhF4w/Tghji1yOUsFwBHmgCs0CSg3p1AEB6gBpBxeMACBE/WTU4SXeFfFnXf6GE7FbIMrjgMQPJcWorNQJc94GWrBRbCSogkFCCsUNGSOnPvCvEF81de+ZmkVeXg4RyKOz/KishzERFWCUXAU57Ag1BTiZvUCbCvlQTq3CZO4m81huOLn3XLTn51e2xWVRtVogzfqC/y2hAQgGAwHwnn545+c8gl9cxodC6FhHxGj4BnfcWxfisSUiqh7/vRPI71Bb6A4p0dJMdclujh3KydWT9HhlAzRgDhOMaKVQEj2I6DYM5hdGKA0tTRwzBQclRMHBu4aFFeDI+A+ecx9ClvkRRziVPVVzJPPODvMxS6bpXF/MALKQQpBTOkUgF8tDqlQzyO+yIALhIloqjmMhzNepHPyotpVAo2M+DRRFL5Kjf0exEV3FnC/R9RJFIqT3CT2ciIUo+RyBY02KhdKUXwsyk0J2CggRdxMhbSWQhkBuBAqiEUfYixvOYXPED9B+YfVSCS6fiCop8mxt342bt5Ulsuzn56tC3qoGJeEsaBeEI0IDZ+h8wiUsiVFfPl3fB4stSGQMqjPBCeOvVQU3R2EkPzgdCiAMBGoAA1AB1zx35Xq3KqDUJlvUetSOghujnsDMntjseETZxBONZWJJnfUjMMxkZOIHwDKJUU+IrN1CCA4FcIpToFRIJDUsu/KWg41H8d7CKETvqc+LVzMj7hVKOIo+jocQx0TFYVivLt/0AUiqlUxORRC+By/B8PAuU1X5h060TQoGt/KAkoGUEAGatbfyRrdcmDhZmmJG0mKkcn84Ac/YE0q39ygWNPHbv2o5+a9PDbx7pD4ClbMUas5KjSP8ZqXdIEYoTE3iJjMMJgm00qxCIfpkO8P78toK/SiDl/sYyC2EDsV9I33S5QP4WMVunGFoPFiEfRpzFmZzarTCpdvXQH10hogoPRpJ+8QBwpHZpSDFDiuD2tLs/GkEjK6YGbt4goKH9iUbNLESTovZaOX76Aww5brUCoxqHDCkRdHCAOcIqe6d42b0Y6vktVV9KXIhNb2A+iCdI44lI5+7apSDQFHMXP2SeSFB/zwLwk95tUpKqXAI7l3MokziLQQKaFeulNHoeKtpyrjnfKGcXpR4BU6sbsQac4l1Cuz8RB+UTxGhqgopyG8SYrxA+94p21908XWt2iuVa5ab/Oe32o3X3G1zZw7xx7Rztp364QEruHKMDnio13bC81s0I7ZBw6pWC/aEBpuS24q0yuAg/BQUxzSx5cpRUyklMPbrpZVxS50ZERflG9DenbDC2u0g5FOu5t4ocISu1UNs8W6c+Pt3AtOs1Urn1bDU4uNm3mVdbRssc0vb7H9Ldo1orHKGsdO80MAmAPUDcLZQor6ZrgjqvON2QlfoWDr9/AdDmOX/BPh2v2LJC4GeeyCFaKJ+zOVY4uKQnZbDcUggeAzZNfYB5Lp3CD/4vN9Ojtrj6wj5e6XyAk8SZ2ra15Y58ChoIA2s1IbW3YL+3Q61VCZrn85yYhGUQonhkJoryZPvdX71L9IHvztOgKXTB+5crZ9jw5c65KV2yrA1qlbt9vqdfI1wb4rVGW4e9d2UbyKo8fqbN9X9ttZpy70Hej6DwmB2n5p+fLT7OChA44QqmtI57q4KBKDc7OUg1gChwvycH63gEsxR5W416sypeSh8i6Zwl7DEPe4sK18vfZKbBjVIDP5iHW1NlvHYW0OOla+mL6D2ykM79Xc8foLpUgGALOFEgDfqGMyapZMsyPz5T/Mm2Ev/+A++/pL/2g9whhF2XTLDtUSlhRrUCPFAYf2H7Q1cY97qSJnf0aL+8LnP28XXXSRd+XSlkBhNeTIPBEDs2ejjPf69k6pUR0SbzXas/4ZVWBOU6ZPvpLEWp8QvH37Ky4aohxJp+8nvEsnTeQr5CU+qUXbR6im8JI375YhVTKEUzgxVuKvWttINSoJhSns1hbiGV9ETia+B8jyC2QSktFPne5HFLYfPmQ5zblWvk2FYmc9mlOnkIz/Mggpq1THxOSo33pMRdfp0ee7TW0H1Q6go5YqJe/dGyXeE6dwhysnTYkKarSA1QImJxYhu5NlRuHZsLt1vtBCN9JKwAkS9KlT94W5znspfpsoj5+e9o6OnO072KU+xm0cGabjyAWD/U/Z1rYKWUIp29uvKpGaF2zPdtU2t3DEhnxfHYy5bfv9Tv0hlx56ZIAhJVShMtPDR73aw79ZW4qAFPkOBBRHxceNuFGU4C5X9FT/4Mv4kU7xFTufcGK1OMZ7UNqU0z902JHUrzyNR50LzWg9nqFtgYt63Clz5DCyh9TazXnra7PiXCCDTZMBbuHO1UUVP4JWcny4ggoATh47HHjDBgDsK4+OC5aZjx1TJMhlYb6b0KTl0gOR5Jk8Sns96ogn7pvYEJ2ELbfAv5vVGFEz0xmyP1jfgxR2UnUdh28lpy/a9U6JKR02Ux0HOB0ZkS8YJb30N0ip4ZCaYs5pfC/LqAExXrWpujYd4Ob5GZR7ETs1Q8sxCw6K2KO0sUmcda80AoxXQsZmGx9h2wfLahBiHArDextwAyIpav+Otv3zw3HiQj4omdONjubEyfxFTadRbVfkiCUPL+Nef2vC6itKNAUfoieoUnFvOzwvgNXJVEfhu2OZNNvi53skCRBR5ErYaCHP9bGT6D4Y9CK7EILOaC97dAgHKwy30WlmC0eaB1YD0F73Jf+EOI06bzFRAQIN/NjzoVoSqgr1uwMQAEIwiSmyi2VutM6BtIpJPFWAcEtI76SN4t+0M7g37ODZ6/5acUXwkb2SkXNZhJjQJMR9zIM5cSgZwAkVlfm5OU0N7NMsRBTr4nSMD/7BH7jorJCZi6nbSSxLImeoK8TA2rQZDvVcXR145USPqmVxCW594ejcaAT3f8jPRH8NOW6Gwa5XiOW6N73J/vDdt9iOqy+w3oWzrfa59TbmxVfs7BmzbdGSk/zkCPZ6hyLwbeho+rWiw7QIsJBwuUk8brTNGNVoXTKJ27XgvHOakJ/hRO3g6UY+gdmlMonf9e532Uc+equ9IzPLljYoxiWx9UDqkL3xS5+2l9as8wYkdA4ltBQr8D0tHPg97PeItcehawFoEIefQ6y1Bq5MmudQMXorGXp3sJWTHY19H39XbB8f5eJSLnRxvGROlifLKQcUZL/5rW+xL7fusLE/f8Q6p0+0ZmlSitJoiyMEwsQB2m0q4cTZQvYXqwyk757Nkaunz7RJMj8BECbocFvH9knWjpYZeaMi1cu08/Pv3vQOG33bYwavbOhSWWpTrW3VlkyY7xxog9gDIehEWgs4zolCN8xoHE4AHfwjap2XKWRErww6EfM89CSWI97+q+/JUK0H5THRbZu3WPVcBRx1BGy/HK1RY8e4cqLfmwJnb4tTSJzq852aKSKjGFKQzVBsszjlBT1X6DgWW2Qwmb/33e/aS6pT/sWdd9k11ePtuc4Ddn7DNLuze5f9v+98x2aNn+QEQaEbm6AFcQYn8Defh8bZ8B6omLor9BXzKnTW/quBXup9GYAMsJnwg/fda9lLz7HD89VDqJ68GTX12mJ2ko3ViW34KIiIIxIBVPKhZzClKXZO+i6YxGkdnf70Y48fNYlj5ZwM7mFlJduhU7LXD6t4YK2SYDicz61ZZa+ZeYYtqNZeJq17RQTNNnHODNc3lO6wX8rzonxEJ8qdNaCXMEawJNncxvdY0Xd7JGLxU5gz/hiiMxlCSc4FhCX3EigFwPA9zwR9G7YrdKOkVOAr8QLGQCdm6PFg4kx20SnLZNRLuR3UVulkzwTgVbuVW4kHDsHJtnh/EoARnk9Onq2XcvJe/RpiUtThogM8/kO6VQehLdS5injwTytqcMapp9kKnXXydOqwW2BuV23bbntia22HxKGfOKe/WQhii4t1cA2a1zAWIcBkLlyIPp71Q0jLxYjuw1mmhZDLe2yU7HOOHcEYGFOUv2Z+Tio1ebluihVUbNqFrwNyEAfB9BzBOwfd6vEu6ZIuhSoW6jS4O9Sv6G9P+CaDkO14HpiXCH8n/z2WefE8vS/3K8JxrBdcd5V6Pd+gn2O5gOt/APSzlSnnOa09AAAAAElFTkSuQmCC&quot; alt=&quot;手机屏幕的截图&lt;br/&gt;&lt;br/&gt;AI 生成的内容可能不正确。&quot;&gt;&lt;/span&gt;&lt;/span&gt;&lt;span style=&quot;mso-bookmark:OLE_LINK22&quot;&gt;&lt;span lang=&quot;EN-US&quot; style=&quot;font-size:12.0pt;&lt;br/&gt;  mso-bidi-font-size:11.0pt;font-family:&amp;quot;Times New Roman&amp;quot;,serif;mso-fareast-font-family:&lt;br/&gt;  仿宋&quot;&gt;&lt;/span&gt;&lt;/span&gt;&lt;/p&gt;&lt;br&gt;  &lt;/td&gt;    &lt;td width=&quot;213&quot; style=&quot;width:159.9pt;padding:0cm 5.4pt 0cm 5.4pt&quot;&gt;&lt;br&gt;  &lt;p class=&quot;MsoNormal&quot; align=&quot;center&quot; style=&quot;text-align:center&quot;&gt;&lt;span style=&quot;mso-bookmark:OLE_LINK22&quot;&gt;&lt;span lang=&quot;EN-US&quot; style=&quot;font-size:12.0pt;&lt;br/&gt;  mso-bidi-font-size:11.0pt;font-family:&amp;quot;Times New Roman&amp;quot;,serif;mso-fareast-font-family:&lt;br/&gt;  仿宋;mso-ligatures:standardcontextual;mso-no-proof:yes&quot;&gt;&lt;img width=&quot;146&quot; height=&quot;86&quot; src=&quot;data:image/png;base64,iVBORw0KGgoAAAANSUhEUgAAALcAAABsCAYAAAAolyNzAAAAAXNSR0IArs4c6QAAAAlwSFlzAAASdAAAEnQB3mYfeAAAABl0RVh0U29mdHdhcmUATWljcm9zb2Z0IE9mZmljZX/tNXEAAEbuSURBVHhe7Z33c1zXledPBzRyJkCCAAEwB5EUKYmSaEWPZHk89tiendmtnd2t2v3H9qet2qqNk8drW5asHEkxiGLOJEgQOQONDvv5nvdeswkiNABSFGg8GSaJfv3Cvd977onfkzx+9aO8rR/rI/AUjkDyKXyn9VdaHwEfgXVwrwPhqR2BdXA/tVO7/mLr4F7HwFM7AuvgXvXUxsz4X3AU/33OhWW26zw334ts+Py6Pb/qKVjgAuvgXu7IxoTQIhDnAGc2a/lcziyX9Z98Xn/nR3/G4iHu4xbTdxP8O5a0WCJhFtff9ROiXkCfC/7lPt/6+YURWAd3KWCIACiwCsjpGbP0NH9O+582mzbLzALoTABq/ZSV8VNuNjkaLoa45YVhATqetHyCoS9LBeekKixWXsmf5YCe38cBvlDuYF+X7KVM0XznrIN7oZGTNBWoBWgAnJueMJsYM9OfAnQGIOeR1A8c+g4/+k4c0AqwEyP3gapzs/oei8FFtMDL+fEYYGcxJMstX8F3qmotVlljMf1dQHeQc831Y1kjUBK4tZ3qJyeJtMChz/MLSJk40kqfLfR5qdeMnmO+a5XyjCWNjAAtsM3OWn580GxsCOkLqGeR1np/169DELuEne8IVRc/NVLIi/4s6OjhdzVuAn0G0E8h6Yf7LJ8sA+jVZrWNFqttCCS7Dp+DxyfNlxxH18gWnuvgle/jRXO/GG4Wm5PFMFXKXJYE7jh64szUjCWTSUuWJXjYPLsrgHXJo//lmZssmIiz4wZA9sWQzfl5GW3l/L28stx/58Itmh8XXHF2+6x/R98NBiSLcMxxz0RhYek5Jicm2fFT7Og8uu/awfnpmbT/PcH5Kzr8fThmZiw/OgDA+gMp7XpzKMWlJz+OI1oAsej6PInUnDEW1/iQ5QcqLC+QN2wwk0TXApSu/4hBnuD9NA8zjGVFBSpS0Xzcn5eczbLwy1C7IoHn52lcwrmY0RjyC82drqfrau4Ecgc+/2WZX837/eM+INw24X/pmVlMlDhzqu+CKYSO5EIGrJVyLA5ut38S9t5v/shOPGsvvvY8aqFeGgxMpxn/WausquIFcnb+2/O258BuN6ySvLheqq6h1q5dvm5ff37ctu3sdlBu3tLmzyVAplJlNjo8ZsNDw3y+1aampq2ysoJrz1h/3wC/H7H9z+6z8bFxrlVnX336tU2MT9me/butsaneB0tg1oK58N1F6+vtt3f+8m2/d8m7BAPswzo1afkRAD3Sp5e7D2j04+//CFQV/i+4tXT8/h7LD/FsgNwaW8yq65hsgfzRqCsC4NDgsB377LhVVVfa/sP7HYgSZhIolVWVduv6bYYJW4MF3729ywFcXp7y8dZ8CqwSdOfPXLDeu/fstbdesd/83e/sR28etWqumWS+hRkBta6+1kbGRvleAPZcuLNrQQwODPucjzD/ew/u4bo8B4J1GlwIe7V1tSVNyaIzp5smWHH99wZsoG8Q2ydpN6/32Ma2Fn/Rrbxg75171t652e7cvsvfe62qpgr7KuOfv/GTV13CXj53hWmK2SCD17qpxR+ybfMm67nZY5OTU36P82cu+sBV1VTaQP8Qg1HlL9Jzo4cFsdk2bW61Lz89bj//9U/t1o1b9tkHn/uAtrVvsovnLlpFZaUP9H233BLvH0rjPEDOD98zE3DSUwGoZdT9kA6BWECXjs+z5iXR65rNmlotBsj9WCXIU+VlduLrU4z9APP2K/vXv/99QUL39fZZNfM6NjpuNbXVzE21XTp72eeuqaUJwZd2ydy+pd3Onj7rkroSMAvod3t67cRXJ+361ZvWva3TxkfHbASB1rVti42OjLmA0k7R0rrBF5UwMTExBYBrXED1g7vJ8QkEYYr7j3HPafurf/8L28S8z6bZ3RY5lpxF3XgvEvnj9z6zc6fP8wDVVs6WJTXg6Bsv2X//r/8jUFfQEfUCW5HQelltXQK6HqqTl7pzu9c2tDbzYiO8WKev9svnr9rGzS3+UloMW7Z2uCTvv9tnLQf2+GIZBOjdO7qthpXezEB++tEX2HUTVlnBVs2LjfLCvQxgU3OjL4KSdmqBBWmfG+k1G7iD1Eb9kKD8oYF67sRpG5crUSJzqBebYNjyDS0Wa95kMTwu7opc4aHdr2lDo925dcfOaxdE8mqeJ7UxAEAJt/rGer/6GGDLzWZc2g72DbGbTqAqZJDwU4DzDgugxnfafDaPwClHaE0hsTNcY8DBPD095ViR8NQ9NZ85PE3arW+Cgw3McwXzO9g/6BI8j6RPgDF9V4tDi8LneoljUXC7Ts1R31Bvv/jrn/mqHRke9YffsWurVVRV2K//9pcuMbft6rYk4BiTCgEQx3lggVkv/MLR53iJBv97mtXWgEoxiz7VvmWT1XLuLC+u1S6V5sRXSI++fiRxuf3y3/7cZhk0DXwt93znF2/ZPXaKDRs3+PclLfT5LAtNi6u8IuWDvPCh7Z6tc4oBu3eLlYEE1DsKMCWL/KWG9Hv4PNpdskiuvtsOcmvZYrH6puB9VuA+TKfT9szBvdYAKLPYOr/4m58xVxmrQh2ZGB93Pb8MtWJyfBLVFGNXRiXzpb9LjZRqKjXppVeedyBq/nT+O798y1VbzYvmWMMsoFeDpQmu1dConSfQpQXag8/tt5qaat/dJblrkOD6vSS57iNpLVzN8rxLHYtLbsZJepckrRsP6FrNXFhHPL7Rb9a6scV/r1WtczbzglleZOPmjf4SWv0tfEd6lrUG13OjEl1L6ozmQnMlKaDPBPbDLz7LYmjyAXDPCN/V4LQC6k1trQhdvl8I9/E3eTc4R7rggsaGGz38DKKC3LsRuPPk7XjAqFlquJb5uas+xdbzMr+/1OkuyTkJwzd/8wKLFgm+ocNiZUzrMtUUrQepeVt3bA0cBT7HwS4Ri7f6epHklP4b2DOB0ad/u5FY8IjlCufm2J2379pWmG/NkQ6f79BAFBaiqZQU1yISnnx+NXScJ1U2MkZ1P81xKR6YJdUSPYxfKHQBaeVI95KeXFevVReAUm8kqTwzPY1+hr4kT4lvodIAFK0LZip6Qb24PCzTGJHyptRhJAjAtRihG9C/tDD0E1jpMb+WrPA4gHQpHwtciz44Sx0ydHC1ubSWGuLSuqRXX+rKi36e98AO46N7rUJlWPIh3BfOOEiKyzBu68ZPjs2yAo+KvBjBRMmtz6IJwSiwSX3MuhCRRApOGx4Z59Xk2cLbxTw1NDa4pyvJAtPvpghipRBwwkcZv4s2Famlc495frXkqy92wpIzrBeR3hNZxPKW3LhywxX7Zq00QJcEbFq5M+hWw0Oj1t692bKzWcAeqAtprH1JcFnTArAWy9TUlDU2NrrOPD425qqPwK6trAw9XaB1txTgb+Q+wxijGixtWSnUD21b5Zzn3hcNdORJmvu2kijoePk71wLX2uOW1uH9Bejs0F3LnP/Syna8YPFKLHxFMFegMpQ0wy7FGQhch3YD7woAtzrUFIG+xHtKOEnYaDClK/f23LMrl645KFuQnlJRdEg91dzIPrp3rx8dudkNR6kKrZtaC5/LlSdPWHtnuxuFFXjCNL+ax3bmzYVUic9W0hjMOWlxb4lUCIAoF5uMAq3GzR1t/jut1rOnzyFpkd6h1JZvVO68SYArg1Mvq0FylYRDbiB5Q6TLpZHC5fvKQ30t7wZlDdJb1rL0K724BluglZHhelpdNQvrJrp+pT9PU3M9nptWHzBtZQ8dADlPVDHfcyXwWbPQSp3olQzmA9/x6Ca705UTuBj7rGzPjyzR0uHh+8cXbQw9PXh98jcvWn5Tl8WbN4aSeKHVH3wsFURjKq+XdOmGpgb3eEzJTsIdmMC4u8RPdXWNbd+zFcPzrht8TQB7EyroFO5Cze8NDEWfY4CtsZY7V9JnBJBLuMlBUdtQY1u62lc9xEtdYHGDMnTKd27d4tdx9YNDbhj5l3c/s9O3ogRSSt6RSD+WCnGXQdLLbOrY5MDUoUWhBRItjmqksIxJSeyEBpAB1kvL+xLo0ejQ7AC6tiS/VBr93idDapJ8q2Fw4KEXlVQYG7H87ctBHkhGEcakxSuqAnxLT5Q+L6PscR0EZWKKNA7ctvTx/2fJnUcs2Y3/WL5zRSQf16HdSbvEnauuIsQ3YNv47rYwwDUncgRIsPhcM8Cat6NvvhQE4piDIfzPkrpyv0p6Z2a7PO4hQ76je4unzXR0dbjO7roz13S1MvTw6HdXLl4N/NqKUTyuoFg4rkuqJcGq1sjIIJMlDrhZqdERGR+Bgeen+cNroDQoimRF5/jnhUBUAF7/iht7wbWlsz2wVYXXe+gaoSoyn+7GqFlunDD2rYtBAITQdfb2BcuhlpTtfN5yU/hXJ0dQFeotXrchWDCPbHv0VcdiYrFP8AyS4EqQQppmznxoudF+pPhRFhmhdYXbH8URRTiL38H1fMb37nXLaSFvaGMxF0/A/Dd2I9LXgXTkMlTPwAMjYMrIl1op4dO8AceCD5vsnrx7w6K5LL5yFKoPHjFmjc3o5GHk+nGqJLpbSeAOxuz+qp8XUHPGSgOgY3HX3MMDXIoVvCgeQlXEbl0KPCJuOLpZb9mr31i2F0mOtM6jpsTqWq3i6K8AP0B7KAmqRNSFwaDA6xKOkUAFCPIzk8GvNLF6DlSn3LVTlh4D4HtfRWVox+jDEEPK5n32QwFR4q3d7eBSOlTJJAnd2JM7AvXHgcrfe29wfcJo+MODcxeW4MWA09/vz3UQOndh9cDvg4cVwEs5pL9b2eJ5SqVcp5RzSgJ3KReae87jXpXzPpNyUqYBlFQRAesBj0jgWrLpcZemnp+Rl4G3greLQKXdLEtOCzuB+87ZDbQreCqsJDd/D/Aa7Wrck2BLfvCOpb/+F4vtOmq29VnwWW7JDJHaMI9FLsslD+12ADV794pl+/ACaf20dlqiqc2y/bcsK68QAibR0GrJlk4HeI5/x+vJT1mh5+ZRzGlgf61k0JcckYdOeGzgXv6jrPIbAjZ6ockrAtAecvWFIHNVSPkMnjNSnLhTwv3dI4E7C+Dmhnst138bNaPPVQ2bwWCV3WFIuEg9CM9/6MrK4SbLMHfmj9gF/Taz703L12y01MyYVTjIkbqhX37+pwqk/OzVU5a98HmovyMN716yTE0TBiy+fN2bnSFHuF4LLtV1gFyGa2QbpoKQ/QoBXsIo/WBOeWrA7VJFEkwpqg/5sOVsx7DavMtiNQ0EOSgOqG4ItvBQXVh0RhykbMfsBtmeS0jLy5ZD+jqgXTAHerbUAN8RIodtpAvPd3HuG1Ow4tpJS43es+z+t22087BNoJtXzoxYZWbSkg7yMLGr+BoKlI0NWPbGqQCkWiw6tIsM9vCsod8bV2S8ebPlBm5ZDukd553zPVfNuhgHD9eXECP4wUB1+Q/ydIBbevag8kTuhnrmPAMBkOKNm61s1wuhIRdZpIv5ngPXmgJA2VtnLXPtNJl53CPSZ91nHt5LCyX0gMTad7talFehwqz8xgscbmwCTBZK4vP/bWW4LdM7Xraxqg02lSGJLD1qVYA8yLUr2mUk1b1oAmO5OGtRKbPFKb+zuASlpsljI1WpjumW2tR7y2Lt2136f18qwvKhufpvrH1wC9jSr+/dDCZqbjg9kqqaSIHS48jhn4uNX1iIkAF42UvHMESvuL9IEtwlo4deuY7+raO8yuINGGx4ZuJt2/xXOXI+cmc+Cu63WJifnUSLoOqL/2mx9ISl9//EsmWVNoouPs2/a9MjVp5DKkdGp9xrSOEYgSEvqFhIvdJug4oSQ++OVzUE7673ohgih2oSJ6swyAt/Oo+1DW43qsjdvhvmisxVR8ISLfm4dZ68FXlA5G5Lz4VeIItO0hqpOItnI4vaICM0RglYkCcCEFSVU4UbcR+7gBaWtnj857Fy0g7QxfMTwy61Xbq6dFzCQAx97emtz1u2/Rk/O0m0MceCSKdqbIh7V88MW3VmAhjzDjnSEaoAZ9tOy55H546HHpK5GPWFnLH4xm1etua+b3+HMFRfpVK2qqdWPVnj4GbDHkRNUHbf3IAAk5gFaJmbZ4PtWxUsgDZ9/Hfo3OWW6NiDJ0H++jmSC4Mri4E4e+4zFg36qZAmyeqiOJT4ktAARZIztqHd88FznJtT6FvGrMAaRSJddVkY3DEZlkj96T1v2uye11xNyeP/vnHlNhHCCvcnZ6mWH6toxi2esjqkOPUtrqYoIJRDMufv4PakuPiBRSRgcx2pSMmuZwJAR4eeSWpTP3ZDO8B/nMldT3BTWLvglqE1Q3FBlAg1RyfVRGeuf2uZi18C5kpLdB9Adybf49Y5VwEkweOHfoK2EBpfmgQBG6M0/e0fWTAUL/DvQlafIpz4w2Nt290wzZ792LLffuDqiOdzKCDjhcFhqZi7CxcZXoEPYM9iB0wf+jkSe68bmHEWzSgJS59//KXt3b/L8zYSSoPg/Kly0lHjZVY/M2BlLKA4907tf93S8pP3shC1u0Q7koDdtstS+16zuIJIc7OSQvXEix7qGlfu53+C4F3q1msY3MwHuqPJYJortcNARtm2w6gKVZbDCPTqFWmneA1ijZssKc+Jp3SGEk3ARvqmT/2Ba+KfjjwQntFIoGUTEq5tB8W6pO/eUSCILR71w6kbpE9HP1GiUsRZMl/2oXYA3InpzoM2efiXlq9vtQQGZKATxz35X8n6p4+fIZd53F4kR1oJaAJouqzKhgB7w1S/pbhGHPUodfinNot6krv5HerUlHuD4juOEI09ArAB/Hyhfi0+ZUriziS3OByLp0v/XpvgDjP9vIh3oR1fUrC2yVJ7X3FvRyHUDUhiMgJDfdQRz78z964B7PcspiCPJGBkeCJ9E7tftNjmna5L5+QxwRXogJFkj7hMFKLWdZ2HpNIXlQdycNn5EakmSoPlGRK7n7eqXS/jklNt4Jhl+W6Uc6H0hrd+9qZ9Q3nW0MCQvfsv79tLrx7x8LdSUjPJShtGTWmcJtKZJQ2Y+5UfeNOyrd2WRU1JNJJxR0DngXecT8xp4cmjI7WuEeNypVHapUToE/p8bYIbAZMfATRSS7yKZoHDDcagqj7QSTncZVeULAXQMqg2s6feB9hIbAesbsBPNUZj5z6LNeEr7iUAch1gqzJeUlSHVBH5zNHBpb/H2RFk6DnJTkWNZe9dt9ljv9FNw/uip5PLktx91JKoNwq7pybvWRULaCJZY9MpvB+hWlNFDemP3njZLp2/7Jl1X316zJ57+bAXx6qINgOgR6zJGqYHLOmeFBLP2F0SXLcA6lLyZfRolKw5hUQUvn9CYHzUt1174JauLW+FQFYc2l5sZCKwzj0HaZlDcs1Kd5aKIakb+qtjHbvQrXe6VPe0Vem0WiySziplA7zxjd0AajuSkkJdwOaqSaSWaAFE0lr6rpKX2tGBkdbaUTy/xdUnksuQmPXpYSvPTtlEqgHVg2uFVBe7n9nludIj5LOrgHcP/95C5p1ydtKpahvjmRpmBpVnt7IMRyWNTZI6QJKXl6mVsiAeNQof0/XWILiZDNUMStcOM9hWNDbyj6NazH73MZLrDuAE2CHXn0q1EkhsfZ67/I3l+3A1FhKb8FPgaUluPUieBqB2gxTwusFWlMaaC5OYRLWGQZfY+aKV8R2lwM7NBvRcEq5fiYpRNtNvo7kGmy5HD5bDg5B+C+V1uwC1Kv7vkG0ptUUFIvJRTyHtU3xPbsLFvDILjlEUURWtBeQ/T1NgZ42BOwjE5EfxTrghuIrHZ1JnrxyzXM/FENggSXkXqkHEdZZTDviFr73QwNUQ6cqoHMndL2OMkseurEfp3Yvlg+szEpWUAZhEygeLYOE8bmXuKeQuSTxGUtdERSOCNMg7V73prr07XUURR8te2AE8PsX/jVU0oN6wMPhuSUlXc5GuC6mog4qlWBUZkk9JYGcV6FiRvFzdl1TAIBoG5UmvRmpL1ei/aZlLXwe5ICo4bqIypBwvA8lGAnP224/JU0GaAWIlSsXRu1MH3nC92oGun7lHQf1hobA44tUYtM/9zBJSQ6Lc7cXyTVw7F7kNpDX4swXUSYDr1AbYFgefP2B/+M37dubkd9YFZ0w9UlyVLbk4nB6pete/o4KSZQ20xlKBLlQ0B/dTcqwtcGv7HkUlkURcaYGvwIzhOIWemWnba+U3iUBKpYB0Mr5hC0lGdyx/hd/Jdx1K7DiGWurgj4M6SOn7cw93Fyo0j6ogvV1+ZVUJiVNEUdGIhoDEJvGlBNTFCwd2BGqBVHp4jnOnU3WFBP8Xjj7vhdI98IuI5kJVUloMM7gIZ2bhc8my4ywW6l8MuAiNfNPGp8YtuHbAHfll5bpaQvotNn8C2wwV4pPtRPd2/xjwQT9x46RHI71QQtdXvoa8JgqEELpOHfyz+StnpBppC1cIm2xDikADwkq59dzvrSeRd4bz0L09HC97QT8yShcBuTzOAngdYXcFbjIYmXo+UWmcOn7azpw660REotCohD8mk0/YVFkNRimUYyuRvBpTRVeVYFWp4o217/NeU+D2zDYZkiuUTEp8EjXBeGOn5aqa3bibev7XFicQU9aPq490VgdcBGz8xR7hU0nYXN1a0l56t8q34O5zgzTKPXkgpI8UhshRfN0xcjnyIrOUd0IZjPL4zJfsFYJTEryMBVRLCuwwqofchPKStGzaYLXX2EVkdThdQqBpp/F/pzmvIo+Ksexcda4gvzzj63koT8GxdsCt6cPgcZAtSB28+IwIBDK+ZsobPI1UeqYRcZx+AYB//N8sMTkc+JmVYASgk/tesbgk8kPADlyBtnkrn+PX1hGpJgs9QigJXSeuqcc4BegDXEPZjJ5CG4bt53xfyVPlqBoVs+OE3wPyz41tG6k1rXeS0SlYm0SIxLJFhUnYTLLCypVLs2zxrYQqngO6Zi3AZX/9B7gY1hC4AaOMyRXullJHxspqbQpwK4kuupASl7KtMMwe/oVVfvG/LK6Ef0nEbc9ZWfMWT2J64JC3QwlTnYTvpY4st4rdjc4gsBRrpVJGer2oJ7xCaP6AlIBWiT49XVZtOfGhUIHevaPTqc3uQVLZiHoSUEAH0jvLQoBjYAWeEwkQdsboWda4arI2wK1ZkwvQU0iXfwjYU4lKGwfYwfHgCokB4EzXIZtB16449g8enCnr3I+XQh6RonMlYaVTd5Bnoq4HywV28aN7eF8FFK1sFCqPux7oufPYEzIQU0QhU5SgTcdRR1gD9fX1lkaPl1EpLhlRDLt6r1QCdPQk0n7ZtonuLYNZz4PnaK3r3WsD3CoTkAEmKbrM/VKRuxkmfLQSd5x4ROaTRtJZWQBpUk7j4wMwlDaRrxGknhaOMJpoLe2B1+RRcH/5swBw9PacjDnRKIesAXOXsF5b9ZXT5HfLjlUVukLxYl8dwvctDhhJ7xzvOEs4v2KBVPVFRYOilQK2bBuBe40fawPcmlkNukvK0tEtAzLDZI+Wk3CEoaVE/wWPUO+dOfxz5nbAqpQWW2y4aqtW/oWqx+djt1opEMLqmBjEOc7W6ryM870jxiXSO6ExYOFNw/DkFL9kEHowR8AUoPlHJoHxuSKuoVDvls6+jHFe6as/7u+tDXBrFCS5F5z4h4fJPSP8eiTVaLPooYsCO/y6OETyJEKNxjZYYuKepUBIAeBCUH0zKdpk9ElLEqWcgj8hEKNWKRH9QfHvxc6lQIyTG3G+dObo/ELPGJo85RXsURLTfD58vprg+RKoSlkjMQv9XNx7oq0bRHor30SHloVch/KWlC4GisZPm8mjIgt63Ohd4vprCNyIomVITCfwJAlphm18nvrxBYdFABc4RiqaSCntCwwzTTiBmTheDtEz37xx28nV5Wd2xiWnBguMwaigPOono9YoPfDqyWWnvkIq9RUdmchpJpC+yteOCEXdV64c9XkOOfu0QJOAe5ZnFCHooRcO2j//n//nhO8HnzsQfovnUXIZi8hL0lYCcfcOrdByf8KALr792gG3M6Qu7FEofinpz+MENBS6Xon00ndmU1U2mm+k6mUQ70oQwSyDFvj82UuoAwOQfU7bVRhQJ8YggETXbWiqc9JIcZkrJH6PzgRaFPVQMp87c4m8kG2wpvZ5bojOEbil9Vy+cI2+P3tt575d3qYvH+WshCqR3iU69HeB221R/k9NAPRd8VqLEzA6tNt4EMi/G40Ae1lJwS9ZpSskK/oBAVuPsobAHU3y4nCVwTiZqLAxfNlRHnUU7Vtq7AMPof7fA+Dueksgxeqmh7xAWOAop5OAqOJURKCeMGMjo970qvdOn9Myq0XKbSSp+gjV1dc49bLUEVXWqPWJmGsVOtdttnRtdj7FMcrK/PAGq/xIBZMKDUgz9LMMe4U5WGUwagTEspuio8WLr74Q6Nkh2WggcCkspnI+lyfAUwA33H8sjFIWu4iLgnvq7LUrwdcOuN0/vBQ8OYWJRsN1iSuguy0KIMYBex7gRECRHhxVvjgbqYCbHrdKfgoGnXzR4WdSMwJe6c0uMQVYsZS6Ps19AibUoJOEiPR146j/pgj7qwiRi27Z08VFzq4Ke8C6Y7cKdINuFIFlGLyjU4Ny7mgFqhAL674Ed2rJwkDM7STh39OCqWwOzwrOVvV8SrktS0pvGZUa6wjcS4/5D/WMtQFuF6YacOVyLC17ynMBgXoEktlYGWqK/MOAm8kVJfIAnobLVLlsoquamlRlIHJUcW5lliDGXAIcXU2EleFiaYS72sPeGImDSHABUkTsbdA1K89aAJcnQ2mxOledJXRuRVWgOXuaTGiMFhaYv6MSsAKo6MwkeS81gHI0gS+cZ4+Hu0opYFJljg4xvKZYsFW+aEv5ZpGwXtuCew2pJeqlDvG5fNVLHQ8KeAVGEr6Fp31hBG1Ovj3+rXcFUF1i1MpEhmS07T+ABA/9Bdwn6vpwC4Py9IkzTrfczzUkudVmUB229tH57eSxb72bRAojVM8iOufJSejRpE+7cEblCZsXdZHVt3MPpWFK5xXZvlyekXRFoldRnZObGnQ/vXaXUvGp95RykYR1qn56kImWh0ZG7xLbnxc2h1K7hJ1yqbl4kp+vDcmtCVEqaYWkb+nTG0hAyWGkF0DLpAly0KlL+q/ajUh6NzY1uqdD7jlJRwcEYFVL9sIh4071mvzkIFtXj0x1DlBnN7U70U6gbmv6ihqSymisx5uiTmsuxQeHApVFbevQy3WoI5fUIaf09YNvqzhZxlxxNT/3rs6QnpumkxgAV91lKYdbDRjCygtPAdYcu1dwLAVutYAJFuF6hLKUkV7tOS45UTWcCzDwFS/n8OhjxQbLwvvhkXxApeagAt7Vi9cKZPpZJlUEOMm5ERDXI1TJTvop/mh1XPvZL3/iXhLtAtKXJb2TVLKPj07AN7KbrmBd7sEQlLx7mxaZSPEVRURF8fbeDumAk8RB7a0DHzwcpOjQtRN9Njs5YbPku0h9WvzQS2atNjZjFXUkWy1D3rtqtJ4VuBx4PYJzCxx9QsQywQ3EFN2TJu6eBiZQKsUmsutG8XYM0a/FJS0Yk5dBvHzzKqjUGaqpKSLY+5EX+szjy46Ohsak+7+DY/6NMVhggXrkrVZEVaFyNnGgzJM8lZfx2XfeKq6cstwr/8lyADy2IMGmEg5IPCRNVhJf313WEfEf6iHXE6eWNXQrP9mryYtIdJZ1JYWucYOFRDnSsaX/qq/4h7//yAZ6B5zZaZZE/xmimdVk1T20fAQ6UZBBjBnb1B0E8hcIKnnzqRL0VY9mCtjS52mzF/jx54BRhcxk6s3ePGeJgetW+fXf2+Tr/znoBjFP/abMiooZ2ljPjgWaxXzlcIuNnVfqB3vKWj+Wuayf4OvKGFPOsycsLXPgkUICdwJXWFY8I8KUug+jK1cr+YigjLqoNQvgVLzMzFbAjw397wNFEaE6BDdhjlzvgCE1LC+bOywlANu/omCLPCn0rZmXMF/nqEABvkM1jTIq4pN3L1j5sX+06Zf/XVB5XxS8kWekDIleJzeoBO9yx8nvxxcjtq0nON2P4tZrA9wCiyS3AK4Cg2ViW5OslhxK+p8gmV9flwGpZq7qM66CW9EleGc0XIITuA3LoTd76DZeTMzionuDgBRXVY3OWkZaQGHSJLGVY0I7D88GnK9YgYqgDHRnmSvfBKqYdg8If8qvfGm5uhaojt/m18ECk14dR5LXEnBKqm5zJdVKYRLX05ARuLBS+CiWzSO9RtCFNy+JooKFlRyAo3J2kjpDeVwCfm2pJ6poUVBGPesFeLVfVsL/ZLLKauACeQgkvntg0NF3J4f3JNZMmZkWXSHwsdjDCaDBksnpPSCBN9GtzVdLGREGfQe/t/LYVXQcSvsYKkn5t+/CsU13sW0vWEzqiQzI6WGryKHirATYfnGkCBmFBXKilYzzD+g7a0Ryux5BbR+94OfxKJQynl6PiGpSLoDjUlQ1jiKFCuIMESI/c+I7Iot1BHS6bGo6bRNENGWEliszcG49YkSg2XuTNFVVjEPO4+1IZFiG8j4yxor0V0UkVemSH8ErMkTfGu8/P08lvBYygE6f/iPnQTNcaAvCouLv8QOvW+zGWas4+a82WQPFMZVE1ZP9+MTnWYylDE50joqdlcftdHGl6lbLucH3e+7aAHc0Jirrck/JykLDMZTtysyYTWe5jgw1d8mVecHtGG265Z4TdZk8JzlUAuWnJKbg4lOf+blKiqSjVoiq5VV3qIVHtwL1XHcwOuEmQRxJVYFYRiPn2TjnRyml8zUZ5XsqXBDFW55uDgWJ7f5vEWgegWmWgA78KQn4C8sxMHOH/txqKoKK+1VDUmPsNMiL5L5/vxhd8d3WDrglCcWcKulYHMVbxqtLApdjVFZQjzhVQWcCLqlq8o2bNuK+a7aP3/uUpKYe++lfvu09zNMkTo0ibRXhS8wLcBZaRB6ptnwCuRaffgd3YBbuE0U1Eyom9kw7Rf+0KOaplfTvAWy+kz79vuUh0fQqfC0q52mBDQuyeRMpZ99Ny8FfqAVaNtJj5dAZx2s6V8YVGI2f69vcSyT9yxjTH/KpawjcmEzq4SiaBe+kMH8x7VKDLd9ydZrGShiWOQEmDMdPUtEyMz3tJDfT5F1rhjXXM3gokLV4IBYx1DzhqZh0Hg/HrQuWQV9O7jpCzeXe0Oic75mDxSCJm4VsM3P2E9QWMV2FxPeS8qTfxrcdgMF1JyxZcBfeuRguFlya9LFMQAG3qnpOV7d5Aip8YhrfVYv/pWbh+/l87YBb46FWeOi2zhW4wkPqhSpsqglyjFbi7VCE0fOxG+zIKy/Y8c+/sVvXbnnLjo1Ib/WmD6iFiRLiiUipMetC5Q/e+Qz+7KsnLXP+S2/lF4tAOvd53fsRJjfRXjBz44xlb54JCnTdeARh/F2UxwkoJmLwFGavn7nPDa7Eq+YOK6NKPzhWi0i+r9pQ9fdZ48GbaKjXFrg1gdQxWopei14svDLpLUCLFXWWHjPiAtE27CF5IouHjhyEC/u4g7x7R7cDXLwg8KhatrLMU0eryByUr/wBrwQgzhFhnD3/heXUmsSreEMPh+7g0j2U8IpMqqsBpDwZiOyzt5HE8ppInRHxvcLrAq84vMW3LRWHBZPDiAxAzA9pAMndLwWSdjEyzlKEgMCsZ5PNoO3qKdC39dprC9yacFWli+CdJksrVU0CLj6pGiOUlNEESqVogFEqi3Kud+3bAWXZt3biy5N29I2XPA/F+51byqW9OPmk2niYXkBFvckSZHE6ZDU5dW+D3INhxNElOueKUo0FkCPUnuW8nM71tiM8TLQQdJ7yt9vg/t55mHwWpPrJPwQUbAVbOmHJPUct0fII1BEX+jynJLY6Cz9Fx9oCtwZe0rqOQlrppas4PLCD+BUz6pDojCGSFMCV/L+bki+lyJ6gbcexL4IASkdnO7YsujS2ndQU+cJlmCqSGafjQuYM3g217ZPR62kCwbNm+Ewdh/OoKHLvCdzeeNWlpajbNAWSlgSH9ENwJr71gPftyaKq5HsxLD3nJGxMJQOVVihJ9PiYG6mrVUdClUZ9LQtcJdEqmn+Ao5yYZQ3/4pdc1qVKPXntgVsSlkLdPNuyu+GWmxhUNDJeEEBsTwBHLoZV8nkPy29FJVFBgtST96AN7trWRRHufk+48qxoJL5qNKeztZaoa4ez+xlLDt+xOP3bVWQc5Wfk7l4Bf8oeDP3Z7i1RSmk42yLJDFN64x10Hq6HdxBVI/vdJ0GnNqkc2gm8TSCFyPCDp3a8EP77EQDbvSS4ERvoaqYop0wBksKy0XOFGos+K1T266Tw1l4XFC4wVR75OvW0hGDNBvTLxChCF4wSxvSf/ldYJOFQ3F802lmDGxSvXV1HeTt+v6JXLySgzVnoaxDcQFKc2eIPkd840hdLXc5zzpN7sAwjsYHmSeI3kftPh/KvO7s77Pb12+RoQ4ZDQfDH739KI6Yfm/rVOK1DmPiU6XrWMt2HvfV02dVjVnH2fUBOVFHSVv5uu5816Bf3yhwAr9lH0sc2dsFytZUgEOF2jEajaZNLa01gSMrpTaJ2AuztGJAqWF5JyH++MfLdAjtGOjycFYP9Q3bx3CXsjybbvnOrA1EpuXpW5b2r09qJr07Z4ZcOoWVlvEZUBc86FAxTSZ2q+tvU/YESvARz1Uc96cWzFz13Z+eebb5wBFQZ8n4olYEFo9RgpUDcJs9H8Qcx2iptOMqTGYA6TvecpnZ1O9eRG1cRZV1HzzZ3E3u04H4cW89819Rgo5p4qz75l0uozlkM+wHA8Zggwccw5tTvUbkaGshnnt2HJ6XRC4KVf1JZGVAJF47QUIxNjVry2glLXTtGOioFCVGuiFSHQvooaFVuN3zf8tfHK/G1q0mrJBvuvux3nyKtCcm7X1tZkNpOUGHwk6tJVBmtTIJStEcUYAlzSWLN4uRGjweIqix695/f98LjyxeueJlcH79LE7VNsJM1NTfY2VPnAeBdB+v42JjdpjJJ7Lk3r9703U7pDHcogpaAeJ4mVb/9x3c9h+fKhat896yzY+k8sWVtguZicmLCK6KuX77h6RAz8JlXkGv/2ciYbUHAZFgww0Ojduf2XW+hMgW4797pxXU748+sguzO7nZ75cc/csBHx5Lg1hagpH6tNH1RKzM6ou0g+rOMGymBPyrbmnue/q2tSxa58jiKv6/PvEtXSFgTLGjUBgZBgxRtfX5NgZtyrzzUwQ7uVUpvvyQAl7e5Lo0/G0NRBcVZDMUqJkJFvHIJasCLBy8vqapi3+snLXXuIysbApjKA/HgSyCRYqgZLlEEYO/Dg7TCKJZ/WnRteapvcgRs5DLMC9jeVErXFX0caboEbZLSsVkEASmRrqsIYug1WWzVLvWZ7qUWfWKd5doqumghmUwpCFfOo05pXLbnbeDeoI1QXSQJOdhUD8tFud1Bug5TYTQuMs67fT6v46Pj/t3BgUE79+15exZeFQF5Oqw+EhAvA/DX3nrFLp277N/T65w7c8GlvxaRhIgke3NLo924eotdspo2KRec86WBhSVJrbYpos4QKdEE99dz6fmO0v2t2B5YFNw6UdvESbpoDQ0MW/f2Ttu2a5tvH4KD9CdtJw5WfvfH333ECx1gdbX4ItCWlmBCfQv3avG49ZM7rfKuXft2FiSgV7PwgAp9K1OvHGNO9x1l5X7y/ues/kNO9PiAxBTAUU3y6kVZqu4dKX5z969QsgabL3ONoahK8XFacUxjaAqU2iYLwBZIAWO8/4aVf/e+ld067W3yYnuP4t7rp6nrvaDtHV6dBHp03ps+iXsQsALoHK23cxBq5tTaewKfPf5sD+/LfhBwJa11/R3PWxlqiHMThgaoOh8L4Wqk6v7IlZJxSvqrB1Dz5sAe8H463JpFvHPPDp+DG/j7Vd/ZtbUTCc0iZB5VKiebREd9Y52NURgdRygJuFLXBNCOzg7f8SSoNGa/+OufOSB1rX0Te90jpQayqivVa7/xk9dc2qfpGCE1xtm8eD5FjqtrkfIH97pED3CSsbd/8WeWknBjTDQv41BjqDBbGHK9PzwWBbfAWYEF/dUnx6yXlSJdrOu7S2zNFYxLcNGq6kq7e7vXt+yzp0mo50U1EFu6tzAoHbzUJefwaNzQwGoLtjflcAyh2w0Pj7A7p6wPXaqtYyPG2wk7yGoXuY1YmXTPk1+ftAPPPeMS4CFwKxTfAseeSCSXkt4CZEhSE/Q6D7d2/72qYjQogSGkELqCNVJTpvCGTOAdycj/rMUuYAHI1JWvLHXxs4DTW22zm9rchRdXl7NOdho8J1I1XMWQuxCfdh7VxRFEnknu8olAXdFkSAWRVNYiUILYhk5LAuwkurhLaCRsZvguQZxvg+il7wit9H4nasnOsHyA65oInJZNYYOnQPfVbqptX/WlmrMUQN6G3q3ds3CEhmJkSLqkDK07kXP6LujjGSwUCTk1q+roancBp/8UCX75tSOW4b1UIC3siM+lYJyGxmdQgheweUkb8J2Ea0eUGXM3JheoRYJrcckdmPy+ArfwENvwILz3mw/Yprc6RZgoxURpUM4qEpWu3ujUsdNsQwAYA+jqRXSs0+ddn5LfuJUVuwPJL/eafq+taIytrBeJ3dfX79vMSYwVvYyKB9T7pR7vxAOgLn4j1TCKX69pU9DmeSHPCYDJwsGXuXrCPRFl2w7RjAmPi1r1UQiQpXtwoqXLkvSJDFpmB4lSHtcg2FNBBfoUKbBqyyEmqrLBW5Y6/zFJVTRlUkUMk6SW2QJ25twX3mjVu0DoR9U7/ne18Q7VFZcuik4CaPeCoIJIijZ1WmLLXkDNLqBODSHRfubeDZs98S4+b4CthaCj73qgxhx+hz6YNKFajgSXasQzxuh/M9cK01hLl1XymGjeIoDOBVLxvwVw7eYXzlz088sr8ftTiC11Ti5VCStdVzqzJHwXGoAaxgqIkuy6X5D0FVDTFQzN8CbLLSYqSXJLzIhocc/B3ZDRtLmvV5K3m+LXvl62Xx6kt+eeXYFW7I2fvurV4NJLRXOw79k9UBrU+YqVMSB6A6kaLS0U6vI96ddet8gWJwu9qgYPBAOkfwvk0v1k0GiVSiI8oHM/MLL8A+nt3gV5T+YCXIOmkPjFL4kEnvfPY2zzArJyqjMXvvD6RS2OOF0WEiyUYqAoCildvIbSM1EIp6nSmaYN9dTr/8WSSO6ynnP4x5EYlJ9lpf8D5JzaZxfSZENfmqsbGJrh7uECRumr9H6MNW62hBq2Iv29Wavr20EEVjtA5gKhfNSRRDd6uprBCuAKZrGgMpeOWZze7w/0sV8Mibq/xqCVAJCyF4sqeYq/prlNp0szXJ1IH6n8x99+ZGPj46gMSVcvpR9L9bgHG5fYaLUbyAN1F0HYgEojgZhkbgt2HOdLdZEkL7ZtFnudxT5bXC2RSgcwXn0TXTLcat545zW/nqq7ZWRePHsZCbwF1YEGSgItAxc9mD4/dORZ3+4i14+u07aF7VD6k4oDIh0JKembFn9Kf9dgSccXCOZbzYWX0nauSdIWfvNCAMzirDs9t4zYKnQ2j8LBq4dePEMPd++QoBZ9UiEUel4gr8L1YRm3IqJEHxfIMzXoiIfesSx9c/JnP7SEdGGpRx6YCVtxB3t08KgeWkc6qy+8noUcmXg9aat19OZRCD0qGStmWJVfd2DAI5kJgjapwz9xmmPX59G5Z2b/yXK0HJS6E6thB1vKi+L+YX7Ux0cNVZc6fxmo0hir4KMTVVRqzelvzvBz2vHRjKekEt1Z+vGVS1fN2NFFjRHD9fg8LkXt5NMIRA1zGk+JdvTM+FIV/ks/3JLeEl3CV6YbY4SgAbt8vjLwtBp37N3uRqW2Iz3wEOHiSvRwAde3NwwBbU1SmJy2TFt+6Mh/INLlfvn7nnmnQ4gMwCXeQ5Rn8C1YnjYcD3UoCI3FGL3ZY0MUFch7oVTUUdyIdFKIK/GogcmW3zzq6b7A/SKQS8tMyejEBZlr344lP2w5dgYvQC6UiwVASmx/Psjac9AL3JS5qY7Tc7lD3V/fmzc/hDs5jQMjI785wE+o+p7vZVmg+XS4ExSCRksMlK5FIlYMAn0/5hrWS+Nl3jN0GRl6EnjSpeVd670NESj/bdu5zTpw04mBS0Zgis+G8KZIsk9CItqJbSZPRxq3q3DRhOtRXZMfxbEkuL1JEon87mCXigAR5OXzV9Gryt2BvxnDT2EtqQ7Slb/E+JT/U1vTHQzN/YcIE6sREQtCdGOyqBdUMea8UannafI9oNWM7q2mUOI3EXjCxKr0xa8se/l4KKlYNIA5TwcFSXF9MY+xlh+8bWnUkzLpsOLtWGC7Dh4xZOvzfBR4sklrneU7mXP4qdVTRnkigfXjqob6w3u2n4MpqHkMCp3vL+b5UcPOxjPGqrA7SIedOfmeN3pVtfzsqfdo630XPzkBFD3vUlLYe/mQq72520v2Fn+/8C1D4bLUPMhQjzMOv/7bvyxEJ//qP/B3GX9SrSTQwp1f4+VGIlgSpqSiyuAMfJyBwSiW3EdxLOEKlLTNu34taS12pDb6r+jm0rPr6mrsLP5Md5MxWbtp3yzdWj7KnhuEjjmu4Zgf6BtwZqZOXEqP7fDBY4BQT9z1ppxvFpiqX3Ke/4w0kPsMoLjqQpV7UD0OQFXZgiSXgZYjAUp930uZ/GA2pJeyuLv2UzCAAXYm6CUfsEZJxwr155Vk7vFsMnwTXDvLwsleP2UZ7AKpUbk7l7AdcDV2452Rnr6YQamFhOsx1r4j6JNZQssTNxKZe0UIfecN4eeajaICgNSbTOn3KnYu8mIEiwHXryjifIwC0ErdjFMh4tcO1cWE5ixUSSNsSIUNNjXZK4G6Gu36y8HPkjq3pHU3rZijQzeRo15SWAaDWJa0AvX7WsAucFfAaCq/ZfBAhm98q0tsuQCXkgLLefiHztWAyW3Vvi1w+9Hv0Y0zpZdSNZ+gQ7DC3g52ZepN4u0g1TS+iTCzG6QjK0sf1UtKZaC1duyFn5H2+jlpr6Snrnbb9+/jywXcWixxStTi6OiWBfC7XkJnxx3YtmPxhagdSDbJZjww1fjLFwF25KoToDSnt27ccm9WM94u+bcjt1xc3icxZ+HpkOQth55Ogk80clJF1atHGJDzQW5EfSbaZvmqpb4qhK8mVdKvBfQEcyEmLn0WYURqrdQbdxHyPFKDI992qRhZUi2Jtgpfom74x9xAcEPQt5vgVm4ISgpqy5bRiLpSrDNrYILgz2M+PC0WCd2x3fK3MV7wUMS7Dpj133LfcF6eDE9ikn+ZH7npkPRximwVyIijm5cstee+CgCPs/VLdZhFimcvfu3uxlUdUn2ko8vlyK6Su43RrPEWY9UmDOKIrH6+mwjYipbSLzOmPPgFgB0ER3J2+9ptj1HIq6VAyyCRySl2bO3CDUQmFT0UyDXP8nCUV6BD8+8AB+zwISe5hFo1nOViwJXHTLEPBe+eIxinkPudnrvuSnaHgpi7lD2J67CmNuBgHB8nMKTAmYfyq/GyDNpzLz3rrmR9p9SjJHD7xYrUQ5fUCwA1Mgrn+ipLfaBHcp6SbQRwpJWOlKKDGI453GhZJKp3KfPkIz6UukDykjoFB4vUxdbKHwMwx8QqiyGZAeCuBqzmeuHgx8gvyaBjuyuQ547LfbhYG2tXvQAeqki8rmHRZwj04Rh5JKK5ICAl/z5BM4FJrjyV3o0ScLtJxLIO9VJtAn2Y+E8R6AyOaC0O5aFoYbg0R5VpwvYS8KeJVyiNQbt8MwSgCt9LIrudBvBnCM9LRWwi0Dc0MIJvgDbfktqovzpX5P5uq3nKQelH6eAu/Zo/jDMlwSVVJMF7rllsDM9IFe6oQ7jTFC2Ecswjfbjl5M1w/ftRZdt5chP1jfiu8/LAyOBTmkCJ3p+HBlD5K0qwInkqc/ZjDwYl9/0INyIenvmaMwnYkY6tPjtLEmcGj6agXLTbSvrK0HOV2PNGmtxRoMINxTKkjwfrLhBngUoTamLRX9xTFb6NB3rC5rL8PQyTBR+G50sLaCeWUlDUdV7IqRipvssB19MLbo2CAK5tmaao+V5ST8nlSLZsMUPHLiQhKdjiZV2rVB8eGvXAI6J2I4WayNAjsJwJKpyLflvWsSeIRgK2OIvyIWALHdolxKHShirCYl5O5HJuJLhgHyGVlWZRU0eeOWqBdOOHF2Bpb7WkzfUINdenG9wuWRQQIl+Dsq2ccj2gRfDMvVUUOZQ2jdFZgb979UfggXCD0j2KcwDmvm4WqhiwiD4qN7wUr0ipzxW1Jiz1/B/CeU8/uMOt01WQDUg9SHOcn89rElUVcz+L7IcwIYs/g3aDOaCOpDUJbjHtSvAXehKYAlt/4sefBrhDgKvTADmUtBGjLd4gzUxVxiVizULZ1xpDgxuqKKxELV1aiy3KHdHrwNZM/umAO8Kt6+G89kaknEL298gmJByvCpl5eft+iHiXVBaAxWRF0lisIK1X4eX5Ib7nKp/pTw/cxVJcFBGdNe498ZC9sgolDeU5WalnY5UTsvDXZSyG+rvcnFTQxETAqdRYgX3V7sbH9uBP7MJ/muAuSPHQNcW2nld+N0lf7rJT6qp3GGDLf9I6uSS0QK2Kc6kd1I4qyauggpQQSn9i6HrCN/7TBndkbIp6AVVFkjCvwmNJ8BGk+QQh+WKOke8L6G4kBqV8HmFUi8J6QC0XnyS1e0vWVZCl1s46uKMRckNMJPe4DaE6yKtoVrTDAjhdzFyae2QzcMnd76oWZLOt6gjvHbDA6tpMC/nixm4ijhanf3CCe4F63VgsdazXwT13pCKQC8CK8kkVQL/NKQdF3RCUYKWiBKWwRrTEhSicLhaC3aNuoeEXSeJoHRT7vfU7+dwlocVWpaKJKoCte7svPtSz10FdKqYL562De8EhC0HlwCV4UkGOiAOdkLf0XFWsz6g2ksZQZLe5VFeeingzorwVAdL5R/A7K88jJOkJwEzEVIEWpeGKxkx+aj83zFCL/NfLntL1L0QjsA7ukrAQeiqic6V7A3QvDxP0I99y5LUoqBl8LzJKxbFSyEYMCykKHploIQXV9+vHoxmBdXCvZBwj8D7wXSSukuyjsH5BBdFJIcgduCF6XWVZyc3Xv1PqCKyDu9SRWvI8Sd9i8M75wiPJL1nyIdZPKBqBdXCvw+GpHYF1cD+1U7v+YuvgXsfAUzsCTxzcIj5Mqi01ngZVd5RSnqaUzrIU5U1wXaiKeu6h+k4VpqryQ1RwxYcT9MjD4XWDjyLKFzDRqlh27rPoXno30fsGRI0U1C5QnucEkGLInfM+YhbQ84rpdt535bqi1JC+HxFULoZW3UdV6QHRUUjkXvQFXSsq7J7vOk6OynsVj53qHZN0nZhvvHUNVc/7O6ig+Puoow0f/ImCW4PU19MDT+CwVVMjV1nfYG00PI0YR71wKSxB0sSK60KDOgll1/Ur/dbStolC1CJ2J3+pGFmsk/bdictW09wCgTqsVQxqRCw0Rb2eKrQnxqdorrqR+krxaAQLpNA5IKqGVrmz0y1nfJGI+sujmN5ZAHoDgDJLYOfc6YvU4G61DU3VXBtaYlE9AMoZCl3PnbsBMVGzTQwPWgUh9M5Ocsp1P/hSnOpAPB4UHty9TRFua6tViUZBrw2IMvjRr5y/aJPTGYhtOrl+XbhYg8LsFAW6d65es567g9yv3HYd2GMpx3kQRS2urBFxkqpohnp7rbd/xJpaW6yhoRZSU5WMBSwFKv4SJXA5HOTl5SE0+EBCR++s86YY+9GxKdsocnkYo7ToJkZH7OrlW7TI3GxdW6BCg1THhQjvMMt4X/j2rM1kY96tubEhYEX4Po4nCu6UCH5OnbZPTtywI0f2Wjp7227WwsWXzgJacVTDVchAzWbyFJ/WQX08ZDsP7LfK7Kj99v++a3/xH/+N1VbDTRj2jdT0VNNi74//8K6N5OvscG2lfUrj1Aoma5IQej5eadOwTA2NzVhraxOcKtf4bprvEA1kIlT8mp4Ys6lZGKVSTBz3zVCkWka51t79u+zGxbPWN0h0knOrIHsUkAWlC+cu2uDwhGUJ1+84uN/K0qN2+eo9m4R882b/tD23t93e+8Mx++nf/IUd/+Rzm5yh9w4V9wqplwPKmuqU3aIafHMn1Ah0JVAZV4Zs5BdfOmBf/P4Dm67e6P16zp6cpDi3Fi7GScoyq1jkE3bz8mUbHp1ikSa8f+bkBM9Ha6qp6TyUHLA59cHHgnQfB5CHIZ88/sGHdn0kZvVVgG3rNqtOZG18ktaFNZUu0b87dc72PLvfxyFHO5GMaIWR5jGCTs2wRNWUx+0iHI5XL16yyams00uf+vgL6x+esslvIDfdrt5BKUvAnzg5G2Ne99mH//qu3RvP26tvvW6vv3nIKR++j+OJgttXNmHtJJx9LS219i//8KElGeCNnVssDZ9IX88QPWfMDjIpw7dv2KkLd62xvdP2b210iZtGEo0PDdiXn59iHSB3kIIH4Qcf7h+2GrhWJvrvwe/9DQAqY6CpsM5Q4U2RawXAvHl11AaHxlw6TiHFVYldj2RNcl21pZiFeTU9TYW2tmm6DXfDh/jx7z+xXUeOWM+F0zY0GbMRCB5f+vM3rSKZt09//6FlIfrZ0NllQxdO2ZcnrqM2TVn3s8/aNsiKPvv4ON//wMbg9qhvqrWevnH71V+/Yx/8029t+4GDNtBzC8J2KKIhirx27gIcKJvt2ef3co20ZQAiPdfso9994FQJjRs3G8Nlnx+7jCRMEbWvJvVlxN79xz/AllYPNcKwTY1O23fHGq0ZSuJseth6BiAw3bvbtu/bY6f+7j27O5u1tu4u++KzY9a1a4+dOwZfXy7FoknZha+P2aUb0E43Qs8AaF9984h9/YeP7dBbP7UDW2vs0ndnWaBZdqNJrt/GIptE9aiyMWpUP/nwC8jlX7dTH35i6bot9uLLBxjHGYicArWkkJ7wPaD7iYJb3BctHZ324231tqWtxvbs3OIk5dlczPbs30ukG345CF92IDXLs3DzwSnStaUF6TRmmzqpFSQzrrKh1V5+46gHArW1lsMQexQy89Onr9hYopreLc8ilaqQspBXIolFFjQxSosPtvSOrGjY1MEsQ0v2cdvY0U4OCZTDgBTuUaRpn9P4TrGTlFHxvf/wXsuj6ze1brI22GCrc+M2zhbbtWMXKtIWFkTCOjtarSa/w6Zi1b77pFgwE2PTvMMzTl0wDE9ePW1Ito3CswjFbyz9utVuaLXeRogtxarKOzQefY7vbUBFKbOdB5+x8Qzd1qzcXnr1SKBCsYjbNm+wowiFGklwFqNUPCeHVw96EefDw6d3FQ10eQX82Gm4SFhUtwYT9tyPXvD3lgp04Dn4QFDP8iSG1bVoh6DPDNdq7U7bNLtd/1dnLZOPo951Q2HdwS6ThR+ScRAxD7tqY3O9bUL4nDx12Z5//SV4/4Z9DL5VUJfPp1Gp9kOG2pWOWWcXHdqK2no8bnw/UXBLj91z+JBv7ZK6P/3VO7Zr/27owap8S9VWK8Q66yvo7di2I5jcVIP9nC1eBppK/0V5HB2a4Lbubda6Beo2+EMUKY/YY6WJRkScgU4YfKuYicD1QdVb8t8L4uZwxlkBhy34jVeoLR63HvTGje2bXZ0QiYyMNKnhWiROT7Bjp3Xw4zRjMtz4/etvww4VGrnSYUXhLPVj//OH/NpbWKx+DTUvkm3B2OhRXvyz1z0BS3/fR7cC6cVOTMM5u56ha4PyXpx/Qas7MBKD7mHByznlmWgVXK9GVdm907btUycE3Z9nF9sTn22HFSy4hN6f6npsgj7Ic7p2w1nO7ysBd0dbg9/j9Z+8URi4gKm32d5GSAXdMxKul//41z9HOcJZAPnl63/+tuvt+m85pDqrBf8TBXc0+MFLMCkkD+05AE8fg+AtJ5zts6hFXFF1jCYtcizMNVAEsqB7AgDBkJnrgfDJLpYgDuYA+AEoQgMrvJ/4vfWZdpokVTCiVhbonYZXXhd5Adz2DZKeIn4O73/jqycAmr4fgS6iR7jv4QCYfmrA/hRtRREfnxO1zwaGmLPjhqDVs7IhFe4TeSUimzhg0g34DP0Ief0CmjLZFUHBsfJjovfnTjxLDE7/TdbCIo4EQuQhyXg2ZPheLnzCBQRrlMCblHH7zJ7CPEb3WpLWIXyNR/XHEwd38YtIasw+ZEnfd/UVD85SA3X/84ddhQ99VxMbPshS93BCxyL3YuF8j77P/6y6dHRe6c9deKCHUlAWvFbRexRSWAquxSinZfF3LR43LVL9PHTcH6zCR3PHba5bcqn3flSALr7O/weyy6BARKMjHAAAAABJRU5ErkJggg==&quot; alt=&quot;图表, 图示&lt;br/&gt;&lt;br/&gt;AI 生成的内容可能不正确。&quot;&gt;&lt;/span&gt;&lt;/span&gt;&lt;span style=&quot;mso-bookmark:OLE_LINK22&quot;&gt;&lt;span lang=&quot;EN-US&quot; style=&quot;font-size:11.0pt;&lt;br/&gt;  mso-ligatures:standardcontextual;mso-no-proof:yes&quot;&gt;&lt;img width=&quot;44&quot; height=&quot;86&quot; src=&quot;data:image/png;base64,/9j/4AAQSkZJRgABAQEAeAB4AAD/2wBDAAoHBwgHBgoICAgLCgoLDhgQDg0NDh0VFhEYIx8lJCIfIiEmKzcvJik0KSEiMEExNDk7Pj4+JS5ESUM8SDc9Pjv/wAALCABsADcBAREA/8QAHwAAAQUBAQEBAQEAAAAAAAAAAAECAwQFBgcICQoL/8QAtRAAAgEDAwIEAwUFBAQAAAF9AQIDAAQRBRIhMUEGE1FhByJxFDKBkaEII0KxwRVS0fAkM2JyggkKFhcYGRolJicoKSo0NTY3ODk6Q0RFRkdISUpTVFVWV1hZWmNkZWZnaGlqc3R1dnd4eXqDhIWGh4iJipKTlJWWl5iZmqKjpKWmp6ipqrKztLW2t7i5usLDxMXGx8jJytLT1NXW19jZ2uHi4+Tl5ufo6erx8vP09fb3+Pn6/9oACAEBAAA/APY1RSoJHNUJ79oZ3jFoHC9GEo549O1MTU5XLAac5KjOFkUk/lWhFiSJXMZQsMlT1FPKLj7tY66xPhhLpbQuF3BZJlG6rtpcNdWYneAwNuI27g3Q4zkevWrafcH0qs+l2MkryvbIzucsTnk0+3sba0LG3hWMt1x3qxRVa4tbSd1a4jRmA4LH6/4mljgt7e3KWyIiFi2E6ZJyamT7g+lOoooqOaCOddsig+/emCGOCEpGuFznGalT7g+lRtdRIxU78j0jY/0pPtcP/TT/AL9N/hR9sh/6af8Aftv8KPtcP/TT/v03+FH2yH/pp/36b/CnGRZYiy5xnupH86en3B9KxrmC8N5KYpgqM3AN6ykdOg28fSovs2oTbkabHQZW/bBGOv3c5qWBL6HLeckpJxh70kY/75qJLa+3ANcgLu4237cD8V5rSggggmEv2+aT5cbZJ8qffHrVp2V4yVYMM9jTk+4PpUX2SDzjKUyx65OR+VSCGIHIjQH2UUn2eH/nin/fIo8iH/nin/fIo8iH/nkn/fIodVSMhVCjPQDFOT7g+lOoooopkv3DSp9wfSnUUUUUyX7hpU+4PpTqKKKKZL9w0qfcH0p1FFFFMl+4aVPuD6U6iiiimS/cNKn3B9Kja6iRipLZHXCMf6Un2yH1f/v23+FH2yH1f/v23+FH2yH1f/v23+FH2yH1f/v23+FOMiyxFlzjPcEfzp6fcH0rzvVtYuE1bUk/4Saa28qYqIVAxCPy/Hn1rttCme40GxmknM7SQIxlIx5nH3se/WtCmuGZCEbax6HGcVTa0kXOb+RST3P/ANepYkMdsVMxm5+8f5UnnuvAxxVaS2tJXaSSytndjks0QJP41YSUxoqIiKqjAVRgAUv2h/b8qPtD+35U15PMxvRGx0yuaFfA2Kiqp7KMV//Z&quot; alt=&quot;文本, 信件&lt;br/&gt;&lt;br/&gt;AI 生成的内容可能不正确。&quot;&gt;&lt;/span&gt;&lt;/span&gt;&lt;span style=&quot;mso-bookmark:OLE_LINK22&quot;&gt;&lt;span lang=&quot;EN-US&quot; style=&quot;font-size:12.0pt;&lt;br/&gt;  mso-bidi-font-size:11.0pt;font-family:&amp;quot;Times New Roman&amp;quot;,serif;mso-fareast-font-family:&lt;br/&gt;  仿宋&quot;&gt;&lt;/span&gt;&lt;/span&gt;&lt;/p&gt;&lt;br&gt;  &lt;/td&gt;   &lt;/tr&gt; &lt;tr style=&quot;mso-yfti-irow:1;mso-yfti-lastrow:yes&quot;&gt;  &lt;td width=&quot;85&quot; style=&quot;width:63.55pt;padding:0cm 5.4pt 0cm 5.4pt&quot;&gt;&lt;br&gt;  &lt;p class=&quot;MsoNormal&quot; align=&quot;center&quot; style=&quot;text-align:center&quot;&gt;&lt;span style=&quot;mso-bookmark:OLE_LINK22&quot;&gt;&lt;span style=&quot;font-size:9.0pt;mso-bidi-font-size:&lt;br/&gt;  8.0pt;font-family:仿宋;mso-ascii-font-family:&amp;quot;Times New Roman&amp;quot;;mso-hansi-font-family:&lt;br/&gt;  &amp;quot;Times New Roman&amp;quot;;mso-bidi-font-family:&amp;quot;Times New Roman&amp;quot;&quot;&gt;图&lt;/span&gt;&lt;/span&gt;&lt;span style=&quot;mso-bookmark:OLE_LINK22&quot;&gt;&lt;span lang=&quot;EN-US&quot; style=&quot;font-size:9.0pt;&lt;br/&gt;  mso-bidi-font-size:8.0pt;font-family:&amp;quot;Times New Roman&amp;quot;,serif;mso-fareast-font-family:&lt;br/&gt;  仿宋&quot;&gt;21&lt;/span&gt;&lt;/span&gt;&lt;span style=&quot;mso-bookmark:OLE_LINK22&quot;&gt;&lt;span style=&quot;font-size:9.0pt;mso-bidi-font-size:8.0pt;font-family:仿宋;mso-ascii-font-family:&lt;br/&gt;  &amp;quot;Times New Roman&amp;quot;;mso-hansi-font-family:&amp;quot;Times New Roman&amp;quot;;mso-bidi-font-family:&lt;br/&gt;  &amp;quot;Times New Roman&amp;quot;&quot;&gt;五位一体设计要素&lt;/span&gt;&lt;/span&gt;&lt;span style=&quot;mso-bookmark:OLE_LINK22&quot;&gt;&lt;span lang=&quot;EN-US&quot; style=&quot;font-size:9.0pt;mso-bidi-font-size:8.0pt;font-family:&amp;quot;Times New Roman&amp;quot;,serif;&lt;br/&gt;  mso-fareast-font-family:仿宋&quot;&gt;&lt;/span&gt;&lt;/span&gt;&lt;/p&gt;&lt;br&gt;  &lt;/td&gt;    &lt;td width=&quot;142&quot; style=&quot;width:106.3pt;padding:0cm 5.4pt 0cm 5.4pt&quot;&gt;&lt;br&gt;  &lt;p class=&quot;MsoNormal&quot; align=&quot;center&quot; style=&quot;text-align:center&quot;&gt;&lt;span style=&quot;mso-bookmark:OLE_LINK22&quot;&gt;&lt;span style=&quot;font-size:9.0pt;mso-bidi-font-size:&lt;br/&gt;  8.0pt;font-family:仿宋;mso-ascii-font-family:&amp;quot;Times New Roman&amp;quot;;mso-hansi-font-family:&lt;br/&gt;  &amp;quot;Times New Roman&amp;quot;;mso-bidi-font-family:&amp;quot;Times New Roman&amp;quot;&quot;&gt;图&lt;/span&gt;&lt;/span&gt;&lt;span style=&quot;mso-bookmark:OLE_LINK22&quot;&gt;&lt;span lang=&quot;EN-US&quot; style=&quot;font-size:9.0pt;&lt;br/&gt;  mso-bidi-font-size:8.0pt;font-family:&amp;quot;Times New Roman&amp;quot;,serif;mso-fareast-font-family:&lt;br/&gt;  仿宋&quot;&gt;22&lt;/span&gt;&lt;/span&gt;&lt;span style=&quot;mso-bookmark:OLE_LINK22&quot;&gt;&lt;span style=&quot;font-size:9.0pt;mso-bidi-font-size:8.0pt;font-family:仿宋;mso-ascii-font-family:&lt;br/&gt;  &amp;quot;Times New Roman&amp;quot;;mso-hansi-font-family:&amp;quot;Times New Roman&amp;quot;;mso-bidi-font-family:&lt;br/&gt;  &amp;quot;Times New Roman&amp;quot;&quot;&gt;通用性与时效性的系统设计方法&lt;/span&gt;&lt;/span&gt;&lt;span style=&quot;mso-bookmark:&lt;br/&gt;  OLE_LINK22&quot;&gt;&lt;span lang=&quot;EN-US&quot; style=&quot;font-size:9.0pt;mso-bidi-font-size:8.0pt;&lt;br/&gt;  font-family:&amp;quot;Times New Roman&amp;quot;,serif;mso-fareast-font-family:仿宋&quot;&gt;&lt;/span&gt;&lt;/span&gt;&lt;/p&gt;&lt;br&gt;  &lt;/td&gt;    &lt;td width=&quot;113&quot; style=&quot;width:3.0cm;padding:0cm 5.4pt 0cm 5.4pt&quot;&gt;&lt;br&gt;  &lt;p class=&quot;MsoNormal&quot; align=&quot;center&quot; style=&quot;text-align:center&quot;&gt;&lt;span style=&quot;mso-bookmark:OLE_LINK22&quot;&gt;&lt;span style=&quot;font-size:9.0pt;mso-bidi-font-size:&lt;br/&gt;  8.0pt;font-family:仿宋;mso-ascii-font-family:&amp;quot;Times New Roman&amp;quot;;mso-hansi-font-family:&lt;br/&gt;  &amp;quot;Times New Roman&amp;quot;;mso-bidi-font-family:&amp;quot;Times New Roman&amp;quot;&quot;&gt;图&lt;/span&gt;&lt;/span&gt;&lt;span style=&quot;mso-bookmark:OLE_LINK22&quot;&gt;&lt;span lang=&quot;EN-US&quot; style=&quot;font-size:9.0pt;&lt;br/&gt;  mso-bidi-font-size:8.0pt;font-family:&amp;quot;Times New Roman&amp;quot;,serif;mso-fareast-font-family:&lt;br/&gt;  仿宋&quot;&gt;23&lt;/span&gt;&lt;/span&gt;&lt;span style=&quot;mso-bookmark:OLE_LINK22&quot;&gt;&lt;span style=&quot;font-size:9.0pt;mso-bidi-font-size:8.0pt;font-family:仿宋;mso-ascii-font-family:&lt;br/&gt;  &amp;quot;Times New Roman&amp;quot;;mso-hansi-font-family:&amp;quot;Times New Roman&amp;quot;;mso-bidi-font-family:&lt;br/&gt;  &amp;quot;Times New Roman&amp;quot;&quot;&gt;彰显文化自信的标识版面&lt;/span&gt;&lt;/span&gt;&lt;span style=&quot;mso-bookmark:OLE_LINK22&quot;&gt;&lt;span lang=&quot;EN-US&quot; style=&quot;font-size:9.0pt;mso-bidi-font-size:8.0pt;font-family:&amp;quot;Times New Roman&amp;quot;,serif;&lt;br/&gt;  mso-fareast-font-family:仿宋&quot;&gt;&lt;/span&gt;&lt;/span&gt;&lt;/p&gt;&lt;br&gt;  &lt;/td&gt;    &lt;td width=&quot;213&quot; style=&quot;width:159.9pt;padding:0cm 5.4pt 0cm 5.4pt&quot;&gt;&lt;br&gt;  &lt;p class=&quot;MsoNormal&quot; align=&quot;center&quot; style=&quot;text-align:center&quot;&gt;&lt;span style=&quot;mso-bookmark:OLE_LINK22&quot;&gt;&lt;span style=&quot;font-size:9.0pt;mso-bidi-font-size:&lt;br/&gt;  8.0pt;font-family:仿宋;mso-ascii-font-family:&amp;quot;Times New Roman&amp;quot;;mso-hansi-font-family:&lt;br/&gt;  &amp;quot;Times New Roman&amp;quot;;mso-bidi-font-family:&amp;quot;Times New Roman&amp;quot;&quot;&gt;图&lt;/span&gt;&lt;/span&gt;&lt;span style=&quot;mso-bookmark:OLE_LINK22&quot;&gt;&lt;span lang=&quot;EN-US&quot; style=&quot;font-size:9.0pt;&lt;br/&gt;  mso-bidi-font-size:8.0pt;font-family:&amp;quot;Times New Roman&amp;quot;,serif;mso-fareast-font-family:&lt;br/&gt;  仿宋&quot;&gt;24 ISO/TR 7179&lt;/span&gt;&lt;/span&gt;&lt;span style=&quot;mso-bookmark:OLE_LINK22&quot;&gt;&lt;span style=&quot;font-size:9.0pt;mso-bidi-font-size:8.0pt;font-family:仿宋;mso-ascii-font-family:&lt;br/&gt;  &amp;quot;Times New Roman&amp;quot;;mso-hansi-font-family:&amp;quot;Times New Roman&amp;quot;;mso-bidi-font-family:&lt;br/&gt;  &amp;quot;Times New Roman&amp;quot;&quot;&gt;国际标准&lt;/span&gt;&lt;/span&gt;&lt;span style=&quot;mso-bookmark:OLE_LINK22&quot;&gt;&lt;span lang=&quot;EN-US&quot; style=&quot;font-size:9.0pt;mso-bidi-font-size:8.0pt;font-family:&amp;quot;Times New Roman&amp;quot;,serif;&lt;br/&gt;  mso-fareast-font-family:仿宋&quot;&gt;&lt;/span&gt;&lt;/span&gt;&lt;/p&gt;&lt;br&gt;  &lt;/td&gt;   &lt;/tr&gt;&lt;/tbody&gt;&lt;/table&gt;" style="text;whiteSpace=wrap;html=1;" vertex="1" parent="1">
          <mxGeometry x="10" y="30" width="560" height="2040" as="geometry" />
        </mxCell>
      </root>
    </mxGraphModel>
  </diagram>
</mxfile>
